<svg width="153" height="36" viewBox="0 0 153 36" fill="none" xmlns="http://www.w3.org/2000/svg">
<path d="M53.9489 23.4027C58.3163 23.4027 61.2163 21.3763 61.2163 17.8824C61.2163 14.3759 58.3348 13.2785 55.5685 12.4532L55.25 12.3591C52.8148 11.6448 50.5599 11.079 50.5599 9.18256C50.5599 7.68018 51.7827 6.73683 53.914 6.73683C55.7658 6.73683 57.0935 7.50548 57.6874 9.14762L60.5175 8.02957C59.7139 5.58384 57.3031 4.22122 53.9489 4.22122C49.896 4.22122 47.2756 6.1778 47.2756 9.35725C47.2756 15.6812 57.8621 13.6897 57.8621 18.1269C57.8621 19.839 56.3597 20.8172 54.0538 20.8172C51.5032 20.8172 49.7912 19.6992 49.1972 17.8125L46.3672 18.9305C47.3455 21.8654 50.1406 23.4027 53.9489 23.4027ZM81.1548 29.2725V4.60555H78.3946V8.02957C76.9272 5.65372 74.4814 4.22122 71.4068 4.22122C66.166 4.22122 62.4275 8.34402 62.4275 13.8294C62.4275 19.3149 66.2708 23.4027 71.4767 23.4027C74.3766 23.4027 76.7175 22.11 78.185 19.9787V29.2725H81.1548ZM71.8261 20.7823C68.1225 20.7823 65.3624 17.8125 65.3624 13.8294C65.3624 9.81146 68.1225 6.84164 71.8261 6.84164C75.6344 6.84164 78.2898 9.74158 78.2898 13.8294C78.2898 17.9173 75.6694 20.7823 71.8261 20.7823ZM92.0441 23.4027C94.7693 23.4027 96.9705 22.11 98.1934 20.398V23.0184H101.023V4.60555H98.0536V16.1704C98.0187 18.5113 95.9223 20.7474 92.8128 20.7474C89.6682 20.7823 87.6767 18.7209 87.6767 15.6113V4.60555H84.7069V15.9607C84.7069 20.3281 87.3273 23.4027 92.0441 23.4027ZM112.716 23.4027C115.826 23.4027 118.237 21.9353 119.634 19.4896V23.0184H122.394V4.60555H119.634V8.16932C118.237 5.79347 115.826 4.39591 112.716 4.39591C107.51 4.39591 103.667 8.34402 103.667 13.7945C103.667 19.3149 107.475 23.4027 112.716 23.4027ZM113.066 20.7823C109.362 20.7823 106.602 17.8125 106.602 13.7945C106.602 9.8464 109.362 6.84164 113.066 6.84164C116.909 6.84164 119.529 9.70664 119.529 13.7945C119.529 17.9173 116.874 20.7823 113.066 20.7823ZM129.161 23.0184V11.9078C129.161 9.28737 131.502 7.01634 134.856 6.9814V4.22122C132.271 4.22122 130.174 5.58384 128.986 7.29585V4.60555H126.191V23.0184H129.161ZM144.103 23.4377C148.471 23.4377 151.021 21.551 152.384 18.9305L149.798 17.3583C148.89 19.4896 147.213 20.6425 144.208 20.6425C140.819 20.6425 138.129 18.3366 137.605 14.9126H152.908C152.943 14.5632 152.978 13.9343 152.978 13.4102C152.978 8.55365 149.449 4.18628 143.894 4.18628C138.688 4.18628 134.6 8.48378 134.6 13.8294C134.6 19.3149 138.443 23.4377 144.103 23.4377ZM149.938 12.3271H137.639C138.199 8.83317 140.889 6.77176 143.998 6.77176C147.073 6.77176 149.484 8.8681 149.938 12.3271Z" fill="#637381"/>
<path d="M89.0752 34.2639C89.1708 34.2639 89.2718 34.2577 89.3782 34.2454C89.4847 34.2332 89.6007 34.2147 89.7262 34.1902V33.8708H89.6525C89.3059 33.8708 89.0588 33.8292 88.9114 33.7459C88.764 33.6627 88.648 33.5064 88.5634 33.2771C88.5252 33.1816 88.4733 32.9885 88.4078 32.6978C88.3423 32.4071 88.2632 32.1866 88.1704 32.0365C88.0885 31.9 87.9766 31.7861 87.8346 31.6946C87.6927 31.6032 87.5166 31.5288 87.3064 31.4715C87.7568 31.3732 88.0953 31.2074 88.3219 30.974C88.5484 30.7406 88.6617 30.4424 88.6617 30.0794C88.6617 29.5689 88.4965 29.1902 88.1663 28.9432C87.836 28.6961 87.3283 28.5726 86.6431 28.5726H84.5059V28.9084L84.9808 28.9575L85.1241 29.0762V33.6947L84.9808 33.8135L84.5059 33.8544V34.1984H86.4998V33.8544L86.0208 33.8135L85.8775 33.6947V31.7008L85.9061 31.6967C86.0863 31.6885 86.2173 31.6844 86.2992 31.6844C86.6841 31.6844 86.9714 31.7499 87.1611 31.8809C87.3508 32.0119 87.5016 32.2481 87.6135 32.5893C87.6435 32.6793 87.6831 32.8158 87.7323 32.9987C87.8633 33.5064 88.0284 33.8476 88.2277 34.0223C88.3232 34.1042 88.4399 34.1649 88.5778 34.2045C88.7156 34.2441 88.8814 34.2639 89.0752 34.2639ZM86.3402 31.3036C86.2692 31.3036 86.1955 31.3029 86.1191 31.3016C86.0426 31.3002 85.9621 31.2981 85.8775 31.2954V28.9575H86.2828C86.826 28.9575 87.2191 29.0517 87.462 29.24C87.705 29.4284 87.8264 29.7314 87.8264 30.149C87.8264 30.553 87.7084 30.8464 87.4723 31.0293C87.2362 31.2122 86.8588 31.3036 86.3402 31.3036ZM91.2442 34.2721C91.5144 34.2721 91.7833 34.2297 92.0508 34.1451C92.3183 34.0605 92.5762 33.9363 92.8246 33.7725V33.3099C92.5735 33.4764 92.3408 33.5992 92.1265 33.6784C91.9122 33.7575 91.7055 33.7971 91.5062 33.7971C91.0749 33.7971 90.7324 33.6436 90.4785 33.3365C90.2247 33.0294 90.0977 32.6125 90.0977 32.0856V31.9915H92.8123C92.8178 31.9587 92.8212 31.9246 92.8226 31.8891C92.8239 31.8536 92.8246 31.8018 92.8246 31.7335C92.8246 31.2231 92.6888 30.8198 92.4172 30.5236C92.1456 30.2275 91.7778 30.0794 91.3138 30.0794C90.746 30.0794 90.2813 30.278 89.9196 30.6751C89.558 31.0723 89.3771 31.5848 89.3771 32.2126C89.3771 32.824 89.5498 33.3201 89.8951 33.7009C90.2404 34.0817 90.6901 34.2721 91.2442 34.2721ZM92.0753 31.6393H90.1387C90.1632 31.2981 90.2772 31.0163 90.4806 30.7939C90.6839 30.5714 90.9248 30.4602 91.2032 30.4602C91.4871 30.4602 91.7034 30.5502 91.8522 30.7304C92.001 30.9105 92.0753 31.1699 92.0753 31.5083V31.6393ZM94.3303 34.2557C94.5268 34.2557 94.7377 34.2113 94.9629 34.1226C95.188 34.0339 95.4358 33.8967 95.706 33.7111L95.8165 34.1984H96.9957V33.8954L96.5535 33.8544L96.4102 33.7193V31.2872C96.4102 30.8641 96.3106 30.5571 96.1113 30.366C95.9121 30.1749 95.5927 30.0794 95.1532 30.0794C94.6537 30.0794 94.2463 30.1695 93.9311 30.3496C93.6158 30.5298 93.4582 30.7563 93.4582 31.0293C93.4582 31.1275 93.4766 31.1951 93.5134 31.232C93.5503 31.2688 93.6192 31.2872 93.7202 31.2872H94.2975V30.583C94.4094 30.5393 94.5172 30.5066 94.621 30.4847C94.7247 30.4629 94.8298 30.452 94.9362 30.452C95.2201 30.452 95.4194 30.5202 95.534 30.6567C95.6487 30.7932 95.706 31.0375 95.706 31.3896V31.6557C94.6606 31.9069 93.9911 32.1348 93.6977 32.3395C93.4042 32.5442 93.2575 32.8254 93.2575 33.1829C93.2575 33.505 93.3551 33.7643 93.5503 33.9609C93.7455 34.1574 94.0054 34.2557 94.3303 34.2557ZM94.666 33.8053C94.4613 33.8053 94.2982 33.7432 94.1767 33.619C94.0553 33.4948 93.9945 33.3276 93.9945 33.1174C93.9945 32.8554 94.1044 32.6438 94.3241 32.4828C94.5439 32.3218 95.0045 32.1443 95.706 31.9505V33.4286C95.4849 33.5542 95.289 33.6483 95.1184 33.7111C94.9478 33.7739 94.797 33.8053 94.666 33.8053ZM99.0746 34.1984V33.8954L98.5956 33.8544L98.4441 33.7193V28.0281H98.1247L97.1011 28.327V28.589H97.748V33.7193L97.6047 33.8544L97.1093 33.8954V34.1984H99.0746ZM105.607 34.1984V32.8308H105.173L105.03 33.6784L104.911 33.8135H102.663V31.4633H104.039L104.158 31.5902L104.24 32.1962H104.637V30.3496H104.24L104.158 30.9597L104.039 31.0784H102.663V28.9575H104.604L104.719 29.0844L104.837 29.7969H105.308V28.5726H101.292V28.9084L101.767 28.9575L101.91 29.0762V33.6947L101.767 33.8135L101.292 33.8544V34.1984H105.607ZM107.006 34.2721C107.498 34.2721 107.882 34.1608 108.159 33.9384C108.436 33.7159 108.574 33.4081 108.574 33.0151C108.574 32.8649 108.547 32.7278 108.493 32.6036C108.438 32.4794 108.359 32.3763 108.255 32.2945C108.113 32.1771 107.884 32.0461 107.567 31.9014C107.477 31.8604 107.41 31.8291 107.367 31.8072C107.088 31.6735 106.9 31.552 106.802 31.4428C106.703 31.3336 106.654 31.2012 106.654 31.0457C106.654 30.8546 106.716 30.7058 106.838 30.5994C106.961 30.4929 107.132 30.4397 107.35 30.4397C107.451 30.4397 107.552 30.4547 107.653 30.4847C107.754 30.5148 107.861 30.5598 107.973 30.6198L108.038 31.2135H108.452V30.2636C108.31 30.2036 108.158 30.1579 107.995 30.1265C107.833 30.0951 107.657 30.0794 107.469 30.0794C106.997 30.0794 106.631 30.1817 106.372 30.3865C106.112 30.5912 105.983 30.8805 105.983 31.2545C105.983 31.5001 106.058 31.7062 106.21 31.8727C106.361 32.0392 106.647 32.2167 107.068 32.405C107.439 32.5742 107.674 32.7141 107.772 32.8247C107.87 32.9352 107.919 33.0751 107.919 33.2444C107.919 33.4464 107.848 33.6094 107.704 33.7336C107.561 33.8578 107.371 33.9199 107.133 33.9199C107.013 33.9199 106.894 33.9036 106.775 33.8708C106.656 33.838 106.538 33.7876 106.421 33.7193L106.318 33.0069H105.917V34.096C106.073 34.156 106.243 34.2004 106.427 34.2291C106.611 34.2577 106.804 34.2721 107.006 34.2721ZM110.248 34.2229C110.42 34.2229 110.599 34.2072 110.784 34.1758C110.97 34.1444 111.158 34.0987 111.349 34.0387V33.7275C111.246 33.7521 111.145 33.7698 111.048 33.7807C110.952 33.7916 110.858 33.7971 110.768 33.7971C110.506 33.7971 110.324 33.735 110.223 33.6108C110.122 33.4866 110.072 33.243 110.072 32.88V30.669H111.349V30.2759H110.072V29.3833H109.761L109.4 30.1654L108.848 30.4069V30.669H109.376V33.3754C109.376 33.6975 109.441 33.9193 109.57 34.0407C109.7 34.1622 109.926 34.2229 110.248 34.2229ZM112.585 34.2557C112.781 34.2557 112.992 34.2113 113.217 34.1226C113.443 34.0339 113.69 33.8967 113.961 33.7111L114.071 34.1984H115.25V33.8954L114.808 33.8544L114.665 33.7193V31.2872C114.665 30.8641 114.565 30.5571 114.366 30.366C114.167 30.1749 113.847 30.0794 113.408 30.0794C112.908 30.0794 112.501 30.1695 112.186 30.3496C111.87 30.5298 111.713 30.7563 111.713 31.0293C111.713 31.1275 111.731 31.1951 111.768 31.232C111.805 31.2688 111.874 31.2872 111.975 31.2872H112.552V30.583C112.664 30.5393 112.772 30.5066 112.876 30.4847C112.979 30.4629 113.084 30.452 113.191 30.452C113.475 30.452 113.674 30.5202 113.789 30.6567C113.903 30.7932 113.961 31.0375 113.961 31.3896V31.6557C112.915 31.9069 112.246 32.1348 111.952 32.3395C111.659 32.5442 111.512 32.8254 111.512 33.1829C111.512 33.505 111.61 33.7643 111.805 33.9609C112 34.1574 112.26 34.2557 112.585 34.2557ZM112.921 33.8053C112.716 33.8053 112.553 33.7432 112.431 33.619C112.31 33.4948 112.249 33.3276 112.249 33.1174C112.249 32.8554 112.359 32.6438 112.579 32.4828C112.798 32.3218 113.259 32.1443 113.961 31.9505V33.4286C113.739 33.5542 113.544 33.6483 113.373 33.7111C113.202 33.7739 113.052 33.8053 112.921 33.8053ZM116.74 34.2229C116.912 34.2229 117.09 34.2072 117.276 34.1758C117.462 34.1444 117.65 34.0987 117.841 34.0387V33.7275C117.737 33.7521 117.637 33.7698 117.54 33.7807C117.443 33.7916 117.35 33.7971 117.26 33.7971C116.997 33.7971 116.816 33.735 116.715 33.6108C116.614 33.4866 116.563 33.243 116.563 32.88V30.669H117.841V30.2759H116.563V29.3833H116.252L115.892 30.1654L115.339 30.4069V30.669H115.867V33.3754C115.867 33.6975 115.932 33.9193 116.062 34.0407C116.192 34.1622 116.417 34.2229 116.74 34.2229ZM119.83 34.2721C120.1 34.2721 120.369 34.2297 120.636 34.1451C120.904 34.0605 121.162 33.9363 121.41 33.7725V33.3099C121.159 33.4764 120.926 33.5992 120.712 33.6784C120.498 33.7575 120.291 33.7971 120.092 33.7971C119.66 33.7971 119.318 33.6436 119.064 33.3365C118.81 33.0294 118.683 32.6125 118.683 32.0856V31.9915H121.398C121.403 31.9587 121.407 31.9246 121.408 31.8891C121.409 31.8536 121.41 31.8018 121.41 31.7335C121.41 31.2231 121.274 30.8198 121.003 30.5236C120.731 30.2275 120.363 30.0794 119.899 30.0794C119.332 30.0794 118.867 30.278 118.505 30.6751C118.144 31.0723 117.963 31.5848 117.963 32.2126C117.963 32.824 118.135 33.3201 118.481 33.7009C118.826 34.0817 119.276 34.2721 119.83 34.2721ZM120.661 31.6393H118.724C118.749 31.2981 118.863 31.0163 119.066 30.7939C119.269 30.5714 119.51 30.4602 119.789 30.4602C120.073 30.4602 120.289 30.5502 120.438 30.7304C120.587 30.9105 120.661 31.1699 120.661 31.5083V31.6393ZM125.556 34.3007C126.211 34.3007 126.736 34.1458 127.132 33.836C127.528 33.5262 127.726 33.1188 127.726 32.6138C127.726 32.4309 127.695 32.2617 127.634 32.1061C127.572 31.9505 127.48 31.8127 127.357 31.6926C127.142 31.4797 126.789 31.2777 126.301 31.0866C126.208 31.0511 126.138 31.0238 126.092 31.0047C125.595 30.7945 125.275 30.6151 125.132 30.4663C124.989 30.3175 124.917 30.1299 124.917 29.9033C124.917 29.5921 125.019 29.3458 125.224 29.1643C125.429 28.9828 125.706 28.892 126.055 28.892C126.203 28.892 126.339 28.9063 126.465 28.935C126.59 28.9636 126.706 29.008 126.813 29.0681L126.935 29.2073L127.062 30.0057H127.5V28.7077C127.255 28.6286 127.014 28.5692 126.778 28.5296C126.542 28.4901 126.306 28.4703 126.072 28.4703C125.487 28.4703 125.019 28.6184 124.665 28.9145C124.312 29.2107 124.135 29.599 124.135 30.0794C124.135 30.4206 124.228 30.6983 124.413 30.9126C124.599 31.1269 124.978 31.3582 125.552 31.6066C125.598 31.6257 125.665 31.6544 125.752 31.6926C126.555 32.0338 126.956 32.4187 126.956 32.8472C126.956 33.1556 126.842 33.4006 126.614 33.5821C126.386 33.7637 126.077 33.8544 125.687 33.8544C125.501 33.8544 125.329 33.838 125.171 33.8053C125.012 33.7725 124.872 33.7248 124.749 33.662L124.638 33.5187L124.54 32.5565H124.045V34.0305C124.244 34.1178 124.473 34.1847 124.731 34.2311C124.989 34.2775 125.264 34.3007 125.556 34.3007ZM130.181 34.2721C130.749 34.2721 131.216 34.0762 131.584 33.6845C131.951 33.2928 132.134 32.7899 132.134 32.1757C132.134 31.5616 131.951 31.0586 131.586 30.6669C131.22 30.2752 130.752 30.0794 130.181 30.0794C129.608 30.0794 129.141 30.2745 128.779 30.6649C128.417 31.0552 128.236 31.5588 128.236 32.1757C128.236 32.7926 128.419 33.2962 128.783 33.6866C129.147 34.0769 129.613 34.2721 130.181 34.2721ZM130.181 33.9117C129.835 33.9117 129.555 33.7541 129.342 33.4388C129.129 33.1236 129.023 32.7025 129.023 32.1757C129.023 31.6489 129.128 31.2279 129.34 30.9126C129.551 30.5973 129.832 30.4397 130.181 30.4397C130.531 30.4397 130.812 30.598 131.027 30.9146C131.241 31.2313 131.348 31.6516 131.348 32.1757C131.348 32.7053 131.242 33.127 131.029 33.4409C130.816 33.7548 130.533 33.9117 130.181 33.9117ZM134.365 34.1984V33.8954L133.886 33.8544L133.734 33.7193V28.0281H133.415L132.391 28.327V28.589H133.038V33.7193L132.895 33.8544L132.399 33.8954V34.1984H134.365ZM136.19 34.2802C136.389 34.2802 136.6 34.2352 136.822 34.1451C137.045 34.0551 137.287 33.9158 137.549 33.7275V34.1984H138.79V33.8954L138.397 33.8544L138.245 33.7193V30.0794H137.926L136.951 30.3906V30.6526H137.549V33.4941C137.374 33.5787 137.207 33.6415 137.047 33.6825C136.888 33.7234 136.73 33.7439 136.575 33.7439C136.296 33.7439 136.091 33.6722 135.96 33.5289C135.829 33.3856 135.764 33.1611 135.764 32.8554V30.0794H135.444L134.47 30.3906V30.6526H135.068V32.9987C135.068 33.4136 135.164 33.7309 135.356 33.9506C135.549 34.1704 135.827 34.2802 136.19 34.2802ZM140.353 34.2229C140.525 34.2229 140.703 34.2072 140.889 34.1758C141.075 34.1444 141.263 34.0987 141.454 34.0387V33.7275C141.35 33.7521 141.25 33.7698 141.153 33.7807C141.056 33.7916 140.963 33.7971 140.873 33.7971C140.611 33.7971 140.429 33.735 140.328 33.6108C140.227 33.4866 140.177 33.243 140.177 32.88V30.669H141.454V30.2759H140.177V29.3833H139.865L139.505 30.1654L138.952 30.4069V30.669H139.48V33.3754C139.48 33.6975 139.545 33.9193 139.675 34.0407C139.805 34.1622 140.03 34.2229 140.353 34.2229ZM142.554 29.2277C142.691 29.2277 142.806 29.1813 142.9 29.0885C142.994 28.9957 143.042 28.8824 143.042 28.7487C143.042 28.6149 142.994 28.5003 142.9 28.4048C142.806 28.3092 142.691 28.2615 142.554 28.2615C142.421 28.2615 142.307 28.3085 142.212 28.4027C142.118 28.4969 142.071 28.6122 142.071 28.7487C142.071 28.8824 142.118 28.9957 142.212 29.0885C142.307 29.1813 142.421 29.2277 142.554 29.2277ZM143.443 34.1984V33.8954L142.992 33.8544L142.849 33.7193V30.1244H142.522L141.559 30.4233V30.6854H142.145V33.7193L142.002 33.8544L141.559 33.8954V34.1984H143.443ZM145.587 34.2721C146.155 34.2721 146.622 34.0762 146.989 33.6845C147.357 33.2928 147.54 32.7899 147.54 32.1757C147.54 31.5616 147.357 31.0586 146.992 30.6669C146.626 30.2752 146.158 30.0794 145.587 30.0794C145.014 30.0794 144.546 30.2745 144.185 30.6649C143.823 31.0552 143.642 31.5588 143.642 32.1757C143.642 32.7926 143.825 33.2962 144.189 33.6866C144.553 34.0769 145.019 34.2721 145.587 34.2721ZM145.587 33.9117C145.24 33.9117 144.961 33.7541 144.748 33.4388C144.535 33.1236 144.428 32.7025 144.428 32.1757C144.428 31.6489 144.534 31.2279 144.746 30.9126C144.957 30.5973 145.238 30.4397 145.587 30.4397C145.937 30.4397 146.218 30.598 146.433 30.9146C146.647 31.2313 146.754 31.6516 146.754 32.1757C146.754 32.7053 146.648 33.127 146.435 33.4409C146.222 33.7548 145.939 33.9117 145.587 33.9117ZM149.66 34.1984V33.8954L149.259 33.8544L149.115 33.7193V30.9105C149.296 30.8177 149.463 30.7488 149.619 30.7038C149.775 30.6587 149.919 30.6362 150.053 30.6362C150.359 30.6362 150.576 30.7017 150.706 30.8327C150.836 30.9638 150.901 31.1862 150.901 31.5001V33.7193L150.757 33.8544L150.356 33.8954V34.1984H152.19V33.8954L151.74 33.8544L151.597 33.7193V31.3568C151.597 30.9419 151.5 30.6253 151.306 30.4069C151.112 30.1886 150.832 30.0794 150.467 30.0794C150.311 30.0794 150.131 30.1169 149.926 30.192C149.721 30.267 149.451 30.3974 149.115 30.583V30.1244H148.796L147.822 30.4233V30.6854H148.419V33.7193L148.276 33.8544L147.822 33.8954V34.1984H149.66Z" fill="#637381"/>
<path fill-rule="evenodd" clip-rule="evenodd" d="M0.839844 0.656982H35.7788V35.596H0.839844V0.656982ZM26.8437 9.59174L9.77312 9.58992V26.6621L9.76746 26.6674L9.76762 26.6687H26.8515L26.8501 9.58567L26.8494 9.58553L26.8437 9.59174Z" fill="#637381"/>
</svg>
