<svg width="162" height="41" viewBox="0 0 162 41" fill="none" xmlns="http://www.w3.org/2000/svg">
<path fill-rule="evenodd" clip-rule="evenodd" d="M0.978516 18.4461V25.8113L21.9419 8.48629V1.12109L0.978516 18.4461Z" fill="#637381"/>
<path fill-rule="evenodd" clip-rule="evenodd" d="M0.978516 32.8877V40.2527L21.9419 22.9277V15.5625L0.978516 32.8877Z" fill="#637381"/>
<path fill-rule="evenodd" clip-rule="evenodd" d="M10.2969 18.4461V25.8113L31.2603 8.48629V1.12109L10.2969 18.4461Z" fill="#637381"/>
<path fill-rule="evenodd" clip-rule="evenodd" d="M10.2969 32.8877V40.2527L31.2603 22.9277V15.5625L10.2969 32.8877Z" fill="#637381"/>
<path d="M55.6714 26.2384C56.9225 26.2384 58.1963 26.1189 59.4928 25.8801C60.7894 25.6413 62.1258 25.283 63.502 24.8053V16.6506L64.0479 16.1729L66.078 16.0023V14.2793H55.8761V16.0023L58.4692 16.1729L59.0152 16.6506V23.7817C58.583 23.8158 58.202 23.8414 57.8721 23.8585C57.5423 23.8755 57.2864 23.8841 57.1044 23.8841C54.3862 23.8841 52.2622 23.0055 50.7325 21.2483C49.2028 19.4911 48.4379 17.0544 48.4379 13.9381C48.4379 10.9014 49.1857 8.51581 50.6813 6.78137C52.1769 5.04693 54.2327 4.17971 56.8485 4.17971C57.3717 4.17971 57.8721 4.22521 58.3498 4.31619C58.8275 4.40718 59.2938 4.54935 59.7487 4.7427L60.2776 5.37392L60.943 9.07595H63.502V3.13905C62.2054 2.75236 60.9401 2.46233 59.7061 2.26899C58.4721 2.07564 57.275 1.97897 56.115 1.97897C52.2708 1.97897 49.1857 3.06797 46.8599 5.24597C44.534 7.42397 43.3711 10.3213 43.3711 13.9381C43.3711 17.5889 44.5084 20.5517 46.7831 22.8264C49.0578 25.101 52.0205 26.2384 55.6714 26.2384ZM75.6783 26.0848C78.4079 26.0848 80.5973 25.2887 82.2464 23.6964C83.8956 22.1041 84.7201 20.0001 84.7201 17.3842C84.7201 14.6205 83.9297 12.4283 82.3488 10.8075C80.7679 9.18684 78.6354 8.37649 75.9513 8.37649C73.2216 8.37649 71.0323 9.19253 69.3831 10.8246C67.734 12.4567 66.9094 14.6205 66.9094 17.316C66.9094 19.9432 67.7141 22.0615 69.3234 23.6708C70.9328 25.2802 73.051 26.0848 75.6783 26.0848ZM75.7807 24.2423C74.5182 24.2423 73.5316 23.6225 72.8207 22.3828C72.1099 21.1431 71.7545 19.4087 71.7545 17.1795C71.7545 14.9844 72.1127 13.2784 72.8293 12.0615C73.5458 10.8445 74.541 10.236 75.8148 10.236C77.1 10.236 78.1037 10.8559 78.8259 12.0956C79.5481 13.3353 79.9092 15.064 79.9092 17.2818C79.9092 19.511 79.5509 21.2284 78.8344 22.434C78.1179 23.6396 77.1 24.2423 75.7807 24.2423ZM92.2732 25.8119C93.6494 25.8119 94.8237 25.7465 95.7961 25.6157C96.7685 25.4849 97.5732 25.283 98.2101 25.01C100.007 24.2025 101.375 23.0624 102.313 21.5895C103.251 20.1166 103.72 18.368 103.72 16.3435C103.72 14.012 103.078 12.107 101.793 10.6284C100.507 9.14988 98.8584 8.41061 96.8453 8.41061C96.0833 8.41061 95.2871 8.53856 94.4569 8.79446C93.6266 9.05036 92.7338 9.44558 91.7784 9.98013V0H90.1066L84.9203 1.63777V3.00257H87.4452V25.7436L91.3178 25.8119H92.2732ZM92.8873 23.9523C92.5916 23.9523 92.3642 23.9495 92.2049 23.9438C92.0457 23.9381 91.9035 23.9296 91.7784 23.9182V11.4132C92.2334 11.3222 92.64 11.254 92.9982 11.2085C93.3565 11.163 93.6835 11.1402 93.9792 11.1402C95.6056 11.1402 96.8566 11.6662 97.7324 12.7183C98.6081 13.7703 99.046 15.2801 99.046 17.2477C99.046 19.5451 98.5484 21.2369 97.5533 22.3231C96.5581 23.4092 95.0028 23.9523 92.8873 23.9523ZM113.679 26.0848C116.409 26.0848 118.598 25.2887 120.247 23.6964C121.896 22.1041 122.721 20.0001 122.721 17.3842C122.721 14.6205 121.93 12.4283 120.349 10.8075C118.769 9.18684 116.636 8.37649 113.952 8.37649C111.222 8.37649 109.033 9.19253 107.384 10.8246C105.735 12.4567 104.91 14.6205 104.91 17.316C104.91 19.9432 105.715 22.0615 107.324 23.6708C108.933 25.2802 111.052 26.0848 113.679 26.0848ZM113.781 24.2423C112.519 24.2423 111.532 23.6225 110.821 22.3828C110.111 21.1431 109.755 19.4087 109.755 17.1795C109.755 14.9844 110.113 13.2784 110.83 12.0615C111.546 10.8445 112.542 10.236 113.815 10.236C115.101 10.236 116.104 10.8559 116.827 12.0956C117.549 13.3353 117.91 15.064 117.91 17.2818C117.91 19.511 117.552 21.2284 116.835 22.434C116.119 23.6396 115.101 24.2423 113.781 24.2423ZM132.321 25.8119V24.2423L130.786 24.1059L130.308 23.577V12.0444C130.99 11.8511 131.607 11.7032 132.159 11.6008C132.711 11.4985 133.197 11.4473 133.618 11.4473C134.71 11.4473 135.506 11.7515 136.006 12.36C136.507 12.9685 136.757 13.921 136.757 15.2176V23.577L136.279 24.1059L134.778 24.2423V25.8119H143.325V24.2423L141.482 24.1059L141.022 23.577V14.211C141.022 12.2548 140.629 10.799 139.845 9.84365C139.06 8.88829 137.871 8.41061 136.279 8.41061C135.563 8.41061 134.721 8.58121 133.754 8.92241C132.787 9.26361 131.639 9.80385 130.308 10.5431V8.47885H128.619L123.586 10.1166V11.5155H125.975V23.577L125.48 24.1059L123.689 24.2423V25.8119H132.321ZM148.558 26.1189C149.445 26.1189 150.372 25.937 151.339 25.573C152.305 25.2091 153.38 24.6233 154.563 23.8158L155.023 25.8119H161.25V24.2765L159.391 24.1059L158.93 23.6111V14.5693C158.93 12.2832 158.441 10.6796 157.463 9.75835C156.485 8.83711 154.796 8.37649 152.396 8.37649C150.258 8.37649 148.455 8.78024 146.988 9.58775C145.521 10.3953 144.787 11.3449 144.787 12.4368C144.787 12.8803 144.915 13.2045 145.171 13.4092C145.427 13.6139 145.834 13.7163 146.391 13.7163H149.615V10.4408C149.934 10.3725 150.23 10.3213 150.503 10.2872C150.776 10.2531 151.037 10.236 151.287 10.236C152.436 10.236 153.278 10.5261 153.812 11.1061C154.347 11.6861 154.614 12.6074 154.614 13.8698V14.9105C150.031 15.9455 147.113 16.9065 145.862 17.7936C144.611 18.6808 143.986 19.9432 143.986 21.581C143.986 22.9117 144.412 24.0007 145.265 24.848C146.118 25.6953 147.216 26.1189 148.558 26.1189ZM151.185 23.4405C150.389 23.4405 149.758 23.2045 149.291 22.7325C148.825 22.2605 148.592 21.6208 148.592 20.8133C148.592 19.7783 149.013 18.9594 149.854 18.3566C150.696 17.7538 152.265 17.1965 154.563 16.6847V22.3828C153.88 22.7354 153.258 22.9998 152.695 23.1761C152.132 23.3524 151.629 23.4405 151.185 23.4405Z" fill="#637381"/>
<path d="M47.4983 38.3901V37.9888L46.8344 37.941L46.6767 37.8025V35.6004L48.7116 32.3426L49.3087 32.2184V31.8267H47.312V32.2184L47.9091 32.3235L47.9999 32.462L46.3567 35.075L44.8568 32.3856L44.9571 32.2757L45.516 32.2184V31.8267H43.2422V32.2184L43.8393 32.314L45.7882 35.7294V37.8025L45.6306 37.941L44.9666 37.9888V38.3901H47.4983ZM50.473 38.4761C51.1354 38.4761 51.6808 38.2476 52.1091 37.7906C52.5374 37.3336 52.7516 36.7468 52.7516 36.0303C52.7516 35.3138 52.5382 34.727 52.1115 34.2701C51.6847 33.8131 51.1386 33.5846 50.473 33.5846C49.8043 33.5846 49.2589 33.8123 48.837 34.2677C48.415 34.7231 48.204 35.3106 48.204 36.0303C48.204 36.75 48.4166 37.3376 48.8417 37.793C49.2669 38.2484 49.8106 38.4761 50.473 38.4761ZM50.473 38.0557C50.0686 38.0557 49.7422 37.8718 49.4938 37.504C49.2454 37.1362 49.1212 36.6449 49.1212 36.0303C49.1212 35.4157 49.2446 34.9245 49.4914 34.5567C49.7382 34.1889 50.0654 34.005 50.473 34.005C50.8806 34.005 51.2094 34.1897 51.4594 34.5591C51.7094 34.9285 51.8344 35.4189 51.8344 36.0303C51.8344 36.6481 51.7102 37.1401 51.4618 37.5064C51.2134 37.8726 50.8838 38.0557 50.473 38.0557ZM55.0479 38.4856C55.2804 38.4856 55.5264 38.4331 55.7859 38.328C56.0455 38.2229 56.3281 38.0605 56.6338 37.8407V38.3901H58.0812V38.0366L57.6226 37.9888L57.4459 37.8312V33.5846H57.0733L55.9364 33.9476V34.2533H56.6338V37.5685C56.43 37.6672 56.235 37.7404 56.0487 37.7882C55.8624 37.836 55.6785 37.8598 55.4969 37.8598C55.1721 37.8598 54.9333 37.7762 54.7804 37.6091C54.6276 37.4419 54.5511 37.1799 54.5511 36.8233V33.5846H54.1785L53.0417 33.9476V34.2533H53.7391V36.9905C53.7391 37.4745 53.8513 37.8447 54.0758 38.1011C54.3004 38.3574 54.6244 38.4856 55.0479 38.4856ZM60.6785 38.3901V38.0366L59.9954 37.9888L59.8282 37.8312V35.0367C60.0352 34.7915 60.2255 34.6108 60.3991 34.4946C60.5726 34.3783 60.7374 34.3202 60.8935 34.3202C60.9954 34.3202 61.0885 34.3401 61.1729 34.3799C61.2573 34.4197 61.3313 34.4779 61.395 34.5543H61.7055V33.7136C61.6036 33.669 61.5049 33.6363 61.4094 33.6156C61.3138 33.5949 61.2167 33.5846 61.118 33.5846C61.0511 33.5846 61.001 33.5862 60.9675 33.5894C60.9341 33.5926 60.903 33.5989 60.8744 33.6085C60.6833 33.7613 60.501 33.9166 60.3274 34.0742C60.1539 34.2318 59.9875 34.3919 59.8282 34.5543V33.6371H59.4557L58.3188 33.9858V34.2916H59.0066V37.8312L58.8394 37.9888L58.3188 38.0366V38.3901H60.6785ZM68.0275 38.3901V37.9888L67.3683 37.941L67.2059 37.8025V32.2757H68.701L68.8396 32.4238L68.9733 33.3314H69.5131V31.8267H63.9863V33.3314H64.5213L64.6598 32.4238L64.7984 32.2757H66.2935V37.8025L66.1263 37.941L65.4719 37.9888V38.3901H68.0275ZM71.284 38.3901V38.0366L70.6009 37.9888L70.4337 37.8312V35.0367C70.6407 34.7915 70.831 34.6108 71.0046 34.4946C71.1781 34.3783 71.3429 34.3202 71.499 34.3202C71.6009 34.3202 71.694 34.3401 71.7784 34.3799C71.8628 34.4197 71.9368 34.4779 72.0005 34.5543H72.311V33.7136C72.2091 33.669 72.1104 33.6363 72.0149 33.6156C71.9193 33.5949 71.8222 33.5846 71.7235 33.5846C71.6566 33.5846 71.6064 33.5862 71.573 33.5894C71.5396 33.5926 71.5085 33.5989 71.4799 33.6085C71.2888 33.7613 71.1065 33.9166 70.9329 34.0742C70.7594 34.2318 70.593 34.3919 70.4337 34.5543V33.6371H70.0611L68.9243 33.9858V34.2916H69.6121V37.8312L69.4449 37.9888L68.9243 38.0366V38.3901H71.284ZM74.3017 38.4856C74.5342 38.4856 74.7802 38.4331 75.0397 38.328C75.2992 38.2229 75.5819 38.0605 75.8876 37.8407V38.3901H77.335V38.0366L76.8764 37.9888L76.6996 37.8312V33.5846H76.3271L75.1902 33.9476V34.2533H75.8876V37.5685C75.6838 37.6672 75.4887 37.7404 75.3024 37.7882C75.1161 37.836 74.9322 37.8598 74.7507 37.8598C74.4259 37.8598 74.187 37.7762 74.0342 37.6091C73.8813 37.4419 73.8049 37.1799 73.8049 36.8233V33.5846H73.4323L72.2954 33.9476V34.2533H72.9928V36.9905C72.9928 37.4745 73.1051 37.8447 73.3296 38.1011C73.5541 38.3574 73.8781 38.4856 74.3017 38.4856ZM78.9626 38.4761C79.5358 38.4761 79.984 38.3463 80.3073 38.0867C80.6305 37.8272 80.7921 37.4681 80.7921 37.0096C80.7921 36.8344 80.7603 36.6744 80.6966 36.5295C80.6329 36.3846 80.5405 36.2644 80.4195 36.1688C80.2539 36.0319 79.9864 35.8791 79.617 35.7103C79.5119 35.6625 79.4339 35.6259 79.3829 35.6004C79.0581 35.4444 78.8384 35.3027 78.7237 35.1753C78.6091 35.0479 78.5518 34.8934 78.5518 34.7119C78.5518 34.489 78.6234 34.3154 78.7667 34.1912C78.91 34.067 79.1091 34.005 79.3638 34.005C79.4817 34.005 79.5995 34.0225 79.7173 34.0575C79.8351 34.0925 79.9593 34.1451 80.0899 34.2151L80.1663 34.9078H80.6488V33.7995C80.4832 33.7295 80.3057 33.6761 80.1162 33.6395C79.9267 33.6029 79.7221 33.5846 79.5024 33.5846C78.9514 33.5846 78.5247 33.704 78.2222 33.9429C77.9196 34.1817 77.7684 34.5193 77.7684 34.9555C77.7684 35.2421 77.8567 35.4826 78.0335 35.6768C78.2102 35.8711 78.5438 36.0781 79.0342 36.2978C79.4673 36.4953 79.7412 36.6585 79.8558 36.7874C79.9705 36.9164 80.0278 37.0796 80.0278 37.2771C80.0278 37.5127 79.9442 37.703 79.777 37.8479C79.6098 37.9928 79.3877 38.0652 79.1107 38.0652C78.9705 38.0652 78.8312 38.0461 78.6927 38.0079C78.5542 37.9697 78.4164 37.9108 78.2795 37.8312L78.1601 37H77.6919V38.2706C77.8735 38.3407 78.0717 38.3925 78.2867 38.4259C78.5016 38.4593 78.7269 38.4761 78.9626 38.4761ZM82.7445 38.4187C82.9452 38.4187 83.1538 38.4004 83.3703 38.3638C83.5869 38.3272 83.8066 38.2738 84.0295 38.2038V37.8407C83.9085 37.8694 83.7915 37.8901 83.6784 37.9028C83.5654 37.9156 83.4563 37.9219 83.3512 37.9219C83.0455 37.9219 82.8337 37.8495 82.7159 37.7046C82.5981 37.5597 82.5391 37.2755 82.5391 36.8519V34.2725H84.0295V33.8139H82.5391V32.7725H82.1761L81.7557 33.6849L81.1109 33.9667V34.2725H81.7271V37.4299C81.7271 37.8057 81.8027 38.0644 81.954 38.2062C82.1052 38.3479 82.3688 38.4187 82.7445 38.4187ZM86.3498 38.4761C86.665 38.4761 86.9787 38.4267 87.2908 38.328C87.6029 38.2292 87.9038 38.0844 88.1936 37.8933V37.3535C87.9006 37.5478 87.6292 37.6911 87.3792 37.7834C87.1292 37.8758 86.888 37.9219 86.6555 37.9219C86.1523 37.9219 85.7527 37.7428 85.4565 37.3845C85.1603 37.0263 85.0123 36.5398 85.0123 35.9252V35.8154H88.1793C88.1857 35.7771 88.1896 35.7373 88.1912 35.6959C88.1928 35.6545 88.1936 35.594 88.1936 35.5144C88.1936 34.9189 88.0352 34.4484 87.7183 34.1029C87.4015 33.7574 86.9723 33.5846 86.431 33.5846C85.7686 33.5846 85.2264 33.8163 84.8045 34.2796C84.3825 34.743 84.1715 35.3409 84.1715 36.0733C84.1715 36.7867 84.373 37.3654 84.7758 37.8097C85.1786 38.2539 85.7033 38.4761 86.3498 38.4761ZM87.3195 35.4046H85.06C85.0887 35.0065 85.2216 34.6777 85.4589 34.4181C85.6961 34.1586 85.9772 34.0288 86.302 34.0288C86.6332 34.0288 86.8856 34.1339 87.0591 34.3441C87.2327 34.5543 87.3195 34.8568 87.3195 35.2517V35.4046ZM90.5282 38.4761C90.7925 38.4761 91.0457 38.4283 91.2877 38.3327C91.5297 38.2372 91.7781 38.0875 92.0329 37.8837V38.3901H93.4803V38.0366L93.0121 37.9888L92.845 37.8312V31.1914H92.4771L91.2829 31.5401V31.8458H92.0329V33.6849C91.8769 33.6499 91.7256 33.6228 91.5791 33.6037C91.4326 33.5846 91.2941 33.575 91.1635 33.575C90.4152 33.575 89.8077 33.8163 89.3412 34.2987C88.8746 34.7812 88.6414 35.4109 88.6414 36.188C88.6414 36.8567 88.8189 37.4052 89.174 37.8336C89.5291 38.2619 89.9805 38.4761 90.5282 38.4761ZM90.9677 37.8598C90.5218 37.8598 90.166 37.6942 89.9001 37.3631C89.6341 37.0319 89.5012 36.5844 89.5012 36.0208C89.5012 35.4157 89.6548 34.9285 89.9622 34.5591C90.2695 34.1897 90.6731 34.005 91.1731 34.005C91.2845 34.005 91.4111 34.0185 91.5528 34.0456C91.6945 34.0726 91.8546 34.1116 92.0329 34.1626V37.5207C91.8482 37.6353 91.6675 37.7205 91.4907 37.7762C91.314 37.832 91.1396 37.8598 90.9677 37.8598ZM99.6589 38.5095C99.9837 38.5095 100.313 38.48 100.648 38.4211C100.982 38.3622 101.31 38.277 101.632 38.1656V36.6179H101.106L100.867 37.707L100.715 37.8598C100.571 37.9044 100.429 37.9371 100.287 37.9578C100.145 37.9785 100.004 37.9888 99.8643 37.9888C99.065 37.9888 98.4392 37.7269 97.987 37.203C97.5348 36.6792 97.3087 35.9571 97.3087 35.0367C97.3087 34.1705 97.5253 33.4859 97.9584 32.9827C98.3915 32.4796 98.9774 32.228 99.7162 32.228C99.901 32.228 100.082 32.2487 100.261 32.2901C100.439 32.3315 100.622 32.3952 100.81 32.4811L100.939 32.6579L101.087 33.5464H101.632V32.0417C101.281 31.9302 100.945 31.8466 100.621 31.7909C100.298 31.7352 99.9901 31.7073 99.6971 31.7073C98.6781 31.7073 97.8573 32.0186 97.2347 32.6412C96.6121 33.2637 96.3008 34.0846 96.3008 35.1036C96.3008 35.7405 96.4513 36.3273 96.7522 36.8639C97.0532 37.4005 97.4664 37.8184 97.9918 38.1178C98.2211 38.2452 98.4759 38.3423 98.7561 38.4092C99.0363 38.4761 99.3373 38.5095 99.6589 38.5095ZM103.995 38.4856C104.227 38.4856 104.473 38.4331 104.733 38.328C104.993 38.2229 105.275 38.0605 105.581 37.8407V38.3901H107.028V38.0366L106.57 37.9888L106.393 37.8312V33.5846H106.02L104.883 33.9476V34.2533H105.581V37.5685C105.377 37.6672 105.182 37.7404 104.996 37.7882C104.809 37.836 104.626 37.8598 104.444 37.8598C104.119 37.8598 103.88 37.7762 103.728 37.6091C103.575 37.4419 103.498 37.1799 103.498 36.8233V33.5846H103.126L101.989 33.9476V34.2533H102.686V36.9905C102.686 37.4745 102.798 37.8447 103.023 38.1011C103.247 38.3574 103.571 38.4856 103.995 38.4856ZM109.626 38.3901V38.0366L108.943 37.9888L108.775 37.8312V35.0367C108.982 34.7915 109.173 34.6108 109.346 34.4946C109.52 34.3783 109.685 34.3202 109.841 34.3202C109.942 34.3202 110.036 34.3401 110.12 34.3799C110.204 34.4197 110.278 34.4779 110.342 34.5543H110.653V33.7136C110.551 33.669 110.452 33.6363 110.356 33.6156C110.261 33.5949 110.164 33.5846 110.065 33.5846C109.998 33.5846 109.948 33.5862 109.915 33.5894C109.881 33.5926 109.85 33.5989 109.821 33.6085C109.63 33.7613 109.448 33.9166 109.274 34.0742C109.101 34.2318 108.935 34.3919 108.775 34.5543V33.6371H108.403L107.266 33.9858V34.2916H107.954V37.8312L107.787 37.9888L107.266 38.0366V38.3901H109.626ZM113.035 38.3901V38.0366L112.352 37.9888L112.185 37.8312V35.0367C112.392 34.7915 112.582 34.6108 112.756 34.4946C112.929 34.3783 113.094 34.3202 113.25 34.3202C113.352 34.3202 113.445 34.3401 113.529 34.3799C113.614 34.4197 113.688 34.4779 113.751 34.5543H114.062V33.7136C113.96 33.669 113.861 33.6363 113.766 33.6156C113.67 33.5949 113.573 33.5846 113.474 33.5846C113.408 33.5846 113.357 33.5862 113.324 33.5894C113.291 33.5926 113.259 33.5989 113.231 33.6085C113.04 33.7613 112.857 33.9166 112.684 34.0742C112.51 34.2318 112.344 34.3919 112.185 34.5543V33.6371H111.812L110.675 33.9858V34.2916H111.363V37.8312L111.196 37.9888L110.675 38.0366V38.3901H113.035ZM115.298 32.591C115.457 32.591 115.592 32.5369 115.702 32.4286C115.811 32.3203 115.866 32.1882 115.866 32.0321C115.866 31.8761 115.811 31.7423 115.702 31.6309C115.592 31.5194 115.457 31.4637 115.298 31.4637C115.142 31.4637 115.009 31.5186 114.899 31.6285C114.789 31.7384 114.734 31.8729 114.734 32.0321C114.734 32.1882 114.789 32.3203 114.899 32.4286C115.009 32.5369 115.142 32.591 115.298 32.591ZM116.334 38.3901V38.0366L115.809 37.9888L115.642 37.8312V33.6371H115.26L114.137 33.9858V34.2916H114.82V37.8312L114.653 37.9888L114.137 38.0366V38.3901H116.334ZM118.745 38.4761C119.061 38.4761 119.374 38.4267 119.687 38.328C119.999 38.2292 120.3 38.0844 120.589 37.8933V37.3535C120.296 37.5478 120.025 37.6911 119.775 37.7834C119.525 37.8758 119.284 37.9219 119.051 37.9219C118.548 37.9219 118.148 37.7428 117.852 37.3845C117.556 37.0263 117.408 36.5398 117.408 35.9252V35.8154H120.575C120.581 35.7771 120.585 35.7373 120.587 35.6959C120.589 35.6545 120.589 35.594 120.589 35.5144C120.589 34.9189 120.431 34.4484 120.114 34.1029C119.797 33.7574 119.368 33.5846 118.827 33.5846C118.164 33.5846 117.622 33.8163 117.2 34.2796C116.778 34.743 116.567 35.3409 116.567 36.0733C116.567 36.7867 116.769 37.3654 117.172 37.8097C117.574 38.2539 118.099 38.4761 118.745 38.4761ZM119.715 35.4046H117.456C117.484 35.0065 117.617 34.6777 117.855 34.4181C118.092 34.1586 118.373 34.0288 118.698 34.0288C119.029 34.0288 119.281 34.1339 119.455 34.3441C119.628 34.5543 119.715 34.8568 119.715 35.2517V35.4046ZM123.335 38.3901V38.0366L122.652 37.9888L122.484 37.8312V35.0367C122.691 34.7915 122.882 34.6108 123.055 34.4946C123.229 34.3783 123.394 34.3202 123.55 34.3202C123.652 34.3202 123.745 34.3401 123.829 34.3799C123.914 34.4197 123.988 34.4779 124.051 34.5543H124.362V33.7136C124.26 33.669 124.161 33.6363 124.066 33.6156C123.97 33.5949 123.873 33.5846 123.774 33.5846C123.707 33.5846 123.657 33.5862 123.624 33.5894C123.59 33.5926 123.559 33.5989 123.531 33.6085C123.34 33.7613 123.157 33.9166 122.984 34.0742C122.81 34.2318 122.644 34.3919 122.484 34.5543V33.6371H122.112L120.975 33.9858V34.2916H121.663V37.8312L121.496 37.9888L120.975 38.0366V38.3901H123.335Z" fill="#637381"/>
</svg>
