<svg width="127" height="39" viewBox="0 0 127 39" fill="none" xmlns="http://www.w3.org/2000/svg">
<path d="M43.9159 24.3439V15.4236H45.9774C47.5246 15.4236 48.8428 14.8704 49.9319 13.7639C51.021 12.6575 51.5656 11.3264 51.5656 9.77053V6.33464C51.5656 4.71825 51.0859 3.38711 50.1264 2.34122C49.0978 1.24346 47.7148 0.69458 45.9774 0.69458H40.3633V24.3439H43.9159ZM46.0682 11.8969H43.9159V4.33793H46.0682C46.6905 4.33793 47.1854 4.52593 47.5527 4.90193C47.9201 5.27794 48.1038 5.77711 48.1038 6.39946V9.84832C48.1038 10.4102 47.9071 10.8921 47.5138 11.294C47.1205 11.6959 46.6387 11.8969 46.0682 11.8969ZM57.2289 24.3439L58.0975 18.9113H61.8187L62.6615 24.3439H66.3956L62.441 0.69458H57.5271L53.5207 24.3439H57.2289ZM61.2871 15.4365H58.6421L59.9646 6.11422L61.2871 15.4365ZM74.3537 24.3439V15.4236H76.4153C77.9625 15.4236 79.2807 14.8704 80.3698 13.7639C81.4589 12.6575 82.0035 11.3264 82.0035 9.77053V6.33464C82.0035 4.71825 81.5237 3.38711 80.5643 2.34122C79.5357 1.24346 78.1527 0.69458 76.4153 0.69458H70.8011V24.3439H74.3537ZM76.506 11.8969H74.3537V4.33793H76.506C77.1284 4.33793 77.6232 4.52593 77.9906 4.90193C78.358 5.27794 78.5416 5.77711 78.5416 6.39946V9.84832C78.5416 10.4102 78.345 10.8921 77.9517 11.294C77.5584 11.6959 77.0765 11.8969 76.506 11.8969ZM96.3926 24.3439V20.7784H89.806V14.3085H94.6163V10.73H89.806V4.26013H96.3926V0.69458H86.2535V24.3439H96.3926ZM103.806 24.3439V15.4236H105.855C105.967 15.4236 106.075 15.4192 106.179 15.4106L108.357 24.3439H112.208L109.563 14.0103C110.834 12.8607 111.469 11.4474 111.469 9.77053V6.33464C111.469 4.63181 111.058 3.30067 110.237 2.34122C109.312 1.24346 107.856 0.69458 105.868 0.69458H100.254V24.3439H103.806ZM105.959 11.8969H103.806V4.33793H105.959C107.316 4.33793 107.994 5.0251 107.994 6.39946V9.84832C107.994 10.4102 107.797 10.8921 107.404 11.294C107.011 11.6959 106.529 11.8969 105.959 11.8969ZM126.856 24.3439V20.8043H120.296L126.856 4.26013V0.69458H116.458V4.26013H123.032L116.458 20.8043V24.3439H126.856Z" fill="#637381"/>
<path d="M42.9962 36.4562V35.9363H40.4219V30.7374H39.793V36.4562H42.9962ZM45.3692 36.5903C45.7829 36.5903 46.1407 36.5079 46.4426 36.343C46.7444 36.1781 46.9876 35.9503 47.1721 35.6596L46.7193 35.3577C46.5851 35.5813 46.4076 35.756 46.1868 35.8818C45.966 36.0076 45.6879 36.0705 45.3525 36.0705C44.9388 36.0705 44.6118 35.9279 44.3714 35.6428C44.131 35.3577 43.9996 35.0139 43.9773 34.6114H47.2056C47.2112 34.5555 47.214 34.4744 47.214 34.3682C47.214 33.9993 47.133 33.6653 46.9708 33.3662C46.8087 33.0671 46.5851 32.8309 46.3 32.6576C46.0149 32.4843 45.6963 32.3977 45.3441 32.3977C44.9695 32.3977 44.6355 32.4871 44.342 32.666C44.0485 32.8449 43.8193 33.0937 43.6544 33.4123C43.4895 33.7309 43.4071 34.0915 43.4071 34.494C43.4071 34.8965 43.4909 35.2571 43.6586 35.5757C43.8263 35.8944 44.0583 36.1431 44.3546 36.322C44.6509 36.5009 44.9891 36.5903 45.3692 36.5903ZM46.6438 34.1418H44.0108C44.0723 33.7896 44.219 33.4975 44.451 33.2656C44.683 33.0336 44.9807 32.9176 45.3441 32.9176C45.7186 32.9176 46.0149 33.0196 46.2329 33.2236C46.4509 33.4277 46.5879 33.7337 46.6438 34.1418ZM49.7632 36.5903C50.0427 36.5903 50.2998 36.5275 50.5346 36.4017C50.7694 36.2759 50.9679 36.1012 51.13 35.8776V36.4562H51.7002V32.5318H51.13V33.1188C50.9679 32.8896 50.768 32.7121 50.5304 32.5863C50.2928 32.4606 50.0315 32.3977 49.7464 32.3977C49.3718 32.3977 49.0378 32.4871 48.7443 32.666C48.4509 32.8449 48.2217 33.0923 48.0567 33.4081C47.8918 33.724 47.8094 34.0831 47.8094 34.4856C47.8094 34.8937 47.8932 35.2571 48.0609 35.5757C48.2286 35.8944 48.4606 36.1431 48.7569 36.322C49.0532 36.5009 49.3886 36.5903 49.7632 36.5903ZM49.7464 36.0705C49.4837 36.0705 49.2489 36.0034 49.042 35.8692C48.8352 35.735 48.6731 35.5478 48.5557 35.3074C48.4383 35.067 48.3796 34.7931 48.3796 34.4856C48.3796 34.1837 48.4383 33.914 48.5557 33.6764C48.6731 33.4388 48.8352 33.253 49.042 33.1188C49.2489 32.9846 49.4837 32.9176 49.7464 32.9176C50.0147 32.9176 50.2537 32.9846 50.4633 33.1188C50.673 33.253 50.8365 33.4402 50.9539 33.6806C51.0713 33.921 51.13 34.1921 51.13 34.494C51.13 34.7959 51.0713 35.067 50.9539 35.3074C50.8365 35.5478 50.673 35.735 50.4633 35.8692C50.2537 36.0034 50.0147 36.0705 49.7464 36.0705ZM54.4673 36.5903C54.7469 36.5903 55.004 36.5275 55.2388 36.4017C55.4736 36.2759 55.672 36.1012 55.8342 35.8776V36.4562H56.4044V30.3684H55.8342V33.1188C55.672 32.8896 55.4722 32.7121 55.2346 32.5863C54.997 32.4606 54.7357 32.3977 54.4506 32.3977C54.076 32.3977 53.742 32.4871 53.4485 32.666C53.155 32.8449 52.9258 33.0923 52.7609 33.4081C52.596 33.724 52.5136 34.0831 52.5136 34.4856C52.5136 34.8937 52.5974 35.2571 52.7651 35.5757C52.9328 35.8944 53.1648 36.1431 53.4611 36.322C53.7574 36.5009 54.0928 36.5903 54.4673 36.5903ZM54.4506 36.0705C54.1878 36.0705 53.953 36.0034 53.7462 35.8692C53.5394 35.735 53.3773 35.5478 53.2599 35.3074C53.1425 35.067 53.0838 34.7931 53.0838 34.4856C53.0838 34.1837 53.1425 33.914 53.2599 33.6764C53.3773 33.4388 53.5394 33.253 53.7462 33.1188C53.953 32.9846 54.1878 32.9176 54.4506 32.9176C54.7189 32.9176 54.9579 32.9846 55.1675 33.1188C55.3772 33.253 55.5407 33.4402 55.6581 33.6806C55.7755 33.921 55.8342 34.1921 55.8342 34.494C55.8342 34.7959 55.7755 35.067 55.6581 35.3074C55.5407 35.5478 55.3772 35.735 55.1675 35.8692C54.9579 36.0034 54.7189 36.0705 54.4506 36.0705ZM58.0563 31.7688C58.1793 31.7688 58.2855 31.724 58.3749 31.6346C58.4644 31.5452 58.5091 31.4389 58.5091 31.316C58.5091 31.1874 58.4644 31.0798 58.3749 30.9931C58.2855 30.9065 58.1793 30.8631 58.0563 30.8631C57.9277 30.8631 57.8201 30.9065 57.7334 30.9931C57.6468 31.0798 57.6035 31.1846 57.6035 31.3076C57.6035 31.4361 57.6468 31.5452 57.7334 31.6346C57.8201 31.724 57.9277 31.7688 58.0563 31.7688ZM58.3414 36.4562V32.5318H57.7712V36.4562H58.3414ZM60.2784 36.4562V34.494C60.2784 34.0132 60.379 33.6303 60.5803 33.3452C60.7815 33.0601 61.0834 32.9176 61.4859 32.9176C62.1791 32.9176 62.5257 33.3061 62.5257 34.0831V36.4562H63.0959V33.8316C63.0959 33.5353 63.0274 33.2781 62.8904 33.0601C62.7535 32.8421 62.569 32.6772 62.337 32.5654C62.105 32.4536 61.8521 32.3977 61.5781 32.3977C61.2874 32.3977 61.0317 32.4661 60.8109 32.6031C60.5901 32.7401 60.4126 32.9343 60.2784 33.1859V32.5318H59.7082V36.4562H60.2784ZM66.1314 38.1333C66.4668 38.1333 66.7659 38.055 67.0286 37.8985C67.2914 37.7419 67.4954 37.5253 67.6407 37.2486C67.7861 36.9719 67.8588 36.6574 67.8588 36.3052V32.5318H67.2886V33.1188C67.1264 32.8896 66.9266 32.7121 66.689 32.5863C66.4514 32.4606 66.1901 32.3977 65.905 32.3977C65.5304 32.3977 65.1964 32.4871 64.9029 32.666C64.6094 32.8449 64.3802 33.0923 64.2153 33.4081C64.0504 33.724 63.968 34.0831 63.968 34.4856C63.968 34.8937 64.0518 35.2571 64.2195 35.5757C64.3872 35.8944 64.6192 36.1431 64.9155 36.322C65.2118 36.5009 65.5472 36.5903 65.9217 36.5903C66.2013 36.5903 66.4584 36.5275 66.6932 36.4017C66.928 36.2759 67.1264 36.1012 67.2886 35.8776V36.3052C67.2886 36.6854 67.181 36.9984 66.9657 37.2444C66.7505 37.4904 66.4724 37.6134 66.1314 37.6134H64.5046V38.1333H66.1314ZM65.905 36.0705C65.6422 36.0705 65.4074 36.0034 65.2006 35.8692C64.9938 35.735 64.8317 35.5478 64.7143 35.3074C64.5969 35.067 64.5382 34.7931 64.5382 34.4856C64.5382 34.1837 64.5969 33.914 64.7143 33.6764C64.8317 33.4388 64.9938 33.253 65.2006 33.1188C65.4074 32.9846 65.6422 32.9176 65.905 32.9176C66.1733 32.9176 66.4123 32.9846 66.6219 33.1188C66.8316 33.253 66.9951 33.4402 67.1125 33.6806C67.2299 33.921 67.2886 34.1921 67.2886 34.494C67.2886 34.7959 67.2299 35.067 67.1125 35.3074C66.9951 35.5478 66.8316 35.735 66.6219 35.8692C66.4123 36.0034 66.1733 36.0705 65.905 36.0705ZM71.5567 36.4562V34.2676H72.7726C73.3037 34.2676 73.7299 34.1111 74.0514 33.798C74.3728 33.485 74.5335 33.0545 74.5335 32.5067C74.5335 31.9532 74.3798 31.52 74.0723 31.2069C73.7649 30.8939 73.354 30.7374 72.8397 30.7374H70.9278V36.4562H71.5567ZM72.7558 33.7477H71.5567V31.2573H72.7558C73.1304 31.2573 73.4155 31.3635 73.6111 31.5759C73.8068 31.7883 73.9046 32.0986 73.9046 32.5067C73.9046 32.9148 73.8068 33.2236 73.6111 33.4333C73.4155 33.6429 73.1304 33.7477 72.7558 33.7477ZM76.982 36.5903C77.2615 36.5903 77.5187 36.5275 77.7535 36.4017C77.9883 36.2759 78.1867 36.1012 78.3489 35.8776V36.4562H78.9191V32.5318H78.3489V33.1188C78.1867 32.8896 77.9869 32.7121 77.7493 32.5863C77.5117 32.4606 77.2504 32.3977 76.9653 32.3977C76.5907 32.3977 76.2567 32.4871 75.9632 32.666C75.6697 32.8449 75.4405 33.0923 75.2756 33.4081C75.1107 33.724 75.0282 34.0831 75.0282 34.4856C75.0282 34.8937 75.1121 35.2571 75.2798 35.5757C75.4475 35.8944 75.6795 36.1431 75.9758 36.322C76.2721 36.5009 76.6075 36.5903 76.982 36.5903ZM76.9653 36.0705C76.7025 36.0705 76.4677 36.0034 76.2609 35.8692C76.0541 35.735 75.8919 35.5478 75.7745 35.3074C75.6572 35.067 75.5985 34.7931 75.5985 34.4856C75.5985 34.1837 75.6572 33.914 75.7745 33.6764C75.8919 33.4388 76.0541 33.253 76.2609 33.1188C76.4677 32.9846 76.7025 32.9176 76.9653 32.9176C77.2336 32.9176 77.4726 32.9846 77.6822 33.1188C77.8918 33.253 78.0554 33.4402 78.1728 33.6806C78.2902 33.921 78.3489 34.1921 78.3489 34.494C78.3489 34.7959 78.2902 35.067 78.1728 35.3074C78.0554 35.5478 77.8918 35.735 77.6822 35.8692C77.4726 36.0034 77.2336 36.0705 76.9653 36.0705ZM80.5542 38.1333V35.8692C80.7163 36.0984 80.9162 36.2759 81.1538 36.4017C81.3913 36.5275 81.6527 36.5903 81.9378 36.5903C82.3123 36.5903 82.6463 36.5009 82.9398 36.322C83.2333 36.1431 83.4625 35.8958 83.6274 35.5799C83.7923 35.2641 83.8748 34.9049 83.8748 34.5024C83.8748 34.0943 83.7909 33.7309 83.6232 33.4123C83.4555 33.0937 83.2235 32.8449 82.9273 32.666C82.631 32.4871 82.2956 32.3977 81.921 32.3977C81.6415 32.3977 81.3843 32.4606 81.1496 32.5863C80.9148 32.7121 80.7163 32.8868 80.5542 33.1104V32.5318H79.984V38.1333H80.5542ZM81.9378 36.0705C81.6695 36.0705 81.4305 36.0034 81.2208 35.8692C81.0112 35.735 80.8477 35.5478 80.7303 35.3074C80.6129 35.067 80.5542 34.7959 80.5542 34.494C80.5542 34.1921 80.6129 33.921 80.7303 33.6806C80.8477 33.4402 81.0112 33.253 81.2208 33.1188C81.4305 32.9846 81.6695 32.9176 81.9378 32.9176C82.2005 32.9176 82.4353 32.9846 82.6422 33.1188C82.849 33.253 83.0111 33.4402 83.1285 33.6806C83.2459 33.921 83.3046 34.1949 83.3046 34.5024C83.3046 34.8043 83.2459 35.074 83.1285 35.3116C83.0111 35.5492 82.849 35.735 82.6422 35.8692C82.4353 36.0034 82.2005 36.0705 81.9378 36.0705ZM86.3988 36.5903C86.8125 36.5903 87.1702 36.5079 87.4721 36.343C87.774 36.1781 88.0172 35.9503 88.2016 35.6596L87.7488 35.3577C87.6147 35.5813 87.4372 35.756 87.2164 35.8818C86.9955 36.0076 86.7174 36.0705 86.382 36.0705C85.9683 36.0705 85.6413 35.9279 85.4009 35.6428C85.1606 35.3577 85.0292 35.0139 85.0068 34.6114H88.2352C88.2408 34.5555 88.2436 34.4744 88.2436 34.3682C88.2436 33.9993 88.1625 33.6653 88.0004 33.3662C87.8383 33.0671 87.6147 32.8309 87.3296 32.6576C87.0445 32.4843 86.7258 32.3977 86.3736 32.3977C85.9991 32.3977 85.6651 32.4871 85.3716 32.666C85.0781 32.8449 84.8489 33.0937 84.684 33.4123C84.5191 33.7309 84.4366 34.0915 84.4366 34.494C84.4366 34.8965 84.5205 35.2571 84.6882 35.5757C84.8559 35.8944 85.0879 36.1431 85.3842 36.322C85.6804 36.5009 86.0187 36.5903 86.3988 36.5903ZM87.6734 34.1418H85.0404C85.1019 33.7896 85.2486 33.4975 85.4806 33.2656C85.7126 33.0336 86.0103 32.9176 86.3736 32.9176C86.7482 32.9176 87.0445 33.0196 87.2625 33.2236C87.4805 33.4277 87.6175 33.7337 87.6734 34.1418ZM89.6523 36.4562V34.5779C89.6523 34.2313 89.7152 33.9308 89.841 33.6764C89.9668 33.4221 90.1331 33.2278 90.3399 33.0936C90.5467 32.9595 90.7704 32.8924 91.0107 32.8924C91.1505 32.8924 91.2791 32.9204 91.3965 32.9763V32.4564C91.2735 32.4172 91.1449 32.3977 91.0107 32.3977C90.72 32.3977 90.4587 32.4787 90.2267 32.6408C89.9947 32.803 89.8032 33.0294 89.6523 33.3201V32.5318H89.0821V36.4562H89.6523ZM96.0587 36.5903C96.5171 36.5903 96.9126 36.4757 97.2453 36.2465C97.5779 36.0173 97.8448 35.6847 98.0461 35.2487L97.5178 34.93C97.3277 35.3046 97.1223 35.5799 96.9015 35.756C96.6806 35.9321 96.3718 36.0201 95.9749 36.0201C95.6562 36.0201 95.3767 35.9237 95.1363 35.7308C94.896 35.538 94.7115 35.2599 94.5829 34.8965C94.4543 34.5331 94.39 34.1027 94.39 33.6052C94.39 32.8449 94.5312 32.2509 94.8135 31.8233C95.0958 31.3956 95.4857 31.1818 95.9833 31.1818C96.3299 31.1818 96.6233 31.2531 96.8637 31.3956C97.1041 31.5382 97.3137 31.7744 97.4926 32.1042L97.9957 31.8107C97.8057 31.4306 97.5415 31.1357 97.2033 30.926C96.8651 30.7164 96.4584 30.6116 95.9833 30.6116C95.5193 30.6116 95.1182 30.7304 94.78 30.968C94.4418 31.2055 94.1818 31.5493 94.0001 31.9994C93.8184 32.4494 93.7276 32.9874 93.7276 33.6135C93.7276 34.2341 93.8212 34.7665 94.0085 35.211C94.1958 35.6554 94.4641 35.9964 94.8135 36.234C95.1629 36.4716 95.578 36.5903 96.0587 36.5903ZM100.578 36.5903C100.953 36.5903 101.287 36.5009 101.58 36.322C101.874 36.1431 102.103 35.8944 102.268 35.5757C102.433 35.2571 102.515 34.8965 102.515 34.494C102.515 34.0915 102.432 33.7309 102.264 33.4123C102.096 33.0937 101.864 32.8449 101.568 32.666C101.272 32.4871 100.936 32.3977 100.562 32.3977C100.187 32.3977 99.8531 32.4871 99.5596 32.666C99.2661 32.8449 99.0369 33.0923 98.872 33.4081C98.7071 33.724 98.6247 34.0831 98.6247 34.4856C98.6247 34.8881 98.7085 35.2501 98.8762 35.5715C99.0439 35.893 99.2759 36.1431 99.5722 36.322C99.8685 36.5009 100.204 36.5903 100.578 36.5903ZM100.562 36.0705C100.299 36.0705 100.064 36.0034 99.8573 35.8692C99.6505 35.735 99.4883 35.5478 99.3709 35.3074C99.2535 35.067 99.1949 34.7931 99.1949 34.4856C99.1949 34.1837 99.2535 33.914 99.3709 33.6764C99.4883 33.4388 99.6505 33.253 99.8573 33.1188C100.064 32.9846 100.299 32.9176 100.562 32.9176C100.83 32.9176 101.069 32.9846 101.279 33.1188C101.488 33.253 101.652 33.4402 101.769 33.6806C101.887 33.921 101.945 34.1921 101.945 34.494C101.945 34.7959 101.887 35.067 101.769 35.3074C101.652 35.5478 101.488 35.735 101.279 35.8692C101.069 36.0034 100.83 36.0705 100.562 36.0705ZM103.891 36.4562V34.494C103.891 34.0132 103.976 33.6303 104.146 33.3452C104.317 33.0601 104.573 32.9176 104.914 32.9176C105.165 32.9176 105.369 33.0084 105.526 33.1901C105.682 33.3718 105.761 33.6694 105.761 34.0831V36.4562H106.331V34.2424C106.359 33.8344 106.458 33.5115 106.628 33.2739C106.799 33.0363 107.038 32.9176 107.345 32.9176C107.597 32.9176 107.801 33.0084 107.958 33.1901C108.114 33.3718 108.192 33.6694 108.192 34.0831V36.4562H108.763V33.8316C108.763 33.3843 108.642 33.0336 108.402 32.7792C108.162 32.5248 107.86 32.3977 107.496 32.3977C107.217 32.3977 106.971 32.4759 106.758 32.6325C106.546 32.789 106.378 33.007 106.255 33.2865C106.171 33.0014 106.023 32.782 105.811 32.6283C105.598 32.4745 105.35 32.3977 105.065 32.3977C104.807 32.3977 104.58 32.462 104.381 32.5905C104.183 32.7191 104.019 32.9036 103.891 33.144V32.5318H103.32V36.4562H103.891ZM110.356 38.1333V35.8692C110.518 36.0984 110.718 36.2759 110.955 36.4017C111.193 36.5275 111.454 36.5903 111.739 36.5903C112.114 36.5903 112.448 36.5009 112.741 36.322C113.035 36.1431 113.264 35.8958 113.429 35.5799C113.594 35.2641 113.676 34.9049 113.676 34.5024C113.676 34.0943 113.593 33.7309 113.425 33.4123C113.257 33.0937 113.025 32.8449 112.729 32.666C112.433 32.4871 112.097 32.3977 111.723 32.3977C111.443 32.3977 111.186 32.4606 110.951 32.5863C110.716 32.7121 110.518 32.8868 110.356 33.1104V32.5318H109.786V38.1333H110.356ZM111.739 36.0705C111.471 36.0705 111.232 36.0034 111.022 35.8692C110.813 35.735 110.649 35.5478 110.532 35.3074C110.414 35.067 110.356 34.7959 110.356 34.494C110.356 34.1921 110.414 33.921 110.532 33.6806C110.649 33.4402 110.813 33.253 111.022 33.1188C111.232 32.9846 111.471 32.9176 111.739 32.9176C112.002 32.9176 112.237 32.9846 112.444 33.1188C112.651 33.253 112.813 33.4402 112.93 33.6806C113.047 33.921 113.106 34.1949 113.106 34.5024C113.106 34.8043 113.047 35.074 112.93 35.3116C112.813 35.5492 112.651 35.735 112.444 35.8692C112.237 36.0034 112.002 36.0705 111.739 36.0705ZM116.192 36.5903C116.471 36.5903 116.729 36.5275 116.963 36.4017C117.198 36.2759 117.397 36.1012 117.559 35.8776V36.4562H118.129V32.5318H117.559V33.1188C117.397 32.8896 117.197 32.7121 116.959 32.5863C116.722 32.4606 116.46 32.3977 116.175 32.3977C115.801 32.3977 115.467 32.4871 115.173 32.666C114.88 32.8449 114.65 33.0923 114.486 33.4081C114.321 33.724 114.238 34.0831 114.238 34.4856C114.238 34.8937 114.322 35.2571 114.49 35.5757C114.657 35.8944 114.889 36.1431 115.186 36.322C115.482 36.5009 115.817 36.5903 116.192 36.5903ZM116.175 36.0705C115.912 36.0705 115.678 36.0034 115.471 35.8692C115.264 35.735 115.102 35.5478 114.984 35.3074C114.867 35.067 114.808 34.7931 114.808 34.4856C114.808 34.1837 114.867 33.914 114.984 33.6764C115.102 33.4388 115.264 33.253 115.471 33.1188C115.678 32.9846 115.912 32.9176 116.175 32.9176C116.444 32.9176 116.683 32.9846 116.892 33.1188C117.102 33.253 117.265 33.4402 117.383 33.6806C117.5 33.921 117.559 34.1921 117.559 34.494C117.559 34.7959 117.5 35.067 117.383 35.3074C117.265 35.5478 117.102 35.735 116.892 35.8692C116.683 36.0034 116.444 36.0705 116.175 36.0705ZM119.756 36.4562V34.494C119.756 34.0132 119.856 33.6303 120.058 33.3452C120.259 33.0601 120.561 32.9176 120.963 32.9176C121.656 32.9176 122.003 33.3061 122.003 34.0831V36.4562H122.573V33.8316C122.573 33.5353 122.505 33.2781 122.368 33.0601C122.231 32.8421 122.046 32.6772 121.814 32.5654C121.582 32.4536 121.329 32.3977 121.055 32.3977C120.765 32.3977 120.509 32.4661 120.288 32.6031C120.067 32.7401 119.89 32.9343 119.756 33.1859V32.5318H119.186V36.4562H119.756ZM124.804 38.1333L126.925 32.5318H126.389L125.139 35.7853L123.839 32.5318H123.244L124.854 36.5316L124.234 38.1333H124.804Z" fill="#637381"/>
<path fill-rule="evenodd" clip-rule="evenodd" d="M20.0317 6.17505V33.3801C17.879 34.7058 15.3163 35.7979 12.4845 36.5147C10.1464 37.1073 7.84878 37.3872 5.70113 37.3872C3.63042 37.3872 1.69922 37.1273 0 36.6344V9.42959C0.000913313 9.42959 0.00251161 9.43028 0.00342492 9.43028C0.636122 9.61337 1.30079 9.76457 1.99353 9.88204C2.63445 9.99102 3.29911 10.0711 3.98364 10.1204C4.5435 10.1622 5.11661 10.1831 5.70113 10.1831C7.8497 10.1831 10.1464 9.90223 12.4845 9.31028C15.3163 8.59261 17.879 7.50142 20.0317 6.17505ZM16.051 12.4205C15.8827 12.4778 15.7136 12.5339 15.5436 12.5887L16.051 12.5885L16.051 12.4205Z" fill="#637381"/>
<path fill-rule="evenodd" clip-rule="evenodd" d="M27.486 0.119385V30.1668C25.083 31.631 22.2222 32.8372 19.0612 33.6288C16.4513 34.2834 13.8864 34.5925 11.489 34.5925C9.17756 34.5925 7.0218 34.3054 5.125 33.7611V3.71395C5.12602 3.71395 5.1278 3.71471 5.12882 3.71471C5.83509 3.91693 6.57704 4.08393 7.35034 4.21367C8.06578 4.33404 8.80773 4.42248 9.57186 4.47696C10.1968 4.52308 10.8366 4.54614 11.489 4.54614C13.8875 4.54614 16.4513 4.23597 19.0612 3.58218C22.2222 2.78953 25.083 1.58433 27.486 0.119385Z" fill="#637381"/>
</svg>
