<svg width="119" height="30" viewBox="0 0 119 30" fill="none" xmlns="http://www.w3.org/2000/svg">
<path d="M0.925781 27.75C1.94067 27.6841 2.67218 27.5391 3.12031 27.315C3.91113 26.9064 4.30654 26.1617 4.30654 25.0809V5.11272C4.30654 4.07147 3.9309 3.34655 3.17962 2.93796C2.74467 2.70072 1.99339 2.53596 0.925781 2.4437V1.41563H13.3021C18.2975 1.41563 22.1066 2.74685 24.7295 5.40928C27.1151 7.83446 28.3079 11.09 28.3079 15.1759C28.3079 18.84 27.1085 21.944 24.7097 24.4878C22.0077 27.348 18.3436 28.778 13.7173 28.778H0.925781V27.75ZM10.8506 25.0414C10.8901 25.8718 11.0417 26.4715 11.3053 26.8405C11.5821 27.2096 12.162 27.3941 13.0451 27.3941C15.4439 27.3941 17.4144 26.5505 18.9565 24.8635C20.4986 23.1632 21.2696 19.9077 21.2696 15.0968C21.2696 12.2367 20.8545 9.77856 20.0241 7.72243C18.6797 4.41416 16.4127 2.76003 13.223 2.76003C12.1686 2.76003 11.4832 2.9841 11.1669 3.43223C10.956 3.72219 10.8506 4.28236 10.8506 5.11272V25.0414Z" fill="#637381"/>
<path d="M30.5222 19.5057C30.5222 16.6851 31.3855 14.3324 33.1122 12.4476C34.852 10.5628 37.0333 9.6204 39.6562 9.6204C42.3318 9.6204 44.5198 10.5826 46.22 12.5069C47.9335 14.4312 48.7902 16.7641 48.7902 19.5057C48.7902 22.2076 47.9466 24.534 46.2596 26.4846C44.5725 28.4222 42.3714 29.3909 39.6562 29.3909C37.0201 29.3909 34.8388 28.4485 33.1122 26.5637C31.3855 24.6658 30.5222 22.3131 30.5222 19.5057ZM36.4732 19.5057C36.4732 22.3394 36.6181 24.3231 36.9081 25.4566C37.3694 27.2096 38.2854 28.0861 39.6562 28.0861C40.9611 28.0861 41.8178 27.4139 42.2264 26.0695C42.635 24.7251 42.8393 22.5371 42.8393 19.5057C42.8393 16.4874 42.6218 14.306 42.1868 12.9616C41.7651 11.604 40.9281 10.9253 39.676 10.9253C38.3052 10.9253 37.3892 11.8017 36.9279 13.5547C36.6247 14.7278 36.4732 16.7114 36.4732 19.5057Z" fill="#637381"/>
<path d="M50.6091 27.8093C51.3867 27.717 51.9271 27.5325 52.2302 27.2557C52.5334 26.9789 52.6982 26.4451 52.7245 25.6543L52.7641 24.4681V13.4559C52.7641 12.6123 52.6191 12.039 52.3291 11.7358C52.0391 11.4327 51.4658 11.2284 50.6091 11.123V10.1344H58.2998V13.3175C59.1565 12.1972 60.0066 11.3075 60.8502 10.6485C61.6937 9.98945 62.6691 9.65994 63.7762 9.65994C64.6066 9.65994 65.3513 9.93013 66.0103 10.4705C66.6825 10.9977 67.0186 11.7754 67.0186 12.8034C67.0186 13.5943 66.7813 14.2467 66.3068 14.7607C65.8455 15.2748 65.2392 15.5318 64.488 15.5318C63.6312 15.5318 62.8866 15.1298 62.2539 14.3258C61.6344 13.5218 61.1995 13.1198 60.949 13.1198C60.4086 13.1198 59.8617 13.4559 59.3081 14.1281C58.7677 14.7871 58.4975 15.7361 58.4975 16.975V24.6262C58.4975 25.9706 58.6886 26.8141 59.0708 27.1568C59.4663 27.4863 60.2439 27.7038 61.4038 27.8093V28.778H50.6091V27.8093Z" fill="#637381"/>
<path d="M68.4223 27.8093C69.2527 27.7434 69.8458 27.5588 70.2016 27.2557C70.5707 26.9525 70.7552 26.3199 70.7552 25.3577V12.1906H68.4223V10.4112H70.7552V8.90866C70.7552 7.02387 71.0518 5.47518 71.6449 4.26259C72.7652 1.99557 74.8345 0.862061 77.8528 0.862061C79.4608 0.862061 80.8184 1.23111 81.9256 1.96921C83.0459 2.69413 83.606 3.65629 83.606 4.8557C83.606 5.60698 83.3688 6.21328 82.8943 6.67459C82.433 7.1359 81.8135 7.36656 81.0359 7.36656C80.39 7.36656 79.8365 7.15567 79.3752 6.7339C78.9138 6.31213 78.6832 5.80469 78.6832 5.21157C78.6832 4.76344 78.8282 4.29554 79.1181 3.80787C79.4213 3.30701 79.5729 3.00387 79.5729 2.89842C79.5729 2.56891 79.4542 2.35803 79.217 2.26577C78.9797 2.1735 78.7227 2.12737 78.4459 2.12737C77.7869 2.12737 77.2795 2.31849 76.9236 2.70072C76.5677 3.08295 76.3898 3.90672 76.3898 5.17203V10.4112H79.909V12.1906H76.3898V24.6262C76.3898 26.0233 76.5875 26.8801 76.9829 27.1964C77.3915 27.5127 78.2878 27.717 79.6717 27.8093V28.778H68.4223V27.8093Z" fill="#637381"/>
<path d="M89.636 10.1344V23.8749C89.636 24.6921 89.7349 25.2918 89.9326 25.674C90.2753 26.3462 90.9541 26.6823 91.969 26.6823C92.6148 26.6823 93.2475 26.4781 93.8669 26.0695C94.2228 25.8454 94.6709 25.4698 95.2113 24.9425V13.4559C95.2113 12.6123 95.04 12.0258 94.6973 11.6963C94.3678 11.3536 93.6956 11.1625 92.6807 11.123V10.1344H100.747V24.7053C100.747 25.5488 100.905 26.1354 101.222 26.4649C101.538 26.7812 102.157 26.9789 103.08 27.058V27.9872C100.576 28.2244 98.9941 28.4024 98.3351 28.521C97.6892 28.6264 96.648 28.9032 95.2113 29.3514V26.6823C94.2492 27.5127 93.4518 28.0992 92.8191 28.4419C91.712 29.0482 90.5587 29.3514 89.3593 29.3514C88.0544 29.3514 86.8352 28.9362 85.7017 28.1058C84.5814 27.2755 84.0212 25.7993 84.0212 23.6772V13.4559C84.0212 12.5992 83.8828 12.039 83.606 11.7754C83.3293 11.5118 82.7955 11.2943 82.0046 11.123V10.1344H89.636Z" fill="#637381"/>
<path d="M104.919 22.6492H106.046C106.441 24.5867 107.179 25.9574 108.26 26.7614C109.341 27.5522 110.448 27.9477 111.581 27.9477C112.623 27.9477 113.387 27.717 113.875 27.2557C114.362 26.7812 114.606 26.1617 114.606 25.3973C114.606 24.6723 114.343 24.0529 113.815 23.5388C113.525 23.262 113.058 22.9655 112.412 22.6492L109.407 21.1861C107.825 20.4085 106.691 19.565 106.006 18.6555C105.307 17.7461 104.958 16.6719 104.958 15.4329C104.958 13.8645 105.505 12.5135 106.599 11.38C107.693 10.2333 109.222 9.65994 111.186 9.65994C112.043 9.65994 112.952 9.80492 113.914 10.0949C114.876 10.3717 115.476 10.5101 115.713 10.5101C116.043 10.5101 116.274 10.4442 116.405 10.3124C116.55 10.1674 116.669 9.96968 116.761 9.71925H117.651V15.5713H116.623C116.241 14.2006 115.614 13.1 114.745 12.2696C113.875 11.4393 112.86 11.0241 111.7 11.0241C110.804 11.0241 110.131 11.2745 109.683 11.7754C109.248 12.2762 109.031 12.8166 109.031 13.3966C109.031 13.8711 109.229 14.3455 109.624 14.82C110.006 15.3077 110.731 15.8086 111.799 16.3226L114.013 17.3902C115.384 18.0492 116.386 18.6885 117.018 19.3079C118.073 20.3624 118.6 21.6606 118.6 23.2027C118.6 24.7053 118.053 26.109 116.959 27.4139C115.878 28.7055 114.25 29.3514 112.076 29.3514C111.535 29.3514 110.988 29.2921 110.435 29.1734C109.894 29.068 109.222 28.8769 108.418 28.6001L107.726 28.3628C107.476 28.2706 107.317 28.2179 107.252 28.2047C107.199 28.1915 107.126 28.1849 107.034 28.1849C106.81 28.1849 106.612 28.2772 106.441 28.4617C106.283 28.633 106.098 28.9296 105.887 29.3514H104.919V22.6492Z" fill="#637381"/>
</svg>
