<svg width="147" height="38" viewBox="0 0 147 38" fill="none" xmlns="http://www.w3.org/2000/svg">
<path d="M48.4047 23.2695V11.0957C48.4047 10.3829 48.3477 8.92416 48.2337 6.71937L49.759 12.065L53.3798 23.2695H56.3733L59.9941 12.065C60.048 11.8971 60.1067 11.7077 60.1703 11.4968L60.249 11.2334C60.5596 10.1839 60.9736 8.67929 61.4909 6.71937C61.4054 8.81011 61.3602 9.99328 61.3555 10.2689C61.3507 10.5445 61.3483 10.8201 61.3483 11.0957V23.2695H65.0832V3.18412H59.4809L55.7889 14.9731L54.8908 18.1947L54.2066 15.5005L53.8929 14.4171L50.3007 3.18412H44.6699V23.2695H48.4047ZM72.6131 23.5546C74.8749 23.5546 76.5665 22.5425 77.6879 20.5183H77.7734C77.8684 21.4781 78.1559 22.2051 78.6358 22.6993C79.1158 23.1935 79.8594 23.4406 80.8668 23.4406C81.1519 23.4406 81.4013 23.4311 81.6152 23.412C81.829 23.393 82.0309 23.3693 82.221 23.3408C82.4111 23.3123 82.6011 23.2742 82.7912 23.2267C82.9813 23.1792 83.1951 23.1269 83.4327 23.0699V20.9032C83.1476 20.9602 82.853 20.9887 82.5489 20.9887C82.0927 20.9887 81.7672 20.8248 81.5724 20.4969C81.3776 20.169 81.2802 19.5727 81.2802 18.7079V13.0914C81.2802 11.3238 80.7527 9.96002 79.6978 9.00018C78.643 8.04034 77.1414 7.56042 75.1932 7.56042C73.2641 7.56042 71.7411 7.94768 70.6245 8.72221C69.5079 9.49673 68.8212 10.6348 68.5646 12.1363L72.7414 12.3359C72.8269 11.5566 73.0431 10.9983 73.39 10.6609C73.7369 10.3235 74.2809 10.1548 75.0222 10.1548C75.8205 10.1548 76.3954 10.3996 76.747 10.889C77.0987 11.3784 77.2745 12.1268 77.2745 13.1341V13.9182L73.9531 13.9752C71.9764 13.9942 70.4677 14.4219 69.4271 15.2582C68.3865 16.0944 67.8661 17.3109 67.8661 18.9074C67.8661 20.3805 68.2843 21.5232 69.1206 22.3358C69.9569 23.1483 71.1211 23.5546 72.6131 23.5546ZM73.896 20.7606C73.3353 20.7606 72.8863 20.5824 72.5489 20.226C72.2116 19.8697 72.0429 19.3256 72.0429 18.5938C72.0429 18.0236 72.145 17.5675 72.3494 17.2253C72.5537 16.8832 72.8507 16.629 73.2403 16.4627C73.6299 16.2964 74.2904 16.1942 75.2218 16.1562L77.2745 16.1277V16.9117C77.2745 17.5865 77.1272 18.2256 76.8326 18.829C76.538 19.4325 76.1317 19.9053 75.6138 20.2474C75.0958 20.5895 74.5233 20.7606 73.896 20.7606ZM89.2662 23.2695V15.7001C89.2662 14.113 89.5442 12.9156 90.1002 12.1078C90.6561 11.3 91.433 10.8961 92.4309 10.8961C92.925 10.8961 93.4952 10.9674 94.1415 11.1099V7.75999C93.8279 7.61744 93.4145 7.54617 92.9013 7.54617C92.2741 7.54617 91.7514 7.65308 91.3332 7.86691C90.9151 8.08073 90.5539 8.4086 90.2498 8.8505C89.9457 9.29241 89.5989 10.0551 89.2092 11.1384H89.1522C89.1522 10.8533 89.1284 10.276 89.0809 9.40645C89.0334 8.53689 88.9954 8.01658 88.9669 7.84552H85.1465C85.175 8.28268 85.2012 8.78398 85.2249 9.34943C85.2487 9.91488 85.2606 10.6205 85.2606 11.4663V23.2695H89.2662ZM100.545 23.5261C101.809 23.5261 102.935 23.3645 103.924 23.0414V20.561C103.344 20.6941 102.897 20.7606 102.584 20.7606C101.985 20.7606 101.543 20.5824 101.258 20.226C100.973 19.8697 100.83 19.3161 100.83 18.5653V10.554H103.753V7.84552H100.83V4.22474H98.3214L97.067 7.84552H94.9145V10.554H96.8674V19.6487C96.8674 20.9507 97.1858 21.9224 97.8225 22.5639C98.4592 23.2053 99.3668 23.5261 100.545 23.5261ZM110.299 5.06579V2.11499H106.293V5.06579H110.299ZM110.299 23.2695V7.84552H106.293V23.2695H110.299ZM118.385 23.2695V15.0016C118.385 13.6996 118.682 12.6328 119.276 11.8013C119.87 10.9698 120.651 10.554 121.621 10.554C123.455 10.554 124.372 11.9082 124.372 14.6167V23.2695H128.363V13.4763C128.363 11.5376 127.926 10.0646 127.052 9.0572C126.178 8.04985 124.923 7.54617 123.289 7.54617C122.158 7.54617 121.184 7.81226 120.366 8.34445C119.549 8.87664 118.869 9.73194 118.328 10.9104H118.271C118.271 10.6158 118.247 10.0764 118.2 9.29241C118.152 8.50838 118.114 8.02609 118.085 7.84552H114.265C114.294 8.26367 114.32 8.73646 114.344 9.2639C114.367 9.79134 114.379 10.4685 114.379 11.2952V23.2695H118.385ZM139.001 23.5546C141.453 23.5546 143.372 22.8442 144.76 21.4235C146.147 20.0027 146.841 18.0426 146.841 15.5433C146.841 12.9678 146.178 10.9935 144.853 9.62028C143.527 8.24704 141.605 7.56042 139.086 7.56042C136.625 7.56042 134.71 8.2708 133.342 9.69155C131.973 11.1123 131.289 13.0629 131.289 15.5433C131.289 18.0331 131.973 19.9908 133.342 21.4163C134.71 22.8418 136.597 23.5546 139.001 23.5546ZM138.958 20.8176C137.837 20.8176 136.979 20.3686 136.385 19.4705C135.791 18.5725 135.494 17.2634 135.494 15.5433C135.494 12.0555 136.711 10.3116 139.143 10.3116C140.284 10.3116 141.153 10.725 141.752 11.5518C142.351 12.3786 142.65 13.7091 142.65 15.5433C142.65 19.0595 141.419 20.8176 138.958 20.8176Z" fill="#637381"/>
<path opacity="0.595853" d="M84.3768 35.8475C84.6809 35.8475 84.9625 35.7988 85.2218 35.7016C85.481 35.6044 85.6991 35.4748 85.8761 35.3128C86.0531 35.1507 86.2002 34.9862 86.3173 34.8192C86.4345 34.6522 86.5304 34.479 86.6052 34.2995L85.7228 34.0228C85.6131 34.297 85.4374 34.5288 85.1956 34.7183C84.9538 34.9077 84.6759 35.0024 84.3618 35.0024C83.8782 35.0024 83.4918 34.8005 83.2027 34.3967C82.9135 33.9929 82.769 33.4445 82.769 32.7515C82.769 32.0685 82.9123 31.5239 83.199 31.1176C83.4856 30.7113 83.8732 30.5081 84.3618 30.5081C84.8753 30.5081 85.2916 30.7948 85.6106 31.3681L86.4557 31.0914C86.2812 30.6876 86.0157 30.3486 85.6592 30.0744C85.3028 29.8002 84.8753 29.6631 84.3768 29.6631C83.604 29.6631 82.9734 29.941 82.4848 30.4969C81.9962 31.0528 81.752 31.8043 81.752 32.7515C81.752 33.7137 82 34.4702 82.496 35.0211C82.9921 35.572 83.619 35.8475 84.3768 35.8475ZM89.0356 35.8475C89.3347 35.8475 89.6027 35.7976 89.8395 35.6979C90.0763 35.5982 90.267 35.4698 90.4115 35.3128C90.5561 35.1557 90.6758 34.9738 90.7705 34.7669C90.8652 34.56 90.9313 34.3568 90.9687 34.1574C91.0061 33.958 91.0248 33.7586 91.0248 33.5592C91.0248 32.9161 90.8552 32.3726 90.5162 31.9289C90.1772 31.4853 89.6837 31.2634 89.0356 31.2634C88.3825 31.2634 87.8865 31.4853 87.5475 31.9289C87.2084 32.3726 87.0389 32.9161 87.0389 33.5592C87.0389 33.7686 87.0576 33.9742 87.095 34.1761C87.1324 34.378 87.1997 34.5824 87.2969 34.7893C87.3942 34.9962 87.5163 35.1757 87.6634 35.3277C87.8104 35.4798 88.0024 35.6044 88.2392 35.7016C88.476 35.7988 88.7414 35.8475 89.0356 35.8475ZM89.0356 35.0398C88.7614 35.0398 88.5221 34.9177 88.3177 34.6734C88.1133 34.4291 88.0111 34.0577 88.0111 33.5592C88.0111 33.0507 88.1145 32.6755 88.3214 32.4337C88.5283 32.1919 88.7664 32.071 89.0356 32.071C89.3048 32.071 89.5416 32.1919 89.746 32.4337C89.9504 32.6755 90.0526 33.0507 90.0526 33.5592C90.0526 34.0577 89.9504 34.4291 89.746 34.6734C89.5416 34.9177 89.3048 35.0398 89.0356 35.0398ZM92.827 35.7128V29.6033H91.8847V35.7128H92.827ZM95.6836 35.8475C95.9827 35.8475 96.2507 35.7976 96.4875 35.6979C96.7243 35.5982 96.915 35.4698 97.0595 35.3128C97.2041 35.1557 97.3238 34.9738 97.4185 34.7669C97.5132 34.56 97.5793 34.3568 97.6167 34.1574C97.6541 33.958 97.6727 33.7586 97.6727 33.5592C97.6727 32.9161 97.5032 32.3726 97.1642 31.9289C96.8252 31.4853 96.3317 31.2634 95.6836 31.2634C95.0305 31.2634 94.5345 31.4853 94.1954 31.9289C93.8564 32.3726 93.6869 32.9161 93.6869 33.5592C93.6869 33.7686 93.7056 33.9742 93.743 34.1761C93.7804 34.378 93.8477 34.5824 93.9449 34.7893C94.0421 34.9962 94.1643 35.1757 94.3114 35.3277C94.4584 35.4798 94.6504 35.6044 94.8872 35.7016C95.124 35.7988 95.3894 35.8475 95.6836 35.8475ZM95.6836 35.0398C95.4094 35.0398 95.1701 34.9177 94.9657 34.6734C94.7613 34.4291 94.6591 34.0577 94.6591 33.5592C94.6591 33.0507 94.7625 32.6755 94.9694 32.4337C95.1763 32.1919 95.4144 32.071 95.6836 32.071C95.9528 32.071 96.1896 32.1919 96.394 32.4337C96.5984 32.6755 96.7006 33.0507 96.7006 33.5592C96.7006 34.0577 96.5984 34.4291 96.394 34.6734C96.1896 34.9177 95.9528 35.0398 95.6836 35.0398ZM99.4002 35.7128V33.5143C99.4002 33.0955 99.4862 32.7603 99.6582 32.5085C99.8302 32.2567 100.078 32.1309 100.402 32.1309C100.587 32.1309 100.774 32.1608 100.963 32.2206V31.3606C100.819 31.2958 100.632 31.2634 100.402 31.2634C100.158 31.2634 99.9473 31.3232 99.7703 31.4429C99.5934 31.5625 99.4575 31.7021 99.3628 31.8616V31.398H98.4505V35.7128H99.4002ZM103.005 35.8475C103.548 35.8475 103.968 35.7241 104.265 35.4773C104.561 35.2305 104.71 34.9301 104.71 34.5762C104.71 34.0029 104.266 33.5741 103.379 33.29C103.354 33.28 103.314 33.2675 103.259 33.2526C103.049 33.1828 102.887 33.1254 102.773 33.0806C102.658 33.0357 102.547 32.9647 102.44 32.8674C102.333 32.7702 102.279 32.6593 102.279 32.5347C102.279 32.3851 102.34 32.2642 102.462 32.172C102.585 32.0798 102.76 32.0336 102.99 32.0336C103.408 32.0336 103.765 32.2355 104.059 32.6394L104.687 32.258C104.533 31.9688 104.298 31.7308 103.984 31.5438C103.67 31.3569 103.336 31.2634 102.982 31.2634C102.509 31.2634 102.112 31.3781 101.793 31.6074C101.474 31.8367 101.315 32.1408 101.315 32.5197C101.315 32.7141 101.349 32.8849 101.419 33.032C101.489 33.179 101.591 33.3012 101.726 33.3984C101.86 33.4956 101.989 33.5729 102.111 33.6302C102.233 33.6875 102.384 33.7461 102.563 33.8059C102.583 33.8109 102.616 33.8209 102.661 33.8359C102.91 33.9156 103.097 33.9792 103.221 34.0265C103.346 34.0739 103.465 34.1449 103.577 34.2397C103.689 34.3344 103.745 34.4441 103.745 34.5687C103.745 34.7233 103.676 34.8466 103.539 34.9389C103.402 35.0311 103.216 35.0772 102.982 35.0772C102.504 35.0772 102.115 34.8579 101.816 34.4191L101.135 34.8155C101.31 35.1345 101.56 35.3863 101.887 35.5708C102.213 35.7552 102.586 35.8475 103.005 35.8475ZM109.069 35.8475C109.368 35.8475 109.636 35.7976 109.873 35.6979C110.11 35.5982 110.301 35.4698 110.445 35.3128C110.59 35.1557 110.71 34.9738 110.804 34.7669C110.899 34.56 110.965 34.3568 111.002 34.1574C111.04 33.958 111.058 33.7586 111.058 33.5592C111.058 32.9161 110.889 32.3726 110.55 31.9289C110.211 31.4853 109.717 31.2634 109.069 31.2634C108.416 31.2634 107.92 31.4853 107.581 31.9289C107.242 32.3726 107.073 32.9161 107.073 33.5592C107.073 33.7686 107.091 33.9742 107.129 34.1761C107.166 34.378 107.233 34.5824 107.331 34.7893C107.428 34.9962 107.55 35.1757 107.697 35.3277C107.844 35.4798 108.036 35.6044 108.273 35.7016C108.51 35.7988 108.775 35.8475 109.069 35.8475ZM109.069 35.0398C108.795 35.0398 108.556 34.9177 108.351 34.6734C108.147 34.4291 108.045 34.0577 108.045 33.5592C108.045 33.0507 108.148 32.6755 108.355 32.4337C108.562 32.1919 108.8 32.071 109.069 32.071C109.339 32.071 109.575 32.1919 109.78 32.4337C109.984 32.6755 110.086 33.0507 110.086 33.5592C110.086 34.0577 109.984 34.4291 109.78 34.6734C109.575 34.9177 109.339 35.0398 109.069 35.0398ZM113.115 35.7128V32.2056H114.012V31.398H113.115V31.0017C113.115 30.7923 113.151 30.6402 113.223 30.5455C113.296 30.4508 113.409 30.4034 113.564 30.4034H114.11V29.6033H113.429C113.025 29.6033 112.712 29.7142 112.491 29.936C112.269 30.1579 112.158 30.4907 112.158 30.9344V31.398H111.5V32.2056H112.158V35.7128H113.115ZM116.772 37.4777C117.146 37.4777 117.458 37.3879 117.71 37.2085C117.962 37.029 118.168 36.7199 118.327 36.2812L120.114 31.398H119.082L118.402 33.619C118.242 34.1923 118.15 34.5238 118.125 34.6136H118.095C118.031 34.3593 117.936 34.0278 117.811 33.619L117.071 31.398H116.031L117.647 35.6082L117.505 36.0344C117.42 36.2737 117.306 36.442 117.164 36.5392C117.022 36.6364 116.839 36.685 116.615 36.685H116.48V37.4777H116.772ZM122.433 35.8475C122.732 35.8475 123 35.7976 123.237 35.6979C123.473 35.5982 123.664 35.4698 123.809 35.3128C123.953 35.1557 124.073 34.9738 124.168 34.7669C124.262 34.56 124.328 34.3568 124.366 34.1574C124.403 33.958 124.422 33.7586 124.422 33.5592C124.422 32.9161 124.252 32.3726 123.913 31.9289C123.574 31.4853 123.081 31.2634 122.433 31.2634C121.78 31.2634 121.283 31.4853 120.944 31.9289C120.605 32.3726 120.436 32.9161 120.436 33.5592C120.436 33.7686 120.455 33.9742 120.492 34.1761C120.529 34.378 120.597 34.5824 120.694 34.7893C120.791 34.9962 120.913 35.1757 121.06 35.3277C121.207 35.4798 121.399 35.6044 121.636 35.7016C121.873 35.7988 122.138 35.8475 122.433 35.8475ZM122.433 35.0398C122.158 35.0398 121.919 34.9177 121.715 34.6734C121.51 34.4291 121.408 34.0577 121.408 33.5592C121.408 33.0507 121.512 32.6755 121.718 32.4337C121.925 32.1919 122.163 32.071 122.433 32.071C122.702 32.071 122.939 32.1919 123.143 32.4337C123.347 32.6755 123.45 33.0507 123.45 33.5592C123.45 34.0577 123.347 34.4291 123.143 34.6734C122.939 34.9177 122.702 35.0398 122.433 35.0398ZM126.598 35.8475C126.892 35.8475 127.138 35.7802 127.334 35.6455C127.531 35.5109 127.665 35.3664 127.735 35.2118H127.742V35.7128H128.654V31.398H127.712V33.8134C127.712 34.1474 127.632 34.4353 127.473 34.6771C127.313 34.9189 127.091 35.0398 126.807 35.0398C126.334 35.0398 126.097 34.7033 126.097 34.0303V31.398H125.147V34.1499C125.147 34.474 125.192 34.7532 125.282 34.9875C125.371 35.2218 125.491 35.3975 125.641 35.5147C125.79 35.6318 125.944 35.7166 126.101 35.7689C126.258 35.8213 126.423 35.8475 126.598 35.8475ZM130.636 35.7128V33.5143C130.636 33.0955 130.722 32.7603 130.894 32.5085C131.066 32.2567 131.314 32.1309 131.638 32.1309C131.823 32.1309 132.01 32.1608 132.199 32.2206V31.3606C132.054 31.2958 131.867 31.2634 131.638 31.2634C131.394 31.2634 131.183 31.3232 131.006 31.4429C130.829 31.5625 130.693 31.7021 130.599 31.8616V31.398H129.686V35.7128H130.636ZM135.587 35.7128V29.6033H134.644V35.7128H135.587ZM137.763 30.7549V29.7154H136.746V30.7549H137.763ZM137.725 35.7128V31.398H136.79V35.7128H137.725ZM140.126 35.7128V32.2056H141.023V31.398H140.126V31.0017C140.126 30.7923 140.162 30.6402 140.234 30.5455C140.306 30.4508 140.42 30.4034 140.574 30.4034H141.12V29.6033H140.44C140.036 29.6033 139.723 29.7142 139.501 29.936C139.279 30.1579 139.169 30.4907 139.169 30.9344V31.398H138.51V32.2056H139.169V35.7128H140.126ZM143.438 35.8475C143.907 35.8475 144.298 35.7403 144.613 35.5259C144.927 35.3115 145.153 35.0448 145.293 34.7257L144.5 34.4565C144.406 34.641 144.267 34.7918 144.085 34.909C143.903 35.0261 143.693 35.0847 143.453 35.0847C143.109 35.0847 142.839 34.9663 142.642 34.7295C142.445 34.4927 142.347 34.2098 142.347 33.8807H145.338C145.353 33.7561 145.36 33.629 145.36 33.4993C145.36 32.8363 145.176 32.2979 144.807 31.8841C144.438 31.4703 143.969 31.2634 143.401 31.2634C142.823 31.2634 142.343 31.469 141.962 31.8803C141.58 32.2916 141.39 32.8438 141.39 33.5367C141.39 34.2397 141.58 34.8005 141.962 35.2193C142.343 35.6381 142.835 35.8475 143.438 35.8475ZM144.396 33.2152H142.362C142.367 32.8961 142.463 32.6182 142.65 32.3814C142.837 32.1446 143.087 32.0262 143.401 32.0262C143.715 32.0262 143.959 32.1421 144.134 32.3739C144.308 32.6057 144.396 32.8861 144.396 33.2152Z" fill="#637381"/>
<path d="M9.21434 5.60423L9.21434 35.3866C9.2142 35.6717 9.06741 35.9354 8.82842 36.0799C8.58942 36.2245 8.29386 36.2284 8.05135 36.0902L1.00294 32.0655C0.754154 31.9237 0.599756 31.6544 0.599609 31.362L0.599609 1.57957C0.599752 1.29455 0.746538 1.03086 0.985531 0.886288C1.22452 0.741718 1.52008 0.737831 1.7626 0.876068L8.81101 4.90072C9.05979 5.04253 9.21419 5.31184 9.21434 5.60423Z" fill="#637381"/>
<path d="M20.7007 5.6052L20.7007 35.3876C20.7005 35.6726 20.5537 35.9363 20.3147 36.0809C20.0758 36.2255 19.7802 36.2294 19.5377 36.0911L12.4893 32.0665C12.2405 31.9247 12.0861 31.6554 12.0859 31.363L12.0859 1.58055C12.0861 1.29553 12.2329 1.03183 12.4719 0.887264C12.7109 0.742695 13.0064 0.738808 13.2489 0.877045L20.2973 4.90169C20.5461 5.0435 20.7005 5.31281 20.7007 5.6052Z" fill="#637381"/>
<path d="M32.185 5.6052V35.3876C32.1849 35.6726 32.0381 35.9363 31.7991 36.0809C31.5601 36.2255 31.2646 36.2294 31.0221 36.0911L23.9736 32.0665C23.7249 31.9247 23.5705 31.6554 23.5703 31.363L23.5703 1.58055C23.5705 1.29553 23.7172 1.03183 23.9562 0.887264C24.1952 0.742695 24.4908 0.738808 24.7333 0.877045L31.7817 4.90169C32.0305 5.0435 32.1849 5.31281 32.185 5.6052Z" fill="#637381"/>
</svg>
