<svg width="26" height="25" viewBox="0 0 26 25" fill="none" xmlns="http://www.w3.org/2000/svg">
<g clip-path="url(#clip0_2351_60145)">
<path d="M23.5916 10.9378H22.3753C22.3061 10.687 22.157 10.4656 21.9507 10.307C21.7444 10.1484 21.4921 10.0613 21.2319 10.0589H19.9336V6.8839C19.9351 6.8245 19.9207 6.76579 19.892 6.71377C19.8633 6.66176 19.8213 6.61832 19.7702 6.5879L10.6112 1.29776C10.5596 1.26776 10.5009 1.25195 10.4412 1.25195C10.3815 1.25195 10.3229 1.26776 10.2712 1.29776L1.10938 6.5879C1.05754 6.61795 1.01453 6.66113 0.984702 6.7131C0.95487 6.76507 0.939263 6.82398 0.939455 6.8839V17.4642C0.939456 17.5242 0.95525 17.5832 0.985249 17.6351C1.01525 17.6871 1.05839 17.7302 1.11035 17.7602L10.2731 23.0504C10.3251 23.0804 10.384 23.0961 10.444 23.0962C10.5056 23.0962 10.5661 23.0804 10.6198 23.0504L15.4414 20.2692V22.2797C15.4409 22.4711 15.4784 22.6607 15.5517 22.8375C15.6249 23.0144 15.7326 23.1749 15.8683 23.3099C16.004 23.4448 16.1652 23.5515 16.3425 23.6238C16.5197 23.696 16.7095 23.7324 16.9009 23.7308H23.5916C23.7835 23.7326 23.9739 23.6964 24.1517 23.6243C24.3296 23.5522 24.4914 23.4457 24.628 23.3108C24.7645 23.176 24.873 23.0154 24.9472 22.8385C25.0215 22.6615 25.06 22.4716 25.0605 22.2797V12.4115C25.0603 12.0216 24.9056 11.6476 24.6303 11.3714C24.355 11.0952 23.9816 10.9393 23.5916 10.9378ZM21.2441 10.7425C21.3757 10.7425 21.5019 10.7948 21.5949 10.8878C21.688 10.9809 21.7402 11.107 21.7402 11.2386V11.2717C21.7402 11.4033 21.688 11.5295 21.5949 11.6226C21.5019 11.7156 21.3757 11.7679 21.2441 11.7679H19.2579C19.1263 11.7679 19.0001 11.7156 18.907 11.6226C18.814 11.5295 18.7617 11.4033 18.7617 11.2717V11.2386C18.7617 11.107 18.814 10.9809 18.907 10.8878C19.0001 10.7948 19.1263 10.7425 19.2579 10.7425H21.2441ZM10.444 1.98844L14.2514 4.18658L5.77276 9.0817L1.96548 6.88355L10.444 1.98844ZM10.1191 22.1623L1.62305 17.2669V7.47516L10.1191 12.3706V22.1623ZM10.444 11.7786L6.45635 9.47633L14.935 4.58126L18.9229 6.88355L10.444 11.7786ZM15.4414 12.4115V19.4799L10.8027 22.1623V12.3706L19.25 7.47516V10.0589H19.2606C19.0004 10.0613 18.7481 10.1484 18.5418 10.307C18.3355 10.4656 18.1865 10.687 18.1172 10.9378H16.9009C16.512 10.9397 16.1397 11.096 15.866 11.3724C15.5922 11.6488 15.4395 12.0226 15.4414 12.4115ZM24.377 22.2797C24.3765 22.3819 24.3557 22.4829 24.3159 22.577C24.276 22.6711 24.2179 22.7563 24.1448 22.8277C24.0717 22.8991 23.9852 22.9553 23.8902 22.9929C23.7953 23.0306 23.6938 23.0491 23.5916 23.0472H16.9009C16.7993 23.0489 16.6983 23.0303 16.6039 22.9924C16.5096 22.9546 16.4237 22.8982 16.3515 22.8267C16.2792 22.7552 16.2219 22.67 16.183 22.5761C16.1441 22.4821 16.1244 22.3814 16.125 22.2797V12.4115C16.124 12.3087 16.1432 12.2066 16.1817 12.1112C16.2201 12.0158 16.277 11.9289 16.3491 11.8555C16.4212 11.7822 16.507 11.7237 16.6017 11.6835C16.6964 11.6433 16.7981 11.6222 16.9009 11.6214H18.1305C18.2038 11.8633 18.3536 12.075 18.5573 12.2246C18.7611 12.3743 19.0078 12.4539 19.2606 12.4515H21.2319C21.4847 12.4539 21.7315 12.3743 21.9352 12.2247C22.1389 12.075 22.2887 11.8633 22.362 11.6214H23.5916C23.8003 11.6227 24 11.7065 24.1472 11.8546C24.2943 12.0026 24.3769 12.2028 24.377 12.4115V22.2797Z" fill="#47072C"/>
<path d="M17.2944 15.8691H17.6522C17.7428 15.8691 17.8297 15.8331 17.8938 15.769C17.9579 15.7049 17.994 15.618 17.994 15.5273C17.994 15.4367 17.9579 15.3498 17.8938 15.2857C17.8297 15.2216 17.7428 15.1855 17.6522 15.1855H17.6387V14.2578H18.5814C18.6029 14.3265 18.6463 14.3863 18.705 14.428C18.7637 14.4697 18.8344 14.491 18.9064 14.4886C18.9971 14.4889 19.0843 14.4531 19.1487 14.3892C19.2131 14.3252 19.2496 14.2384 19.25 14.1476V13.9176C19.2492 13.8264 19.2125 13.7392 19.1478 13.6749C19.0831 13.6106 18.9957 13.5744 18.9045 13.5742H17.2944C17.2496 13.5744 17.2052 13.5835 17.1639 13.6009C17.1225 13.6183 17.085 13.6437 17.0535 13.6756C17.022 13.7075 16.9971 13.7453 16.9802 13.7868C16.9633 13.8283 16.9548 13.8728 16.9551 13.9176V15.5277C16.9548 15.5725 16.9634 15.6168 16.9803 15.6582C16.9973 15.6996 17.0222 15.7373 17.0537 15.769C17.0853 15.8007 17.1228 15.8259 17.1641 15.8431C17.2054 15.8603 17.2497 15.8691 17.2944 15.8691Z" fill="#47072C"/>
<path d="M17.2969 18.9941H18.9082C18.9989 18.9941 19.0858 18.9581 19.1499 18.894C19.214 18.8299 19.25 18.743 19.25 18.6523V17.041C19.25 16.9504 19.214 16.8634 19.1499 16.7993C19.0858 16.7352 18.9989 16.6992 18.9082 16.6992H17.2969C17.2062 16.6992 17.1193 16.7352 17.0552 16.7993C16.9911 16.8634 16.9551 16.9504 16.9551 17.041V18.6523C16.9551 18.743 16.9911 18.8299 17.0552 18.894C17.1193 18.9581 17.2062 18.9941 17.2969 18.9941ZM17.6387 17.3828H18.5664V18.3105H17.6387V17.3828Z" fill="#47072C"/>
<path d="M17.6522 21.4355H17.6387V20.5078H18.563C18.5647 20.5977 18.6016 20.6833 18.6658 20.7463C18.73 20.8093 18.8163 20.8446 18.9062 20.8447C18.9961 20.8448 19.0824 20.8096 19.1467 20.7468C19.211 20.6839 19.2481 20.5984 19.25 20.5085V20.1792C19.2497 20.0867 19.2135 19.9981 19.149 19.9319C19.0845 19.8656 18.9969 19.8271 18.9045 19.8242H17.2944C17.2027 19.8273 17.1158 19.8662 17.0524 19.9325C16.989 19.9988 16.9541 20.0874 16.9551 20.1792V21.7893C16.9551 21.8334 16.9639 21.8771 16.981 21.9177C16.9982 21.9584 17.0233 21.9952 17.055 22.026C17.0866 22.0567 17.1241 22.0808 17.1652 22.0968C17.2064 22.1128 17.2503 22.1204 17.2944 22.1191H17.6522C17.7429 22.1191 17.8298 22.0831 17.8939 22.019C17.958 21.9549 17.994 21.868 17.994 21.7773C17.994 21.6867 17.958 21.5998 17.8939 21.5357C17.8298 21.4716 17.7429 21.4355 17.6522 21.4355Z" fill="#47072C"/>
<path d="M19.6917 13.9928L18.6907 14.9938L18.3862 14.6893C18.3545 14.6575 18.3168 14.6324 18.2754 14.6152C18.2339 14.598 18.1894 14.5892 18.1445 14.5892C18.0997 14.5892 18.0552 14.598 18.0137 14.6152C17.9723 14.6324 17.9346 14.6575 17.9028 14.6893C17.8711 14.721 17.8459 14.7587 17.8288 14.8002C17.8116 14.8416 17.8027 14.8861 17.8027 14.931C17.8027 14.9759 17.8116 15.0203 17.8288 15.0618C17.8459 15.1033 17.8711 15.1409 17.9028 15.1727L18.4491 15.7189C18.4808 15.7506 18.5185 15.7758 18.56 15.793C18.6015 15.8101 18.6459 15.819 18.6908 15.819C18.7357 15.819 18.7801 15.8101 18.8216 15.793C18.8631 15.7758 18.9007 15.7506 18.9325 15.7189L20.1753 14.4761C20.2394 14.412 20.2754 14.325 20.2754 14.2344C20.2754 14.1437 20.2394 14.0568 20.1753 13.9927C20.1112 13.9286 20.0242 13.8926 19.9336 13.8926C19.8429 13.8926 19.756 13.9286 19.6919 13.9927L19.6917 13.9928Z" fill="#47072C"/>
<path d="M19.6917 20.3053L18.6907 21.3063L18.3862 21.0018C18.3545 20.97 18.3168 20.9449 18.2754 20.9277C18.2339 20.9105 18.1894 20.9017 18.1445 20.9017C18.0997 20.9017 18.0552 20.9105 18.0137 20.9277C17.9723 20.9449 17.9346 20.97 17.9028 21.0018C17.8711 21.0335 17.8459 21.0712 17.8288 21.1127C17.8116 21.1541 17.8027 21.1986 17.8027 21.2435C17.8027 21.2884 17.8116 21.3328 17.8288 21.3743C17.8459 21.4158 17.8711 21.4534 17.9028 21.4852L18.4491 22.0314C18.4808 22.0631 18.5185 22.0883 18.56 22.1055C18.6015 22.1226 18.6459 22.1315 18.6908 22.1315C18.7357 22.1315 18.7801 22.1226 18.8216 22.1055C18.8631 22.0883 18.9007 22.0631 18.9325 22.0314L20.1753 20.7886C20.2394 20.7245 20.2754 20.6375 20.2754 20.5469C20.2754 20.4562 20.2394 20.3693 20.1753 20.3052C20.1112 20.2411 20.0242 20.2051 19.9336 20.2051C19.8429 20.2051 19.756 20.2411 19.6919 20.3052L19.6917 20.3053Z" fill="#47072C"/>
<path d="M23.1976 14.4043H21.0508C20.9601 14.4043 20.8732 14.4403 20.8091 14.5044C20.745 14.5685 20.709 14.6554 20.709 14.7461C20.709 14.8367 20.745 14.9237 20.8091 14.9878C20.8732 15.0519 20.9601 15.0879 21.0508 15.0879H23.1976C23.2882 15.0879 23.3751 15.0519 23.4392 14.9878C23.5033 14.9237 23.5394 14.8367 23.5394 14.7461C23.5394 14.6554 23.5033 14.5685 23.4392 14.5044C23.3751 14.4403 23.2882 14.4043 23.1976 14.4043Z" fill="#E6582A"/>
<path d="M23.1976 17.5293H21.0508C20.9601 17.5293 20.8732 17.5653 20.8091 17.6294C20.745 17.6935 20.709 17.7804 20.709 17.8711C20.709 17.9617 20.745 18.0487 20.8091 18.1128C20.8732 18.1769 20.9601 18.2129 21.0508 18.2129H23.1976C23.2882 18.2129 23.3751 18.1769 23.4392 18.1128C23.5033 18.0487 23.5394 17.9617 23.5394 17.8711C23.5394 17.7804 23.5033 17.6935 23.4392 17.6294C23.3751 17.5653 23.2882 17.5293 23.1976 17.5293Z" fill="#E6582A"/>
<path d="M23.1976 20.6543H21.0508C20.9601 20.6543 20.8732 20.6903 20.8091 20.7544C20.745 20.8185 20.709 20.9054 20.709 20.9961C20.709 21.0867 20.745 21.1737 20.8091 21.2378C20.8732 21.3019 20.9601 21.3379 21.0508 21.3379H23.1976C23.2882 21.3379 23.3751 21.3019 23.4392 21.2378C23.5033 21.1737 23.5394 21.0867 23.5394 20.9961C23.5394 20.9054 23.5033 20.8185 23.4392 20.7544C23.3751 20.6903 23.2882 20.6543 23.1976 20.6543Z" fill="#E6582A"/>
</g>
<defs>
<clipPath id="clip0_2351_60145">
<rect width="25" height="25" fill="white" transform="translate(0.5)"/>
</clipPath>
</defs>
</svg>
