<svg width="168" height="26" viewBox="0 0 168 26" fill="none" xmlns="http://www.w3.org/2000/svg">
<path d="M7.28181 20.6404C11.1783 20.6404 14.3371 17.3431 14.3371 13.2758C14.3371 9.20839 11.1783 5.91113 7.28181 5.91113C3.38531 5.91113 0.226562 9.20839 0.226562 13.2758C0.226562 17.3431 3.38531 20.6404 7.28181 20.6404Z" fill="#E6582A"/>
<path d="M26.3599 20.6404C30.2564 20.6404 33.4152 17.3431 33.4152 13.2758C33.4152 9.20839 30.2564 5.91113 26.3599 5.91113C22.4634 5.91113 19.3047 9.20839 19.3047 13.2758C19.3047 17.3431 22.4634 20.6404 26.3599 20.6404Z" fill="#E6582A"/>
<path d="M45.4361 20.6404C49.3326 20.6404 52.4914 17.3431 52.4914 13.2758C52.4914 9.20839 49.3326 5.91113 45.4361 5.91113C41.5396 5.91113 38.3809 9.20839 38.3809 13.2758C38.3809 17.3431 41.5396 20.6404 45.4361 20.6404Z" fill="#E6582A"/>
<path d="M71.0286 0.487649H72.5346V5.04337L72.258 5.07545C71.7969 5.13962 71.09 5.13962 70.4139 5.26795C69.707 5.39628 69.0923 5.52461 68.7849 5.74919C68.2624 6.13418 67.9551 6.87208 67.9551 7.54581V13.1603H71.5511V17.6839H67.9551V25.512H62.9453V8.25163C62.9453 6.39084 63.0683 3.31091 64.8816 1.96345C66.4798 0.808475 69.1845 0.487649 71.0286 0.487649ZM74.2765 3.37508C74.2765 4.88296 75.4444 6.23043 77.0733 6.23043C78.6716 6.23043 79.9009 4.88296 79.9009 3.37508C79.9009 1.89928 78.6716 0.455566 77.0733 0.455566C75.4444 0.455566 74.2765 1.89928 74.2765 3.37508ZM74.5838 6.93624V25.512H79.5629V6.93624H74.5838ZM81.6428 16.176C81.6428 21.213 85.7306 25.5441 90.9248 25.5441C92.4615 25.5441 93.906 25.2233 95.2276 24.5496V25.512H100.207V25.2233C100.207 22.2075 100.237 19.1918 100.237 16.176C100.237 11.0749 100.207 5.94168 100.207 0.840557V0.519731H95.3198V7.89872C93.9675 7.1929 92.4922 6.83999 90.9248 6.83999C85.7306 6.83999 81.6428 11.1711 81.6428 16.176ZM93.9982 19.3522C93.1684 20.2184 92.1542 20.6676 90.9248 20.6676C88.4967 20.6676 86.6219 18.5501 86.6219 16.176C86.6219 13.834 88.4967 11.7165 90.9248 11.7165C92.1542 11.7165 93.1684 12.1978 93.9982 13.0319C94.6129 13.6736 95.2276 14.7965 95.2276 15.6306V16.7535C95.2276 17.5877 94.6129 18.7426 93.9982 19.3522ZM101.979 16.176C101.979 11.2353 106.006 6.93624 111.169 6.93624C116.302 6.93624 120.328 11.2353 120.328 16.176C120.328 16.8498 120.267 17.4914 120.144 18.101L107.327 18.1331C108.003 19.5768 109.417 20.6034 111.169 20.6034C112.368 20.6034 113.443 20.0901 114.181 19.3201H119.775C118.515 22.8171 115.165 25.4479 111.169 25.4479C106.006 25.4479 101.979 21.2771 101.979 16.3043V16.176ZM107.481 13.9623L107.327 14.4115H115.103L114.857 13.9623C114.12 12.679 112.798 11.7807 111.169 11.7807C109.54 11.7807 108.188 12.679 107.481 13.9623ZM122.07 25.5441H127.049L126.987 0.455566H122.101V0.776392L122.07 25.5441ZM128.791 16.176C128.791 11.2353 132.817 6.93624 137.981 6.93624C143.113 6.93624 147.14 11.2353 147.14 16.176C147.14 16.8498 147.078 17.4914 146.955 18.101L134.139 18.1331C134.815 19.5768 136.229 20.6034 137.981 20.6034C139.179 20.6034 140.255 20.0901 140.993 19.3201H146.586C145.326 22.8171 141.976 25.4479 137.981 25.4479C132.817 25.4479 128.791 21.2771 128.791 16.3043V16.176ZM134.292 13.9623L134.139 14.4115H141.915L141.669 13.9623C140.931 12.679 139.609 11.7807 137.981 11.7807C136.352 11.7807 134.999 12.679 134.292 13.9623ZM148.912 7.09666C148.912 13.1282 148.881 19.1597 148.881 25.2233V25.512H153.86V16.0156C153.86 13.7057 155.797 11.6845 158.163 11.6845C160.438 11.6845 162.22 13.5132 162.466 15.6948C162.497 16.0156 162.466 16.3685 162.466 16.6893L162.497 19.0314V25.4479L167.476 25.512V15.8552C167.476 13.5132 166.339 11.2032 164.71 9.56701C162.927 7.77039 160.745 6.80791 158.163 6.80791C156.627 6.80791 155.151 7.16082 153.799 7.86664V6.90416H148.912V7.09666Z" fill="#47072C"/>
</svg>
