<svg width="16" height="17" viewBox="0 0 16 17" fill="none" xmlns="http://www.w3.org/2000/svg">
<path d="M8.33329 15.1675H2.71996C1.94663 15.1675 1.31329 14.5475 1.31329 13.7875V3.89422C1.31329 2.14755 2.61329 1.35422 4.20663 2.13422L7.16663 3.58755C7.80663 3.90088 8.33329 4.73422 8.33329 5.44088V15.1675Z" stroke="#E6582A" stroke-width="0.8" stroke-linecap="round" stroke-linejoin="round"/>
<path d="M14.6466 10.5406V13.0606C14.6466 14.5006 13.98 15.1673 12.54 15.1673H8.33331V7.44727L8.64665 7.51393L11.6466 8.18727L13 8.48727C13.88 8.6806 14.6 9.13393 14.64 10.4139C14.6466 10.4539 14.6466 10.4939 14.6466 10.5406Z" stroke="#E6582A" stroke-width="0.8" stroke-linecap="round" stroke-linejoin="round"/>
<path d="M3.66663 6.5H5.97996" stroke="#E6582A" stroke-width="0.8" stroke-linecap="round" stroke-linejoin="round"/>
<path d="M3.66663 9.16602H5.97996" stroke="#E6582A" stroke-width="0.8" stroke-linecap="round" stroke-linejoin="round"/>
<path d="M11.6467 8.187V10.3337C11.6467 11.1603 10.9733 11.8337 10.1467 11.8337C9.32 11.8337 8.64667 11.1603 8.64667 10.3337V7.51367L11.6467 8.187Z" stroke="#E6582A" stroke-width="0.8" stroke-linecap="round" stroke-linejoin="round"/>
<path d="M14.64 10.4142C14.6 11.2008 13.9467 11.8342 13.1467 11.8342C12.32 11.8342 11.6467 11.1608 11.6467 10.3342V8.1875L13 8.4875C13.88 8.68083 14.6 9.13417 14.64 10.4142Z" stroke="#E6582A" stroke-width="0.8" stroke-linecap="round" stroke-linejoin="round"/>
</svg>
