<svg width="32" height="32" viewBox="0 0 32 32" fill="none" xmlns="http://www.w3.org/2000/svg">
<path d="M29 12.5H27.5V7C27.5 6.86739 27.4473 6.74021 27.3536 6.64645C27.2598 6.55268 27.1326 6.5 27 6.5H25.5V3C25.5 2.86739 25.4473 2.74021 25.3536 2.64645C25.2598 2.55268 25.1326 2.5 25 2.5H5C3.6215 2.5 2.5 3.6215 2.5 5V23C2.5 24.3785 3.6215 25.5 5 25.5H14.9C15.5525 25.4925 15.5555 24.506 14.9 24.5H5C4.173 24.5 3.5 23.827 3.5 23V6.987C3.93025 7.3178 4.45728 7.49805 5 7.5H26.5V12.5H23C22.173 12.5 21.5 13.173 21.5 14V14.515C21.5035 15.1685 22.497 15.169 22.5 14.515V14C22.5 13.7245 22.7245 13.5 23 13.5H28.5V17.845C28.5025 18.4975 29.497 18.5 29.5 17.845V13C29.5 12.8674 29.4473 12.7402 29.3536 12.6464C29.2598 12.5527 29.1326 12.5 29 12.5ZM24.5 6.5H5C4.173 6.5 3.5 5.827 3.5 5C3.5 4.173 4.173 3.5 5 3.5H24.5V6.5Z" fill="#E6582A"/>
<path d="M6.99991 8.5C5.02191 8.552 5.02241 11.4485 6.99991 11.5C8.97791 11.448 8.97741 8.5515 6.99991 8.5ZM6.99991 10.5C6.34641 10.4965 6.34641 9.5035 6.99991 9.5C7.65341 9.5035 7.65341 10.4965 6.99991 10.5ZM25.4999 10C25.4479 8.022 22.5514 8.0225 22.4999 10C22.5519 11.978 25.4484 11.9775 25.4999 10ZM23.4999 10C23.5034 9.3465 24.4964 9.3465 24.4999 10C24.4964 10.6535 23.5034 10.6535 23.4999 10ZM6.99991 20.5C5.02191 20.552 5.02241 23.4485 6.99991 23.5C8.97791 23.448 8.97741 20.5515 6.99991 20.5ZM6.99991 22.5C6.34641 22.4965 6.34641 21.5035 6.99991 21.5C7.65341 21.5035 7.65341 22.4965 6.99991 22.5ZM22.4999 17C19.4674 17 16.9999 19.4675 16.9999 22.5C17.3019 29.7965 27.6989 29.7945 27.9999 22.5C27.9999 19.4675 25.5324 17 22.4999 17ZM22.4999 27C20.0189 27 17.9999 24.981 17.9999 22.5C18.2364 16.5345 26.7649 16.536 26.9999 22.5C26.9999 24.981 24.9809 27 22.4999 27Z" fill="#E6582A"/>
<path d="M22.5 15.5C18.64 15.5 15.5 18.64 15.5 22.5C15.8845 31.7865 29.117 31.784 29.5 22.5C29.5 18.64 26.36 15.5 22.5 15.5ZM22.5 28.5C19.1915 28.5 16.5 25.8085 16.5 22.5C16.83 14.54 28.1715 14.5425 28.5 22.5C28.5 25.8085 25.8085 28.5 22.5 28.5Z" fill="#E6582A"/>
<path d="M23.8501 23.1425C24.2531 22.3715 23.8046 21.35 23.0001 21.0925V19C23.0001 18.8674 22.9474 18.7402 22.8536 18.6464C22.7599 18.5527 22.6327 18.5 22.5001 18.5C22.3675 18.5 22.2403 18.5527 22.1465 18.6464C22.0528 18.7402 22.0001 18.8674 22.0001 19V21.092C20.0661 21.839 21.2371 24.693 23.1426 23.8495L24.1466 24.8535C24.1927 24.9013 24.2479 24.9393 24.3089 24.9656C24.3699 24.9918 24.4355 25.0055 24.5019 25.0061C24.5683 25.0067 24.6341 24.9941 24.6956 24.9689C24.757 24.9438 24.8128 24.9066 24.8598 24.8597C24.9067 24.8128 24.9438 24.7569 24.969 24.6955C24.9941 24.634 25.0068 24.5682 25.0062 24.5018C25.0056 24.4354 24.9918 24.3698 24.9656 24.3088C24.9394 24.2478 24.9013 24.1926 24.8536 24.1465L23.8501 23.1425ZM22.0001 22.5C22.0036 21.8465 22.9966 21.8465 23.0001 22.5C22.9966 23.1535 22.0036 23.1535 22.0001 22.5ZM19.5001 22H19.0001C18.3466 22.003 18.3461 22.997 19.0001 23H19.5001C20.1536 22.997 20.1541 22.003 19.5001 22ZM25.0001 22.5C25.0001 22.6326 25.0528 22.7598 25.1465 22.8536C25.2403 22.9473 25.3675 23 25.5001 23H26.0001C26.1327 23 26.2599 22.9473 26.3536 22.8536C26.4474 22.7598 26.5001 22.6326 26.5001 22.5C26.5001 22.3674 26.4474 22.2402 26.3536 22.1464C26.2599 22.0527 26.1327 22 26.0001 22H25.5001C25.3675 22 25.2403 22.0527 25.1465 22.1464C25.0528 22.2402 25.0001 22.3674 25.0001 22.5ZM22.5001 25C22.3675 25 22.2403 25.0527 22.1465 25.1464C22.0528 25.2402 22.0001 25.3674 22.0001 25.5V26C22.0001 26.1326 22.0528 26.2598 22.1465 26.3536C22.2403 26.4473 22.3675 26.5 22.5001 26.5C22.6327 26.5 22.7599 26.4473 22.8536 26.3536C22.9474 26.2598 23.0001 26.1326 23.0001 26V25.5C23.0001 25.3674 22.9474 25.2402 22.8536 25.1464C22.7599 25.0527 22.6327 25 22.5001 25Z" fill="#E6582A"/>
</svg>
