<svg width="101" height="100" viewBox="0 0 101 100" fill="none" xmlns="http://www.w3.org/2000/svg">
<rect x="0.5" width="100" height="100" rx="6" fill="#F9FAFB"/>
<g clip-path="url(#clip0_2403_50666)">
<path d="M41.4342 53.5174C40.4579 52.5414 38.8754 52.5414 37.8992 53.5174C37.4898 53.9299 37.2388 54.4733 37.19 55.0524C36.9056 55.02 36.6196 55.0025 36.3333 54.9999C32.7431 54.9952 29.5545 57.2933 28.4236 60.7008C27.2926 64.1083 28.4744 67.857 31.355 69.9999H28C26.6193 69.9999 25.5 71.1192 25.5 72.4999C25.5 73.8806 26.6193 74.9999 28 74.9999H73C74.3807 74.9999 75.5 73.8806 75.5 72.4999C75.5 71.1192 74.3807 69.9999 73 69.9999H69.8333L72.0433 58.2174C73.2318 57.8657 73.9815 56.6944 73.8032 55.4679C73.6249 54.2413 72.5727 53.332 71.3333 53.3332C71.3317 51.8136 70.3042 50.4868 68.8333 50.1049C68.8333 50.0699 68.8333 50.0349 68.8333 49.9999C68.8314 48.1877 67.6584 46.5846 65.9318 46.0343C64.2052 45.4841 62.3209 46.113 61.2708 47.5899C61.0182 47.5304 60.7595 47.5002 60.5 47.4999C58.9479 47.501 57.6013 48.5714 57.25 50.0832C55.7382 50.4345 54.6678 51.7812 54.6667 53.3332C53.4266 53.3303 52.3729 54.2392 52.1937 55.4662C52.0145 56.6932 52.7643 57.8655 53.9533 58.2174L56.1667 69.9999H50.5C50.4972 67.2396 48.2603 65.0026 45.5 64.9999H44.4917C44.672 64.1714 44.7134 63.3186 44.6142 62.4765C45.5778 62.3899 46.4039 61.7529 46.7328 60.843C47.0617 59.9332 46.8338 58.9151 46.1483 58.2324L45.5592 57.6432L73.9342 29.2682C74.5744 28.6385 74.8277 27.7138 74.5977 26.8457C74.3677 25.9776 73.6899 25.2996 72.8218 25.0694C71.9538 24.8392 71.029 25.0923 70.3992 25.7324L42.0242 54.1074L41.4342 53.5174ZM58 51.6665C58.4602 51.6665 58.8333 51.2934 58.8333 50.8332C58.833 50.2522 59.1353 49.7129 59.6312 49.41C60.127 49.1071 60.7449 49.0843 61.2617 49.3499C61.4642 49.4537 61.7005 49.4702 61.9155 49.3954C62.1305 49.3206 62.3055 49.1612 62.4 48.954C62.894 47.8923 64.0587 47.3158 65.2024 47.5667C66.3462 47.8177 67.1626 48.8289 67.1667 49.9999C67.1653 50.2156 67.1374 50.4302 67.0833 50.639C67.016 50.908 67.0869 51.1929 67.2724 51.399C67.4579 51.605 67.7338 51.7053 68.0083 51.6665C68.9255 51.6711 69.6667 52.416 69.6667 53.3332H56.3333C56.3333 52.4127 57.0795 51.6665 58 51.6665ZM54.6667 54.9999H71.3333C71.7936 54.9999 72.1667 55.373 72.1667 55.8332C72.1667 56.2934 71.7936 56.6665 71.3333 56.6665H54.6667C54.2064 56.6665 53.8333 56.2934 53.8333 55.8332C53.8333 55.373 54.2064 54.9999 54.6667 54.9999ZM55.6667 58.3332H70.3333L68.1417 69.9999H57.8583L55.6667 58.3332ZM57.1667 71.6665H73C73.4602 71.6665 73.8333 72.0396 73.8333 72.4999C73.8333 72.9601 73.4602 73.3332 73 73.3332H28C27.5398 73.3332 27.1667 72.9601 27.1667 72.4999C27.1667 72.0396 27.5398 71.6665 28 71.6665H57.1667ZM41.3333 64.9999C40.8731 64.9999 40.5 65.373 40.5 65.8332C40.5 66.2934 40.8731 66.6665 41.3333 66.6665H45.5C47.3409 66.6665 48.8333 68.1589 48.8333 69.9999H36.3333C32.6514 69.9999 29.6667 67.0151 29.6667 63.3332C29.6667 59.6513 32.6514 56.6665 36.3333 56.6665C36.796 56.6712 37.257 56.7228 37.7092 56.8207C37.7676 56.9021 37.831 56.9798 37.8992 57.0532L42.6125 61.7674C42.6864 61.8356 42.7643 61.8993 42.8458 61.9582C42.944 62.4101 42.9956 62.8708 43 63.3332C43.0007 63.8956 42.9293 64.4557 42.7875 64.9999H41.3333ZM44.97 60.589C44.8137 60.7455 44.6016 60.8334 44.3804 60.8334C44.1592 60.8334 43.9471 60.7455 43.7908 60.589L39.0775 55.8749C38.7617 55.5479 38.7662 55.0281 39.0877 54.7067C39.4091 54.3853 39.9289 54.3807 40.2558 54.6965L41.4333 55.874L42.1408 56.5815L44.9692 59.4099C45.2945 59.7353 45.2945 60.2628 44.9692 60.5882L44.97 60.589ZM71.5775 26.9107C71.7867 26.6941 72.0966 26.6072 72.3879 26.6835C72.6793 26.7597 72.9068 26.9873 72.9831 27.2786C73.0593 27.57 72.9725 27.8798 72.7558 28.089L44.3808 56.464L44.0533 56.1374L43.2025 55.2857L71.5775 26.9107Z" fill="#47072C"/>
<path d="M60.5 60H58.8333C58.3731 60 58 60.3731 58 60.8333C58 61.2936 58.3731 61.6667 58.8333 61.6667H60.5C60.9602 61.6667 61.3333 61.2936 61.3333 60.8333C61.3333 60.3731 60.9602 60 60.5 60Z" fill="#47072C"/>
<path d="M66.3333 60H63.8333C63.3731 60 63 60.3731 63 60.8333C63 61.2936 63.3731 61.6667 63.8333 61.6667H66.3333C66.7936 61.6667 67.1667 61.2936 67.1667 60.8333C67.1667 60.3731 66.7936 60 66.3333 60Z" fill="#47072C"/>
<path d="M72.167 48.333C73.5477 48.333 74.667 47.2137 74.667 45.833C74.667 44.4523 73.5477 43.333 72.167 43.333C70.7863 43.333 69.667 44.4523 69.667 45.833C69.667 47.2137 70.7863 48.333 72.167 48.333ZM72.167 44.9997C72.6272 44.9997 73.0003 45.3728 73.0003 45.833C73.0003 46.2932 72.6272 46.6663 72.167 46.6663C71.7068 46.6663 71.3337 46.2932 71.3337 45.833C71.3337 45.3728 71.7068 44.9997 72.167 44.9997Z" fill="#47072C"/>
<path d="M68 38.333C66.6193 38.333 65.5 39.4523 65.5 40.833C65.5 42.2137 66.6193 43.333 68 43.333C69.3807 43.333 70.5 42.2137 70.5 40.833C70.5 39.4523 69.3807 38.333 68 38.333ZM68 41.6663C67.5398 41.6663 67.1667 41.2932 67.1667 40.833C67.1667 40.3728 67.5398 39.9997 68 39.9997C68.4602 39.9997 68.8333 40.3728 68.8333 40.833C68.8333 41.2932 68.4602 41.6663 68 41.6663Z" fill="#47072C"/>
<path d="M47.9921 25C47.5411 24.9998 47.1718 25.3584 47.1587 25.8092V25.8267V25.8333C47.1587 26.14 47.0829 33.3333 40.4837 33.3333C40.0235 33.3333 39.6504 33.7064 39.6504 34.1667C39.6504 34.6269 40.0235 35 40.4837 35C47.0571 35 47.1579 42.195 47.1587 42.5C47.1525 42.9602 47.5206 43.3384 47.9808 43.3446C48.441 43.3508 48.8192 42.9827 48.8254 42.5225V42.505V42.5C48.8254 42.1933 48.9012 35 55.4996 35C55.9598 35 56.3329 34.6269 56.3329 34.1667C56.3329 33.7064 55.9598 33.3333 55.4996 33.3333C48.9412 33.3333 48.8271 26.1667 48.8254 25.8333C48.8254 25.3731 48.4523 25 47.9921 25ZM51.7012 34.1667C49.9948 35.0669 48.6758 36.5592 47.9921 38.3633C47.3083 36.5592 45.9893 35.0669 44.2829 34.1667C45.9893 33.2665 47.3083 31.7741 47.9921 29.97C48.6758 31.7741 49.9948 33.2665 51.7012 34.1667Z" fill="#E6582A"/>
<path d="M30.5 50.0042V50.0092C30.5025 50.4695 30.8777 50.8405 31.3379 50.838C31.7982 50.8354 32.1692 50.4603 32.1667 50.0001C32.1667 49.7959 32.2367 45.0001 36.3333 45.0001C36.7936 45.0001 37.1667 44.627 37.1667 44.1667C37.1667 43.7065 36.7936 43.3334 36.3333 43.3334C32.2367 43.3334 32.1667 38.5359 32.1667 38.3334V38.3284C32.1653 37.8682 31.7911 37.4962 31.3308 37.4976C30.8706 37.4989 30.4986 37.8732 30.5 38.3334C30.5 38.5376 30.43 43.3334 26.3333 43.3334C25.8731 43.3334 25.5 43.7065 25.5 44.1667C25.5 44.627 25.8731 45.0001 26.3333 45.0001C30.43 45.0001 30.5 49.7976 30.5 50.0001V50.0042ZM29.38 44.1667C30.224 43.6041 30.8992 42.8226 31.3333 41.9059C31.7675 42.8226 32.4427 43.6041 33.2867 44.1667C32.4429 44.7296 31.7677 45.511 31.3333 46.4276C30.899 45.511 30.2238 44.7296 29.38 44.1667Z" fill="#E6582A"/>
<path d="M34.4937 31.839L35.7437 33.089C36.0707 33.4048 36.5904 33.4003 36.9119 33.0789C37.2333 32.7574 37.2378 32.2377 36.922 31.9107L35.672 30.6607C35.4628 30.444 35.153 30.3572 34.8616 30.4334C34.5702 30.5097 34.3427 30.7372 34.2664 31.0286C34.1902 31.3199 34.2771 31.6298 34.4937 31.839Z" fill="#47072C"/>
<path d="M31.9937 29.339C32.3207 29.6548 32.8404 29.6503 33.1619 29.3289C33.4833 29.0074 33.4878 28.4877 33.172 28.1607L31.922 26.9107C31.595 26.5949 31.0753 26.5994 30.7538 26.9208C30.4324 27.2423 30.4279 27.762 30.7437 28.089L31.9937 29.339Z" fill="#47072C"/>
<path d="M30.744 33.089C31.0694 33.4143 31.5969 33.4143 31.9223 33.089L33.1723 31.839C33.4881 31.512 33.4836 30.9923 33.1622 30.6708C32.8407 30.3494 32.321 30.3449 31.994 30.6607L30.744 31.9107C30.4187 32.2361 30.4187 32.7636 30.744 33.089Z" fill="#47072C"/>
<path d="M35.0832 29.5832C35.3042 29.5831 35.5161 29.4953 35.6723 29.339L36.9223 28.089C37.139 27.8798 37.2259 27.5699 37.1496 27.2786C37.0733 26.9872 36.8458 26.7597 36.5544 26.6834C36.2631 26.6072 35.9532 26.694 35.744 26.9107L34.494 28.1607C34.2558 28.399 34.1845 28.7574 34.3134 29.0687C34.4424 29.3801 34.7462 29.5831 35.0832 29.5832Z" fill="#47072C"/>
</g>
<defs>
<clipPath id="clip0_2403_50666">
<rect width="50" height="50" fill="white" transform="translate(25.5 25)"/>
</clipPath>
</defs>
</svg>
