<svg width="24" height="24" viewBox="0 0 24 24" fill="none" xmlns="http://www.w3.org/2000/svg">
<g clip-path="url(#clip0_2308_72286)">
<path d="M1.12383 23.4617H12.0263C12.2241 23.4617 12.3845 23.3015 12.3845 23.1035V21.8487C12.3845 21.0819 11.7604 20.4578 10.9935 20.4578H9.38363L8.45461 17.5352L10.0905 15.5905C10.653 15.8931 11.2476 16.1362 11.8687 16.3136C14.3505 17.023 17.0327 16.6137 19.2358 15.3075C19.3438 15.2436 19.4189 15.1089 19.4085 14.9722C19.2962 13.3686 18.0575 10.952 17.26 9.5657C17.061 9.21969 16.8483 8.87403 16.6265 8.52907L17.8579 6.66658C18.5352 7.01186 19.4041 6.95263 20.0438 6.40619C20.8754 5.6951 20.9742 4.44629 20.2625 3.61433C19.5517 2.78274 18.3033 2.684 17.4706 3.39534C17.0685 3.73921 16.8243 4.2188 16.7831 4.74562C16.7821 4.75804 16.7845 4.77007 16.7838 4.78244L14.0736 5.14988C10.0582 0.545892 8.28542 0.857043 8.32125 0.873101C8.23052 0.870002 8.14448 0.902889 8.0797 0.958105C5.32571 3.29482 4.32748 6.82905 5.99184 11.1552L4.59197 17.0182L3.02516 20.4578H2.15666C1.38969 20.4578 0.765625 21.0819 0.765625 21.8487V23.1035C0.765625 23.3015 0.926014 23.4617 1.12383 23.4617ZM16.6391 9.92321C17.3733 11.1997 18.2296 12.827 18.5886 14.4437C17.1113 13.831 15.7254 12.7386 14.5889 11.6109L16.1903 9.18882C16.3431 9.43352 16.4981 9.67817 16.6391 9.92321ZM13.7791 5.91295C14.5123 6.77384 15.1757 7.6496 15.7658 8.53192L14.0783 11.0842C12.8015 9.71157 11.6375 8.08424 10.6799 6.33308L13.7791 5.91295ZM17.936 3.94C18.4651 3.48793 19.2628 3.54752 19.718 4.07993C20.1735 4.61246 20.1075 5.40946 19.5782 5.86153C19.0307 6.32996 18.2376 6.23806 17.7965 5.7223C17.3482 5.19676 17.3998 4.39842 17.936 3.94ZM17.2518 6.18755C17.2637 6.20146 17.2787 6.2116 17.2909 6.22516L16.1923 7.88677C15.7112 7.18452 15.1852 6.48787 14.6161 5.79944L16.8688 5.49409C16.9477 5.74548 17.0755 5.98121 17.2518 6.18755ZM13.2206 5.26553L10.3143 5.65951C9.67457 4.38987 9.1429 3.04875 8.79008 1.68882C9.93039 2.03728 11.3892 3.21545 13.2206 5.26553ZM8.10961 1.91843C8.69474 4.14226 9.76314 6.37143 11.0335 8.31752C12.7551 10.9724 15.2945 13.789 18.1919 15.0553C16.2627 15.9869 14.0697 16.1971 12.0655 15.6248C11.4042 15.4359 10.7761 15.1642 10.1878 14.8219C10.1877 14.8218 10.1876 14.8217 10.1875 14.8216C8.39137 13.7839 6.96275 11.8459 6.70791 11.0255C6.70576 11.0186 6.70082 11.0133 6.69829 11.0066C5.24691 7.34294 5.7056 4.3614 8.10961 1.91843ZM6.49277 12.1417C6.49942 12.1526 6.50676 12.1627 6.5135 12.1735C7.26224 13.3828 8.22901 14.4077 9.41852 15.1879C9.43453 15.1984 9.44974 15.2101 9.46583 15.2204L8.19916 16.726L8.19496 16.7134C8.17135 16.6417 8.14 16.5734 8.10812 16.5056C7.67178 15.5629 6.5579 15.1946 5.65514 15.6504L6.49277 12.1417ZM5.47254 16.8135C5.65086 16.424 6.04147 16.1726 6.46793 16.1726C6.9496 16.1726 7.36964 16.4867 7.51213 16.9352L8.63188 20.4578H3.81233C3.83595 20.406 5.4896 16.7759 5.47254 16.8135ZM1.48204 21.8487C1.48204 21.4768 1.78463 21.1743 2.15666 21.1743H10.9935C11.3655 21.1743 11.6681 21.4768 11.6681 21.8487V22.7453H1.48204V21.8487Z" fill="#47072C"/>
<path d="M20.7058 0.555336C20.5204 0.493769 20.3224 0.593116 20.2576 0.778867C20.1931 0.964618 20.2956 1.16961 20.481 1.23572C22.0686 1.80102 22.9026 3.54939 22.3399 5.13299C22.2573 5.36606 22.4301 5.61119 22.6775 5.61119C22.8247 5.61119 22.9629 5.51954 23.015 5.37297C23.7098 3.41751 22.6808 1.25881 20.7161 0.558834L20.7058 0.555336Z" fill="#E6582A"/>
<path d="M21.7392 4.95123C22.3086 3.34784 21.2454 2.33711 20.5994 1.93661C20.4084 1.81816 20.158 1.90309 20.0837 2.11523C20.0825 2.11863 20.0813 2.12202 20.0801 2.12541C20.0235 2.28696 20.0952 2.46196 20.2449 2.54498C20.997 2.96207 21.3609 3.8755 21.0641 4.71126C20.9814 4.94433 21.1543 5.18946 21.4016 5.18946C21.5489 5.18946 21.6871 5.09781 21.7392 4.95123Z" fill="#E6582A"/>
</g>
<defs>
<clipPath id="clip0_2308_72286">
<rect width="24" height="24" fill="white"/>
</clipPath>
</defs>
</svg>
