<svg width="101" height="100" viewBox="0 0 101 100" fill="none" xmlns="http://www.w3.org/2000/svg">
<rect x="0.5" width="100" height="100" rx="6" fill="#F9FAFB"/>
<path d="M27.8439 73.8798H50.5574C50.9695 73.8798 51.3037 73.5461 51.3037 73.1336V70.5194C51.3037 68.922 50.0035 67.6218 48.4057 67.6218H45.0518L43.1164 61.5331L46.5245 57.4814C47.6964 58.112 48.9351 58.6185 50.2291 58.988C55.3994 60.4659 60.9874 59.6131 65.5771 56.892C65.8021 56.7587 65.9586 56.4783 65.937 56.1933C65.7031 52.8527 63.1224 47.818 61.461 44.9298C61.0463 44.209 60.6031 43.4889 60.1411 42.7702L62.7065 38.89C64.1176 39.6093 65.9277 39.4859 67.2606 38.3475C68.993 36.8661 69.1989 34.2644 67.7161 32.5311C66.2352 30.7987 63.6345 30.593 61.8997 32.0749C61.062 32.7913 60.5533 33.7905 60.4673 34.888C60.4653 34.9139 60.4703 34.9389 60.4688 34.9647L54.8226 35.7302C46.4572 26.1386 42.7639 26.7868 42.8385 26.8203C42.6495 26.8138 42.4703 26.8823 42.3353 26.9974C36.5978 31.8655 34.5182 39.2285 37.9856 48.2413L35.0692 60.4559L31.805 67.6218H29.9956C28.3978 67.6218 27.0977 68.922 27.0977 70.5194V73.1336C27.0977 73.5461 27.4318 73.8798 27.8439 73.8798ZM60.1674 45.6747C61.697 48.334 63.4809 51.7242 64.2289 55.0923C61.1512 53.8159 58.2639 51.5401 55.896 49.1907L59.2324 44.1447C59.5507 44.6545 59.8737 45.1642 60.1674 45.6747ZM54.2091 37.3199C55.7366 39.1135 57.1186 40.938 58.348 42.7761L54.8324 48.0935C52.1724 45.2337 49.7473 41.8435 47.7523 38.1952L54.2091 37.3199ZM62.8694 33.2096C63.9715 32.2678 65.6335 32.392 66.5818 33.5012C67.5308 34.6106 67.3931 36.271 66.2906 37.2128C65.15 38.1887 63.4977 37.9973 62.5786 36.9228C61.6446 35.8279 61.7521 34.1647 62.8694 33.2096ZM61.4439 37.892C61.4686 37.921 61.4998 37.9421 61.5253 37.9704L59.2366 41.4321C58.2343 39.9691 57.1384 38.5177 55.9529 37.0835L60.6459 36.4473C60.8103 36.971 61.0766 37.4622 61.4439 37.892ZM53.0454 35.9712L46.9907 36.7919C45.658 34.1469 44.5503 31.3529 43.8153 28.5197C46.1909 29.2456 49.2301 31.7002 53.0454 35.9712ZM42.3976 28.998C43.6166 33.631 45.8425 38.2751 48.4891 42.3295C52.0758 47.8605 57.3661 53.7285 63.4025 56.3666C59.3832 58.3073 54.8145 58.7453 50.639 57.553C49.2613 57.1595 47.9527 56.5933 46.7271 55.8803C46.7269 55.8801 46.7267 55.8799 46.7266 55.8797C42.9846 53.7178 40.0083 49.6804 39.4774 47.971C39.4729 47.9566 39.4626 47.9456 39.4574 47.9317C36.4337 40.2991 37.3893 34.0875 42.3976 28.998ZM39.0292 50.2966C39.0431 50.3192 39.0584 50.3403 39.0724 50.3627C40.6323 52.8822 42.6464 55.0174 45.1245 56.6428C45.1579 56.6645 45.1896 56.689 45.2231 56.7105L42.5842 59.8472L42.5754 59.821C42.5262 59.6716 42.4609 59.5293 42.3945 59.3879C41.4855 57.424 39.1649 56.6568 37.2842 57.6062L39.0292 50.2966ZM36.9037 60.0294C37.2752 59.218 38.089 58.6943 38.9775 58.6943C39.9809 58.6943 40.856 59.3485 41.1529 60.283L43.4857 67.6218H33.4449C33.4942 67.5138 36.9393 59.9511 36.9037 60.0294ZM28.5902 70.5194C28.5902 69.7447 29.2206 69.1143 29.9956 69.1143H48.4057C49.1807 69.1143 49.8111 69.7447 49.8111 70.5194V72.3873H28.5902V70.5194Z" fill="#47072C"/>
<path d="M68.6399 26.1581C68.2537 26.0298 67.8412 26.2368 67.7063 26.6238C67.5719 27.0108 67.7854 27.4378 68.1717 27.5756C71.4792 28.7533 73.2166 32.3957 72.0444 35.6949C71.8722 36.1804 72.2323 36.6911 72.7477 36.6911C73.0545 36.6911 73.3424 36.5002 73.4509 36.1948C74.8983 32.121 72.7546 27.6237 68.6614 26.1654L68.6399 26.1581Z" fill="#E6582A"/>
<path d="M70.7926 35.3173C71.9788 31.9769 69.7639 29.8713 68.4181 29.0369C68.0201 28.7901 67.4985 28.967 67.3436 29.409C67.3411 29.4161 67.3386 29.4232 67.3361 29.4302C67.2182 29.7668 67.3676 30.1314 67.6795 30.3043C69.2463 31.1733 70.0046 33.0762 69.3861 34.8174C69.2139 35.303 69.574 35.8136 70.0894 35.8136C70.3962 35.8136 70.684 35.6227 70.7926 35.3173Z" fill="#E6582A"/>
</svg>
