<svg width="101" height="100" viewBox="0 0 101 100" fill="none" xmlns="http://www.w3.org/2000/svg">
<rect x="0.5" width="100" height="100" rx="6" fill="#F9FAFB"/>
<path d="M72.6152 45.1919C72.0834 45.1919 71.6536 45.6217 71.6536 46.1534V62.4996C71.6536 63.0304 71.2229 63.4611 70.6921 63.4611H30.3075C29.7767 63.4611 29.3459 63.0304 29.3459 62.4996V35.5765C29.3459 35.0457 29.7767 34.615 30.3075 34.615H44.7305C45.2623 34.615 45.6921 34.1852 45.6921 33.6534C45.6921 33.1217 45.2623 32.6919 44.7305 32.6919H30.3075C28.7171 32.6919 27.4229 33.9861 27.4229 35.5765V62.4996C27.4229 64.09 28.7171 65.3842 30.3075 65.3842H70.6921C72.2825 65.3842 73.5767 64.09 73.5767 62.4996V46.1534C73.5767 45.6217 73.1469 45.1919 72.6152 45.1919Z" fill="#47072C"/>
<path d="M58.1919 71.1538H56.2688V68.2692C56.2688 67.7374 55.839 67.3076 55.3072 67.3076C54.7755 67.3076 54.3457 67.7374 54.3457 68.2692V71.1538H46.6534V68.2692C46.6534 67.7374 46.2236 67.3076 45.6919 67.3076C45.1601 67.3076 44.7303 67.7374 44.7303 68.2692V71.1538H42.8072C42.2755 71.1538 41.8457 71.5836 41.8457 72.1153C41.8457 72.647 42.2755 73.0768 42.8072 73.0768H58.1919C58.7236 73.0768 59.1534 72.647 59.1534 72.1153C59.1534 71.5836 58.7236 71.1538 58.1919 71.1538Z" fill="#47072C"/>
<path d="M41.8463 56.7305C41.3146 56.7305 40.8848 57.1603 40.8848 57.692C40.8848 58.2237 41.3146 58.6535 41.8463 58.6535H66.8463C67.378 58.6535 67.8078 58.2237 67.8078 57.692C67.8078 57.1603 67.378 56.7305 66.8463 56.7305H41.8463Z" fill="#47072C"/>
<path d="M34.1539 56.7305C33.6222 56.7305 33.1924 57.1603 33.1924 57.692C33.1924 58.2237 33.6222 58.6535 34.1539 58.6535H37.0385C37.5703 58.6535 38.0001 58.2237 38.0001 57.692C38.0001 57.1603 37.5703 56.7305 37.0385 56.7305H34.1539Z" fill="#47072C"/>
<path d="M48.2331 42.5325L49.7677 42.8392C49.8677 43.1132 49.9783 43.3815 50.1004 43.643L49.2331 44.944C48.7149 45.7209 48.8177 46.7642 49.4783 47.4238L51.1533 49.0979C51.812 49.7575 52.8533 49.8632 53.6322 49.344L54.9399 48.4729C55.2033 48.5969 55.4697 48.7084 55.736 48.8075L56.0427 50.344C56.2254 51.2594 57.036 51.9229 57.9697 51.9229H60.3379C61.2716 51.9229 62.0812 51.2594 62.2649 50.343L62.5716 48.8075C62.8456 48.7075 63.1139 48.5969 63.3754 48.4757L64.6774 49.344C65.4533 49.8594 66.4966 49.7565 67.1552 49.0969L68.8302 47.4229C69.4908 46.7623 69.5937 45.72 69.0754 44.943L68.2043 43.6363C68.3293 43.3729 68.4408 43.1055 68.5399 42.8402L70.0754 42.5325C70.9899 42.3498 71.6533 41.5402 71.6533 40.6065V38.2373C71.6533 37.3046 70.9899 36.495 70.0735 36.3113L68.5389 36.0046C68.4389 35.7296 68.3283 35.4623 68.2072 35.2007L69.0735 33.8998C69.5918 33.1229 69.4889 32.0796 68.8283 31.42L67.1533 29.7459C66.4947 29.0873 65.4533 28.9805 64.6745 29.4998L63.3668 30.3709C63.1033 30.2469 62.837 30.1354 62.5706 30.0363L62.2639 28.4998C62.0812 27.5863 61.2706 26.9229 60.337 26.9229H57.9687C57.0351 26.9229 56.2254 27.5863 56.0418 28.5017L55.7351 30.0373C55.4668 30.1363 55.1985 30.2479 54.936 30.3719L53.6302 29.4998C52.8533 28.9834 51.8101 29.0873 51.1524 29.7469L49.4774 31.4209C48.8168 32.0815 48.7139 33.1238 49.2322 33.9007L50.1043 35.2075C49.9812 35.47 49.8697 35.7363 49.7716 36.0036L48.2322 36.3113C47.3168 36.495 46.6533 37.3055 46.6533 38.2382V40.6075C46.6533 41.5392 47.3168 42.3498 48.2331 42.5325ZM48.6101 38.1979L50.6956 37.7805C51.0437 37.7113 51.3264 37.4536 51.4283 37.1132C51.5812 36.6007 51.7947 36.0911 52.0601 35.5969C52.2293 35.2844 52.211 34.9027 52.0139 34.6075L50.836 32.7815L52.5639 31.1017L54.3351 32.2834C54.6312 32.4815 55.0129 32.5007 55.3264 32.3286C55.8187 32.0623 56.3293 31.8488 56.8427 31.6959C57.1841 31.595 57.4418 31.3132 57.511 30.9632L57.9697 28.8459L60.3793 28.8786L60.7947 30.9613C60.8639 31.3104 61.1216 31.5921 61.462 31.694C61.9649 31.844 62.4764 32.0584 62.9783 32.3286C63.2908 32.4979 63.6735 32.4796 63.9677 32.2825L65.7937 31.1055L67.4735 32.8334L66.2966 34.5988C66.0985 34.8959 66.0812 35.2767 66.2514 35.5902C66.5072 36.0623 66.7187 36.5748 66.8793 37.1132C66.9812 37.4536 67.2629 37.7104 67.612 37.7796L69.6947 38.1969L69.7302 38.2382L69.6966 40.6479L67.6149 41.0642C67.2658 41.1334 66.9841 41.3911 66.8822 41.7315C66.7322 42.2334 66.5187 42.744 66.2466 43.2469C66.0774 43.5604 66.0956 43.9421 66.2927 44.2373L67.4706 46.0632L65.7427 47.743L63.9774 46.5652C63.6822 46.368 63.3004 46.3507 62.987 46.519C62.5129 46.7757 62.0004 46.9873 61.4629 47.1479C61.1226 47.2498 60.8658 47.5315 60.7966 47.8805L60.337 49.9998L57.9274 49.9661L57.511 47.8834C57.4418 47.5344 57.1841 47.2527 56.8437 47.1507C56.3408 47.0007 55.8293 46.7863 55.3274 46.5161C55.1851 46.4392 55.0274 46.4007 54.8706 46.4007C54.6841 46.4007 54.4976 46.4555 54.337 46.5623L52.511 47.7392L50.8312 46.0113L52.0091 44.2459C52.2072 43.9488 52.2245 43.568 52.0543 43.2546C51.7966 42.7796 51.586 42.268 51.4254 41.7315C51.3235 41.3911 51.0418 41.1344 50.6927 41.0652L48.5764 40.6065L48.6101 38.1979Z" fill="#E6582A"/>
<path d="M59.154 45.1923C62.3357 45.1923 64.9232 42.6048 64.9232 39.423C64.9232 39.0346 64.8848 38.6461 64.8088 38.2702C64.704 37.75 64.1973 37.4134 63.6751 37.5182C63.155 37.624 62.8175 38.1317 62.9232 38.6519C62.9751 38.9028 63.0002 39.1625 63.0002 39.423C63.0002 41.5442 61.2752 43.2692 59.154 43.2692C57.0328 43.2692 55.3078 41.5442 55.3078 39.423C55.3078 37.3019 57.0328 35.5769 59.154 35.5769C59.4146 35.5769 59.6732 35.6019 59.9251 35.6538C60.4434 35.7596 60.9521 35.4221 61.0588 34.9019C61.1636 34.3817 60.8271 33.875 60.3069 33.7682C59.93 33.6923 59.5415 33.6538 59.154 33.6538C55.9723 33.6538 53.3848 36.2413 53.3848 39.423C53.3848 42.6048 55.9723 45.1923 59.154 45.1923Z" fill="#47072C"/>
</svg>
