<svg width="24" height="24" viewBox="0 0 24 24" fill="none" xmlns="http://www.w3.org/2000/svg">
<g clip-path="url(#clip0_2424_25662)">
<path d="M3.2009 24H20.7997C21.4624 24 21.9996 23.4628 21.9996 22.8001V9.30258L22.1416 9.39657C22.4025 9.57674 22.726 9.6418 23.0363 9.57654C23.3556 9.51049 23.6341 9.31704 23.8074 9.04098L23.8099 9.03697C24.1613 8.47078 24.0074 7.72853 23.4599 7.34869L12.6586 0.20161C12.2619 -0.0672032 11.7415 -0.0672032 11.3447 0.20161L0.537455 7.35234C-0.00896761 7.73344 -0.160888 8.47589 0.191889 9.04102C0.363384 9.31688 0.640281 9.51053 0.958228 9.57698C1.03815 9.59306 1.1195 9.60111 1.20101 9.60099C1.43412 9.60131 1.66192 9.53165 1.85497 9.401L2.00095 9.30301V22.8001C2.00095 23.4628 2.53818 24 3.2009 24ZM21.1996 22.8001C21.1996 23.021 21.0206 23.2001 20.7997 23.2001H3.2009C2.97999 23.2001 2.80093 23.021 2.80093 22.8001V8.77422L12.0003 2.69463L21.1996 8.77422V22.8001ZM1.40939 8.73503C1.32567 8.79293 1.22177 8.81377 1.12219 8.79265C1.01711 8.7707 0.925696 8.70647 0.869429 8.61505C0.742789 8.41752 0.792082 8.15553 0.981805 8.01747L11.7895 0.866391C11.8517 0.824151 11.9251 0.801605 12.0003 0.801605C12.077 0.801922 12.1517 0.825181 12.2151 0.868412L23.0156 8.01553C23.2068 8.15224 23.2581 8.41447 23.1323 8.61311C23.0747 8.70563 22.9818 8.77066 22.8752 8.79309C22.7749 8.81302 22.6708 8.79106 22.5872 8.7323L12.2211 1.88149C12.0874 1.7942 11.9148 1.7942 11.7811 1.88149L1.40939 8.73503Z" fill="#47072C"/>
<path d="M8.65936 7.5479C8.19484 7.0856 7.44399 7.0856 6.97948 7.5479L4.74925 9.77813C4.28671 10.2426 4.28671 10.9936 4.74925 11.458L8.36859 15.0806L6.14233 17.3072C6.09406 17.3551 6.05892 17.4146 6.04033 17.48L5.10801 20.7442C5.04172 20.9758 5.08804 21.2251 5.23306 21.4175C5.37809 21.6098 5.60506 21.7229 5.84594 21.7229C5.91722 21.7228 5.98815 21.7128 6.05674 21.6933L9.32093 20.7602C9.38631 20.7416 9.44583 20.7065 9.49373 20.6582L11.7208 18.4328L15.3409 22.0533C15.8056 22.5154 16.5562 22.5154 17.0208 22.0533L19.251 19.8231C19.7136 19.3587 19.7136 18.6077 19.251 18.1432L15.6329 14.5207L18.6955 11.4581C18.9928 11.1612 19.1598 10.7583 19.1598 10.3382C19.1598 9.91804 18.9928 9.51514 18.6955 9.21827L17.5804 8.10316C17.284 7.80514 16.8807 7.6382 16.4604 7.63959C16.0403 7.63816 15.637 7.80494 15.3405 8.10276L12.2807 11.1686L8.65936 7.5479ZM7.26267 19.5383C7.02738 19.3053 6.74589 19.1241 6.43634 19.0063L6.68514 18.1348L8.07224 18.7292L8.66661 20.1163L7.79507 20.3651C7.67722 20.0553 7.49586 19.7737 7.26267 19.5383ZM8.85094 18.5159L14.7885 12.5784L15.6169 13.4067L9.34772 19.6755L8.85094 18.5159ZM13.9606 10.6189L14.789 9.79053L17.0112 12.0128L16.1825 12.8407L13.9606 10.6189ZM14.2234 12.0128L8.28538 17.9504L7.12545 17.4536L13.3946 11.1844L14.2234 12.0128ZM5.31481 10.8928C5.16316 10.741 5.16316 10.4951 5.31481 10.3433L7.54504 8.11306C7.69684 7.96142 7.94279 7.96142 8.09459 8.11306L8.92694 8.94542L8.09459 9.77777C7.99061 9.87818 7.94893 10.0269 7.9855 10.1668C8.02212 10.3066 8.13132 10.4158 8.27116 10.4524C8.41099 10.489 8.5597 10.4473 8.66015 10.3433L9.4925 9.51098L10.3209 10.3401L9.7673 10.8937C9.66333 10.9941 9.62164 11.1428 9.65821 11.2827C9.69483 11.4225 9.80403 11.5317 9.94387 11.5683C10.0837 11.6049 10.2324 11.5632 10.3329 11.4592L10.8864 10.9057L11.7148 11.734L8.93495 14.5139L5.31481 10.8928ZM5.89317 20.9082L6.21314 19.7803C6.57657 19.9336 6.86575 20.2228 7.0191 20.5862L5.89317 20.9082ZM15.8957 15.9157L15.3421 16.4693C15.2381 16.5697 15.1965 16.7184 15.233 16.8583C15.2696 16.9981 15.3788 17.1073 15.5187 17.1439C15.6585 17.1805 15.8072 17.1388 15.9077 17.0348L16.4612 16.4805L17.2896 17.3089L16.4572 18.1412C16.3533 18.2416 16.3116 18.3903 16.3481 18.5302C16.3848 18.67 16.494 18.7792 16.6338 18.8159C16.7736 18.8525 16.9223 18.8107 17.0228 18.7068L17.8551 17.8744L18.6871 18.7067C18.8387 18.8585 18.8387 19.1045 18.6871 19.2563L16.4568 21.4865C16.305 21.6382 16.0591 21.6382 15.9073 21.4865L12.2871 17.8664L15.067 15.0866L15.8957 15.9157ZM16.4608 8.44103C16.6686 8.44036 16.8679 8.5229 17.0144 8.67022L18.1295 9.78534C18.4348 10.0911 18.4348 10.5863 18.1295 10.8921L17.5763 11.4472L15.3541 9.22497L15.9076 8.67141C16.0539 8.52381 16.2531 8.44084 16.4608 8.44103Z" fill="#E6582A"/>
</g>
<defs>
<clipPath id="clip0_2424_25662">
<rect width="24" height="24" fill="white"/>
</clipPath>
</defs>
</svg>
