<svg width="101" height="100" viewBox="0 0 101 100" fill="none" xmlns="http://www.w3.org/2000/svg">
<rect x="0.5" width="100" height="100" rx="6" fill="#F9FAFB"/>
<path d="M39.8188 45.9092C36.5613 45.9092 33.834 48.5607 33.834 51.894C33.834 55.1516 36.4855 57.8789 39.8188 57.8789C43.1522 57.8789 45.8037 55.2274 45.8037 51.894C45.8037 48.5607 43.0764 45.9092 39.8188 45.9092ZM39.8188 56.3637C37.3946 56.3637 35.3491 54.394 35.3491 51.894C35.3491 49.4698 37.3188 47.4243 39.8188 47.4243C42.3188 47.4243 44.2885 49.394 44.2885 51.894C44.2885 54.3183 42.2431 56.3637 39.8188 56.3637Z" fill="#E6582A"/>
<path d="M62.2427 59.8486H60.1214C56.4093 59.8486 52.8487 61.5153 50.5002 64.3941C48.2275 61.5911 44.7427 59.8486 40.879 59.8486H38.7578C31.8639 59.8486 26.2578 65.4547 26.2578 72.3486V73.9395C26.2578 74.3941 26.5608 74.6971 27.0154 74.6971H73.9851C74.4396 74.6971 74.7427 74.3941 74.7427 73.9395V72.3486C74.7427 65.4547 69.1366 59.8486 62.2427 59.8486ZM27.773 72.3486C27.773 66.288 32.6972 61.3638 38.7578 61.3638H40.879C46.9396 61.3638 51.8639 66.288 51.8639 72.3486V73.182H27.773V72.3486ZM73.2275 73.182H53.379C53.3033 72.7274 53.7578 69.3941 51.4093 65.682C53.4548 62.9547 56.7124 61.3638 60.1214 61.3638H62.2427C68.3033 61.3638 73.2275 66.288 73.2275 72.3486V73.182Z" fill="#47072C"/>
<path d="M61.1821 57.8789C64.4397 57.8789 67.167 55.2274 67.167 51.894C67.167 48.6365 64.5154 45.9092 61.1821 45.9092C57.9245 45.9092 55.1973 48.5607 55.1973 51.894C55.1973 55.1516 57.9245 57.8789 61.1821 57.8789ZM61.1821 47.4243C63.6064 47.4243 65.6518 49.394 65.6518 51.894C65.6518 54.3183 63.6821 56.3637 61.1821 56.3637C58.7579 56.3637 56.7124 54.394 56.7124 51.894C56.7124 49.394 58.7579 47.4243 61.1821 47.4243Z" fill="#E6582A"/>
<path d="M49.8188 39.3941C51.4097 41.2122 54.2127 42.4244 57.243 42.4244C57.6218 42.4244 58.0006 42.4244 58.4552 42.3486C63.7582 45.6062 63.7582 45.7577 64.0612 45.6819C64.6673 45.6819 64.9703 45.0759 64.743 44.5456L63.6067 40.4547C65.1976 39.2425 66.1067 37.6516 66.1067 35.9092C66.1067 32.1971 61.4855 28.7122 55.6521 29.5456C54.0612 27.0456 50.6521 25.3789 46.7127 25.3789C41.2582 25.3789 36.8643 28.6365 36.8643 32.5759C36.8643 34.4698 37.9249 36.3638 39.743 37.6516L38.3794 42.5001C38.2279 43.1819 38.9097 43.7122 39.5158 43.3335L45.4249 39.6971C46.7127 39.8486 48.2279 39.7728 49.8188 39.3941ZM56.334 30.985C60.1218 30.6819 64.5915 32.5001 64.5915 35.9092C64.5915 37.2728 63.7582 38.5607 62.3188 39.4698C62.0158 39.6213 61.94 40.0001 62.0158 40.3032L62.8491 43.1819C58.834 40.7577 59.0612 40.6819 58.6067 40.7577C55.7279 41.0607 53.0764 40.3031 51.4855 38.8638C54.8188 37.5001 57.3946 34.4698 56.334 30.985ZM45.1976 38.1819C45.0461 38.1819 44.8188 38.1819 44.6673 38.2577L40.1976 41.0607C40.8794 38.1062 41.637 37.2728 40.8794 36.7425C39.2127 35.6819 38.2279 34.1668 38.2279 32.5759C38.2279 29.4698 42.0158 26.8941 46.5612 26.8941C50.2733 26.8941 53.3794 28.485 54.5158 30.7577C56.94 35.3789 50.5006 38.8638 45.1976 38.1819Z" fill="#47072C"/>
</svg>
