<svg width="24" height="24" viewBox="0 0 24 24" fill="none" xmlns="http://www.w3.org/2000/svg">
<g clip-path="url(#clip0_2308_72295)">
<path d="M6.87273 10.0352C5.30909 10.0352 4 11.3079 4 12.9079C4 14.4715 5.27273 15.7806 6.87273 15.7806C8.47273 15.7806 9.74545 14.5079 9.74545 12.9079C9.74545 11.3079 8.43636 10.0352 6.87273 10.0352ZM6.87273 15.0533C5.70909 15.0533 4.72727 14.1079 4.72727 12.9079C4.72727 11.7442 5.67273 10.7624 6.87273 10.7624C8.07273 10.7624 9.01818 11.7079 9.01818 12.9079C9.01818 14.0715 8.03636 15.0533 6.87273 15.0533Z" fill="#E6582A"/>
<path d="M17.636 16.7266H16.6178C14.836 16.7266 13.1269 17.5266 11.9996 18.9084C10.9087 17.5629 9.23601 16.7266 7.38146 16.7266H6.36328C3.05419 16.7266 0.363281 19.4175 0.363281 22.7266V23.4902C0.363281 23.7084 0.508736 23.8538 0.726918 23.8538H23.2724C23.4906 23.8538 23.636 23.7084 23.636 23.4902V22.7266C23.636 19.4175 20.9451 16.7266 17.636 16.7266ZM1.09055 22.7266C1.09055 19.8175 3.45419 17.4538 6.36328 17.4538H7.38146C10.2906 17.4538 12.6542 19.8175 12.6542 22.7266V23.1266H1.09055V22.7266ZM22.9087 23.1266H13.3815C13.3451 22.9084 13.5633 21.3084 12.436 19.5266C13.4178 18.2175 14.9815 17.4538 16.6178 17.4538H17.636C20.5451 17.4538 22.9087 19.8175 22.9087 22.7266V23.1266Z" fill="#47072C"/>
<path d="M17.1266 15.7806C18.6903 15.7806 19.9994 14.5079 19.9994 12.9079C19.9994 11.3442 18.7266 10.0352 17.1266 10.0352C15.563 10.0352 14.2539 11.3079 14.2539 12.9079C14.2539 14.4715 15.563 15.7806 17.1266 15.7806ZM17.1266 10.7624C18.2903 10.7624 19.2721 11.7079 19.2721 12.9079C19.2721 14.0715 18.3266 15.0533 17.1266 15.0533C15.963 15.0533 14.9812 14.1079 14.9812 12.9079C14.9812 11.7079 15.963 10.7624 17.1266 10.7624Z" fill="#E6582A"/>
<path d="M11.6733 6.90891C12.4369 7.78164 13.7824 8.36346 15.2369 8.36346C15.4187 8.36346 15.6005 8.36346 15.8187 8.3271C18.3642 9.89073 18.3642 9.96346 18.5096 9.9271C18.8005 9.9271 18.946 9.63619 18.8369 9.38164L18.2914 7.418C19.0551 6.83619 19.4914 6.07255 19.4914 5.23619C19.4914 3.45437 17.2733 1.78164 14.4733 2.18164C13.7096 0.981641 12.0733 0.181641 10.1824 0.181641C7.56417 0.181641 5.45508 1.74528 5.45508 3.63619C5.45508 4.54528 5.96417 5.45437 6.8369 6.07255L6.18235 8.39982C6.10962 8.7271 6.4369 8.98164 6.72781 8.79982L9.56417 7.05437C10.1824 7.1271 10.9096 7.09073 11.6733 6.90891ZM14.8005 2.87255C16.6187 2.7271 18.7642 3.59982 18.7642 5.23619C18.7642 5.89073 18.3642 6.50891 17.6733 6.94528C17.5278 7.018 17.4914 7.19982 17.5278 7.34528L17.9278 8.7271C16.0005 7.56346 16.1096 7.5271 15.8914 7.56346C14.5096 7.70891 13.2369 7.34528 12.4733 6.65437C14.0733 5.99982 15.3096 4.54528 14.8005 2.87255ZM9.45508 6.3271C9.38235 6.3271 9.27326 6.3271 9.20053 6.36346L7.05508 7.70891C7.38235 6.29073 7.74599 5.89073 7.38235 5.63619C6.58235 5.1271 6.10962 4.39982 6.10962 3.63619C6.10962 2.14528 7.92781 0.908913 10.1096 0.908913C11.8914 0.908913 13.3824 1.67255 13.9278 2.76346C15.0914 4.98164 12.0005 6.65437 9.45508 6.3271Z" fill="#47072C"/>
</g>
<defs>
<clipPath id="clip0_2308_72295">
<rect width="24" height="24" fill="white"/>
</clipPath>
</defs>
</svg>
