<svg width="32" height="32" viewBox="0 0 32 32" fill="none" xmlns="http://www.w3.org/2000/svg">
<g clip-path="url(#clip0_2270_56788)">
<path d="M29.15 5.52569C24.7472 4.31932 20.3186 2.44089 16.3428 0.0935159C16.2391 0.0322945 16.1209 0 16.0006 0C15.8802 0 15.762 0.0322945 15.6584 0.0935159C11.5679 2.50832 7.37852 4.28513 2.85072 5.52569C2.70842 5.56467 2.58287 5.64933 2.49339 5.76663C2.40391 5.88394 2.35545 6.0274 2.35547 6.17494V13.0528C2.35547 20.1355 5.6229 24.8237 8.36402 27.5094C11.315 30.401 14.7525 32 16.0006 32C17.2485 32 20.686 30.401 23.637 27.5094C26.378 24.8238 29.6453 20.1355 29.6453 13.0528V6.17488C29.6453 5.87163 29.4425 5.60575 29.15 5.52569ZM28.299 13.0527C28.299 19.6679 25.2515 24.0426 22.6947 26.5477C19.7928 29.3911 16.6901 30.6536 16.0006 30.6536C15.311 30.6536 12.2081 29.3911 9.30614 26.5477C6.74946 24.0425 3.70178 19.6679 3.70178 13.0527V6.68588C8.03165 5.45651 12.064 3.74082 16.0007 1.45314C19.8391 3.68013 24.0726 5.48113 28.299 6.68563V13.0527Z" fill="#E6582A"/>
<path d="M10.0337 6.61143C9.89744 6.26549 9.50663 6.09556 9.16063 6.23187C7.95356 6.70729 6.72998 7.13966 5.4922 7.52818C5.35544 7.57108 5.23595 7.6565 5.15112 7.77202C5.06628 7.88753 5.02052 8.02711 5.02051 8.17043V10.7699C5.02051 11.1416 5.32195 11.443 5.69363 11.443C6.06532 11.443 6.36676 11.1416 6.36676 10.7699V8.66237C7.4745 8.3039 8.57083 7.91104 9.65413 7.48437C10.0001 7.34818 10.17 6.95737 10.0337 6.61143ZM11.3124 6.73912C11.4027 6.73912 11.4944 6.72093 11.5823 6.68255L11.5947 6.67718C11.9353 6.52793 12.0886 6.13149 11.9394 5.79105C11.79 5.45049 11.3913 5.29643 11.0511 5.44555L11.0403 5.45024C10.6995 5.59906 10.5456 5.99518 10.6944 6.33581C10.8049 6.58868 11.0527 6.73912 11.3124 6.73912ZM24.0202 21.7061C23.7091 21.5027 23.292 21.5902 23.0884 21.9014C22.5338 22.7504 21.883 23.5634 21.154 24.3176C20.5544 24.9378 19.909 25.512 19.2232 26.0354C18.9276 26.2607 18.8708 26.6831 19.0961 26.9788C19.1589 27.0613 19.2399 27.1282 19.3329 27.1741C19.4258 27.2201 19.5281 27.244 19.6318 27.2439C19.7742 27.2439 19.9176 27.1989 20.0395 27.1059C20.7791 26.5415 21.4751 25.9222 22.1218 25.2533C22.91 24.4381 23.6144 23.5581 24.2155 22.6377C24.4189 22.3265 24.3314 21.9094 24.0202 21.7061ZM17.6599 27.0911L17.6213 27.1138C17.2996 27.3001 17.1897 27.7119 17.3759 28.0336C17.4202 28.1101 17.4791 28.1772 17.5493 28.2309C17.6195 28.2847 17.6996 28.324 17.785 28.3468C17.8704 28.3696 17.9595 28.3753 18.0471 28.3636C18.1347 28.352 18.2192 28.3231 18.2957 28.2788L18.3403 28.2526C18.6611 28.0647 18.7688 27.6524 18.5809 27.3316C18.3929 27.0109 17.9806 26.9034 17.6599 27.0911ZM11.4119 14.6271C10.9986 14.2137 10.4489 13.9862 9.86426 13.9862C9.27963 13.9862 8.72988 14.2137 8.31638 14.6271C7.46307 15.4806 7.46307 16.8693 8.31638 17.7227L12.2911 21.6974C12.7045 22.1106 13.2542 22.3382 13.8389 22.3382C14.4236 22.3382 14.9733 22.1106 15.3867 21.6972L23.6843 13.3996C24.5375 12.5459 24.5375 11.1574 23.6841 10.3042C23.2708 9.89081 22.7211 9.66331 22.1363 9.66331C21.5516 9.66331 21.0019 9.89087 20.5885 10.3042L13.8388 17.0539L11.4119 14.6271ZM21.5405 11.2562C21.6186 11.1777 21.7115 11.1155 21.8137 11.0732C21.916 11.0309 22.0257 11.0092 22.1364 11.0096C22.3616 11.0096 22.5731 11.0971 22.7323 11.2562C23.0608 11.5846 23.0608 12.1192 22.7322 12.4478L14.4348 20.7453C14.2757 20.9044 14.064 20.9919 13.8389 20.9919C13.6138 20.9919 13.4021 20.9044 13.2429 20.7453L9.26832 16.7708C8.93976 16.4422 8.93976 15.9076 9.26819 15.5792C9.42732 15.4201 9.63901 15.3324 9.8642 15.3324C10.0894 15.3324 10.3009 15.42 10.46 15.5791L13.3628 18.4819C13.4891 18.6081 13.6603 18.6791 13.8388 18.6791C14.0174 18.6791 14.1885 18.6082 14.3147 18.4819L21.5405 11.2562Z" fill="#E6582A"/>
</g>
<defs>
<clipPath id="clip0_2270_56788">
<rect width="32" height="32" fill="white"/>
</clipPath>
</defs>
</svg>
