<svg width="301" height="296" viewBox="0 0 301 296" fill="none" xmlns="http://www.w3.org/2000/svg">
<g filter="url(#filter0_d_1922_23376)">
<rect x="65" y="21.0449" width="171" height="166.16" rx="19.3585" fill="white"/>
<rect x="58.5472" y="14.5921" width="183.906" height="179.066" rx="25.8113" stroke="white" stroke-opacity="0.24" stroke-width="12.9057"/>
<path d="M159.881 48.5324L151.082 53.6287C150.728 53.8344 150.282 53.8344 149.916 53.6287L141.118 48.5324C140.489 48.1667 140.329 47.3097 140.809 46.7726C141.14 46.3955 141.518 46.087 141.917 45.8699L148.111 42.4418C149.436 41.6991 151.585 41.6991 152.91 42.4418L159.104 45.8699C159.503 46.087 159.881 46.407 160.212 46.7726C160.669 47.3097 160.509 48.1667 159.881 48.5324Z" fill="#E6582A"/>
<path d="M149.849 55.7542V63.5473C149.849 64.4158 148.969 64.9871 148.192 64.61C145.838 63.4559 141.873 61.2962 141.873 61.2962C140.479 60.5078 139.336 58.5195 139.336 56.8855V50.9892C139.336 50.0865 140.284 49.5151 141.061 49.9608L149.277 54.7258C149.62 54.9429 149.849 55.3314 149.849 55.7542Z" fill="#E6582A"/>
<path d="M151.15 55.7542V63.5473C151.15 64.4158 152.03 64.9871 152.807 64.61C155.161 63.4559 159.126 61.2962 159.126 61.2962C160.52 60.5078 161.663 58.5195 161.663 56.8855V50.9892C161.663 50.0865 160.715 49.5151 159.938 49.9608L151.722 54.7258C151.379 54.9429 151.15 55.3314 151.15 55.7542Z" fill="#E6582A"/>
<path d="M118.164 90.4732C117.174 90.4732 116.294 90.3037 115.524 89.9645C114.759 89.6254 114.154 89.1533 113.709 88.5484C113.265 87.9434 113.029 87.2445 113.001 86.4517H115.586C115.609 86.8321 115.735 87.1643 115.964 87.4485C116.193 87.728 116.498 87.9457 116.879 88.1016C117.259 88.2574 117.685 88.3353 118.157 88.3353C118.661 88.3353 119.108 88.2482 119.498 88.0741C119.887 87.8953 120.192 87.6478 120.412 87.3316C120.632 87.0154 120.74 86.651 120.735 86.2386C120.74 85.8124 120.63 85.4366 120.405 85.1112C120.181 84.7858 119.855 84.5314 119.429 84.3481C119.007 84.1648 118.499 84.0731 117.903 84.0731H116.659V82.107H117.903C118.393 82.107 118.822 82.0222 119.188 81.8527C119.56 81.6831 119.851 81.4448 120.061 81.1377C120.272 80.8261 120.375 80.4663 120.371 80.0584C120.375 79.6597 120.286 79.3137 120.103 79.0204C119.924 78.7225 119.67 78.4911 119.34 78.3261C119.014 78.1611 118.632 78.0786 118.192 78.0786C117.761 78.0786 117.362 78.1565 116.995 78.3123C116.629 78.4681 116.333 78.6904 116.109 78.9791C115.884 79.2633 115.765 79.6024 115.751 79.9966H113.297C113.315 79.2083 113.542 78.5163 113.977 77.9205C114.417 77.3201 115.004 76.8526 115.737 76.5181C116.471 76.1789 117.293 76.0094 118.205 76.0094C119.145 76.0094 119.961 76.1858 120.653 76.5387C121.349 76.887 121.888 77.3568 122.268 77.948C122.648 78.5392 122.839 79.1923 122.839 79.9072C122.843 80.7001 122.61 81.3646 122.137 81.9008C121.67 82.437 121.056 82.7876 120.295 82.9526V83.0626C121.285 83.2001 122.044 83.5667 122.571 84.1625C123.102 84.7537 123.366 85.4893 123.361 86.3692C123.361 87.1575 123.137 87.8632 122.687 88.4865C122.243 89.1052 121.629 89.591 120.845 89.9439C120.066 90.2968 119.172 90.4732 118.164 90.4732ZM126.011 90.2808V88.4384L130.899 83.6469C131.366 83.1749 131.756 82.7555 132.068 82.3889C132.379 82.0222 132.613 81.6671 132.769 81.3233C132.925 80.9796 133.003 80.613 133.003 80.2234C133.003 79.7789 132.902 79.3985 132.7 79.0823C132.498 78.7615 132.221 78.514 131.868 78.3398C131.515 78.1657 131.114 78.0786 130.665 78.0786C130.202 78.0786 129.797 78.1748 129.448 78.3673C129.1 78.5552 128.83 78.8233 128.637 79.1716C128.449 79.5199 128.355 79.9347 128.355 80.4159H125.929C125.929 79.5222 126.133 78.7454 126.541 78.0855C126.948 77.4255 127.51 76.9145 128.225 76.5525C128.944 76.1904 129.769 76.0094 130.7 76.0094C131.644 76.0094 132.473 76.1858 133.188 76.5387C133.903 76.8916 134.458 77.3751 134.852 77.9892C135.25 78.6033 135.45 79.3045 135.45 80.0928C135.45 80.6198 135.349 81.1377 135.147 81.6464C134.946 82.1551 134.591 82.7189 134.082 83.3376C133.578 83.9563 132.87 84.7056 131.958 85.5855L129.531 88.0534V88.1497H135.663V90.2808H126.011ZM143.529 90.5489C142.397 90.5489 141.425 90.2624 140.614 89.6896C139.808 89.1121 139.187 88.2803 138.751 87.1941C138.32 86.1034 138.105 84.7904 138.105 83.2551C138.11 81.7198 138.327 80.4136 138.758 79.3366C139.193 78.255 139.814 77.4301 140.621 76.8618C141.432 76.2935 142.402 76.0094 143.529 76.0094C144.656 76.0094 145.626 76.2935 146.437 76.8618C147.248 77.4301 147.869 78.255 148.3 79.3366C148.735 80.4182 148.953 81.7243 148.953 83.2551C148.953 84.7949 148.735 86.1103 148.3 87.201C147.869 88.2872 147.248 89.1167 146.437 89.6896C145.63 90.2624 144.661 90.5489 143.529 90.5489ZM143.529 88.3972C144.409 88.3972 145.103 87.9641 145.612 87.0979C146.125 86.2271 146.382 84.9462 146.382 83.2551C146.382 82.1368 146.265 81.1973 146.031 80.4365C145.798 79.6758 145.468 79.1029 145.041 78.7179C144.615 78.3284 144.111 78.1336 143.529 78.1336C142.654 78.1336 141.962 78.569 141.453 79.4397C140.944 80.3059 140.688 81.5777 140.683 83.2551C140.678 84.3779 140.791 85.322 141.02 86.0873C141.254 86.8527 141.583 87.4302 142.01 87.8197C142.436 88.2047 142.942 88.3972 143.529 88.3972ZM156.731 90.5489C155.599 90.5489 154.628 90.2624 153.817 89.6896C153.01 89.1121 152.389 88.2803 151.954 87.1941C151.523 86.1034 151.307 84.7904 151.307 83.2551C151.312 81.7198 151.53 80.4136 151.96 79.3366C152.396 78.255 153.017 77.4301 153.823 76.8618C154.635 76.2935 155.604 76.0094 156.731 76.0094C157.859 76.0094 158.828 76.2935 159.639 76.8618C160.45 77.4301 161.071 78.255 161.502 79.3366C161.938 80.4182 162.155 81.7243 162.155 83.2551C162.155 84.7949 161.938 86.1103 161.502 87.201C161.071 88.2872 160.45 89.1167 159.639 89.6896C158.833 90.2624 157.863 90.5489 156.731 90.5489ZM156.731 88.3972C157.611 88.3972 158.306 87.9641 158.814 87.0979C159.328 86.2271 159.584 84.9462 159.584 83.2551C159.584 82.1368 159.467 81.1973 159.234 80.4365C159 79.6758 158.67 79.1029 158.244 78.7179C157.817 78.3284 157.313 78.1336 156.731 78.1336C155.856 78.1336 155.164 78.569 154.655 79.4397C154.146 80.3059 153.89 81.5777 153.885 83.2551C153.881 84.3779 153.993 85.322 154.222 86.0873C154.456 86.8527 154.786 87.4302 155.212 87.8197C155.638 88.2047 156.145 88.3972 156.731 88.3972ZM169.934 90.5489C168.802 90.5489 167.83 90.2624 167.019 89.6896C166.212 89.1121 165.591 88.2803 165.156 87.1941C164.725 86.1034 164.51 84.7904 164.51 83.2551C164.514 81.7198 164.732 80.4136 165.163 79.3366C165.598 78.255 166.219 77.4301 167.026 76.8618C167.837 76.2935 168.806 76.0094 169.934 76.0094C171.061 76.0094 172.03 76.2935 172.842 76.8618C173.653 77.4301 174.274 78.255 174.705 79.3366C175.14 80.4182 175.358 81.7243 175.358 83.2551C175.358 84.7949 175.14 86.1103 174.705 87.201C174.274 88.2872 173.653 89.1167 172.842 89.6896C172.035 90.2624 171.066 90.5489 169.934 90.5489ZM169.934 88.3972C170.814 88.3972 171.508 87.9641 172.017 87.0979C172.53 86.2271 172.787 84.9462 172.787 83.2551C172.787 82.1368 172.67 81.1973 172.436 80.4365C172.202 79.6758 171.872 79.1029 171.446 78.7179C171.02 78.3284 170.516 78.1336 169.934 78.1336C169.058 78.1336 168.366 78.569 167.858 79.4397C167.349 80.3059 167.092 81.5777 167.088 83.2551C167.083 84.3779 167.195 85.322 167.424 86.0873C167.658 86.8527 167.988 87.4302 168.414 87.8197C168.841 88.2047 169.347 88.3972 169.934 88.3972ZM182.112 88.0259V78.5117H184.27V88.0259H182.112ZM178.434 84.3481V82.1895H187.948V84.3481H178.434Z" fill="black"/>
<g filter="url(#filter1_d_1922_23376)">
<path d="M215.836 134.422C214.184 134.116 209.963 134.974 206.293 140.858C201.704 148.214 195.281 156.305 185.921 148.582C176.561 140.858 169.037 124.676 159.494 122.837C149.95 120.998 143.16 135.526 135.085 141.042C127.01 146.559 120.403 142.33 114.346 136.445C108.29 130.56 99.1139 118.424 85.166 124.308" stroke="#E6582A" stroke-width="3.22641" stroke-linecap="round"/>
</g>
<path d="M137.704 105.179C137.704 106.056 137.543 106.81 137.222 107.441C136.902 108.069 136.462 108.553 135.903 108.893C135.347 109.23 134.715 109.398 134.006 109.398C133.295 109.398 132.66 109.23 132.102 108.893C131.545 108.553 131.107 108.068 130.786 107.437C130.465 106.806 130.305 106.054 130.305 105.179C130.305 104.302 130.465 103.55 130.786 102.922C131.107 102.291 131.545 101.807 132.102 101.47C132.66 101.13 133.295 100.961 134.006 100.961C134.715 100.961 135.347 101.13 135.903 101.47C136.462 101.807 136.902 102.291 137.222 102.922C137.543 103.55 137.704 104.302 137.704 105.179ZM136.477 105.179C136.477 104.511 136.368 103.948 136.152 103.491C135.938 103.031 135.644 102.684 135.269 102.448C134.898 102.21 134.477 102.092 134.006 102.092C133.533 102.092 133.111 102.21 132.739 102.448C132.368 102.684 132.073 103.031 131.857 103.491C131.643 103.948 131.536 104.511 131.536 105.179C131.536 105.848 131.643 106.412 131.857 106.872C132.073 107.329 132.368 107.676 132.739 107.914C133.111 108.149 133.533 108.267 134.006 108.267C134.477 108.267 134.898 108.149 135.269 107.914C135.644 107.676 135.938 107.329 136.152 106.872C136.368 106.412 136.477 105.848 136.477 105.179ZM139.322 109.286V103.126H140.481V104.105H140.545C140.657 103.773 140.855 103.512 141.138 103.323C141.424 103.13 141.748 103.034 142.109 103.034C142.184 103.034 142.272 103.037 142.373 103.042C142.478 103.047 142.559 103.054 142.618 103.062V104.209C142.57 104.195 142.484 104.181 142.361 104.165C142.238 104.146 142.115 104.137 141.992 104.137C141.709 104.137 141.456 104.197 141.234 104.317C141.015 104.435 140.841 104.599 140.713 104.81C140.585 105.019 140.521 105.257 140.521 105.524V109.286H139.322ZM145.91 109.406C145.413 109.406 144.969 109.279 144.579 109.025C144.191 108.768 143.886 108.403 143.665 107.93C143.445 107.454 143.336 106.884 143.336 106.218C143.336 105.552 143.447 104.983 143.669 104.51C143.893 104.036 144.201 103.674 144.591 103.423C144.981 103.172 145.424 103.046 145.918 103.046C146.301 103.046 146.608 103.11 146.841 103.238C147.076 103.364 147.258 103.511 147.386 103.68C147.517 103.848 147.619 103.996 147.691 104.125H147.763V101.073H148.962V109.286H147.791V108.327H147.691C147.619 108.458 147.514 108.608 147.378 108.776C147.244 108.945 147.06 109.092 146.825 109.217C146.589 109.343 146.284 109.406 145.91 109.406ZM146.175 108.383C146.52 108.383 146.811 108.292 147.049 108.111C147.29 107.926 147.471 107.671 147.594 107.345C147.72 107.019 147.783 106.639 147.783 106.206C147.783 105.778 147.721 105.404 147.598 105.083C147.475 104.762 147.295 104.512 147.057 104.333C146.819 104.154 146.525 104.064 146.175 104.064C145.814 104.064 145.513 104.158 145.273 104.345C145.032 104.532 144.85 104.788 144.727 105.111C144.607 105.435 144.547 105.8 144.547 106.206C144.547 106.618 144.608 106.988 144.731 107.317C144.854 107.646 145.036 107.906 145.277 108.099C145.52 108.288 145.819 108.383 146.175 108.383ZM153.497 109.41C152.89 109.41 152.368 109.28 151.929 109.021C151.494 108.759 151.157 108.391 150.919 107.918C150.684 107.442 150.566 106.885 150.566 106.246C150.566 105.615 150.684 105.059 150.919 104.578C151.157 104.097 151.488 103.721 151.913 103.451C152.341 103.181 152.841 103.046 153.413 103.046C153.761 103.046 154.097 103.103 154.424 103.218C154.75 103.333 155.043 103.514 155.302 103.76C155.561 104.006 155.766 104.325 155.915 104.718C156.065 105.108 156.14 105.583 156.14 106.142V106.567H151.244V105.669H154.965C154.965 105.353 154.901 105.074 154.773 104.83C154.644 104.584 154.464 104.391 154.231 104.249C154.001 104.107 153.731 104.036 153.421 104.036C153.084 104.036 152.79 104.119 152.539 104.285C152.29 104.448 152.098 104.662 151.961 104.927C151.828 105.189 151.761 105.473 151.761 105.781V106.483C151.761 106.894 151.833 107.245 151.977 107.533C152.125 107.822 152.329 108.043 152.591 108.195C152.853 108.345 153.159 108.419 153.509 108.419C153.737 108.419 153.944 108.387 154.131 108.323C154.318 108.256 154.48 108.157 154.616 108.026C154.752 107.895 154.857 107.734 154.929 107.541L156.064 107.746C155.973 108.08 155.81 108.373 155.575 108.624C155.342 108.873 155.049 109.066 154.696 109.205C154.346 109.342 153.946 109.41 153.497 109.41ZM157.64 109.286V103.126H158.799V104.105H158.863C158.975 103.773 159.173 103.512 159.456 103.323C159.742 103.13 160.066 103.034 160.427 103.034C160.502 103.034 160.59 103.037 160.691 103.042C160.796 103.047 160.877 103.054 160.936 103.062V104.209C160.888 104.195 160.802 104.181 160.679 104.165C160.556 104.146 160.433 104.137 160.31 104.137C160.027 104.137 159.774 104.197 159.553 104.317C159.333 104.435 159.16 104.599 159.031 104.81C158.903 105.019 158.839 105.257 158.839 105.524V109.286H157.64ZM166.759 104.63L165.672 104.822C165.626 104.683 165.554 104.551 165.455 104.425C165.359 104.3 165.228 104.197 165.062 104.117C164.897 104.036 164.689 103.996 164.441 103.996C164.101 103.996 163.818 104.073 163.591 104.225C163.363 104.375 163.25 104.568 163.25 104.806C163.25 105.012 163.326 105.178 163.478 105.304C163.631 105.429 163.877 105.532 164.216 105.612L165.195 105.837C165.761 105.968 166.184 106.17 166.462 106.442C166.74 106.715 166.879 107.069 166.879 107.505C166.879 107.874 166.772 108.203 166.558 108.492C166.347 108.778 166.052 109.002 165.672 109.165C165.295 109.328 164.858 109.41 164.361 109.41C163.671 109.41 163.108 109.263 162.672 108.969C162.237 108.672 161.969 108.251 161.87 107.706L163.029 107.529C163.101 107.831 163.25 108.06 163.474 108.215C163.699 108.367 163.992 108.444 164.353 108.444C164.746 108.444 165.06 108.362 165.295 108.199C165.53 108.033 165.648 107.831 165.648 107.593C165.648 107.401 165.576 107.239 165.431 107.108C165.29 106.977 165.072 106.878 164.778 106.811L163.735 106.583C163.16 106.452 162.735 106.243 162.46 105.957C162.187 105.671 162.051 105.309 162.051 104.871C162.051 104.507 162.152 104.189 162.356 103.916C162.559 103.643 162.839 103.431 163.198 103.279C163.556 103.123 163.966 103.046 164.429 103.046C165.094 103.046 165.618 103.19 166.001 103.479C166.383 103.765 166.636 104.149 166.759 104.63Z" fill="#7B7797"/>
</g>
<defs>
<filter id="filter0_d_1922_23376" x="0.395882" y="0.384476" width="300.208" height="295.367" filterUnits="userSpaceOnUse" color-interpolation-filters="sRGB">
<feFlood flood-opacity="0" result="BackgroundImageFix"/>
<feColorMatrix in="SourceAlpha" type="matrix" values="0 0 0 0 0 0 0 0 0 0 0 0 0 0 0 0 0 0 127 0" result="hardAlpha"/>
<feOffset dy="43.9432"/>
<feGaussianBlur stdDeviation="25.8489"/>
<feComposite in2="hardAlpha" operator="out"/>
<feColorMatrix type="matrix" values="0 0 0 0 0.804167 0 0 0 0 0.804167 0 0 0 0 0.804167 0 0 0 0.16 0"/>
<feBlend mode="normal" in2="BackgroundImageFix" result="effect1_dropShadow_1922_23376"/>
<feBlend mode="normal" in="SourceGraphic" in2="effect1_dropShadow_1922_23376" result="shape"/>
</filter>
<filter id="filter1_d_1922_23376" x="80.3263" y="121.063" width="140.349" height="46.784" filterUnits="userSpaceOnUse" color-interpolation-filters="sRGB">
<feFlood flood-opacity="0" result="BackgroundImageFix"/>
<feColorMatrix in="SourceAlpha" type="matrix" values="0 0 0 0 0 0 0 0 0 0 0 0 0 0 0 0 0 0 127 0" result="hardAlpha"/>
<feOffset dy="11.2925"/>
<feGaussianBlur stdDeviation="1.61321"/>
<feComposite in2="hardAlpha" operator="out"/>
<feColorMatrix type="matrix" values="0 0 0 0 0.874557 0 0 0 0 0.872708 0 0 0 0 0.8875 0 0 0 1 0"/>
<feBlend mode="normal" in2="BackgroundImageFix" result="effect1_dropShadow_1922_23376"/>
<feBlend mode="normal" in="SourceGraphic" in2="effect1_dropShadow_1922_23376" result="shape"/>
</filter>
</defs>
</svg>
