<svg width="26" height="26" viewBox="0 0 26 26" fill="none" xmlns="http://www.w3.org/2000/svg">
<g clip-path="url(#clip0_2351_60072)">
<path d="M25.216 15.2845L22.3751 8.26558C22.288 8.04967 22.1251 7.883 21.9092 7.7921C21.6933 7.70497 21.4546 7.70876 21.2425 7.80346L19.0304 8.78831C18.6554 8.9474 18.4546 9.35649 18.5342 9.74664L17.9471 10.0762C17.7501 10.1898 17.5115 10.2315 17.2804 10.2012L13.2008 9.59891C12.4887 9.49664 11.7577 9.73149 11.2425 10.2277L10.9433 10.5156H8.67812C8.57585 10.5156 8.47357 10.4777 8.39782 10.4095L8.19706 10.2391C8.33721 9.89437 8.24251 9.49285 7.93948 9.25422L6.22736 7.90194C6.04554 7.758 5.81827 7.69361 5.58721 7.7277C5.35994 7.758 5.1516 7.883 5.01524 8.06482L0.890239 13.6557C0.617512 14.0232 0.681906 14.5383 1.04554 14.83L2.75388 16.1785C2.90918 16.2997 3.091 16.3603 3.28039 16.3603C3.31827 16.3603 3.35994 16.3565 3.39782 16.3527C3.62509 16.3224 3.82963 16.2012 3.966 16.0118L3.98115 15.9929L4.22736 16.1785C4.3713 16.2807 4.45463 16.455 4.45463 16.6368V17.6557L3.81827 18.4739C3.25009 19.2126 3.37888 20.2769 4.11372 20.8451C4.41297 21.08 4.7766 21.205 5.1516 21.205C5.21979 21.205 5.29175 21.2012 5.35994 21.1936C5.43569 21.1822 5.50766 21.1633 5.57963 21.1444C5.57963 21.1671 5.57585 21.186 5.57585 21.2088C5.57585 21.6936 5.79554 22.1482 6.17433 22.4588C6.46979 22.6936 6.82585 22.811 7.17812 22.811C7.39781 22.811 7.61751 22.7618 7.82206 22.6747V22.6936C7.87509 23.0913 8.08342 23.4436 8.38645 23.6671L8.45463 23.7201C8.71221 23.9095 9.01903 24.0118 9.33342 24.0118C9.40539 24.0118 9.47736 24.008 9.55312 23.9966C9.716 23.9739 9.86372 23.9171 10.0077 23.8451C10.0872 24.2504 10.3183 24.5989 10.663 24.8186L10.7122 24.8527C10.9584 25.0156 11.2425 25.0989 11.5304 25.0989C11.6365 25.0989 11.7387 25.0875 11.8448 25.0648C12.2425 24.9815 12.5796 24.7466 12.8031 24.4057L12.8675 24.3072C13.1365 24.5118 13.4584 24.6179 13.8031 24.6179C14.2084 24.6179 14.6061 24.4512 14.894 24.1671C15.2084 23.8527 15.3751 23.4133 15.3448 22.9701C15.3448 22.9436 15.341 22.9133 15.3372 22.8868C15.7804 22.9512 16.2463 22.811 16.5834 22.4739C16.8865 22.1709 17.0418 21.7466 17.0077 21.3186C17.0039 21.2656 16.9963 21.2126 16.9849 21.1595C17.4887 21.1898 17.9849 20.9891 18.3258 20.5838C18.6175 20.2391 18.7539 19.7845 18.6971 19.3376C18.6933 19.3035 18.6895 19.2732 18.6819 19.2391C19.1402 19.2883 19.6061 19.1292 19.9471 18.7959C20.3221 18.4209 20.4622 17.8906 20.3599 17.3906C20.3789 17.3868 20.3978 17.3906 20.4168 17.3868L21.6365 17.2163C21.7918 17.3565 22.0001 17.436 22.2084 17.436C22.3258 17.436 22.4433 17.4133 22.5531 17.3603L24.7728 16.3792C25.1895 16.1974 25.3865 15.7126 25.216 15.2845ZM3.30691 15.7088C3.25009 15.7163 3.19706 15.7012 3.15539 15.6671L1.45463 14.3224C1.3713 14.2542 1.35236 14.133 1.41675 14.0459L5.53797 8.44361C5.57963 8.38679 5.63645 8.37164 5.67054 8.36785H5.69706C5.73115 8.36785 5.7766 8.37543 5.81827 8.40952L7.53418 9.76179C7.61751 9.82619 7.63266 9.9474 7.57206 10.0269L7.51903 10.0989C7.51524 10.1027 7.51145 10.1065 7.50766 10.1103L5.13645 13.3224C5.13266 13.3262 5.13266 13.3262 5.12888 13.33L4.67812 13.9436L3.64403 15.3451C3.64024 15.3489 3.64024 15.3527 3.64024 15.3527L3.43569 15.633C3.39782 15.686 3.34478 15.705 3.30691 15.7088ZM5.28418 20.5459C5.01145 20.58 4.73872 20.5042 4.51903 20.3338C4.07206 19.9853 3.98872 19.33 4.341 18.8754L5.56069 17.3035C5.76524 17.0383 6.07206 16.9019 6.38266 16.9019C6.60236 16.9019 6.82585 16.9739 7.01524 17.1179C7.26903 17.3186 7.41675 17.6179 7.41675 17.9398C7.41675 18.1709 7.341 18.3906 7.19706 18.58L5.97736 20.1519C5.80312 20.3716 5.55691 20.5118 5.28418 20.5459ZM6.58721 21.9512C6.35994 21.7656 6.23115 21.4966 6.23115 21.2088C6.23115 21.0004 6.30312 20.7959 6.44327 20.6179L7.65918 19.0497C7.81448 18.8451 8.04175 18.7201 8.29554 18.6898C8.33342 18.6822 8.3713 18.6822 8.40539 18.6822C8.6213 18.6822 8.83342 18.758 9.03039 18.9171C9.43948 19.2466 9.50388 19.8489 9.17433 20.258L7.92812 21.811C7.59857 22.2125 6.9963 22.2769 6.58721 21.9512ZM9.45463 23.3489C9.23494 23.3792 9.01903 23.3262 8.86372 23.2126L8.79933 23.1595C8.61751 23.0269 8.50388 22.83 8.47357 22.6065C8.44327 22.3792 8.50766 22.1557 8.64782 21.9777L9.57206 20.8338C9.73115 20.633 9.97357 20.5269 10.216 20.5269C10.3865 20.5269 10.5607 20.58 10.7046 20.6898C10.913 20.8451 11.0342 21.0876 11.0342 21.3489C11.0342 21.5194 10.9849 21.6785 10.8902 21.8148C10.8827 21.8224 10.8789 21.8338 10.8713 21.8451C10.8675 21.8489 10.8675 21.8527 10.8637 21.8527L10.8486 21.8754L9.98872 23.0269C9.86751 23.205 9.67433 23.3186 9.45463 23.3489ZM12.6857 23.3754L12.2501 24.0535C12.1251 24.2466 11.9319 24.3792 11.7046 24.4285C11.4811 24.4739 11.2539 24.4322 11.0683 24.311L11.019 24.2769C10.8183 24.1482 10.6857 23.9474 10.644 23.7163C10.6024 23.4853 10.6516 23.2542 10.7918 23.061C11.019 22.7618 11.2766 22.4285 11.3789 22.3035C11.3978 22.2845 11.4168 22.2618 11.4357 22.2466C11.4395 22.2466 11.4395 22.2429 11.4395 22.2429C11.4433 22.2391 11.4508 22.2353 11.4546 22.2315C11.4736 22.2163 11.4887 22.2012 11.519 22.1822C11.8031 22.0118 12.1592 22.0118 12.4357 22.1898C12.6781 22.3451 12.8258 22.6179 12.8258 22.9133C12.8221 23.08 12.7766 23.2391 12.6857 23.3754ZM19.4849 18.3338C19.1743 18.6406 18.6705 18.6785 18.3221 18.4247L16.144 16.8148L15.2955 16.186C15.1516 16.08 14.9471 16.1103 14.8372 16.2542C14.7311 16.3982 14.7615 16.6027 14.9054 16.7126L16.3902 17.811L17.6478 18.7429C17.8675 18.9057 18.0077 19.1444 18.0418 19.4171C18.0758 19.6898 17.9963 19.955 17.8183 20.1671C17.4925 20.5535 16.9168 20.6254 16.5039 20.3338L13.894 18.4663C13.7463 18.3603 13.5418 18.3944 13.4395 18.5421C13.3334 18.6898 13.3675 18.8944 13.5152 18.9966L16.0115 20.7807C16.2046 20.9209 16.3258 21.1368 16.3486 21.3716C16.3675 21.6103 16.2842 21.8413 16.1137 22.0118C15.8296 22.2997 15.3713 22.3262 15.0493 22.0838L12.5872 20.1671C12.4433 20.0572 12.2387 20.08 12.1289 20.2239C12.019 20.3641 12.0418 20.5724 12.1819 20.6822L14.3334 22.3641C14.538 22.5232 14.6668 22.7618 14.6819 23.0194C14.7008 23.2807 14.6061 23.5269 14.4205 23.7126C14.1175 24.0156 13.6061 24.0497 13.2652 23.8035C13.2652 23.8035 13.2463 23.7807 13.2198 23.7542L13.2274 23.7429C13.3865 23.5004 13.4698 23.2163 13.4698 22.9171C13.4698 22.3982 13.2122 21.9247 12.7804 21.6444C12.4508 21.4322 12.0569 21.3679 11.6819 21.436C11.6819 21.4095 11.6857 21.383 11.6857 21.3565C11.6857 20.883 11.4698 20.4512 11.0948 20.1709C10.769 19.9285 10.3789 19.8375 10.0077 19.8906C10.0834 19.3451 9.88266 18.7732 9.40918 18.3906C9.07206 18.1141 8.64403 17.9929 8.21221 18.0421C8.15539 18.0497 8.10236 18.0648 8.04933 18.0762C8.05312 18.0307 8.06069 17.9891 8.06069 17.9436C8.06069 17.4171 7.82585 16.9322 7.40918 16.6065C6.78418 16.1216 5.92433 16.1482 5.32585 16.6179C5.32585 16.6141 5.32585 16.6141 5.32963 16.6103C5.32206 16.6179 5.31448 16.6254 5.30691 16.6292C5.26903 16.6595 5.23115 16.6974 5.19706 16.7315C5.16675 16.7618 5.13266 16.7883 5.10236 16.8224V16.6406C5.10236 16.2466 4.91676 15.8792 4.60994 15.6557L4.35994 15.4701L4.83721 14.8224L5.43948 14.0042L5.62888 13.7504C5.64024 13.7391 5.64782 13.7277 5.65918 13.7163L7.82206 10.7807L7.96221 10.8982C8.15539 11.0686 8.40918 11.1633 8.67054 11.1633H10.2539L9.34479 12.0345C9.13266 12.2391 9.01524 12.5156 9.01524 12.811C9.01524 13.2353 9.25009 13.6103 9.63266 13.7883C10.5645 14.2353 11.6668 14.2126 12.5796 13.7315L12.9736 13.5269C13.3448 13.33 13.7993 13.3754 14.1289 13.6406L17.9736 16.7201C18.1971 16.8944 18.4319 17.0383 18.6743 17.1444C18.7539 17.1785 18.841 17.2126 18.9168 17.2391C18.9849 17.2656 19.0569 17.2883 19.1175 17.3035C19.2008 17.33 19.2842 17.3489 19.3561 17.3603C19.4546 17.3792 19.5493 17.3944 19.6289 17.3982C19.6668 17.4019 19.7008 17.4019 19.7387 17.4057C19.7236 17.4095 19.7122 17.4133 19.6971 17.4171C19.8031 17.7315 19.7274 18.0913 19.4849 18.3338ZM20.3258 16.7429C20.2008 16.758 20.0645 16.7656 19.9092 16.7618C19.8448 16.7618 19.7842 16.758 19.6971 16.7466C19.6213 16.7429 19.5531 16.7277 19.4698 16.7126C19.4168 16.705 19.3637 16.6936 19.2955 16.6709C19.2425 16.6595 19.1933 16.6406 19.144 16.6216C19.0758 16.5989 19.0039 16.5686 18.9395 16.5421C18.7501 16.4588 18.5607 16.3451 18.3827 16.205L14.7349 13.2807L14.538 13.1254C14.2274 12.8754 13.8486 12.7466 13.466 12.7466C13.1933 12.7466 12.9205 12.811 12.6743 12.9436L12.2804 13.1482C11.5493 13.5345 10.6668 13.5535 9.92054 13.1936C9.74251 13.1103 9.67812 12.9398 9.67812 12.8072C9.67812 12.7277 9.70085 12.6065 9.80691 12.5042L11.6971 10.6936C12.0683 10.3375 12.5948 10.1671 13.1061 10.2429L17.1895 10.8451C17.5645 10.8982 17.9508 10.8262 18.269 10.6444L18.769 10.3641L19.5721 12.3489L21.2993 16.6065L20.3258 16.7429ZM24.5077 15.7883L22.2842 16.7694C22.1971 16.8072 22.091 16.7769 22.0266 16.6671L19.663 10.83L19.3561 10.08L19.1819 9.64816C19.1402 9.54967 19.1857 9.43603 19.288 9.39058L21.5077 8.40573C21.5569 8.383 21.6137 8.383 21.663 8.40194C21.7122 8.42088 21.7501 8.45876 21.769 8.51179L24.6099 15.5345C24.6478 15.6292 24.6024 15.7429 24.5077 15.7883Z" fill="white"/>
<path d="M12.999 8.6901C15.1468 8.6901 16.893 6.94389 16.893 4.79616C16.893 2.64844 15.1468 0.898438 12.999 0.898438C10.8513 0.898438 9.10132 2.64465 9.10132 4.79616C9.10511 6.94389 10.8513 8.6901 12.999 8.6901ZM12.999 1.55374C14.7869 1.55374 16.2377 3.00829 16.2377 4.79616C16.2377 6.58404 14.7831 8.0348 12.999 8.0348C11.2112 8.0348 9.75662 6.58026 9.75662 4.79616C9.75662 3.00829 11.2112 1.55374 12.999 1.55374Z" fill="white"/>
<path d="M12.205 5.98159C12.2656 6.0422 12.349 6.07629 12.4361 6.07629C12.5232 6.07629 12.6065 6.0422 12.6671 5.98159L14.5724 4.07629C14.7012 3.9475 14.7012 3.74296 14.5724 3.61417C14.4436 3.48538 14.2391 3.48538 14.1103 3.61417L12.4361 5.28841L11.8944 4.74674C11.7656 4.61796 11.5611 4.61796 11.4323 4.74674C11.3035 4.87553 11.3035 5.08008 11.4323 5.20887L12.205 5.98159Z" fill="white"/>
</g>
<defs>
<clipPath id="clip0_2351_60072">
<rect width="25" height="25" fill="white" transform="translate(0.5 0.5)"/>
</clipPath>
</defs>
</svg>
