<svg width="26" height="25" viewBox="0 0 26 25" fill="none" xmlns="http://www.w3.org/2000/svg">
<path d="M13.0045 19.1478C12.9532 19.1476 12.9026 19.1364 12.8561 19.1148L6.57317 16.0928C6.51578 16.0643 6.46742 16.0205 6.43347 15.9662C6.39952 15.9119 6.3813 15.8492 6.38086 15.7851V9.02138C6.38069 8.9636 6.39521 8.90673 6.42307 8.85611C6.45092 8.80549 6.49119 8.76279 6.5401 8.73202C6.589 8.70124 6.64493 8.68342 6.70261 8.68021C6.7603 8.67701 6.81786 8.68853 6.86987 8.71369L13.1528 11.7357C13.2102 11.7641 13.2586 11.808 13.2925 11.8623C13.3265 11.9166 13.3447 11.9793 13.3451 12.0434V18.8071C13.3452 18.8647 13.3305 18.9214 13.3027 18.9719C13.2748 19.0223 13.2346 19.0649 13.1858 19.0956C13.1317 19.1301 13.0687 19.1482 13.0045 19.1478ZM7.06218 15.5763L12.6638 18.2741V12.2604L7.06218 9.56259V15.5763Z" fill="#47072C"/>
<path d="M13.0011 12.3828C12.9536 12.3861 12.9059 12.3796 12.861 12.3635L6.57806 9.34155C6.51973 9.31438 6.47036 9.27112 6.43577 9.21686C6.40119 9.16259 6.38281 9.09958 6.38281 9.03523C6.38281 8.97088 6.40119 8.90787 6.43577 8.85361C6.47036 8.79934 6.51973 8.75608 6.57806 8.72891L12.861 5.6932C12.907 5.67144 12.9572 5.66016 13.008 5.66016C13.0588 5.66016 13.109 5.67144 13.155 5.6932L19.438 8.71518C19.4957 8.74313 19.5445 8.78685 19.5785 8.84129C19.6125 8.89573 19.6305 8.95867 19.6303 9.02287C19.6303 9.08667 19.6122 9.14917 19.5782 9.20313C19.5441 9.2571 19.4955 9.30032 19.438 9.32781L13.1358 12.3635C13.0926 12.3789 13.0468 12.3855 13.0011 12.3828ZM7.50663 9.02012L13.0011 11.6657L18.4956 9.02562L13.0011 6.37726L7.50663 9.02012Z" fill="#47072C"/>
<path d="M13.0028 19.1489C12.9386 19.1494 12.8756 19.1313 12.8215 19.0967C12.7727 19.066 12.7324 19.0235 12.7046 18.973C12.6767 18.9226 12.6621 18.8659 12.6621 18.8083V12.0473C12.6619 11.9831 12.6799 11.9201 12.7139 11.8657C12.7479 11.8112 12.7966 11.7675 12.8544 11.7396L19.1374 8.71759C19.1894 8.69243 19.247 8.68091 19.3046 8.68412C19.3623 8.68733 19.4183 8.70515 19.4672 8.73592C19.5161 8.76669 19.5563 8.80939 19.5842 8.86001C19.612 8.91063 19.6266 8.96751 19.6264 9.02529V15.7835C19.6266 15.8477 19.6086 15.9107 19.5746 15.9651C19.5406 16.0195 19.4919 16.0633 19.4341 16.0912L13.1374 19.1159C13.0952 19.136 13.0494 19.1473 13.0028 19.1489ZM13.3434 12.2615V18.267L18.9451 15.5692V9.56375L13.3434 12.2615Z" fill="#47072C"/>
<path d="M9.86064 10.8706C9.78415 10.8699 9.71014 10.8434 9.65054 10.7954C9.59095 10.7475 9.54922 10.6808 9.53209 10.6063C9.51496 10.5317 9.52342 10.4536 9.55611 10.3844C9.58879 10.3153 9.64381 10.2591 9.71229 10.225L15.998 7.20306C16.0793 7.16432 16.1726 7.15934 16.2575 7.1892C16.3425 7.21906 16.4121 7.28133 16.4513 7.3624C16.4708 7.40258 16.4822 7.44624 16.4848 7.49085C16.4874 7.53547 16.4811 7.58015 16.4662 7.6223C16.4514 7.66446 16.4284 7.70326 16.3985 7.73646C16.3686 7.76965 16.3323 7.79659 16.292 7.8157L10.009 10.8377C9.96242 10.859 9.91186 10.8703 9.86064 10.8706Z" fill="#47072C"/>
<path d="M10.704 13.8372C10.6527 13.8375 10.602 13.8262 10.5556 13.8043L8.70121 12.9114C8.66082 12.8923 8.62462 12.8654 8.5947 12.8322C8.56479 12.799 8.54175 12.7602 8.52693 12.718C8.51212 12.6758 8.50581 12.6312 8.50837 12.5866C8.51093 12.5419 8.52232 12.4983 8.54187 12.4581C8.58104 12.377 8.6507 12.3148 8.73564 12.2849C8.82058 12.255 8.91389 12.26 8.99517 12.2988L10.8496 13.1861C10.9179 13.2201 10.9728 13.276 11.0055 13.3449C11.0382 13.4138 11.0469 13.4917 11.0301 13.5661C11.0134 13.6405 10.9721 13.7071 10.913 13.7553C10.8538 13.8034 10.7802 13.8304 10.704 13.8317V13.8372Z" fill="#E6582A"/>
<path d="M2.68126 16.9586C2.61477 16.9597 2.54943 16.9413 2.49329 16.9056C2.43715 16.87 2.39267 16.8187 2.36533 16.7581C1.33417 14.208 1.25426 11.3722 2.14017 8.76807C3.02609 6.16397 4.81877 3.9652 7.1911 2.57299C9.56342 1.18078 12.3572 0.687933 15.0627 1.18439C17.7682 1.68085 20.205 3.13351 21.9285 5.27731C21.9605 5.31143 21.9851 5.35177 22.0008 5.39581C22.0165 5.43985 22.0229 5.48665 22.0198 5.53329C22.0166 5.57994 22.0038 5.62543 21.9823 5.66694C21.9608 5.70845 21.931 5.74509 21.8947 5.77457C21.8584 5.80405 21.8164 5.82575 21.7714 5.83831C21.7264 5.85088 21.6792 5.85403 21.6329 5.84759C21.5866 5.84115 21.5421 5.82524 21.5022 5.80086C21.4623 5.77648 21.4279 5.74415 21.401 5.70588C19.7798 3.69551 17.4908 2.3338 14.9504 1.86843C12.4101 1.40305 9.78703 1.86492 7.5584 3.17002C5.32977 4.47513 3.64359 6.53678 2.80652 8.98002C1.96946 11.4233 2.03712 14.0858 2.99719 16.4834C3.01783 16.535 3.0255 16.5909 3.01954 16.6462C3.01358 16.7015 2.99417 16.7545 2.963 16.8006C2.93184 16.8467 2.88987 16.8844 2.84075 16.9105C2.79164 16.9366 2.73688 16.9503 2.68126 16.9504V16.9586Z" fill="#E6582A"/>
<path d="M13.0168 23.9255C11.3015 23.9295 9.60714 23.5483 8.05891 22.8098C6.51067 22.0714 5.14808 20.9946 4.07174 19.659C4.0149 19.5861 3.98934 19.4937 4.00068 19.402C4.01201 19.3103 4.05931 19.2268 4.13218 19.17C4.20504 19.1131 4.29749 19.0876 4.3892 19.0989C4.48091 19.1102 4.56436 19.1576 4.62119 19.2304C6.25235 21.2384 8.55108 22.593 11.098 23.0471C13.6448 23.5013 16.2701 23.0246 18.4947 21.704C20.7193 20.3835 22.3951 18.3072 23.2162 15.8539C24.0372 13.4006 23.9489 10.7339 22.9673 8.3403C22.9489 8.29877 22.9389 8.25396 22.9381 8.20852C22.9372 8.16308 22.9454 8.11793 22.9623 8.07572C22.9791 8.0335 23.0042 7.99509 23.0362 7.96274C23.0681 7.93038 23.1061 7.90474 23.1481 7.88733C23.1901 7.86991 23.2351 7.86108 23.2806 7.86133C23.326 7.86159 23.371 7.87094 23.4128 7.88883C23.4545 7.90672 23.4923 7.93279 23.5239 7.96551C23.5554 7.99822 23.5801 8.03691 23.5965 8.07931C24.5324 10.3701 24.7071 12.9012 24.0947 15.2989C23.4823 17.6966 22.1153 19.8339 20.1954 21.3952C18.1628 23.0357 15.6288 23.9288 13.0168 23.9255Z" fill="#47072C"/>
<path d="M21.6924 5.85742H21.6539L18.4808 5.51401C18.3956 5.49901 18.3193 5.45215 18.2674 5.38294C18.2155 5.31373 18.1918 5.22735 18.2013 5.14135C18.2107 5.05534 18.2525 4.97615 18.3182 4.91985C18.3839 4.86354 18.4686 4.83435 18.555 4.83819L21.3792 5.14313L21.6951 2.30797C21.6972 2.26142 21.7088 2.21578 21.7292 2.17389C21.7496 2.132 21.7784 2.09474 21.8137 2.06442C21.8491 2.03409 21.8904 2.01135 21.9349 1.9976C21.9794 1.98384 22.0263 1.97937 22.0726 1.98446C22.1189 1.98954 22.1637 2.00407 22.2042 2.02716C22.2447 2.05024 22.28 2.08138 22.3079 2.11866C22.3359 2.15593 22.3559 2.19855 22.3667 2.24387C22.3776 2.28919 22.379 2.33625 22.3709 2.38214L22.0303 5.55522C22.02 5.64498 21.9746 5.727 21.9039 5.78324C21.8441 5.83171 21.7693 5.85793 21.6924 5.85742Z" fill="#E6582A"/>
<path d="M3.97527 22.9307H3.93681C3.84728 22.921 3.76524 22.8763 3.70861 22.8063C3.65198 22.7363 3.62537 22.6467 3.63461 22.5571L3.97802 19.384C3.98229 19.3397 3.99544 19.2966 4.01667 19.2575C4.03791 19.2183 4.06681 19.1838 4.10164 19.156C4.17198 19.0994 4.2618 19.0727 4.35164 19.0818L7.52472 19.4225C7.60953 19.4376 7.68546 19.4843 7.73721 19.5532C7.78896 19.6221 7.81271 19.708 7.80365 19.7937C7.7946 19.8793 7.75342 19.9584 7.68841 20.0149C7.6234 20.0714 7.53939 20.1012 7.45329 20.0983L4.62087 19.7934L4.31043 22.6285C4.30163 22.7114 4.26255 22.788 4.20069 22.8438C4.13884 22.8996 4.05856 22.9305 3.97527 22.9307Z" fill="#47072C"/>
</svg>
