<svg width="101" height="100" viewBox="0 0 101 100" fill="none" xmlns="http://www.w3.org/2000/svg">
<rect x="0.5" width="100" height="100" rx="6" fill="#F9FAFB"/>
<g clip-path="url(#clip0_2403_50703)">
<path d="M47.3018 62.1367C46.7624 62.1367 46.3252 61.6995 46.3252 61.1602V55.1211C46.3252 54.5817 46.7624 54.1445 47.3018 54.1445C47.8411 54.1445 48.2783 54.5817 48.2783 55.1211V61.1602C48.2783 61.6994 47.8411 62.1367 47.3018 62.1367Z" fill="#47072C"/>
<path d="M53.7939 62.2314C53.2546 62.2314 52.8174 61.7942 52.8174 61.2549V55.1836C52.8174 54.6442 53.2546 54.207 53.7939 54.207C54.3333 54.207 54.7705 54.6442 54.7705 55.1836V61.2549C54.7705 61.7941 54.3333 62.2314 53.7939 62.2314Z" fill="#47072C"/>
<path d="M28.4805 72.8133C27.0332 72.8133 26.4512 70.7929 26.1064 69.0331C25.7168 67.0438 25.502 64.412 25.502 61.621C25.502 58.83 25.7168 56.2002 26.1064 54.2109C26.4512 52.4531 27.0332 50.4307 28.4805 50.4307C29.9277 50.4307 30.5097 52.4512 30.8545 54.2109C31.2441 56.2011 31.4589 58.833 31.4589 61.621C31.4589 64.4091 31.2441 67.0429 30.8545 69.0321C30.5097 70.7929 29.9277 72.8133 28.4805 72.8133ZM28.4805 52.8642C28.0244 54.0908 27.4551 57.0947 27.4551 61.621C27.4551 66.1474 28.0244 69.1532 28.4805 70.3788C28.9365 69.1542 29.5058 66.1503 29.5058 61.621C29.5058 57.0918 28.9365 54.0909 28.4805 52.8642Z" fill="#47072C"/>
<path d="M28.4801 72.8133C27.9407 72.8125 27.5041 72.3747 27.5049 71.8353C27.5055 71.4068 27.7854 71.0288 28.1949 70.9031C33.9 69.1619 39.564 68.0379 45.0249 67.5633C45.5624 67.5166 46.0358 67.9145 46.0825 68.452C46.1292 68.9895 45.7313 69.4629 45.1938 69.5096C39.8687 69.9725 34.3414 71.0721 28.7652 72.7713C28.6727 72.799 28.5767 72.8132 28.4801 72.8133Z" fill="#47072C"/>
<path d="M72.5229 72.8133C72.4063 72.814 72.2906 72.7939 72.1811 72.7538C66.8972 70.7928 61.3647 69.5815 55.7447 69.1552C55.2067 69.1147 54.8034 68.6458 54.8438 68.1078C54.8843 67.5698 55.3532 67.1665 55.8912 67.2069C61.5176 67.6338 67.06 68.8224 72.3667 70.7401C72.8364 69.8446 73.5483 66.6864 73.5483 61.622C73.5483 56.5576 72.8364 53.4004 72.3667 52.5049C65.5671 54.9623 58.3918 56.218 51.1617 56.2158H50.8287C43.5338 56.1777 35.9118 54.872 28.1726 52.3369C27.6649 52.1549 27.4009 51.5957 27.583 51.0881C27.7579 50.6003 28.2833 50.3341 28.78 50.4814C44.0622 55.4902 58.6627 55.4941 72.1802 50.4941C72.2887 50.4541 72.4034 50.4336 72.519 50.4336C73.9663 50.4336 74.5483 52.4541 74.893 54.2138C75.2837 56.2031 75.4975 58.8349 75.4975 61.624C75.4975 64.413 75.2827 67.0458 74.893 69.035C74.5522 70.7929 73.9702 72.8133 72.5229 72.8133Z" fill="#47072C"/>
<path d="M50.4901 69.8125C47.4623 69.807 45.0121 67.3481 45.0176 64.3203C45.0196 63.1981 45.3659 62.1037 46.0097 61.1845C47.7501 58.7108 51.1664 58.1165 53.64 59.8569C56.1137 61.5973 56.7081 65.0136 54.9677 67.4873C53.9417 68.9455 52.2701 69.8129 50.4872 69.8125H50.4901ZM47.6122 62.3046C46.4941 63.9005 46.8815 66.1007 48.4774 67.2189C50.0733 68.3371 52.2734 67.9497 53.3916 66.3538C54.5098 64.7579 54.1224 62.5577 52.5265 61.4395C52.5264 61.4395 52.5264 61.4394 52.5263 61.4394C50.9453 60.3187 48.7553 60.6919 47.6346 62.2727C47.6271 62.2833 47.6196 62.2939 47.6122 62.3046Z" fill="#47072C"/>
<path d="M46.1077 74.9999C45.6352 74.9998 45.2305 74.6614 45.1468 74.1962L44.8284 72.4277L43.0013 72.7538C42.4702 72.8479 41.9635 72.4936 41.8694 71.9625C41.8242 71.707 41.8825 71.4439 42.0316 71.2314L45.7425 65.9413C46.0414 65.4924 46.6476 65.3707 47.0966 65.6697C47.5087 65.944 47.6503 66.4833 47.4261 66.9247C47.4041 66.9682 47.3789 67.0099 47.3509 67.0497L44.9847 70.4179L45.4495 70.3359C45.9792 70.2423 46.4848 70.5947 46.5804 71.1239L46.6595 71.5615L49.0179 68.2353C49.3211 67.7893 49.9285 67.6735 50.3745 67.9767C50.6416 68.1582 50.8017 68.4602 50.8021 68.7831C50.8021 68.9854 50.7393 69.1825 50.6224 69.3476L46.9114 74.5868C46.7273 74.8476 46.4271 75.0019 46.1077 74.9999Z" fill="#E6582A"/>
<path d="M50.5136 69.8125C50.1911 69.8122 49.8693 69.7838 49.5517 69.7276C46.5712 69.2001 44.5827 66.3564 45.1102 63.3759C45.6376 60.3954 48.4814 58.4069 51.4619 58.9344C52.8908 59.1873 54.161 59.9965 54.9941 61.1847C56.7308 63.6657 56.1274 67.0847 53.6465 68.8214C52.7289 69.4637 51.6367 69.8097 50.5165 69.8126H50.5136V69.8125ZM50.5019 60.8027C48.5537 60.8036 46.9753 62.3836 46.9763 64.3318C46.9773 66.2799 48.5573 67.8583 50.5054 67.8574C52.4536 67.8564 54.032 66.2764 54.031 64.3283C54.0306 63.604 53.8074 62.8975 53.3915 62.3046C52.7308 61.3628 51.6524 60.8023 50.5019 60.8027Z" fill="#E6582A"/>
<path d="M54.8968 75.0001C54.5801 75.0001 54.283 74.8465 54.0999 74.588L50.389 69.3488C50.0848 68.9033 50.1993 68.2955 50.6448 67.9913C51.0903 67.6871 51.698 67.8017 52.0022 68.2472L54.3518 71.5617L54.4309 71.1242C54.5266 70.5949 55.0321 70.2425 55.5618 70.3361L56.0267 70.4181L53.6653 67.047C53.6339 67.0027 53.6064 66.9556 53.5833 66.9064C53.3503 66.42 53.5558 65.8368 54.0422 65.6037C54.4838 65.3922 55.0137 65.5405 55.2815 65.9503L58.9798 71.2286C59.2922 71.6683 59.1891 72.278 58.7494 72.5904C58.5332 72.744 58.2639 72.8031 58.0032 72.754L56.1731 72.4308L55.8548 74.1993C55.7701 74.6621 55.3674 74.9989 54.8968 75.0001Z" fill="#E6582A"/>
<path d="M60.9189 40.7591C60.3796 40.7596 59.942 40.3228 59.9414 39.7835C59.9411 39.4695 60.0919 39.1744 60.3467 38.9906L67.0557 34.1439C67.4931 33.8281 68.1036 33.9267 68.4194 34.3641C68.7353 34.8015 68.6366 35.4121 68.1992 35.7279L61.4902 40.5746C61.3239 40.6945 61.124 40.759 60.9189 40.7591Z" fill="#47072C"/>
<path d="M40.0711 40.7582C39.866 40.7579 39.6661 40.6929 39.4999 40.5726L32.7938 35.7279C32.3564 35.4121 32.2578 34.8015 32.5736 34.3641C32.8894 33.9267 33.5 33.8281 33.9374 34.1439L40.6444 38.9896C41.0818 39.3051 41.1806 39.9155 40.8651 40.3529C40.6811 40.6079 40.3856 40.7587 40.0711 40.7582Z" fill="#47072C"/>
<path d="M67.6281 35.9123C67.2635 35.9125 66.929 35.7096 66.761 35.3859L50.4964 27.0735L34.2319 35.3859C33.9923 35.8461 33.4348 36.0387 32.9623 35.8244L32.7514 35.7267C32.2607 35.503 32.0442 34.9238 32.2679 34.4331C32.3592 34.2328 32.5155 34.0692 32.7114 33.9689L50.0521 25.1077C50.3309 24.9641 50.6619 24.9641 50.9407 25.1077L68.2815 33.9699C68.7616 34.2155 68.9519 34.8038 68.7063 35.284C68.6061 35.4799 68.4426 35.6363 68.2424 35.7277L68.0315 35.8254C67.9048 35.8827 67.7673 35.9123 67.6281 35.9123Z" fill="#47072C"/>
<path d="M60.9188 50.2792C60.3795 50.2792 59.9423 49.842 59.9423 49.3027V37.9219C59.9423 37.4248 59.622 37.0039 59.243 37.0039H41.748C41.3691 37.0039 41.0488 37.4248 41.0488 37.9219V49.3027C41.0488 49.842 40.6116 50.2792 40.0723 50.2792C39.5329 50.2792 39.0957 49.842 39.0957 49.3027V37.9219C39.0957 36.3389 40.2861 35.0508 41.748 35.0508H59.243C60.7079 35.0508 61.8954 36.3389 61.8954 37.9219V49.3027C61.8954 49.842 61.4582 50.2792 60.9188 50.2792Z" fill="#47072C"/>
<path d="M67.8496 43.541C67.3103 43.541 66.873 43.1038 66.873 42.5645V34.8086C66.873 34.2692 67.3103 33.832 67.8496 33.832C68.389 33.832 68.8262 34.2692 68.8262 34.8086V42.5645C68.8262 43.1037 68.389 43.541 67.8496 43.541Z" fill="#47072C"/>
<path d="M50.5019 52.3281C47.6582 52.3281 44.9746 52.1084 42.9472 51.7099C41.1592 51.3584 39.1074 50.7666 39.1074 49.3027C39.1074 47.8389 41.1582 47.2471 42.9472 46.8955C44.9746 46.4971 47.6582 46.2773 50.5019 46.2773C53.3456 46.2773 56.0292 46.4971 58.0565 46.8955C59.8446 47.2471 61.8963 47.8389 61.8963 49.3027C61.8963 50.7666 59.8456 51.3584 58.0565 51.7099C56.0282 52.1084 53.3446 52.3281 50.5019 52.3281ZM41.5058 49.3009C42.7217 49.7735 45.8027 50.3751 50.5019 50.3751C55.2011 50.3751 58.2811 49.7755 59.497 49.3009C58.2811 48.8292 55.2001 48.2266 50.5019 48.2266C45.8037 48.2266 42.7207 48.8282 41.5049 49.3028L41.5058 49.3009Z" fill="#47072C"/>
</g>
<defs>
<clipPath id="clip0_2403_50703">
<rect width="50" height="50" fill="white" transform="translate(25.5 25)"/>
</clipPath>
</defs>
</svg>
