<svg width="101" height="100" viewBox="0 0 101 100" fill="none" xmlns="http://www.w3.org/2000/svg">
<rect x="0.5" width="100" height="100" rx="6" fill="#F9FAFB"/>
<path d="M66.9062 41.4064C66.9062 41.2708 66.8709 41.1376 66.8038 41.0198C66.7367 40.902 66.6401 40.8037 66.5234 40.7345L54.8047 33.7033C54.6859 33.6347 54.5512 33.5986 54.4141 33.5986C54.2769 33.5986 54.1422 33.6347 54.0234 33.7033L42.3047 40.7345C42.1852 40.8017 42.0854 40.8992 42.0155 41.0171C41.9455 41.1351 41.9079 41.2693 41.9062 41.4064V57.8127C41.9062 58.0199 41.9886 58.2186 42.1351 58.3651C42.2816 58.5116 42.4803 58.5939 42.6875 58.5939H49.7188C49.926 58.5939 50.1247 58.5116 50.2712 58.3651C50.4177 58.2186 50.5 58.0199 50.5 57.8127V46.8752H58.3125V57.8127C58.3125 58.0199 58.3948 58.2186 58.5413 58.3651C58.6878 58.5116 58.8865 58.5939 59.0938 58.5939H66.125C66.3322 58.5939 66.5309 58.5116 66.6774 58.3651C66.8239 58.2186 66.9062 58.0199 66.9062 57.8127V41.4064ZM65.3438 57.0314H59.875V46.0939C59.875 45.8867 59.7927 45.688 59.6462 45.5415C59.4997 45.395 59.301 45.3127 59.0938 45.3127H49.7188C49.5115 45.3127 49.3128 45.395 49.1663 45.5415C49.0198 45.688 48.9375 45.8867 48.9375 46.0939V57.0314H43.4688V41.8517L54.4062 35.2892L65.3438 41.8517V57.0314Z" fill="#47072C"/>
<path d="M43.4688 64.8438H62.3594C62.5437 65.365 62.9063 65.8043 63.3832 66.0841C63.8601 66.3638 64.4205 66.466 64.9654 66.3725C65.5103 66.279 66.0047 65.9959 66.361 65.5732C66.7174 65.1505 66.9128 64.6154 66.9128 64.0625C66.9128 63.5096 66.7174 62.9745 66.361 62.5518C66.0047 62.1291 65.5103 61.846 64.9654 61.7525C64.4205 61.659 63.8601 61.7612 63.3832 62.0409C62.9063 62.3207 62.5437 62.76 62.3594 63.2812H44.25V62.5C44.25 61.8784 44.0031 61.2823 43.5635 60.8427C43.124 60.4032 42.5279 60.1562 41.9062 60.1562C41.2846 60.1562 40.6885 60.4032 40.249 60.8427C39.8094 61.2823 39.5625 61.8784 39.5625 62.5V64.0625C39.5625 64.2697 39.4802 64.4684 39.3337 64.6149C39.1872 64.7614 38.9885 64.8438 38.7812 64.8438C38.574 64.8438 38.3753 64.7614 38.2288 64.6149C38.0823 64.4684 38 64.2697 38 64.0625V50.7812C38.4144 50.7812 38.8118 50.6166 39.1049 50.3236C39.3979 50.0306 39.5625 49.6332 39.5625 49.2188V47.6562C39.5571 47.5719 39.5441 47.4882 39.5234 47.4062C40.0472 46.8343 40.3396 46.088 40.3438 45.3125V43.75C40.3438 43.5428 40.2614 43.3441 40.1149 43.1976C39.9684 43.0511 39.7697 42.9688 39.5625 42.9688V41.4062C39.5625 41.199 39.4802 41.0003 39.3337 40.8538C39.1872 40.7073 38.9885 40.625 38.7812 40.625C38.574 40.625 38.3753 40.7073 38.2288 40.8538C38.0823 41.0003 38 41.199 38 41.4062V42.9688H36.4375V41.4062C36.4375 41.199 36.3552 41.0003 36.2087 40.8538C36.0622 40.7073 35.8635 40.625 35.6562 40.625C35.449 40.625 35.2503 40.7073 35.1038 40.8538C34.9573 41.0003 34.875 41.199 34.875 41.4062V42.9688C34.6678 42.9688 34.4691 43.0511 34.3226 43.1976C34.1761 43.3441 34.0938 43.5428 34.0938 43.75V45.3125C34.0979 46.088 34.3903 46.8343 34.9141 47.4062C34.8934 47.4882 34.8804 47.5719 34.875 47.6562V49.2188C34.875 49.6332 35.0396 50.0306 35.3326 50.3236C35.6257 50.6166 36.0231 50.7812 36.4375 50.7812V64.0625C36.4375 64.6841 36.6844 65.2802 37.124 65.7198C37.5635 66.1593 38.1596 66.4062 38.7812 66.4062C39.4029 66.4062 39.999 66.1593 40.4385 65.7198C40.8781 65.2802 41.125 64.6841 41.125 64.0625V62.5C41.125 62.2928 41.2073 62.0941 41.3538 61.9476C41.5003 61.8011 41.699 61.7188 41.9062 61.7188C42.1135 61.7188 42.3122 61.8011 42.4587 61.9476C42.6052 62.0941 42.6875 62.2928 42.6875 62.5V64.0625C42.6875 64.2697 42.7698 64.4684 42.9163 64.6149C43.0628 64.7614 43.2615 64.8438 43.4688 64.8438ZM64.5625 63.2812C64.717 63.2812 64.8681 63.3271 64.9965 63.4129C65.125 63.4988 65.2251 63.6208 65.2843 63.7635C65.3434 63.9063 65.3589 64.0634 65.3287 64.2149C65.2986 64.3665 65.2242 64.5057 65.1149 64.6149C65.0057 64.7242 64.8665 64.7986 64.7149 64.8287C64.5634 64.8589 64.4063 64.8434 64.2635 64.7843C64.1208 64.7251 63.9988 64.625 63.9129 64.4965C63.8271 64.3681 63.7812 64.217 63.7812 64.0625C63.7812 63.8553 63.8636 63.6566 64.0101 63.5101C64.1566 63.3636 64.3553 63.2812 64.5625 63.2812ZM35.6562 45.3125V44.5312H38.7812V45.3125C38.7812 45.7269 38.6166 46.1243 38.3236 46.4174C38.0306 46.7104 37.6332 46.875 37.2188 46.875C36.8043 46.875 36.4069 46.7104 36.1139 46.4174C35.8209 46.1243 35.6562 45.7269 35.6562 45.3125ZM36.4375 49.2188V48.3281C36.9479 48.4753 37.4896 48.4753 38 48.3281V49.2188H36.4375Z" fill="#E6582A"/>
</svg>
