<svg width="101" height="100" viewBox="0 0 101 100" fill="none" xmlns="http://www.w3.org/2000/svg">
<rect x="0.5" width="100" height="100" rx="6" fill="#F9FAFB"/>
<g clip-path="url(#clip0_2403_50834)">
<path d="M53.1853 52.5581C51.3853 52.5573 49.6167 53.0301 48.0572 53.9289C47.9683 53.9803 47.8904 54.0487 47.8279 54.1302C47.7654 54.2116 47.7196 54.3046 47.693 54.4038C47.6665 54.503 47.6597 54.6065 47.6731 54.7083C47.6866 54.8101 47.7199 54.9083 47.7713 54.9972C47.8226 55.0861 47.891 55.164 47.9725 55.2265C48.054 55.289 48.147 55.3348 48.2462 55.3614C48.3454 55.3879 48.4488 55.3947 48.5506 55.3813C48.6524 55.3678 48.7506 55.3345 48.8395 55.2831C50.7546 54.1758 53.0194 53.8388 55.174 54.3405C57.3285 54.8422 59.2114 56.145 60.4405 57.9844C61.6695 59.8238 62.1525 62.0619 61.7914 64.2445C61.4304 66.427 60.2523 68.3904 58.4964 69.7359C56.7404 71.0815 54.5383 71.7085 52.3369 71.4896C50.1356 71.2707 48.1 70.2223 46.6435 68.5572C45.187 66.8921 44.4187 64.7352 44.4946 62.5243C44.5704 60.3134 45.4848 58.2142 47.052 56.6529C47.1268 56.581 47.1865 56.4949 47.2276 56.3997C47.2688 56.3045 47.2906 56.2021 47.2917 56.0983C47.2928 55.9946 47.2733 55.8917 47.2343 55.7956C47.1952 55.6995 47.1374 55.6122 47.0642 55.5386C46.991 55.4651 46.904 55.4069 46.8081 55.3674C46.7122 55.3279 46.6093 55.3079 46.5056 55.3085C46.4019 55.3092 46.2993 55.3305 46.2039 55.3712C46.1085 55.4119 46.0222 55.4712 45.9499 55.5456C44.267 57.2202 43.2171 59.4268 42.9793 61.789C42.7415 64.1512 43.3305 66.5228 44.6459 68.4993C45.9612 70.4757 47.9215 71.9347 50.1923 72.6274C52.4632 73.3201 54.904 73.2036 57.0985 72.2978C59.2931 71.392 61.1055 69.753 62.2266 67.6602C63.3478 65.5674 63.7082 63.1506 63.2465 60.8217C62.7848 58.4929 61.5296 56.3964 59.6948 54.8896C57.8601 53.3829 55.5595 52.5592 53.1853 52.5591V52.5581Z" fill="#47072C"/>
<path d="M54.0347 65.904H52.0732C51.9216 65.9043 51.7714 65.8747 51.6312 65.8168C51.491 65.759 51.3635 65.6742 51.2561 65.5671C51.1488 65.46 51.0635 65.3328 51.0053 65.1927C50.9472 65.0527 50.9171 64.9025 50.917 64.7509C50.917 64.5437 50.8347 64.345 50.6882 64.1985C50.5417 64.0519 50.3429 63.9696 50.1357 63.9696C49.9285 63.9696 49.7298 64.0519 49.5833 64.1985C49.4368 64.345 49.3545 64.5437 49.3545 64.7509C49.3553 65.4709 49.6417 66.1611 50.1508 66.6702C50.6599 67.1793 51.3501 67.4657 52.0701 67.4665H52.2712V68.9644C52.2712 69.1716 52.3535 69.3703 52.5 69.5169C52.6465 69.6634 52.8452 69.7457 53.0524 69.7457C53.2596 69.7457 53.4583 69.6634 53.6048 69.5169C53.7513 69.3703 53.8337 69.1716 53.8337 68.9644V67.4665H54.0326C54.7528 67.4665 55.4436 67.1804 55.9529 66.6711C56.4621 66.1618 56.7482 65.4711 56.7482 64.7509C56.7482 64.0307 56.4621 63.3399 55.9529 62.8306C55.4436 62.3214 54.7528 62.0353 54.0326 62.0353H52.0732C51.7733 62.0262 51.4886 61.9007 51.2796 61.6854C51.0706 61.47 50.9537 61.1817 50.9537 60.8816C50.9537 60.5815 51.0706 60.2932 51.2796 60.0778C51.4886 59.8625 51.7733 59.737 52.0732 59.728H54.0347C54.3404 59.7282 54.6336 59.8498 54.8498 60.066C55.066 60.2822 55.1876 60.5753 55.1878 60.8811C55.1878 61.0883 55.2701 61.287 55.4166 61.4335C55.5632 61.58 55.7619 61.6623 55.9691 61.6623C56.1763 61.6623 56.375 61.58 56.5215 61.4335C56.668 61.287 56.7503 61.0883 56.7503 60.8811C56.7495 60.1611 56.4631 59.4709 55.954 58.9618C55.4449 58.4527 54.7547 58.1663 54.0347 58.1655H53.8337V56.6665C53.8337 56.4593 53.7513 56.2606 53.6048 56.1141C53.4583 55.9676 53.2596 55.8853 53.0524 55.8853C52.8452 55.8853 52.6465 55.9676 52.5 56.1141C52.3535 56.2606 52.2712 56.4593 52.2712 56.6665V58.1655H52.0732C51.3621 58.1794 50.6848 58.4717 50.1867 58.9795C49.6887 59.4874 49.4098 60.1703 49.4098 60.8816C49.4098 61.5929 49.6887 62.2758 50.1867 62.7837C50.6848 63.2915 51.3621 63.5838 52.0732 63.5978H54.0347C54.3405 63.5978 54.6338 63.7192 54.8501 63.9355C55.0663 64.1517 55.1878 64.4451 55.1878 64.7509C55.1878 65.0567 55.0663 65.35 54.8501 65.5663C54.6338 65.7825 54.3405 65.904 54.0347 65.904Z" fill="#E6582A"/>
<path d="M71.7676 41.2886C71.5702 41.2402 71.3618 41.2706 71.1865 41.3734C71.0112 41.4761 70.8828 41.6431 70.8286 41.839C70.7744 42.0348 70.7986 42.244 70.8961 42.4223C70.9936 42.6006 71.1568 42.7338 71.3509 42.7938C73.4645 43.3813 73.9405 44.0438 73.9405 44.223C73.9405 44.8751 70.8832 46.4042 64.9561 46.4042C59.029 46.4042 55.9707 44.8751 55.9707 44.223C55.9707 43.5709 59.027 42.0417 64.9561 42.0417C66.3583 42.0367 67.759 42.1352 69.1467 42.3365C69.3488 42.3606 69.5523 42.3049 69.714 42.1814C69.8758 42.0579 69.983 41.8762 70.0129 41.6749C70.0429 41.4736 69.9932 41.2685 69.8745 41.1033C69.7557 40.938 69.5773 40.8255 69.377 40.7897C67.9129 40.5778 66.4354 40.4733 64.9561 40.4772C59.8759 40.4772 54.4082 41.649 54.4082 44.2209V50.299C54.4082 52.8709 59.8759 54.0428 64.9561 54.0428C68.3707 54.0428 71.954 53.5105 73.9405 52.3813V53.3376C73.9405 53.9897 70.8832 55.5188 64.9561 55.5188C64.2759 55.5188 63.6134 55.498 62.977 55.4563C62.7702 55.4443 62.5669 55.5139 62.411 55.6503C62.2552 55.7867 62.1591 55.9789 62.1436 56.1855C62.1364 56.2882 62.1496 56.3912 62.1824 56.4888C62.2152 56.5864 62.267 56.6765 62.3347 56.7539C62.4025 56.8314 62.485 56.8947 62.5773 56.9401C62.6696 56.9856 62.7701 57.0123 62.8728 57.0188C63.5447 57.0626 64.2415 57.0855 64.9561 57.0855C68.3707 57.0855 71.954 56.5532 73.9405 55.4188V56.3751C73.9405 57.0272 70.8832 58.5626 64.9561 58.5626C64.9561 58.5626 64.6301 58.5688 64.4853 58.5626C64.2804 58.564 64.0836 58.6428 63.9345 58.7833C63.7853 58.9237 63.6948 59.1154 63.6811 59.3199C63.6752 59.5271 63.7517 59.7282 63.8939 59.8792C64.036 60.0301 64.2322 60.1185 64.4395 60.1251H64.9603C68.3749 60.1251 71.9582 59.5917 73.9447 58.4584V59.4146C73.9447 60.0667 70.8874 61.5959 64.9603 61.5959C64.7531 61.5959 64.5544 61.6782 64.4079 61.8247C64.2613 61.9712 64.179 62.17 64.179 62.3772C64.179 62.5844 64.2613 62.7831 64.4079 62.9296C64.5544 63.0761 64.7531 63.1584 64.9603 63.1584C68.3749 63.1584 71.9582 62.6251 73.9447 61.4969V62.5292C73.9447 63.1813 70.8874 64.7105 64.9603 64.7105H64.6801C64.4763 64.7193 64.283 64.8031 64.1373 64.9458C63.9916 65.0884 63.9037 65.2799 63.8905 65.4834C63.8885 65.6905 63.9688 65.89 64.1137 66.038C64.2586 66.186 64.4563 66.2705 64.6634 66.273H64.9603C70.0322 66.2761 75.4999 65.1042 75.4999 62.5324V44.223C75.4999 43.3584 74.852 42.148 71.7676 41.2886ZM64.953 47.9667C68.3676 47.9667 71.9509 47.4344 73.9374 46.3053V47.2615C73.9374 47.9136 70.8801 49.449 64.953 49.449C59.0259 49.449 55.9676 47.9188 55.9676 47.2615V46.3053C57.954 47.4344 61.5415 47.9667 64.953 47.9667ZM64.953 52.4824C59.0238 52.4824 55.9676 50.9532 55.9676 50.3011V49.3449C57.954 50.474 61.5363 51.0115 64.953 51.0115C68.3697 51.0115 71.9509 50.4792 73.9374 49.3449V50.3011C73.9374 50.9532 70.8801 52.4824 64.953 52.4824Z" fill="#47072C"/>
<path d="M41.9583 66.9586C41.6833 66.969 41.4062 66.9752 41.125 66.9752C32.8438 66.9752 27.0625 62.2242 27.0625 55.4221C27.0625 49.8752 30.8125 41.6721 36.4052 38.3023C36.4812 38.2554 36.5448 38.1982 36.6135 38.1461H43C43.2072 38.1461 43.4059 38.0638 43.5524 37.9173C43.6989 37.7707 43.7812 37.572 43.7812 37.3648C43.7812 37.1576 43.6989 36.9589 43.5524 36.8124C43.4059 36.6659 43.2072 36.5836 43 36.5836H37.599C37.7055 35.9963 37.5841 35.3906 37.2594 34.8898C34.6187 30.7992 34.1052 28.9586 34.201 28.4815C34.2111 28.4874 34.2228 28.4899 34.2344 28.4888C35.4075 28.497 36.5734 28.6745 37.6958 29.0159C38.7818 29.3459 39.9088 29.5213 41.0437 29.5367C42.3268 29.5052 43.6012 29.317 44.8385 28.9763C45.8191 28.7063 46.826 28.5428 47.8417 28.4888C47.8135 29.0773 47.2302 30.8159 45.2125 34.2596H39.25C39.0428 34.2596 38.8441 34.3419 38.6976 34.4884C38.5511 34.635 38.4687 34.8337 38.4687 35.0409C38.4687 35.2481 38.5511 35.4468 38.6976 35.5933C38.8441 35.7398 39.0428 35.8221 39.25 35.8221H44.5229C44.4844 36.1133 44.5014 36.4091 44.5729 36.694C44.6566 37.0176 44.8041 37.3212 45.0068 37.587C45.2095 37.8529 45.4632 38.0755 45.7531 38.2419C48.5654 40.0735 50.846 42.6131 52.3656 45.6054C52.4132 45.6982 52.4788 45.7806 52.5586 45.8476C52.6385 45.9146 52.7309 45.965 52.8305 45.9958C52.9301 46.0265 53.0349 46.037 53.1386 46.0266C53.2423 46.0163 53.3429 45.9853 53.4345 45.9354C53.5261 45.8856 53.6067 45.8179 53.6717 45.7364C53.7367 45.6549 53.7848 45.5612 53.813 45.4609C53.8412 45.3605 53.8491 45.2555 53.8361 45.1521C53.8232 45.0486 53.7896 44.9488 53.7375 44.8586C52.0835 41.6188 49.6043 38.8726 46.55 36.8971C46.438 36.8349 46.3396 36.7509 46.2603 36.6503C46.1811 36.5496 46.1227 36.4341 46.0885 36.3107C46.0619 36.207 46.0566 36.0989 46.0728 35.9931C46.0891 35.8873 46.1267 35.7859 46.1833 35.695C50.1042 29.1721 49.4708 28.0523 49.2042 27.57C49.0854 27.3646 48.9128 27.1954 48.7051 27.0807C48.4973 26.9659 48.2622 26.91 48.025 26.919C46.8273 26.9534 45.6382 27.1322 44.4833 27.4513C43.3629 27.7639 42.2086 27.9388 41.0458 27.9721C40.0459 27.9543 39.0534 27.7955 38.0979 27.5002C36.8445 27.126 35.5445 26.931 34.2365 26.9211C33.957 26.903 33.6782 26.9643 33.4321 27.0979C33.186 27.2315 32.9828 27.4321 32.8458 27.6763C32.5833 28.1586 31.8854 29.4398 35.949 35.7336C36.0101 35.8242 36.0517 35.9266 36.0713 36.0342C36.0908 36.1417 36.0878 36.2522 36.0625 36.3586C36.0302 36.4854 35.9726 36.6044 35.8931 36.7084C35.8136 36.8124 35.7139 36.8993 35.6 36.9638C29.5625 40.6065 25.5 49.4492 25.5 55.4221C25.5 63.0211 32.0729 68.5419 41.125 68.5419C41.425 68.5419 41.7229 68.5357 42.0187 68.5232C42.1213 68.5191 42.2221 68.4949 42.3154 68.4519C42.4086 68.4089 42.4925 68.348 42.5622 68.2726C42.6319 68.1972 42.686 68.1088 42.7216 68.0125C42.7571 67.9162 42.7733 67.8138 42.7693 67.7112C42.7652 67.6086 42.741 67.5078 42.698 67.4145C42.6551 67.3213 42.5941 67.2374 42.5187 67.1678C42.4433 67.0981 42.3549 67.0439 42.2586 67.0084C42.1623 66.9728 42.0599 66.9566 41.9573 66.9607L41.9583 66.9586Z" fill="#47072C"/>
</g>
<defs>
<clipPath id="clip0_2403_50834">
<rect width="50" height="50" fill="white" transform="translate(25.5 25)"/>
</clipPath>
</defs>
</svg>
