<svg width="24" height="24" viewBox="0 0 24 24" fill="none" xmlns="http://www.w3.org/2000/svg">
<path d="M10.2378 9.81069C9.9823 9.99145 9.76336 10.219 9.59257 10.4813C9.57239 10.5122 9.5585 10.5468 9.55169 10.5831C9.54489 10.6194 9.5453 10.6567 9.5529 10.6929C9.5605 10.729 9.57515 10.7633 9.59601 10.7938C9.61687 10.8243 9.64353 10.8503 9.67446 10.8705C9.7054 10.8907 9.74 10.9046 9.77631 10.9114C9.81261 10.9182 9.8499 10.9178 9.88605 10.9102C9.92219 10.9026 9.95649 10.8879 9.98697 10.8671C10.0175 10.8462 10.0435 10.8196 10.0637 10.7886C10.1959 10.5856 10.3653 10.4094 10.5631 10.2694C10.6234 10.2261 10.6641 10.1606 10.6763 10.0874C10.6886 10.0141 10.6713 9.93898 10.6284 9.87838C10.5854 9.81778 10.5203 9.77664 10.4471 9.76392C10.3739 9.7512 10.2987 9.76795 10.2378 9.8105V9.81069Z" fill="#47072C"/>
<path d="M5.14453 21.8713H3.08297V8.98716C3.08297 8.98247 3.08362 8.97816 3.08362 8.97356C3.08362 6.7492 4.79963 4.93955 6.90886 4.93955C8.93653 4.93955 10.5999 6.61233 10.7255 8.71791C10.1229 8.78955 9.56739 9.07951 9.16408 9.53298C8.76076 9.98644 8.53758 10.572 8.53673 11.1788V11.6183C8.53673 11.6929 8.56637 11.7644 8.61911 11.8172C8.67185 11.8699 8.74339 11.8995 8.81798 11.8995H10.0695C10.1939 12.3495 10.5959 12.6819 11.0667 12.6819C11.5375 12.6819 11.9394 12.3497 12.0637 11.8995H13.2126C13.2872 11.8995 13.3587 11.8699 13.4114 11.8172C13.4642 11.7644 13.4938 11.6929 13.4938 11.6183V11.1788C13.493 10.5692 13.2679 9.98126 12.8613 9.52701C12.4548 9.07276 11.8953 8.78402 11.2895 8.71584C11.1615 6.3007 9.24577 4.37695 6.90891 4.37695C4.49756 4.37695 2.53453 6.42539 2.52141 8.94825C2.52094 8.95477 2.52042 8.96128 2.52042 8.96789V21.8712H0.75C0.675408 21.8712 0.603871 21.9008 0.551126 21.9535C0.498382 22.0063 0.46875 22.0778 0.46875 22.1524C0.46875 22.227 0.498382 22.2986 0.551126 22.3513C0.603871 22.404 0.675408 22.4337 0.75 22.4337H5.14453C5.21912 22.4337 5.29066 22.404 5.3434 22.3513C5.39615 22.2986 5.42578 22.227 5.42578 22.1524C5.42578 22.0778 5.39615 22.0063 5.3434 21.9535C5.29066 21.9008 5.21912 21.8712 5.14453 21.8712V21.8713ZM11.0666 12.1195C10.9887 12.1183 10.9123 12.0975 10.8445 12.0591C10.7766 12.0207 10.7195 11.9658 10.6784 11.8996H11.4548C11.4137 11.9658 11.3566 12.0207 11.2888 12.0591C11.2209 12.0975 11.1446 12.1183 11.0666 12.1195ZM12.9313 11.1788V11.337H9.09923V11.1788C9.09923 10.6707 9.3011 10.1833 9.66042 9.82402C10.0197 9.46469 10.5071 9.26283 11.0153 9.26283C11.5234 9.26283 12.0108 9.46469 12.3701 9.82402C12.7294 10.1833 12.9313 10.6707 12.9313 11.1788Z" fill="#E6582A"/>
<path d="M22.2017 17.5259V15.6649C22.1989 15.3511 22.0717 15.0511 21.848 14.8309C21.6244 14.6107 21.3225 14.4882 21.0087 14.4903H15.8621C15.7054 14.4895 15.5501 14.5198 15.4052 14.5796C15.2604 14.6394 15.1289 14.7274 15.0183 14.8384C14.9952 14.8619 14.9734 14.886 14.9524 14.9108C14.8397 14.7787 14.6996 14.6726 14.5418 14.6C14.384 14.5274 14.2123 14.4899 14.0386 14.4903H8.86278C8.54891 14.4882 8.24704 14.6107 8.02338 14.8309C7.79971 15.0511 7.67253 15.3511 7.66972 15.6649V17.5312C7.33306 17.561 7.01956 17.7151 6.79032 17.9634C6.56107 18.2118 6.43251 18.5366 6.42969 18.8745V22.1528C6.42969 22.2274 6.45932 22.299 6.51206 22.3517C6.56481 22.4044 6.63635 22.4341 6.71094 22.4341H8.89152C8.96611 22.4341 9.03764 22.4044 9.09039 22.3517C9.14313 22.299 9.17277 22.2274 9.17277 22.1528V21.7781L20.7869 21.7817V22.1528C20.7869 22.2274 20.8166 22.299 20.8693 22.3517C20.9221 22.4044 20.9936 22.4341 21.0682 22.4341H23.2487C23.3233 22.4341 23.3948 22.4044 23.4476 22.3517C23.5003 22.299 23.53 22.2274 23.53 22.1528V18.8744C23.5268 18.5212 23.3864 18.1831 23.1386 17.9315C22.8907 17.6798 22.5548 17.5344 22.2017 17.5259ZM15.4167 15.2353C15.4752 15.1768 15.5446 15.1306 15.621 15.0992C15.6975 15.0678 15.7794 15.0519 15.8621 15.0525H21.0087C21.1734 15.0503 21.3323 15.1135 21.4505 15.2282C21.5687 15.343 21.6365 15.4999 21.6392 15.6647V17.6254C21.3889 17.7249 21.174 17.897 21.0221 18.1195C20.8703 18.342 20.7884 18.6049 20.7869 18.8742V18.9844L15.2331 18.983L15.2338 15.693C15.2324 15.6084 15.2479 15.5243 15.2793 15.4458C15.3107 15.3672 15.3574 15.2956 15.4167 15.2353ZM8.86278 15.0525H14.0385C14.2033 15.0503 14.3622 15.1135 14.4804 15.2283C14.5986 15.3432 14.6665 15.5002 14.669 15.6649L14.6703 18.9829L9.17277 18.9814V18.8744C9.17101 18.589 9.07911 18.3115 8.9102 18.0814C8.74128 17.8514 8.50399 17.6806 8.23222 17.5935V15.6649C8.23485 15.5002 8.30271 15.3432 8.42091 15.2284C8.53912 15.1136 8.69803 15.0504 8.86278 15.0526V15.0525ZM8.61027 21.8713H6.99219V18.8744C6.99797 18.6637 7.08575 18.4635 7.23684 18.3165C7.38793 18.1695 7.59042 18.0872 7.80123 18.0872C8.01203 18.0872 8.21452 18.1695 8.36561 18.3165C8.51671 18.4635 8.60448 18.6637 8.61027 18.8744V21.8713ZM9.17277 21.2154V19.5438L14.9514 19.5454H14.9518L20.7869 19.547V21.2191L9.17277 21.2154ZM22.9675 21.8714H21.3494V18.8744C21.355 18.6635 21.4427 18.4631 21.5938 18.316C21.7449 18.1688 21.9475 18.0864 22.1585 18.0864C22.3694 18.0864 22.572 18.1688 22.7231 18.316C22.8742 18.4631 22.9619 18.6635 22.9675 18.8744V21.8714Z" fill="#47072C"/>
</svg>
