<svg width="101" height="100" viewBox="0 0 101 100" fill="none" xmlns="http://www.w3.org/2000/svg">
<rect x="0.5" width="100" height="100" rx="6" fill="#F9FAFB"/>
<path d="M46.8301 45.441C46.2978 45.8176 45.8416 46.2917 45.4858 46.8381C45.4438 46.9026 45.4148 46.9747 45.4007 47.0503C45.3865 47.1259 45.3873 47.2036 45.4032 47.2789C45.419 47.3542 45.4495 47.4257 45.493 47.4892C45.5364 47.5527 45.592 47.607 45.6564 47.6491C45.7209 47.6911 45.793 47.72 45.8686 47.7342C45.9442 47.7484 46.0219 47.7475 46.0972 47.7317C46.1725 47.7159 46.244 47.6853 46.3075 47.6419C46.371 47.5984 46.4253 47.5429 46.4674 47.4784C46.7427 47.0554 47.0957 46.6883 47.5077 46.3967C47.6334 46.3064 47.7182 46.1701 47.7437 46.0174C47.7692 45.8648 47.7333 45.7083 47.6438 45.5821C47.5543 45.4558 47.4185 45.3701 47.2661 45.3436C47.1136 45.3171 46.9569 45.352 46.8301 45.4407V45.441Z" fill="#47072C"/>
<path d="M36.2178 70.5671H31.9229V43.7252C31.9229 43.7154 31.9242 43.7064 31.9242 43.6969C31.9242 39.0628 35.4992 35.2927 39.8935 35.2927C44.1178 35.2927 47.5832 38.7776 47.8448 43.1643C46.5893 43.3135 45.4321 43.9176 44.5918 44.8623C43.7516 45.807 43.2866 47.0269 43.2849 48.2912V49.2067C43.2849 49.3621 43.3466 49.5112 43.4565 49.6211C43.5664 49.7309 43.7154 49.7927 43.8708 49.7927H46.4782C46.7372 50.7302 47.5747 51.4227 48.5556 51.4227C49.5364 51.4227 50.3738 50.7306 50.6327 49.7927H53.0262C53.1816 49.7927 53.3306 49.7309 53.4405 49.6211C53.5504 49.5112 53.6121 49.3621 53.6121 49.2067V48.2912C53.6104 47.0212 53.1414 45.7962 52.2944 44.8499C51.4475 43.9035 50.2819 43.302 49.0198 43.16C48.7531 38.1284 44.762 34.1206 39.8936 34.1206C34.8699 34.1206 30.7803 38.3882 30.7529 43.6441C30.752 43.6577 30.7509 43.6713 30.7509 43.6851V70.5669H27.0625C26.9071 70.5669 26.7581 70.6286 26.6482 70.7385C26.5383 70.8484 26.4766 70.9974 26.4766 71.1528C26.4766 71.3082 26.5383 71.4573 26.6482 71.5672C26.7581 71.677 26.9071 71.7388 27.0625 71.7388H36.2178C36.3732 71.7388 36.5222 71.677 36.6321 71.5672C36.742 71.4573 36.8037 71.3082 36.8037 71.1528C36.8037 70.9974 36.742 70.8484 36.6321 70.7385C36.5222 70.6286 36.3732 70.5669 36.2178 70.5669V70.5671ZM48.5555 50.251C48.3931 50.2484 48.2339 50.2051 48.0926 50.125C47.9513 50.045 47.8323 49.9308 47.7466 49.7929H49.3643C49.2785 49.9308 49.1596 50.045 49.0183 50.125C48.877 50.205 48.7178 50.2484 48.5555 50.251ZM52.4401 48.2912V48.6208H44.4567V48.2912C44.4567 47.2325 44.8773 46.2172 45.6259 45.4687C46.3745 44.7201 47.3898 44.2995 48.4484 44.2995C49.5071 44.2995 50.5224 44.7201 51.271 45.4687C52.0196 46.2172 52.4401 47.2325 52.4401 48.2912Z" fill="#E6582A"/>
<path d="M71.7558 61.5137V57.6368C71.7499 56.9829 71.485 56.358 71.019 55.8992C70.5531 55.4405 69.9242 55.1852 69.2703 55.1895H58.5482C58.2218 55.1879 57.8983 55.2511 57.5965 55.3757C57.2947 55.5002 57.0207 55.6835 56.7904 55.9149C56.7422 55.9637 56.6968 56.0139 56.6531 56.0657C56.4183 55.7904 56.1264 55.5695 55.7977 55.4182C55.4689 55.2669 55.1113 55.1889 54.7494 55.1895H43.9664C43.3125 55.1852 42.6836 55.4405 42.2176 55.8992C41.7517 56.358 41.4867 56.9829 41.4809 57.6368V61.5249C40.7795 61.5869 40.1264 61.9079 39.6488 62.4253C39.1712 62.9426 38.9033 63.6193 38.8975 64.3234V71.1532C38.8975 71.3086 38.9592 71.4576 39.0691 71.5675C39.179 71.6774 39.328 71.7391 39.4834 71.7391H44.0263C44.1817 71.7391 44.3307 71.6774 44.4406 71.5675C44.5505 71.4576 44.6122 71.3086 44.6122 71.1532V70.3726L68.8084 70.38V71.1532C68.8084 71.3086 68.8701 71.4576 68.98 71.5675C69.0899 71.6774 69.2389 71.7391 69.3943 71.7391H73.9371C74.0925 71.7391 74.2415 71.6774 74.3514 71.5675C74.4613 71.4576 74.523 71.3086 74.523 71.1532V64.3231C74.5164 63.5873 74.224 62.8829 73.7076 62.3587C73.1913 61.8345 72.4914 61.5315 71.7558 61.5137ZM57.6205 56.7417C57.7422 56.6199 57.8869 56.5235 58.0461 56.4581C58.2054 56.3927 58.3761 56.3596 58.5482 56.3608H69.2703C69.6135 56.3562 69.9445 56.4879 70.1907 56.727C70.437 56.966 70.5784 57.293 70.5839 57.6362V61.721C70.0624 61.9284 69.6147 62.2869 69.2984 62.7505C68.982 63.2141 68.8114 63.7616 68.8084 64.3228V64.5523L57.2379 64.5494L57.2394 57.6952C57.2365 57.5189 57.2687 57.3438 57.3342 57.1801C57.3996 57.0164 57.4969 56.8674 57.6205 56.7417ZM43.9664 56.3608H54.7492C55.0925 56.3562 55.4236 56.488 55.6698 56.7272C55.9161 56.9664 56.0574 57.2935 56.0628 57.6368L56.0654 64.5491L44.6122 64.546V64.3232C44.6085 63.7286 44.4171 63.1504 44.0652 62.6711C43.7133 62.1919 43.2189 61.8361 42.6527 61.6545V57.6368C42.6582 57.2935 42.7996 56.9665 43.0458 56.7274C43.2921 56.4882 43.6232 56.3565 43.9664 56.3611V56.3608ZM43.4403 70.5667H40.0693V64.3231C40.0814 63.8841 40.2643 63.4671 40.579 63.1608C40.8938 62.8546 41.3157 62.6832 41.7548 62.6832C42.194 62.6832 42.6159 62.8546 42.9306 63.1608C43.2454 63.4671 43.4283 63.8841 43.4403 64.3231V70.5667ZM44.6122 69.2002V65.7177L56.6511 65.721H56.652L68.8083 65.7245V69.2079L44.6122 69.2002ZM73.3512 70.5669H69.9803V64.3231C69.9919 63.8838 70.1745 63.4664 70.4893 63.1597C70.8042 62.8531 71.2263 62.6815 71.6657 62.6815C72.1052 62.6815 72.5273 62.8531 72.8421 63.1597C73.1569 63.4664 73.3396 63.8838 73.3512 64.3231V70.5669Z" fill="#47072C"/>
</svg>
