<svg width="101" height="100" viewBox="0 0 101 100" fill="none" xmlns="http://www.w3.org/2000/svg">
<rect x="0.5" width="100" height="100" rx="6" fill="#F9FAFB"/>
<path d="M34.8255 37.9698C37.0603 37.9698 38.8785 36.1516 38.8785 33.9168C38.8785 31.682 37.0603 29.8638 34.8255 29.8638C32.5906 29.8638 30.7725 31.682 30.7725 33.9168C30.7725 36.1516 32.5906 37.9698 34.8255 37.9698ZM34.8255 31.182C36.3331 31.182 37.5528 32.4092 37.5528 33.9092C37.5528 35.4092 36.3255 36.6365 34.8255 36.6365C33.3255 36.6365 32.0982 35.4092 32.0982 33.9092C32.0982 32.4092 33.3179 31.182 34.8255 31.182Z" fill="#47072C"/>
<path d="M34.8258 28.3334C35.1895 28.3334 35.4925 28.0379 35.4925 27.6667V26.6364C35.4925 26.2728 35.1971 25.9697 34.8258 25.9697C34.4546 25.9697 34.1592 26.2652 34.1592 26.6364V27.6667C34.1592 28.0379 34.4546 28.3334 34.8258 28.3334Z" fill="#47072C"/>
<path d="M34.1592 40.1593V41.1896C34.1592 41.5533 34.4546 41.8563 34.8258 41.8563C35.1971 41.8563 35.4925 41.5609 35.4925 41.1896V40.1593C35.4925 39.7957 35.1971 39.4927 34.8258 39.4927C34.4546 39.4927 34.1592 39.7957 34.1592 40.1593Z" fill="#47072C"/>
<path d="M40.4092 33.9167C40.4092 34.2803 40.7046 34.5833 41.0758 34.5833H42.1061C42.4698 34.5833 42.7728 34.2879 42.7728 33.9167C42.7728 33.5455 42.4774 33.25 42.1061 33.25H41.0758C40.7046 33.25 40.4092 33.5455 40.4092 33.9167Z" fill="#47072C"/>
<path d="M27.5456 34.576H28.5759C28.9395 34.576 29.2425 34.2806 29.2425 33.9093C29.2425 33.5381 28.9471 33.2427 28.5759 33.2427H27.5456C27.1819 33.2427 26.8789 33.5381 26.8789 33.9093C26.8789 34.2806 27.1744 34.576 27.5456 34.576Z" fill="#47072C"/>
<path d="M39.243 30.1594C39.4096 30.1594 39.5839 30.0988 39.7127 29.9624L40.4399 29.2351C40.6975 28.9775 40.6975 28.5533 40.4399 28.2957C40.1824 28.0381 39.7581 28.0381 39.5005 28.2957L38.7733 29.023C38.5157 29.2806 38.5157 29.7048 38.7733 29.9624C38.902 30.0988 39.0687 30.1594 39.243 30.1594Z" fill="#47072C"/>
<path d="M29.94 37.8636L29.2127 38.5909C28.9551 38.8484 28.9551 39.2727 29.2127 39.5303C29.3415 39.659 29.5157 39.7272 29.6824 39.7272C29.8491 39.7272 30.0233 39.6666 30.1521 39.5303L30.8794 38.803C31.137 38.5454 31.137 38.1212 30.8794 37.8636C30.6218 37.606 30.1976 37.606 29.94 37.8636Z" fill="#47072C"/>
<path d="M39.7127 37.8636C39.4551 37.606 39.0308 37.606 38.7733 37.8636C38.5157 38.1212 38.5157 38.5454 38.7733 38.803L39.5005 39.5303C39.6293 39.659 39.796 39.7272 39.9702 39.7272C40.1369 39.7272 40.3111 39.659 40.4399 39.5303C40.6975 39.2727 40.6975 38.8484 40.4399 38.5909L39.7127 37.8636Z" fill="#47072C"/>
<path d="M29.9397 29.97C30.0685 30.0988 30.2352 30.1669 30.4094 30.1669C30.5837 30.1669 30.7504 30.0988 30.8791 29.97C31.1367 29.7124 31.1367 29.2881 30.8791 29.0306L30.1443 28.2957C29.8867 28.0381 29.4625 28.0381 29.2049 28.2957C28.9473 28.5533 28.9473 28.9775 29.2049 29.2351L29.9397 29.97Z" fill="#47072C"/>
<path d="M58.7956 63.5528H53.0759V62.068H56.8941C57.2577 62.068 57.5608 61.7725 57.5608 61.4013V56.7952V52.1968C57.5608 51.8331 57.2653 51.5301 56.8941 51.5301H53.0759V49.3786C53.0759 49.0149 52.7805 48.7119 52.4092 48.7119H49.1365C48.7729 48.7119 48.4698 49.0074 48.4698 49.3786V51.5301H37.3335V49.3786C37.3335 49.0149 37.038 48.7119 36.6668 48.7119H33.3941C33.0305 48.7119 32.7274 49.0074 32.7274 49.3786V51.5301H28.9168C28.5532 51.5301 28.2501 51.8256 28.2501 52.1968V56.8028V61.4089C28.2501 61.7725 28.5456 62.0756 28.9168 62.0756H32.735V63.5604H27.0153C26.6517 63.5604 26.3486 63.8559 26.3486 64.2271V67.8104C26.3486 68.174 26.6441 68.4771 27.0153 68.4771H28.2501V73.3786C28.2501 73.7422 28.5456 74.0452 28.9168 74.0452H32.1895C32.5532 74.0452 32.8562 73.7498 32.8562 73.3786V68.4771H52.9623V73.3786C52.9623 73.7422 53.2577 74.0452 53.6289 74.0452H56.9017C57.2653 74.0452 57.5683 73.7498 57.5683 73.3786V68.4771H58.8032C59.1668 68.4771 59.4698 68.1816 59.4698 67.8104V64.2271C59.4547 63.8483 59.1592 63.5528 58.7956 63.5528ZM51.7501 63.5528H49.8032V62.068H51.7501V63.5528ZM37.3335 63.5528V62.068H48.4774V63.5528H37.3335ZM49.8032 50.0452H51.7501V51.5301H49.8032V50.0452ZM34.0608 50.0452H36.0077V51.5301H34.0608V50.0452ZM29.5759 52.8559H56.2274V56.1362H29.5759V52.8559ZM29.5759 57.4619H56.2274V60.7422H29.5759V57.4619ZM34.0608 62.068H36.0077V63.5528H34.0608V62.068ZM31.5229 72.7043H29.5759V68.4619H31.5229V72.7043ZM56.2274 72.7043H54.2805V68.4619H56.2274V72.7043ZM58.1289 67.1362H27.682V64.8786H58.1365V67.1362H58.1289Z" fill="#47072C"/>
<path d="M74.6516 52.4015C74.6516 48.9242 71.5986 35.0454 66.7653 35.0454C61.9319 35.0454 58.8789 48.9242 58.8789 52.4015C58.8789 56.5227 62.0607 59.9166 66.0986 60.25V69.856C66.0986 70.2196 66.3941 70.5227 66.7653 70.5227C67.1365 70.5227 67.4319 70.2272 67.4319 69.856V60.25C71.4622 59.9166 74.6516 56.5227 74.6516 52.4015ZM67.4244 58.9242V51.3712L69.8183 48.9772C70.0759 48.7197 70.0759 48.2954 69.8183 48.0378C69.5607 47.7803 69.1365 47.7803 68.8789 48.0378L67.4168 49.5V46.7651C67.4168 46.4015 67.1213 46.0984 66.7501 46.0984C66.3789 46.0984 66.0835 46.3939 66.0835 46.7651V52.6969L64.9244 51.5378C64.6668 51.2803 64.2425 51.2803 63.985 51.5378C63.7274 51.7954 63.7274 52.2197 63.985 52.4772L66.0835 54.5757V58.9393C62.7804 58.606 60.1895 55.8106 60.1895 52.4166C60.1895 48.2878 63.5228 36.3863 66.7501 36.3863C69.9774 36.3863 73.3107 48.2954 73.3107 52.4166C73.3259 55.7954 70.735 58.5909 67.4244 58.9242Z" fill="#E6582A"/>
<path d="M35.0308 53.9165C34.7127 53.9165 34.4551 54.1741 34.4551 54.4923C34.4551 54.8104 34.7127 55.068 35.0308 55.068C35.349 55.068 35.6066 54.8104 35.6066 54.4923C35.6142 54.1817 35.3566 53.9165 35.0308 53.9165Z" fill="#47072C"/>
<path d="M35.0308 59.6818C35.349 59.6818 35.6066 59.4242 35.6066 59.106C35.6066 58.7879 35.349 58.5303 35.0308 58.5303C34.7127 58.5303 34.4551 58.7879 34.4551 59.106C34.4551 59.4242 34.7127 59.6818 35.0308 59.6818Z" fill="#47072C"/>
<path d="M50.8863 53.9165C50.5681 53.9165 50.3105 54.1741 50.3105 54.4923C50.3105 54.8104 50.5681 55.068 50.8863 55.068C51.2045 55.068 51.4621 54.8104 51.4621 54.4923C51.4621 54.1817 51.2045 53.9165 50.8863 53.9165Z" fill="#47072C"/>
<path d="M50.8863 59.6818C51.2045 59.6818 51.4621 59.4242 51.4621 59.106C51.4621 58.7879 51.2045 58.5303 50.8863 58.5303C50.5681 58.5303 50.3105 58.7879 50.3105 59.106C50.3105 59.4242 50.5681 59.6818 50.8863 59.6818Z" fill="#47072C"/>
</svg>
