<svg width="101" height="100" viewBox="0 0 101 100" fill="none" xmlns="http://www.w3.org/2000/svg">
<rect x="0.5" width="100" height="100" rx="6" fill="#F9FAFB"/>
<g clip-path="url(#clip0_2403_50763)">
<path d="M59.2551 48.5152C59.2517 48.5152 59.2483 48.5152 59.2448 48.5152H55.0576V44.3176C55.0633 43.471 54.3815 42.7801 53.535 42.7744C53.5315 42.7744 53.528 42.7744 53.5247 42.7744H47.4753C46.6287 42.7744 45.9424 43.4608 45.9424 44.3073V48.5049H41.7551C40.9085 48.4992 40.2176 49.1808 40.2119 50.0274C40.2119 50.0343 40.2119 50.0411 40.2119 50.0481V56.0872C40.2119 56.9338 40.8983 57.6201 41.7448 57.6201H45.9424V61.8073C45.9367 62.6539 46.6184 63.3449 47.465 63.3505C47.4685 63.3505 47.4719 63.3505 47.4753 63.3505H53.5144C54.361 63.3505 55.0473 62.6642 55.0473 61.8176V57.6201H59.2448C60.0914 57.6258 60.7824 56.944 60.788 56.0975C60.788 56.094 60.788 56.0905 60.788 56.0872V50.0481C60.788 49.2015 60.1018 48.5152 59.2551 48.5152ZM58.7304 55.5625H54.0288C53.4606 55.5625 53 56.0231 53 56.5913V61.2929H48V56.5913C48 56.0231 47.5393 55.5625 46.9712 55.5625H42.2695V50.5728H46.9712C47.5393 50.5728 48 50.1121 48 49.544V44.832H52.9897V49.5337C52.9897 50.1018 53.4503 50.5625 54.0185 50.5625H58.7304V55.5625Z" fill="#E6582A"/>
<path d="M68.4012 35.0791H59.9239V31.4577C59.9772 29.8052 58.6808 28.4222 57.0283 28.3689C56.9441 28.3662 56.8598 28.3669 56.7757 28.3713H44.2243C42.573 28.2853 41.1647 29.5541 41.0786 31.2052C41.0742 31.2893 41.0733 31.3735 41.0761 31.4577V35.0586H32.5988C29.3272 35.0586 25.5 36.9207 25.5 42.1573V64.5339C25.5 69.7705 29.3272 71.6326 32.5988 71.6326H68.4012C71.6728 71.6326 75.5 69.7705 75.5 64.5339V42.1779C75.5 36.9413 71.6831 35.0791 68.4012 35.0791ZM43.1337 31.4577C43.1337 31.1594 43.1337 30.3569 44.2346 30.3569H56.7757C57.8765 30.3569 57.8765 31.1491 57.8765 31.4577V35.0586H43.1337V31.4577ZM73.4424 64.5339C73.4424 69.0812 69.9239 69.575 68.4012 69.575H32.5988C31.0864 69.575 27.5576 69.0812 27.5576 64.5339V42.1779C27.5576 37.6306 31.0761 37.1367 32.5988 37.1367H68.4012C69.9136 37.1367 73.4424 37.6306 73.4424 42.1779V64.5339Z" fill="#47072C"/>
</g>
<defs>
<clipPath id="clip0_2403_50763">
<rect width="50" height="50" fill="white" transform="translate(25.5 25)"/>
</clipPath>
</defs>
</svg>
