<svg width="24" height="24" viewBox="0 0 24 24" fill="none" xmlns="http://www.w3.org/2000/svg">
<g clip-path="url(#clip0_2308_72314)">
<path d="M16.2032 11.2888C16.2016 11.2888 16.2 11.2888 16.1983 11.2888H14.1884V9.27394C14.1911 8.86759 13.8639 8.53592 13.4576 8.5332C13.4559 8.5332 13.4542 8.5332 13.4526 8.5332H10.5489C10.1426 8.5332 9.81312 8.86265 9.81312 9.26901V11.2838H7.80324C7.39688 11.2811 7.06522 11.6083 7.0625 12.0146C7.0625 12.018 7.0625 12.0212 7.0625 12.0246V14.9233C7.0625 15.3297 7.39194 15.6591 7.7983 15.6591H9.81312V17.669C9.8104 18.0754 10.1376 18.407 10.544 18.4097C10.5456 18.4097 10.5473 18.4097 10.5489 18.4097H13.4477C13.854 18.4097 14.1835 18.0803 14.1835 17.6739V15.6591H16.1983C16.6047 15.6618 16.9363 15.3346 16.939 14.9283C16.939 14.9266 16.939 14.9249 16.939 14.9233V12.0246C16.939 11.6182 16.6097 11.2888 16.2032 11.2888ZM15.9514 14.6715H13.6946C13.4219 14.6715 13.2008 14.8926 13.2008 15.1653V17.4221H10.8008V15.1653C10.8008 14.8926 10.5797 14.6715 10.3069 14.6715H8.05015V12.2764H10.3069C10.5797 12.2764 10.8008 12.0553 10.8008 11.7826V9.52086H13.1958V11.7776C13.1958 12.0504 13.4169 12.2715 13.6897 12.2715H15.9514V14.6715Z" fill="#E6582A"/>
<path d="M20.5926 4.83892H16.5235V3.10065C16.5491 2.30744 15.9268 1.64361 15.1336 1.618C15.0931 1.6167 15.0527 1.61707 15.0123 1.61917H8.98765C8.19506 1.57787 7.51907 2.18689 7.47772 2.97942C7.47562 3.01979 7.47519 3.06022 7.47654 3.10065V4.82905H3.40741C1.83704 4.82905 0 5.72287 0 8.23645V18.9772C0 21.4908 1.83704 22.3846 3.40741 22.3846H20.5926C22.163 22.3846 24 21.4908 24 18.9772V8.24633C24 5.73275 22.1679 4.83892 20.5926 4.83892ZM8.4642 3.10065C8.4642 2.95744 8.4642 2.57226 8.99259 2.57226H15.0123C15.5407 2.57226 15.5407 2.9525 15.5407 3.10065V4.82905H8.4642V3.10065ZM23.0123 18.9772C23.0123 21.1599 21.3235 21.3969 20.5926 21.3969H3.40741C2.68148 21.3969 0.987654 21.1599 0.987654 18.9772V8.24633C0.987654 6.06361 2.67654 5.82658 3.40741 5.82658H20.5926C21.3185 5.82658 23.0123 6.06361 23.0123 8.24633V18.9772Z" fill="#47072C"/>
</g>
<defs>
<clipPath id="clip0_2308_72314">
<rect width="24" height="24" fill="white"/>
</clipPath>
</defs>
</svg>
