<svg width="101" height="100" viewBox="0 0 101 100" fill="none" xmlns="http://www.w3.org/2000/svg">
<rect x="0.5" width="100" height="100" rx="6" fill="#F9FAFB"/>
<g clip-path="url(#clip0_2403_50775)">
<path d="M47.3752 46.875C44.5035 46.875 42.167 44.5385 42.167 41.6668V39.5836C42.167 36.7115 44.5035 34.375 47.3752 34.375C50.2469 34.375 52.5834 36.7115 52.5834 39.5836V41.6668C52.5834 44.5385 50.2469 46.875 47.3752 46.875ZM47.3752 36.4586C45.6521 36.4586 44.2502 37.8605 44.2502 39.5836V41.6668C44.2502 43.3899 45.6521 44.7918 47.3752 44.7918C49.0983 44.7918 50.5002 43.3899 50.5002 41.6668V39.5836C50.5002 37.8605 49.0983 36.4586 47.3752 36.4586Z" fill="#E6582A"/>
<path d="M50.5019 57.292H44.2481C40.7325 57.2908 38.4021 55.0013 38.3052 54.9036C38.1095 54.7087 38 54.4439 38 54.167V50.5575C38 49.8587 38.3468 49.2106 38.9281 48.8241L44.25 45.2765V44.792H46.3332V45.8338C46.3332 46.1817 46.1593 46.5067 45.8697 46.7005L40.0832 50.5575V53.6909C40.7084 54.1845 42.2439 55.2076 44.2489 55.2088H50.5019C52.526 55.2076 54.0469 54.1887 54.6668 53.6951V50.5575L48.8803 46.7005C48.5907 46.5067 48.4168 46.1817 48.4168 45.8338V44.792H50.5V45.2765L55.8219 48.8241C56.4032 49.2128 56.75 49.8606 56.75 50.5575V54.167C56.75 54.4439 56.6405 54.7087 56.4448 54.9036C56.3468 55.0013 54.0175 57.2908 50.5019 57.292Z" fill="#E6582A"/>
<path d="M30.7084 47.917C30.1335 47.917 29.667 47.4505 29.667 46.8752C29.667 37.1107 37.6107 29.167 47.3752 29.167C47.9501 29.167 48.417 29.6335 48.417 30.2088C48.417 30.7837 47.9501 31.2502 47.3752 31.2502C38.7597 31.2502 31.7502 38.2597 31.7502 46.8752C31.7502 47.4505 31.2837 47.917 30.7084 47.917Z" fill="#47072C"/>
<path d="M47.3748 64.5835C46.7999 64.5835 46.333 64.1177 46.333 63.5417C46.333 62.9657 46.7999 62.4999 47.3748 62.4999C55.9903 62.4999 62.9998 55.4908 62.9998 46.8749C62.9998 46.3 63.4656 45.8335 64.0416 45.8335C64.6176 45.8335 65.083 46.3 65.083 46.8749C65.083 56.6398 57.1393 64.5835 47.3748 64.5835Z" fill="#47072C"/>
<path d="M47.3749 68.7498C35.3125 68.7498 25.5 58.9365 25.5 46.8749C25.5 34.8125 35.3125 25 47.3749 25C59.4361 25 69.2498 34.8125 69.2498 46.8749C69.2498 58.9365 59.4361 68.7498 47.3749 68.7498ZM47.3749 27.0836C36.4615 27.0836 27.5832 35.9615 27.5832 46.8749C27.5832 57.7887 36.4615 66.6666 47.3749 66.6666C58.2883 66.6666 67.1666 57.7887 67.1666 46.8749C67.1666 35.9615 58.2883 27.0836 47.3749 27.0836Z" fill="#47072C"/>
<path d="M70.2912 75.0001C70.0246 75.0001 69.7579 74.8982 69.5546 74.6949L63.3046 68.4449C62.8972 68.0379 62.8972 67.3795 63.3046 66.9721C63.712 66.5647 64.3704 66.5647 64.7774 66.9721L71.0274 73.2221C71.4348 73.6295 71.4348 74.2879 71.0274 74.6949C70.8245 74.8982 70.5578 75.0001 70.2912 75.0001Z" fill="#47072C"/>
<path d="M74.4578 70.8337C74.1912 70.8337 73.9245 70.7314 73.7216 70.5285L67.4716 64.2785C67.0642 63.8711 67.0642 63.2127 67.4716 62.8053C67.8786 62.3982 68.537 62.3982 68.9444 62.8053L75.1944 69.0553C75.6018 69.4627 75.6018 70.1211 75.1944 70.5285C74.9911 70.7314 74.7245 70.8337 74.4578 70.8337Z" fill="#47072C"/>
<path d="M61.9588 69.7916C61.1527 69.7916 60.3829 69.6894 59.1378 68.4446L57.0546 66.3614C56.6472 65.954 56.6472 65.2956 57.0546 64.8886C57.462 64.4812 58.1204 64.4812 58.5274 64.8886L60.611 66.9718C61.3473 67.7084 61.5777 67.7084 61.9588 67.7084C62.3379 67.7084 62.5683 67.7084 63.3046 66.9718L67.4714 62.805C68.2076 62.0687 68.2076 61.8383 68.2076 61.4572C68.2076 61.0781 68.2076 60.848 67.4714 60.1114C67.064 59.704 67.064 59.0456 67.4714 58.6386C67.8784 58.2312 68.5368 58.2312 68.9442 58.6386C70.189 59.8833 70.2912 60.652 70.2912 61.4572C70.2912 62.2633 70.189 63.0331 68.9442 64.2782L64.7774 68.4446C63.5327 69.6894 62.764 69.7916 61.9588 69.7916Z" fill="#47072C"/>
<path d="M42.167 70.8335H44.2502V72.9167H42.167V70.8335Z" fill="#47072C"/>
<path d="M46.333 70.8335H48.4166V72.9167H46.333V70.8335Z" fill="#47072C"/>
<path d="M50.5 70.8335H52.5832V72.9167H50.5V70.8335Z" fill="#47072C"/>
</g>
<defs>
<clipPath id="clip0_2403_50775">
<rect width="50" height="50" fill="white" transform="translate(25.5 25)"/>
</clipPath>
</defs>
</svg>
