<svg width="101" height="100" viewBox="0 0 101 100" fill="none" xmlns="http://www.w3.org/2000/svg">
<rect x="0.5" width="100" height="100" rx="6" fill="#F9FAFB"/>
<g clip-path="url(#clip0_2403_50791)">
<path d="M42.1667 53.3335C38.4848 53.3335 35.5 56.3183 35.5 60.0002C35.5 63.682 38.4848 66.6668 42.1667 66.6668C45.8485 66.6668 48.8333 63.682 48.8333 60.0002C48.8292 56.32 45.8469 53.3377 42.1667 53.3335ZM42.1667 65.0002C39.4052 65.0002 37.1667 62.7616 37.1667 60.0002C37.1667 57.2387 39.4052 55.0002 42.1667 55.0002C44.9281 55.0002 47.1667 57.2387 47.1667 60.0002C47.164 62.7605 44.927 64.9975 42.1667 65.0002Z" fill="#E6582A"/>
<path d="M56.3337 56.6667H52.4645C52.2881 56.1193 52.068 55.587 51.8062 55.075L54.542 52.34C54.8673 52.0146 54.8673 51.4871 54.542 51.1617L51.0053 47.6258C50.6799 47.3005 50.1524 47.3005 49.827 47.6258L47.092 50.3608C46.5799 50.0992 46.0476 49.8791 45.5003 49.7025V45.8333C45.5003 45.3731 45.1272 45 44.667 45H39.667C39.2068 45 38.8337 45.3731 38.8337 45.8333V49.7025C38.2864 49.8791 37.7541 50.0992 37.242 50.3608L34.507 47.6258C34.1816 47.3005 33.6541 47.3005 33.3287 47.6258L29.792 51.1617C29.4667 51.4871 29.4667 52.0146 29.792 52.34L32.5278 55.075C32.266 55.587 32.0458 56.1193 31.8695 56.6667H28.0003C27.5401 56.6667 27.167 57.0398 27.167 57.5V62.5C27.167 62.9602 27.5401 63.3333 28.0003 63.3333H31.8695C32.0458 63.8807 32.266 64.413 32.5278 64.925L29.792 67.66C29.4667 67.9854 29.4667 68.5129 29.792 68.8383L33.3287 72.3742C33.6541 72.6995 34.1816 72.6995 34.507 72.3742L37.242 69.6392C37.7541 69.9008 38.2864 70.1209 38.8337 70.2975V74.1667C38.8337 74.6269 39.2068 75 39.667 75H44.667C45.1272 75 45.5003 74.6269 45.5003 74.1667V70.2975C46.0476 70.1209 46.5799 69.9008 47.092 69.6392L49.827 72.3742C50.1524 72.6995 50.6799 72.6995 51.0053 72.3742L54.542 68.8383C54.8673 68.5129 54.8673 67.9854 54.542 67.66L51.8062 64.925C52.068 64.413 52.2881 63.8807 52.4645 63.3333H56.3337C56.7939 63.3333 57.167 62.9602 57.167 62.5V57.5C57.167 57.0398 56.7939 56.6667 56.3337 56.6667ZM55.5003 61.6667H51.8387C51.4588 61.6668 51.127 61.9239 51.032 62.2917C50.8191 63.1191 50.4908 63.9124 50.057 64.6483C49.864 64.9756 49.9167 65.3921 50.1853 65.6608L52.7745 68.25L50.417 70.6067L47.8287 68.0183C47.5598 67.7493 47.1428 67.6965 46.8153 67.89C46.0797 68.324 45.2867 68.6522 44.4595 68.865C44.0917 68.96 43.8346 69.2918 43.8345 69.6717V73.3333H40.5003V69.6717C40.5002 69.2918 40.2431 68.96 39.8753 68.865C39.0481 68.6522 38.2551 68.324 37.5195 67.89C37.192 67.6965 36.775 67.7493 36.5062 68.0183L33.917 70.6067L31.5595 68.25L34.1487 65.6617C34.4173 65.3929 34.4701 64.9765 34.277 64.6492C33.8431 63.9132 33.5149 63.1199 33.302 62.2925C33.207 61.9247 32.8752 61.6676 32.4953 61.6675H28.8337V58.3333H32.4953C32.8752 58.3332 33.207 58.0761 33.302 57.7083C33.5149 56.8809 33.8431 56.0876 34.277 55.3517C34.4701 55.0244 34.4173 54.6079 34.1487 54.3392L31.5595 51.75L33.9178 49.3925L36.5062 51.9808C36.775 52.2499 37.192 52.3027 37.5195 52.1092C38.2551 51.6752 39.0481 51.347 39.8753 51.1342C40.2431 51.0392 40.5002 50.7074 40.5003 50.3275V46.6667H43.8337V50.3283C43.8338 50.7082 44.0908 51.04 44.4587 51.135C45.2858 51.3478 46.0789 51.676 46.8145 52.11C47.142 52.3035 47.5589 52.2507 47.8278 51.9817L50.417 49.3933L52.7753 51.7508L50.1862 54.3392C49.9175 54.6079 49.8648 55.0244 50.0578 55.3517C50.4917 56.0876 50.8199 56.8809 51.0328 57.7083C51.1278 58.0761 51.4596 58.3332 51.8395 58.3333H55.5003V61.6667Z" fill="#47072C"/>
<path d="M66.3337 39.1667H63.6753C63.4812 34.3333 61.5837 26.5383 55.5003 25.8825V25.8333C55.5003 25.3731 55.1272 25 54.667 25H49.667C49.2068 25 48.8337 25.3731 48.8337 25.8333V25.8825C42.7503 26.5383 40.8528 34.3333 40.6587 39.1667H38.0003C37.5401 39.1667 37.167 39.5398 37.167 40V43.3333C37.167 43.7935 37.5401 44.1667 38.0003 44.1667H66.3337C66.7939 44.1667 67.167 43.7935 67.167 43.3333V40C67.167 39.5398 66.7939 39.1667 66.3337 39.1667ZM65.5003 42.5H38.8337V40.8333H45.5003V39.1667H42.327C42.5003 34.9433 44.0303 28.2608 48.8337 27.5642V35H50.5003V26.6667H53.8337V35H55.5003V27.5642C60.3037 28.2608 61.8337 34.9433 62.007 39.1667H47.167V40.8333H65.5003V42.5Z" fill="#47072C"/>
<path d="M73.0003 50.8333H71.5362L72.5712 49.7975C72.8965 49.4721 72.8965 48.9446 72.5712 48.6192L70.2145 46.2625C69.8891 45.9372 69.3616 45.9372 69.0362 46.2625L68.0003 47.2975V45.8333C68.0003 45.3731 67.6272 45 67.167 45H63.8337C63.3735 45 63.0003 45.3731 63.0003 45.8333V47.2975L61.9645 46.2625C61.6391 45.9372 61.1116 45.9372 60.7862 46.2625L58.4295 48.6192C58.1042 48.9446 58.1042 49.4721 58.4295 49.7975L59.4645 50.8333H58.0003C57.5401 50.8333 57.167 51.2065 57.167 51.6667V55C57.167 55.4602 57.5401 55.8333 58.0003 55.8333H59.4645L58.4295 56.8692C58.1042 57.1946 58.1042 57.7221 58.4295 58.0475L60.7862 60.4042C61.1116 60.7295 61.6391 60.7295 61.9645 60.4042L63.0003 59.3683V60.8333C63.0003 61.2935 63.3735 61.6667 63.8337 61.6667H67.167C67.6272 61.6667 68.0003 61.2935 68.0003 60.8333V59.3683L69.0362 60.4042C69.3668 60.7168 69.8839 60.7168 70.2145 60.4042L72.5712 58.0475C72.8965 57.7221 72.8965 57.1946 72.5712 56.8692L71.5362 55.8333H73.0003C73.4605 55.8333 73.8337 55.4602 73.8337 55V51.6667C73.8337 51.2065 73.4605 50.8333 73.0003 50.8333ZM72.167 54.1667H70.2095C69.8579 54.1667 69.5442 54.3874 69.4253 54.7183C69.3766 54.8569 69.3209 54.9928 69.2587 55.1258C69.1075 55.4453 69.1743 55.8254 69.4253 56.0742L70.8095 57.4583L69.6253 58.6367L68.2412 57.25C67.9927 56.9997 67.6136 56.9329 67.2945 57.0833C67.1625 57.1458 67.0273 57.2015 66.8895 57.25C66.5564 57.3676 66.3337 57.6826 66.3337 58.0358V60H64.667V58.0425C64.667 57.6892 64.4443 57.3743 64.1112 57.2567C63.9733 57.2081 63.8381 57.1525 63.7062 57.09C63.3871 56.9396 63.008 57.0064 62.7595 57.2567L61.3753 58.6367L60.197 57.4583L61.5837 56.0742C61.8347 55.8254 61.9015 55.4453 61.7503 55.1258C61.688 54.9929 61.6324 54.8569 61.5837 54.7183C61.4638 54.3846 61.1458 54.1631 60.7912 54.1667H58.8337V52.5H60.7912C61.1427 52.5 61.4565 52.2793 61.5753 51.9483C61.6241 51.8098 61.6797 51.6739 61.742 51.5408C61.8931 51.2214 61.8264 50.8413 61.5753 50.5925L60.197 49.2083L61.3753 48.03L62.7603 49.4167C63.0091 49.6677 63.3892 49.7345 63.7087 49.5833C63.8396 49.5203 63.974 49.4647 64.1112 49.4167C64.4466 49.2982 64.6698 48.9799 64.667 48.6242V46.6667H66.3337V48.6242C66.3337 48.9775 66.5564 49.2924 66.8895 49.41C67.0267 49.458 67.1611 49.5136 67.292 49.5767C67.6115 49.7278 67.9916 49.661 68.2403 49.41L69.6253 48.0258L70.8037 49.2042L69.417 50.5925C69.166 50.8413 69.0992 51.2214 69.2503 51.5408C69.3126 51.6738 69.3682 51.8098 69.417 51.9483C69.5358 52.2793 69.8496 52.4999 70.2012 52.5H72.167V54.1667Z" fill="#47072C"/>
<path d="M65.5003 50C63.6594 50 62.167 51.4924 62.167 53.3333C62.167 55.1743 63.6594 56.6667 65.5003 56.6667C67.3413 56.6667 68.8337 55.1743 68.8337 53.3333C68.8337 51.4924 67.3413 50 65.5003 50ZM65.5003 55C64.5798 55 63.8337 54.2539 63.8337 53.3333C63.8337 52.4128 64.5798 51.6667 65.5003 51.6667C66.4208 51.6667 67.167 52.4128 67.167 53.3333C67.167 54.2539 66.4208 55 65.5003 55Z" fill="#E6582A"/>
</g>
<defs>
<clipPath id="clip0_2403_50791">
<rect width="50" height="50" fill="white" transform="translate(25.5 25)"/>
</clipPath>
</defs>
</svg>
