<svg width="101" height="100" viewBox="0 0 101 100" fill="none" xmlns="http://www.w3.org/2000/svg">
<rect x="0.5" width="100" height="100" rx="6" fill="#F9FAFB"/>
<g clip-path="url(#clip0_2403_50811)">
<path d="M32.1684 75H68.8326C70.2132 75 71.3324 73.8808 71.3324 72.5002V44.3804L71.6282 44.5762C72.1718 44.9515 72.8457 45.0871 73.4922 44.9511C74.1573 44.8135 74.7374 44.4105 75.0987 43.8354L75.1037 43.827C75.8359 42.6475 75.5153 41.1011 74.3746 40.3098L51.872 25.42C51.0455 24.86 49.9612 24.86 49.1347 25.42L26.6195 40.3174C25.4812 41.1113 25.1647 42.6581 25.8996 43.8354C26.2569 44.4102 26.8338 44.8136 27.4961 44.952C27.6627 44.9855 27.8321 45.0023 28.0019 45.0021C28.4876 45.0027 28.9622 44.8576 29.3644 44.5854L29.6685 44.3813V72.5002C29.6685 73.8808 30.7877 75 32.1684 75ZM69.6657 72.5002C69.6657 72.9604 69.2927 73.3335 68.8325 73.3335H32.1684C31.7082 73.3335 31.3351 72.9604 31.3351 72.5002V43.2796L50.5004 30.6138L69.6657 43.2796V72.5002ZM28.4361 43.198C28.2616 43.3186 28.0452 43.362 27.8377 43.318C27.6188 43.2723 27.4284 43.1385 27.3111 42.948C27.0473 42.5365 27.15 41.9907 27.5453 41.7031L50.0613 26.805C50.1908 26.717 50.3438 26.67 50.5004 26.67C50.6602 26.6707 50.8159 26.7191 50.9479 26.8092L73.4489 41.699C73.8474 41.9838 73.9541 42.5301 73.6922 42.944C73.5722 43.1367 73.3787 43.2722 73.1564 43.3189C72.9476 43.3604 72.7307 43.3147 72.5564 43.1923L50.9604 28.9198C50.682 28.7379 50.3223 28.7379 50.0438 28.9198L28.4361 43.198Z" fill="#47072C"/>
<path d="M43.5397 40.7248C42.5719 39.7617 41.0077 39.7617 40.0399 40.7248L35.3936 45.3711C34.43 46.3387 34.43 47.9033 35.3936 48.8709L42.9339 56.4178L38.2959 61.0567C38.1953 61.1564 38.1221 61.2804 38.0834 61.4167L36.141 68.2171C36.0029 68.6996 36.0994 69.219 36.4016 69.6198C36.7037 70.0205 37.1766 70.2561 37.6784 70.2561C37.8269 70.2558 37.9747 70.2351 38.1176 70.1945L44.918 68.2505C45.0542 68.2118 45.1782 68.1385 45.278 68.038L49.9177 63.4017L57.4596 70.9445C58.4276 71.9072 59.9914 71.9072 60.9594 70.9445L65.6057 66.2981C66.5693 65.3306 66.5693 63.766 65.6057 62.7984L58.0679 55.2514L64.4482 48.871C65.0676 48.2525 65.4156 47.4132 65.4156 46.5379C65.4156 45.6626 65.0676 44.8232 64.4482 44.2047L62.1251 41.8816C61.5078 41.2607 60.6675 40.9129 59.7919 40.9158C58.9166 40.9128 58.0764 41.2603 57.4588 41.8807L51.0842 48.2678L43.5397 40.7248ZM40.6299 65.7048C40.1397 65.2193 39.5533 64.8418 38.9084 64.5965L39.4267 62.7808L42.3165 64.0191L43.5548 66.9089L41.7391 67.4272C41.4936 66.7819 41.1157 66.1951 40.6299 65.7048ZM43.9388 63.5749L56.3088 51.2049L58.0345 52.9306L44.9738 65.9906L43.9388 63.5749ZM54.5839 47.1227L56.3097 45.3969L60.9394 50.0266L59.2128 51.7516L54.5839 47.1227ZM55.1314 50.0266L42.7606 62.3966L40.344 61.3617L53.4048 48.3009L55.1314 50.0266ZM36.5719 47.6934C36.2559 47.3772 36.2559 46.8648 36.5719 46.5485L41.2182 41.9022C41.5344 41.5863 42.0468 41.5863 42.3631 41.9022L44.0971 43.6363L42.3631 45.3704C42.1465 45.5795 42.0596 45.8894 42.1358 46.1808C42.2121 46.4721 42.4396 46.6996 42.7309 46.7759C43.0222 46.8521 43.3321 46.7652 43.5413 46.5486L45.2754 44.8145L47.0011 46.5419L45.8479 47.6952C45.6313 47.9043 45.5444 48.2142 45.6206 48.5056C45.6969 48.7969 45.9244 49.0244 46.2157 49.1007C46.5071 49.177 46.8169 49.09 47.0261 48.8734L48.1794 47.7202L49.9051 49.4459L44.1138 55.2372L36.5719 47.6934ZM37.7768 68.5587L38.4434 66.2089C39.2005 66.5283 39.803 67.1308 40.1225 67.888L37.7768 68.5587ZM58.6153 58.1578L57.4621 59.311C57.2455 59.5202 57.1586 59.83 57.2348 60.1214C57.3111 60.4127 57.5386 60.6403 57.8299 60.7165C58.1213 60.7928 58.4311 60.7059 58.6403 60.4893L59.7936 59.3344L61.5193 61.0601L59.7852 62.7942C59.5686 63.0034 59.4818 63.3132 59.558 63.6046C59.6343 63.8959 59.8618 64.1234 60.1531 64.1997C60.4444 64.276 60.7542 64.189 60.9635 63.9724L62.6976 62.2384L64.4307 63.9723C64.7467 64.2886 64.7467 64.801 64.4307 65.1172L59.7844 69.7636C59.4682 70.0796 58.9558 70.0796 58.6395 69.7636L51.0976 62.2217L56.8889 56.4304L58.6153 58.1578ZM59.7928 42.5855C60.2256 42.5841 60.6409 42.756 60.946 43.063L63.2692 45.3861C63.9052 46.0231 63.9052 47.0548 63.2692 47.6918L62.1167 48.8484L57.487 44.2187L58.6403 43.0654C58.9449 42.7579 59.3599 42.5851 59.7928 42.5855Z" fill="#E6582A"/>
</g>
<defs>
<clipPath id="clip0_2403_50811">
<rect width="50" height="50" fill="white" transform="translate(25.5 25)"/>
</clipPath>
</defs>
</svg>
