<svg width="24" height="24" viewBox="0 0 24 24" fill="none" xmlns="http://www.w3.org/2000/svg">
<g clip-path="url(#clip0_2308_72326)">
<path d="M22.6161 9.69336C22.3609 9.69336 22.1546 9.89967 22.1546 10.1549V18.0011C22.1546 18.2558 21.9478 18.4626 21.6931 18.4626H2.30844C2.05367 18.4626 1.84691 18.2558 1.84691 18.0011V5.07797C1.84691 4.82321 2.05367 4.61644 2.30844 4.61644H9.23152C9.48675 4.61644 9.69306 4.41013 9.69306 4.1549C9.69306 3.89967 9.48675 3.69336 9.23152 3.69336H2.30844C1.54506 3.69336 0.923828 4.31459 0.923828 5.07797V18.0011C0.923828 18.7644 1.54506 19.3857 2.30844 19.3857H21.6931C22.4564 19.3857 23.0777 18.7644 23.0777 18.0011V10.1549C23.0777 9.89967 22.8714 9.69336 22.6161 9.69336Z" fill="#47072C"/>
<path d="M15.6938 22.1547H14.7707V20.7701C14.7707 20.5149 14.5644 20.3086 14.3092 20.3086C14.054 20.3086 13.8477 20.5149 13.8477 20.7701V22.1547H10.1553V20.7701C10.1553 20.5149 9.94904 20.3086 9.69381 20.3086C9.43858 20.3086 9.23227 20.5149 9.23227 20.7701V22.1547H8.30919C8.05396 22.1547 7.84766 22.3611 7.84766 22.6163C7.84766 22.8715 8.05396 23.0778 8.30919 23.0778H15.6938C15.949 23.0778 16.1553 22.8715 16.1553 22.6163C16.1553 22.3611 15.949 22.1547 15.6938 22.1547Z" fill="#47072C"/>
<path d="M7.84826 15.2305C7.59303 15.2305 7.38672 15.4368 7.38672 15.692C7.38672 15.9472 7.59303 16.1535 7.84826 16.1535H19.8483C20.1035 16.1535 20.3098 15.9472 20.3098 15.692C20.3098 15.4368 20.1035 15.2305 19.8483 15.2305H7.84826Z" fill="#47072C"/>
<path d="M4.1549 15.2305C3.89967 15.2305 3.69336 15.4368 3.69336 15.692C3.69336 15.9472 3.89967 16.1535 4.1549 16.1535H5.53951C5.79474 16.1535 6.00105 15.9472 6.00105 15.692C6.00105 15.4368 5.79474 15.2305 5.53951 15.2305H4.1549Z" fill="#47072C"/>
<path d="M10.9126 8.41644L11.6492 8.56367C11.6972 8.69521 11.7503 8.82398 11.8089 8.94952L11.3926 9.57398C11.1438 9.94691 11.1932 10.4477 11.5103 10.7643L12.3143 11.5678C12.6305 11.8844 13.1303 11.9352 13.5041 11.686L14.1318 11.2678C14.2583 11.3274 14.3861 11.3809 14.514 11.4284L14.6612 12.166C14.7489 12.6054 15.138 12.9238 15.5861 12.9238H16.7229C17.1711 12.9238 17.5597 12.6054 17.6478 12.1655L17.7951 11.4284C17.9266 11.3804 18.0554 11.3274 18.1809 11.2692L18.8058 11.686C19.1783 11.9334 19.6791 11.884 19.9952 11.5674L20.7992 10.7638C21.1163 10.4468 21.1657 9.94644 20.9169 9.57352L20.4988 8.94629C20.5588 8.81983 20.6123 8.69152 20.6598 8.56414L21.3969 8.41644C21.8358 8.32875 22.1543 7.94014 22.1543 7.49198V6.35475C22.1543 5.90706 21.8358 5.51844 21.396 5.43029L20.6594 5.28306C20.6114 5.15106 20.5583 5.02275 20.5001 4.89721L20.916 4.27275C21.1648 3.89983 21.1154 3.39906 20.7983 3.08244L19.9943 2.27891C19.6781 1.96275 19.1783 1.91152 18.8045 2.16075L18.1768 2.5789C18.0503 2.51937 17.9225 2.46583 17.7946 2.41829L17.6474 1.68075C17.5597 1.24229 17.1706 0.923828 16.7225 0.923828H15.5857C15.1375 0.923828 14.7489 1.24229 14.6608 1.68167L14.5135 2.41875C14.3848 2.46629 14.256 2.51983 14.13 2.57937L13.5032 2.16075C13.1303 1.9129 12.6295 1.96275 12.3138 2.27937L11.5098 3.08291C11.1928 3.39998 11.1434 3.90029 11.3921 4.27321L11.8108 4.90044C11.7517 5.02644 11.6981 5.15429 11.6511 5.2826L10.9121 5.43029C10.4728 5.51844 10.1543 5.90752 10.1543 6.35521V7.49244C10.1543 7.93967 10.4728 8.32875 10.9126 8.41644ZM11.0935 6.33583L12.0946 6.13552C12.2617 6.10229 12.3974 5.9786 12.4463 5.81521C12.5197 5.56921 12.6221 5.3246 12.7495 5.08737C12.8308 4.93737 12.822 4.75414 12.7274 4.61244L12.162 3.73598L12.9914 2.92967L13.8415 3.49691C13.9837 3.59198 14.1669 3.60121 14.3174 3.5186C14.5537 3.39075 14.7988 3.28829 15.0452 3.21491C15.2091 3.16644 15.3328 3.03121 15.366 2.86321L15.5861 1.84691L16.7428 1.8626L16.9421 2.86229C16.9754 3.02983 17.0991 3.16506 17.2625 3.21398C17.5038 3.28598 17.7494 3.38891 17.9903 3.5186C18.1403 3.59983 18.324 3.59106 18.4652 3.49644L19.3417 2.93152L20.148 3.76091L19.5831 4.60829C19.488 4.75091 19.4797 4.93367 19.5614 5.08414C19.6841 5.31075 19.7857 5.55675 19.8628 5.81521C19.9117 5.9786 20.0469 6.10183 20.2145 6.13506L21.2141 6.33537L21.2312 6.35521L21.2151 7.51183L20.2158 7.71167C20.0483 7.74491 19.9131 7.8686 19.8641 8.03198C19.7921 8.2729 19.6897 8.51798 19.5591 8.75937C19.4778 8.90983 19.4866 9.09306 19.5812 9.23475L20.1466 10.1112L19.3172 10.9175L18.4698 10.3521C18.3281 10.2575 18.1449 10.2492 17.9945 10.33C17.7669 10.4532 17.5209 10.5548 17.2629 10.6318C17.0995 10.6808 16.9763 10.816 16.9431 10.9835L16.7225 12.0008L15.5658 11.9846L15.366 10.9849C15.3328 10.8174 15.2091 10.6821 15.0457 10.6332C14.8043 10.5612 14.5588 10.4583 14.3178 10.3286C14.2495 10.2917 14.1738 10.2732 14.0986 10.2732C14.0091 10.2732 13.9195 10.2995 13.8425 10.3508L12.966 10.9157L12.1597 10.0863L12.7251 9.23891C12.8201 9.09629 12.8285 8.91352 12.7468 8.76306C12.6231 8.53506 12.522 8.28952 12.4449 8.03198C12.396 7.8686 12.2608 7.74537 12.0932 7.71214L11.0774 7.49198L11.0935 6.33583Z" fill="#E6582A"/>
<path d="M16.1559 9.69276C17.6832 9.69276 18.9252 8.45076 18.9252 6.92353C18.9252 6.73707 18.9067 6.5506 18.8703 6.37014C18.8199 6.12045 18.5767 5.95891 18.3261 6.00922C18.0764 6.05999 17.9144 6.30368 17.9652 6.55337C17.9901 6.67384 18.0021 6.79845 18.0021 6.92353C18.0021 7.94168 17.1741 8.76968 16.1559 8.76968C15.1378 8.76968 14.3098 7.94168 14.3098 6.92353C14.3098 5.90537 15.1378 5.07737 16.1559 5.07737C16.281 5.07737 16.4052 5.08937 16.5261 5.1143C16.7749 5.16507 17.019 5.00307 17.0703 4.75337C17.1206 4.50368 16.959 4.26045 16.7093 4.20922C16.5284 4.17276 16.3419 4.1543 16.1559 4.1543C14.6287 4.1543 13.3867 5.3963 13.3867 6.92353C13.3867 8.45076 14.6287 9.69276 16.1559 9.69276Z" fill="#47072C"/>
</g>
<defs>
<clipPath id="clip0_2308_72326">
<rect width="24" height="24" fill="white"/>
</clipPath>
</defs>
</svg>
