<svg width="72" height="72" viewBox="0 0 72 72" fill="none" xmlns="http://www.w3.org/2000/svg">
<path d="M64.2303 32.4965L60.2084 27.7894C59.4636 26.8957 58.838 25.2274 58.838 24.0357V18.9711C58.838 15.8132 56.2461 13.2213 53.0882 13.2213H48.0236C46.8319 13.2213 45.1338 12.5957 44.2401 11.8509L39.533 7.82902C37.4773 6.07132 34.1109 6.07132 32.0553 7.82902L27.2886 11.8509C26.3948 12.5957 24.7265 13.2213 23.5348 13.2213H18.3809C15.223 13.2213 12.6311 15.8132 12.6311 18.9711V24.0357C12.6311 25.1976 12.0353 26.8659 11.2905 27.7596L7.26859 32.4965C5.54068 34.5819 5.54068 37.9186 7.26859 39.9444L11.2905 44.6813C12.0353 45.5453 12.6311 47.2434 12.6311 48.4053V53.4997C12.6311 56.6576 15.223 59.2494 18.3809 59.2494H23.5646C24.7265 59.2494 26.4246 59.8751 27.3184 60.6199L32.0255 64.6417C34.0811 66.3994 37.4476 66.3994 39.5032 64.6417L44.2103 60.6199C45.104 59.8751 46.7723 59.2494 47.964 59.2494H53.0286C56.1865 59.2494 58.7784 56.6576 58.7784 53.4997V48.4351C58.7784 47.2434 59.404 45.5751 60.1488 44.6813L64.1707 39.9742C65.988 37.9484 65.988 34.5819 64.2303 32.4965ZM33.5151 24.7209C33.5151 23.4994 34.528 22.4865 35.7494 22.4865C36.9709 22.4865 37.9838 23.4994 37.9838 24.7209V39.1103C37.9838 40.3317 36.9709 41.3447 35.7494 41.3447C34.528 41.3447 33.5151 40.3317 33.5151 39.1103V24.7209ZM35.7494 50.7588C34.1109 50.7588 32.7703 49.4182 32.7703 47.7796C32.7703 46.1411 34.0811 44.8005 35.7494 44.8005C37.388 44.8005 38.7286 46.1411 38.7286 47.7796C38.7286 49.4182 37.4178 50.7588 35.7494 50.7588Z" fill="#FDA132"/>
<path d="M52.4328 36.2503C52.4328 45.4642 44.9634 52.9336 35.7494 52.9336C26.5355 52.9336 19.0661 45.4642 19.0661 36.2503C19.0661 27.0363 26.5355 19.5669 35.7494 19.5669C44.9634 19.5669 52.4328 27.0363 52.4328 36.2503Z" fill="#FDA132"/>
<path d="M26.0447 45.4227C26.0447 43.7448 26.3244 42.4228 26.8837 41.4568C27.4684 40.4653 28.2819 39.5628 29.3242 38.7493L36.7602 32.9149C37.7263 32.1777 38.3872 31.4277 38.7431 30.665C39.1245 29.877 39.3151 29.0634 39.3151 28.2245C39.3151 27.2839 39.0101 26.4704 38.3999 25.784C37.7898 25.0722 36.8746 24.7162 35.6543 24.7162C34.6629 24.7162 33.8367 24.945 33.1757 25.4026C32.5401 25.8348 32.0698 26.356 31.7647 26.9661C31.4597 27.5762 31.3071 28.1101 31.3071 28.5677C31.3071 29.0253 31.3199 29.3685 31.3453 29.5973H26.121C26.0956 29.3939 26.0829 29.1524 26.0829 28.8728C26.0829 27.5 26.3879 26.1526 26.9981 24.8306C27.6082 23.4833 28.6505 22.352 30.125 21.4368C31.5995 20.4962 33.5316 20.0258 35.9213 20.0258H36.4933C38.3237 20.0258 39.8871 20.4072 41.1837 21.1698C42.5056 21.9325 43.4971 22.9367 44.1581 24.1824C44.8191 25.4026 45.1495 26.7119 45.1495 28.1101C45.1495 29.61 44.8572 30.9447 44.2725 32.1141C43.7132 33.2581 42.7344 34.4148 41.3362 35.5842C39.7346 36.9316 37.8025 38.457 35.5399 40.1602C35.2857 40.3636 34.9679 40.6433 34.5866 40.9992C34.2053 41.3551 34.0146 41.5839 34.0146 41.6856H45.2258V46.5667H26.0447V45.4227Z" fill="white"/>
</svg>
