<svg width="72" height="72" viewBox="0 0 72 72" fill="none" xmlns="http://www.w3.org/2000/svg">
<path d="M64.2303 31.9965L60.2084 27.2894C59.4636 26.3957 58.838 24.7274 58.838 23.5357V18.4711C58.838 15.3132 56.2461 12.7213 53.0882 12.7213H48.0236C46.8319 12.7213 45.1338 12.0957 44.2401 11.3509L39.533 7.32902C37.4773 5.57132 34.1109 5.57132 32.0553 7.32902L27.2886 11.3509C26.3948 12.0957 24.7265 12.7213 23.5348 12.7213H18.3809C15.223 12.7213 12.6311 15.3132 12.6311 18.4711V23.5357C12.6311 24.6976 12.0353 26.3659 11.2905 27.2596L7.26859 31.9965C5.54068 34.0819 5.54068 37.4186 7.26859 39.4444L11.2905 44.1813C12.0353 45.0453 12.6311 46.7434 12.6311 47.9053V52.9997C12.6311 56.1576 15.223 58.7494 18.3809 58.7494H23.5646C24.7265 58.7494 26.4246 59.3751 27.3184 60.1199L32.0255 64.1417C34.0811 65.8994 37.4476 65.8994 39.5032 64.1417L44.2103 60.1199C45.104 59.3751 46.7723 58.7494 47.964 58.7494H53.0286C56.1865 58.7494 58.7784 56.1576 58.7784 52.9997V47.9351C58.7784 46.7434 59.404 45.0751 60.1488 44.1813L64.1707 39.4742C65.988 37.4484 65.988 34.0819 64.2303 31.9965ZM33.5151 24.2209C33.5151 22.9994 34.528 21.9865 35.7494 21.9865C36.9709 21.9865 37.9838 22.9994 37.9838 24.2209V38.6103C37.9838 39.8317 36.9709 40.8447 35.7494 40.8447C34.528 40.8447 33.5151 39.8317 33.5151 38.6103V24.2209ZM35.7494 50.2588C34.1109 50.2588 32.7703 48.9182 32.7703 47.2796C32.7703 45.6411 34.0811 44.3005 35.7494 44.3005C37.388 44.3005 38.7286 45.6411 38.7286 47.2796C38.7286 48.9182 37.4178 50.2588 35.7494 50.2588Z" fill="#919EAB"/>
<path d="M52.4328 35.7503C52.4328 44.9642 44.9634 52.4336 35.7494 52.4336C26.5355 52.4336 19.0661 44.9642 19.0661 35.7503C19.0661 26.5363 26.5355 19.0669 35.7494 19.0669C44.9634 19.0669 52.4328 26.5363 52.4328 35.7503Z" fill="#919EAB"/>
<path d="M26.8837 41.4525H33.2138V26.4661H26.8455V23.0722C28.2692 22.9706 29.8835 22.6146 31.6885 22.0045C33.4935 21.369 35.1967 20.6063 36.7983 19.7165H38.8194V41.4525H45.0351V46.0667H26.8837V41.4525Z" fill="white"/>
</svg>
