<svg width="72" height="72" viewBox="0 0 72 72" fill="none" xmlns="http://www.w3.org/2000/svg">
<path d="M64.2303 31.9968L60.2084 27.2897C59.4636 26.3959 58.838 24.7276 58.838 23.5359V18.4714C58.838 15.3134 56.2461 12.7216 53.0882 12.7216H48.0236C46.8319 12.7216 45.1338 12.0959 44.2401 11.3511L39.533 7.32927C37.4773 5.57156 34.1109 5.57156 32.0553 7.32927L27.2886 11.3511C26.3948 12.0959 24.7265 12.7216 23.5348 12.7216H18.3809C15.223 12.7216 12.6311 15.3134 12.6311 18.4714V23.5359C12.6311 24.6978 12.0353 26.3661 11.2905 27.2599L7.26859 31.9968C5.54068 34.0822 5.54068 37.4189 7.26859 39.4447L11.2905 44.1816C12.0353 45.0455 12.6311 46.7436 12.6311 47.9055V52.9999C12.6311 56.1578 15.223 58.7497 18.3809 58.7497H23.5646C24.7265 58.7497 26.4246 59.3753 27.3184 60.1201L32.0255 64.142C34.0811 65.8997 37.4476 65.8997 39.5032 64.142L44.2103 60.1201C45.104 59.3753 46.7723 58.7497 47.964 58.7497H53.0286C56.1865 58.7497 58.7784 56.1578 58.7784 52.9999V47.9353C58.7784 46.7436 59.404 45.0753 60.1488 44.1816L64.1707 39.4745C65.988 37.4486 65.988 34.0822 64.2303 31.9968ZM33.5151 24.2211C33.5151 22.9997 34.528 21.9868 35.7494 21.9868C36.9709 21.9868 37.9838 22.9997 37.9838 24.2211V38.6105C37.9838 39.832 36.9709 40.8449 35.7494 40.8449C34.528 40.8449 33.5151 39.832 33.5151 38.6105V24.2211ZM35.7494 50.2591C34.1109 50.2591 32.7703 48.9184 32.7703 47.2799C32.7703 45.6413 34.0811 44.3007 35.7494 44.3007C37.388 44.3007 38.7286 45.6413 38.7286 47.2799C38.7286 48.9184 37.4178 50.2591 35.7494 50.2591Z" fill="#E6582A"/>
<path d="M52.4328 35.7505C52.4328 44.9645 44.9634 52.4339 35.7494 52.4339C26.5355 52.4339 19.0661 44.9645 19.0661 35.7505C19.0661 26.5366 26.5355 19.0672 35.7494 19.0672C44.9634 19.0672 52.4328 26.5366 52.4328 35.7505Z" fill="#E6582A"/>
<path d="M30.4682 38.2496C30.4682 40.6901 31.9681 41.9104 34.9679 41.9104C36.4679 41.9104 37.6119 41.6053 38.3999 40.9952C39.2135 40.385 39.6202 39.4698 39.6202 38.2496C39.6202 36.8513 39.1753 35.9234 38.2855 35.4658C37.3958 35.0082 36.2009 34.7794 34.701 34.7794H31.9554V30.6992H35.0823C36.2263 30.6992 37.167 30.4068 37.9042 29.8221C38.6415 29.2374 39.0101 28.3984 39.0101 27.3053C39.0101 26.2376 38.616 25.4368 37.8279 24.9029C37.0653 24.3436 36.1119 24.064 34.9679 24.064C33.8748 24.064 32.9469 24.369 32.1842 24.9792C31.4215 25.5639 31.0402 26.3901 31.0402 27.4578H25.9685V26.657C25.9685 25.3096 26.3498 24.0894 27.1125 22.9962C27.9006 21.9031 28.981 21.0514 30.3538 20.4413C31.7266 19.8312 33.2901 19.5261 35.0442 19.5261H35.7687C37.472 19.5261 38.9847 19.8312 40.3066 20.4413C41.654 21.0514 42.709 21.9031 43.4717 22.9962C44.2343 24.064 44.6157 25.2715 44.6157 26.6189C44.6157 27.9917 44.2598 29.1611 43.5479 30.1272C42.8615 31.0932 41.9209 31.8432 40.7261 32.377V32.5677C42.1497 33.0507 43.2683 33.8388 44.0818 34.932C44.8953 35.9997 45.3021 37.3471 45.3021 38.9741C45.3021 40.3977 44.908 41.6816 44.1199 42.8256C43.3319 43.9696 42.2133 44.8593 40.7642 45.4949C39.3406 46.1305 37.6754 46.4482 35.7687 46.4482H34.7391C32.7562 46.4482 31.0402 46.1177 29.5911 45.4568C28.1675 44.7958 27.0871 43.8933 26.3498 42.7493C25.6126 41.5799 25.2439 40.2579 25.2439 38.7834V38.2496H30.4682Z" fill="white"/>
</svg>
