<svg width="72" height="74" viewBox="0 0 72 74" fill="none" xmlns="http://www.w3.org/2000/svg">
<g filter="url(#filter0_d_2046_75403)">
<path d="M64.2303 32.497L60.2084 27.7899C59.4636 26.8962 58.838 25.2278 58.838 24.0362V18.9716C58.838 15.8137 56.2461 13.2218 53.0882 13.2218H48.0236C46.8319 13.2218 45.1338 12.5962 44.2401 11.8514L39.533 7.82951C37.4773 6.0718 34.1109 6.0718 32.0553 7.82951L27.2886 11.8514C26.3948 12.5962 24.7265 13.2218 23.5348 13.2218H18.3809C15.223 13.2218 12.6311 15.8137 12.6311 18.9716V24.0362C12.6311 25.1981 12.0353 26.8664 11.2905 27.7601L7.26859 32.497C5.54068 34.5824 5.54068 37.9191 7.26859 39.9449L11.2905 44.6818C12.0353 45.5458 12.6311 47.2439 12.6311 48.4058V53.5001C12.6311 56.6581 15.223 59.2499 18.3809 59.2499H23.5646C24.7265 59.2499 26.4246 59.8756 27.3184 60.6203L32.0255 64.6422C34.0811 66.3999 37.4476 66.3999 39.5032 64.6422L44.2103 60.6203C45.104 59.8756 46.7723 59.2499 47.964 59.2499H53.0286C56.1865 59.2499 58.7784 56.6581 58.7784 53.5001V48.4356C58.7784 47.2439 59.404 45.5756 60.1488 44.6818L64.1707 39.9747C65.988 37.9489 65.988 34.5824 64.2303 32.497ZM33.5151 24.7214C33.5151 23.4999 34.528 22.487 35.7494 22.487C36.9709 22.487 37.9838 23.4999 37.9838 24.7214V39.1108C37.9838 40.3322 36.9709 41.3451 35.7494 41.3451C34.528 41.3451 33.5151 40.3322 33.5151 39.1108V24.7214ZM35.7494 50.7593C34.1109 50.7593 32.7703 49.4187 32.7703 47.7801C32.7703 46.1416 34.0811 44.801 35.7494 44.801C37.388 44.801 38.7286 46.1416 38.7286 47.7801C38.7286 49.4187 37.4178 50.7593 35.7494 50.7593Z" fill="#47072C"/>
<path d="M52.4328 36.2508C52.4328 45.4647 44.9634 52.9341 35.7494 52.9341C26.5355 52.9341 19.0661 45.4647 19.0661 36.2508C19.0661 27.0368 26.5355 19.5674 35.7494 19.5674C44.9634 19.5674 52.4328 27.0368 52.4328 36.2508Z" fill="#47072C"/>
<path d="M36.6077 30.2461C37.2178 29.3309 37.7898 28.2123 38.3237 26.8903C38.883 25.5684 39.3151 24.3481 39.6202 23.2295H42.0607V35.9661H45.569V40.4658H42.0607V46.5671H36.6077V40.4658H25.0914V35.9279C26.3879 33.8687 27.7099 31.3138 29.0573 28.2631C30.4301 25.187 31.4597 22.4414 32.1461 20.0263H37.5229C37.1415 21.755 36.4551 23.6871 35.4637 25.8226C34.4722 27.9326 33.4045 29.9156 32.2605 31.7714C31.1419 33.6272 30.1759 35.0254 29.3623 35.9661H36.6077V30.2461Z" fill="white"/>
</g>
<defs>
<filter id="filter0_d_2046_75403" x="-4" y="0.500488" width="79.5" height="79.5" filterUnits="userSpaceOnUse" color-interpolation-filters="sRGB">
<feFlood flood-opacity="0" result="BackgroundImageFix"/>
<feColorMatrix in="SourceAlpha" type="matrix" values="0 0 0 0 0 0 0 0 0 0 0 0 0 0 0 0 0 0 127 0" result="hardAlpha"/>
<feOffset dy="4"/>
<feGaussianBlur stdDeviation="2"/>
<feComposite in2="hardAlpha" operator="out"/>
<feColorMatrix type="matrix" values="0 0 0 0 0 0 0 0 0 0 0 0 0 0 0 0 0 0 0.25 0"/>
<feBlend mode="normal" in2="BackgroundImageFix" result="effect1_dropShadow_2046_75403"/>
<feBlend mode="normal" in="SourceGraphic" in2="effect1_dropShadow_2046_75403" result="shape"/>
</filter>
</defs>
</svg>
