<svg width="288" height="58" viewBox="0 0 288 58" fill="none" xmlns="http://www.w3.org/2000/svg">
<path d="M19.9051 41.3105C26.2201 41.3105 31.3394 35.9983 31.3394 29.4453C31.3394 22.8923 26.2201 17.5801 19.9051 17.5801C13.59 17.5801 8.4707 22.8923 8.4707 29.4453C8.4707 35.9983 13.59 41.3105 19.9051 41.3105Z" fill="#E6582A"/>
<path d="M50.824 41.3105C57.1391 41.3105 62.2584 35.9983 62.2584 29.4453C62.2584 22.8923 57.1391 17.5801 50.824 17.5801C44.509 17.5801 39.3896 22.8923 39.3896 29.4453C39.3896 35.9983 44.509 41.3105 50.824 41.3105Z" fill="#E6582A"/>
<path d="M81.742 41.3105C88.057 41.3105 93.1764 35.9983 93.1764 29.4453C93.1764 22.8923 88.057 17.5801 81.742 17.5801C75.427 17.5801 70.3076 22.8923 70.3076 29.4453C70.3076 35.9983 75.427 41.3105 81.742 41.3105Z" fill="#E6582A"/>
<path d="M123.219 8.84173H125.659V16.1815L125.211 16.2332C124.464 16.3366 123.318 16.3366 122.222 16.5433C121.077 16.7501 120.08 16.9568 119.582 17.3187C118.736 17.9389 118.237 19.1278 118.237 20.2132V29.2587H124.065V36.5468H118.237V49.1588H110.118V21.3504C110.118 18.3524 110.317 13.3903 113.256 11.2194C115.846 9.35861 120.23 8.84173 123.219 8.84173ZM128.482 13.4937C128.482 15.9231 130.375 18.094 133.015 18.094C135.606 18.094 137.598 15.9231 137.598 13.4937C137.598 11.116 135.606 8.79004 133.015 8.79004C130.375 8.79004 128.482 11.116 128.482 13.4937ZM128.981 19.2311V49.1588H137.05V19.2311H128.981ZM140.421 34.1174C140.421 42.2325 147.046 49.2105 155.464 49.2105C157.955 49.2105 160.296 48.6936 162.438 47.6081V49.1588H170.507V48.6936C170.507 43.8349 170.557 38.9762 170.557 34.1174C170.557 25.899 170.507 17.6288 170.507 9.4103V8.89342H162.587V20.7818C160.396 19.6446 158.005 19.0761 155.464 19.0761C147.046 19.0761 140.421 26.054 140.421 34.1174ZM160.445 39.2346C159.1 40.6302 157.457 41.3538 155.464 41.3538C151.529 41.3538 148.491 37.9424 148.491 34.1174C148.491 30.3442 151.529 26.9327 155.464 26.9327C157.457 26.9327 159.1 27.7081 160.445 29.052C161.442 30.0857 162.438 31.8948 162.438 33.2387V35.0478C162.438 36.3917 161.442 38.2525 160.445 39.2346ZM173.38 34.1174C173.38 26.1574 179.905 19.2311 188.274 19.2311C196.592 19.2311 203.118 26.1574 203.118 34.1174C203.118 35.2029 203.018 36.2367 202.819 37.2187L182.047 37.2704C183.143 39.5964 185.435 41.2505 188.274 41.2505C190.216 41.2505 191.96 40.4234 193.155 39.1829H202.221C200.179 44.817 194.749 49.0554 188.274 49.0554C179.905 49.0554 173.38 42.3359 173.38 34.3242V34.1174ZM182.296 30.5509L182.047 31.2746H194.65L194.251 30.5509C193.056 28.4834 190.914 27.0361 188.274 27.0361C185.634 27.0361 183.442 28.4834 182.296 30.5509ZM205.941 49.2105H214.01L213.911 8.79004H205.991V9.30692L205.941 49.2105ZM216.833 34.1174C216.833 26.1574 223.359 19.2311 231.727 19.2311C240.046 19.2311 246.571 26.1574 246.571 34.1174C246.571 35.2029 246.471 36.2367 246.272 37.2187L225.501 37.2704C226.596 39.5964 228.888 41.2505 231.727 41.2505C233.67 41.2505 235.413 40.4234 236.609 39.1829H245.674C243.632 44.817 238.202 49.0554 231.727 49.0554C223.359 49.0554 216.833 42.3359 216.833 34.3242V34.1174ZM225.75 30.5509L225.501 31.2746H238.103L237.704 30.5509C236.509 28.4834 234.367 27.0361 231.727 27.0361C229.087 27.0361 226.895 28.4834 225.75 30.5509ZM249.444 19.4896C249.444 29.207 249.394 38.9245 249.394 48.6936V49.1588H257.463V33.859C257.463 30.1374 260.602 26.881 264.437 26.881C268.123 26.881 271.012 29.8273 271.411 33.3421C271.46 33.859 271.411 34.4276 271.411 34.9444L271.46 38.7177V49.0554L279.53 49.1588V33.6005C279.53 29.8273 277.687 26.1057 275.047 23.4696C272.158 20.575 268.621 19.0244 264.437 19.0244C261.946 19.0244 259.555 19.5929 257.364 20.7301V19.1794H249.444V19.4896Z" fill="white"/>
</svg>
