<svg width="101" height="100" viewBox="0 0 101 100" fill="none" xmlns="http://www.w3.org/2000/svg">
<rect x="0.5" width="100" height="100" rx="6" fill="#F9FAFB"/>
<g clip-path="url(#clip0_2403_50842)">
<path d="M38.8751 56.4682C39.3421 56.1988 39.5019 55.6011 39.2326 55.1342C38.9629 54.6676 38.3655 54.5074 37.8986 54.7767C37.4317 55.0464 37.2714 55.6442 37.5411 56.1107C37.8105 56.5776 38.4082 56.7379 38.8751 56.4682Z" fill="#E6582A"/>
<path d="M34.8735 63.2083L39.7914 71.7269C40.8526 73.5672 43.2399 74.2485 45.1277 73.1571C46.9958 72.0775 47.6378 69.6907 46.5571 67.8211L43.6274 62.746L46.1646 61.2812C46.6315 61.0111 46.7917 60.4141 46.522 59.9472L45.2521 57.7476C45.4035 57.7182 46.3992 57.5229 63.9571 54.0786C66.1277 53.9608 67.4281 51.5869 66.3317 49.6891L63.0862 44.0677L65.1602 40.9263C65.364 40.6173 65.3762 40.2202 65.1911 39.8998L63.238 36.5169C63.053 36.1965 62.7017 36.0088 62.3336 36.0305L58.5765 36.256L54.9735 30.0151C54.4516 29.1111 53.5166 28.5636 52.4729 28.5507C52.4604 28.5503 52.4482 28.5503 52.4356 28.5503C51.427 28.5503 50.5114 29.0523 49.969 29.9011L37.2119 46.1525L28.9183 50.9407C25.6564 52.8232 24.5265 57.0079 26.4163 60.2787C28.1428 63.2694 31.7828 64.4458 34.8735 63.2083ZM44.8661 68.798C45.4055 69.7311 45.0862 70.9251 44.1504 71.4656C43.2116 72.0085 42.0161 71.6751 41.4828 70.7508L36.6 62.2924L39.9829 60.3393C45.634 70.1286 44.7753 68.6412 44.8661 68.798ZM42.6509 61.0542L41.6743 59.3627L43.3657 58.3862L44.3423 60.0776L42.6509 61.0542ZM61.8483 38.0161L63.198 40.3537L61.9944 42.1764L59.6682 38.1469L61.8483 38.0161ZM51.6024 30.9719C51.8645 30.5431 52.2803 30.4988 52.4489 30.5034C52.6156 30.5053 53.031 30.5572 53.2817 30.9913L64.6403 50.6656C65.0103 51.3061 64.5606 52.1114 63.8186 52.1297C63.6855 52.1328 63.6241 52.1568 63.283 52.2205L51.2679 31.4094C51.52 31.0852 51.5525 31.0539 51.6024 30.9719ZM49.9682 33.065L61.257 52.618L44.2198 55.9597L39.0395 46.9871L49.9682 33.065ZM28.1077 59.3021C27.6789 58.5601 27.4523 57.7178 27.4523 56.8656C27.4523 55.1239 28.3885 53.5018 29.8949 52.6321L37.5064 48.2376L42.3892 56.6947L34.7777 61.0897C32.4458 62.4355 29.4539 61.6336 28.1077 59.3021Z" fill="#47072C"/>
<path d="M35.8498 57.0875C35.5801 56.6206 34.9827 56.4604 34.5158 56.7301L32.8244 57.7067C32.3582 57.976 31.7597 57.8154 31.4904 57.3492C31.2207 56.8823 30.6233 56.7221 30.1564 56.9918C29.6895 57.2615 29.5292 57.8589 29.7989 58.3258C30.6027 59.7182 32.3956 60.2091 33.8009 59.3981L35.4924 58.4215C35.9593 58.1518 36.1195 57.5548 35.8498 57.0875Z" fill="#E6582A"/>
<path d="M74.048 30.6392L68.6064 33.6673C68.1353 33.9297 67.9655 34.5244 68.228 34.9956C68.4896 35.4663 69.084 35.6368 69.5562 35.374L74.9975 32.3459C75.469 32.0834 75.6384 31.4887 75.3759 31.0176C75.1139 30.5461 74.5192 30.3767 74.048 30.6392Z" fill="#E6582A"/>
<path d="M73.4775 40.7534L69.7044 39.7425C69.1833 39.6029 68.6477 39.9119 68.5081 40.433C68.3685 40.9541 68.6779 41.4893 69.199 41.6289L72.9725 42.6398C73.4966 42.7806 74.0295 42.4666 74.1684 41.9493C74.308 41.4282 73.9986 40.8927 73.4775 40.7534Z" fill="#E6582A"/>
<path d="M63.9958 27.0912L62.9837 30.8647C62.8441 31.3858 63.1531 31.921 63.6742 32.061C64.1949 32.2002 64.7305 31.892 64.8705 31.3705L65.8821 27.597C66.0218 27.0759 65.7128 26.5403 65.1917 26.4007C64.671 26.2611 64.1354 26.5701 63.9958 27.0912Z" fill="#E6582A"/>
</g>
<defs>
<clipPath id="clip0_2403_50842">
<rect width="50" height="50" fill="white" transform="translate(25.5 25)"/>
</clipPath>
</defs>
</svg>
