<svg width="32" height="31" viewBox="0 0 32 31" fill="none" xmlns="http://www.w3.org/2000/svg">
<path d="M8.56063 19.2638C8.85944 19.0915 8.96175 18.7089 8.78938 18.4101C8.61675 18.1115 8.23444 18.0089 7.93563 18.1813C7.63682 18.3539 7.53425 18.7365 7.70688 19.0351C7.87919 19.3339 8.26182 19.4364 8.56063 19.2638Z" fill="#E6582A"/>
<path d="M5.99901 23.5777L9.14651 29.0295C9.8257 30.2073 11.3535 30.6433 12.5618 29.9449C13.7574 29.2539 14.1682 27.7264 13.4766 26.5299L11.6016 23.2817L13.2253 22.3442C13.5242 22.1714 13.6267 21.7894 13.4541 21.4905L12.6414 20.0828C12.7383 20.064 13.3755 19.939 24.6126 17.7347C26.0017 17.6592 26.834 16.1399 26.1323 14.9253L24.0552 11.3277L25.3826 9.31717C25.4465 9.2203 25.4823 9.10752 25.4858 8.99149C25.4893 8.87545 25.4604 8.76073 25.4024 8.66017L24.1524 6.49517C24.0942 6.39475 24.0093 6.31246 23.9071 6.2575C23.8048 6.20254 23.6894 6.17707 23.5735 6.18392L21.169 6.32817L18.8631 2.33398C18.5291 1.75542 17.9307 1.40505 17.2627 1.39673C17.2546 1.39648 17.2468 1.39648 17.2388 1.39648C16.5933 1.39648 16.0073 1.7178 15.6602 2.26098L7.49564 12.6619L2.18777 15.7263C0.10014 16.9312 -0.62311 19.6095 0.586453 21.7027C1.69145 23.6168 4.02101 24.3697 5.99901 23.5777V23.5777ZM12.3943 27.155C12.7395 27.7522 12.5352 28.5164 11.9363 28.8624C11.3355 29.2097 10.5703 28.9964 10.229 28.4049L7.10401 22.9915L9.26902 21.7415C12.8858 28.0066 12.3362 27.0547 12.3943 27.155ZM10.9766 22.199L10.3516 21.1165L11.4341 20.4915L12.0591 21.574L10.9766 22.199ZM23.263 7.45461L24.1267 8.95074L23.3565 10.1172L21.8677 7.53836L23.263 7.45461ZM16.7056 2.9463C16.8733 2.67192 17.1394 2.64361 17.2473 2.64648C17.354 2.64773 17.6199 2.68092 17.7803 2.9588L25.0498 15.5503C25.2866 15.9602 24.9988 16.4756 24.524 16.4874C24.4388 16.4892 24.3995 16.5047 24.1811 16.5455L16.4915 3.2263C16.6528 3.0188 16.6736 2.9988 16.7056 2.9463ZM15.6597 4.28592L22.8845 16.7999L11.9808 18.9385L8.66533 13.196L15.6597 4.28592ZM1.66895 21.0777C1.39478 20.6037 1.25014 20.0659 1.24958 19.5183C1.24958 18.4036 1.84864 17.3655 2.8127 16.8089L7.68408 13.9964L10.8091 19.4089L5.93776 22.2217C4.44533 23.083 2.53052 22.5699 1.66902 21.0777H1.66895Z" fill="#E6582A"/>
<path d="M6.62429 19.6608C6.45173 19.362 6.06935 19.2595 5.77054 19.4321L4.68804 20.0571C4.38966 20.2295 4.00666 20.1267 3.83429 19.8283C3.66166 19.5295 3.27929 19.427 2.98054 19.5996C2.68179 19.7722 2.57916 20.1545 2.75179 20.4533C3.26616 21.3445 4.41366 21.6587 5.31304 21.1396L6.39554 20.5146C6.69435 20.342 6.79691 19.9599 6.62429 19.6608ZM31.0714 2.7341L27.5887 4.6721C27.2872 4.84004 27.1785 5.22066 27.3465 5.52216C27.514 5.82341 27.8944 5.9326 28.1966 5.76435L31.679 3.82641C31.9808 3.65841 32.0892 3.27779 31.9212 2.97629C31.7535 2.67454 31.3729 2.56616 31.0714 2.7341ZM30.7061 9.20722L28.2913 8.56029C27.9578 8.47091 27.615 8.66866 27.5257 9.00216C27.4363 9.33566 27.6344 9.67822 27.9678 9.76754L30.3829 10.4145C30.7183 10.5046 31.0594 10.3037 31.1482 9.97266C31.2376 9.63916 31.0396 9.29641 30.7061 9.20722ZM24.6378 0.463349L23.99 2.87835C23.9007 3.21191 24.0984 3.55441 24.4319 3.64397C24.7652 3.7331 25.108 3.53585 25.1975 3.2021L25.845 0.787099C25.9344 0.453599 25.7366 0.110849 25.4032 0.0214742C25.0699 -0.0679008 24.7271 0.129849 24.6377 0.463349H24.6378Z" fill="#E6582A"/>
</svg>
