<svg width="101" height="100" viewBox="0 0 101 100" fill="none" xmlns="http://www.w3.org/2000/svg">
<rect x="0.5" width="100" height="100" rx="6" fill="#F9FAFB"/>
<path d="M70.0312 29.6875H65.3438V28.9062C65.3438 28.2846 65.0968 27.6885 64.6573 27.249C64.2177 26.8094 63.6216 26.5625 63 26.5625C62.3784 26.5625 61.7823 26.8094 61.3427 27.249C60.9032 27.6885 60.6562 28.2846 60.6562 28.9062V29.6875H52.8438V28.9062C52.8438 28.2846 52.5968 27.6885 52.1573 27.249C51.7177 26.8094 51.1216 26.5625 50.5 26.5625C49.8784 26.5625 49.2823 26.8094 48.8427 27.249C48.4032 27.6885 48.1562 28.2846 48.1562 28.9062V29.6875H40.3438V28.9062C40.3438 28.2846 40.0968 27.6885 39.6573 27.249C39.2177 26.8094 38.6216 26.5625 38 26.5625C37.3784 26.5625 36.7823 26.8094 36.3427 27.249C35.9032 27.6885 35.6562 28.2846 35.6562 28.9062V29.6875H30.9688C29.9331 29.6887 28.9402 30.1006 28.2079 30.8329C27.4756 31.5652 27.0637 32.5581 27.0625 33.5938V69.5312C27.0637 70.5669 27.4756 71.5598 28.2079 72.2921C28.9402 73.0244 29.9331 73.4363 30.9688 73.4375H70.0312C71.0669 73.4363 72.0598 73.0244 72.7921 72.2921C73.5244 71.5598 73.9363 70.5669 73.9375 69.5312V33.5938C73.9363 32.5581 73.5244 31.5652 72.7921 30.8329C72.0598 30.1006 71.0669 29.6887 70.0312 29.6875ZM62.2188 28.9062C62.2188 28.699 62.3011 28.5003 62.4476 28.3538C62.5941 28.2073 62.7928 28.125 63 28.125C63.2072 28.125 63.4059 28.2073 63.5524 28.3538C63.6989 28.5003 63.7812 28.699 63.7812 28.9062V33.5938C63.7812 33.801 63.6989 33.9997 63.5524 34.1462C63.4059 34.2927 63.2072 34.375 63 34.375C62.7928 34.375 62.5941 34.2927 62.4476 34.1462C62.3011 33.9997 62.2188 33.801 62.2188 33.5938V28.9062ZM49.7188 28.9062C49.7188 28.699 49.8011 28.5003 49.9476 28.3538C50.0941 28.2073 50.2928 28.125 50.5 28.125C50.7072 28.125 50.9059 28.2073 51.0524 28.3538C51.1989 28.5003 51.2812 28.699 51.2812 28.9062V33.5938C51.2812 33.801 51.1989 33.9997 51.0524 34.1462C50.9059 34.2927 50.7072 34.375 50.5 34.375C50.2928 34.375 50.0941 34.2927 49.9476 34.1462C49.8011 33.9997 49.7188 33.801 49.7188 33.5938V28.9062ZM37.2188 28.9062C37.2188 28.699 37.3011 28.5003 37.4476 28.3538C37.5941 28.2073 37.7928 28.125 38 28.125C38.2072 28.125 38.4059 28.2073 38.5524 28.3538C38.6989 28.5003 38.7812 28.699 38.7812 28.9062V33.5938C38.7812 33.801 38.6989 33.9997 38.5524 34.1462C38.4059 34.2927 38.2072 34.375 38 34.375C37.7928 34.375 37.5941 34.2927 37.4476 34.1462C37.3011 33.9997 37.2188 33.801 37.2188 33.5938V28.9062ZM30.9688 31.25H35.6562V33.5938C35.6562 34.2154 35.9032 34.8115 36.3427 35.251C36.7823 35.6906 37.3784 35.9375 38 35.9375C38.6216 35.9375 39.2177 35.6906 39.6573 35.251C40.0968 34.8115 40.3438 34.2154 40.3438 33.5938V31.25H48.1562V33.5938C48.1562 34.2154 48.4032 34.8115 48.8427 35.251C49.2823 35.6906 49.8784 35.9375 50.5 35.9375C51.1216 35.9375 51.7177 35.6906 52.1573 35.251C52.5968 34.8115 52.8438 34.2154 52.8438 33.5938V31.25H60.6562V33.5938C60.6562 34.2154 60.9032 34.8115 61.3427 35.251C61.7823 35.6906 62.3784 35.9375 63 35.9375C63.6216 35.9375 64.2177 35.6906 64.6573 35.251C65.0968 34.8115 65.3438 34.2154 65.3438 33.5938V31.25H70.0312C70.6526 31.2507 71.2483 31.4979 71.6877 31.9373C72.1271 32.3766 72.3743 32.9724 72.375 33.5938V39.0625H28.625V33.5938C28.6257 32.9724 28.8729 32.3766 29.3123 31.9373C29.7516 31.4979 30.3474 31.2507 30.9688 31.25ZM70.0312 71.875H30.9688C30.3474 71.8743 29.7516 71.6271 29.3123 71.1877C28.8729 70.7483 28.6257 70.1526 28.625 69.5312V40.625H72.375V69.5312C72.3743 70.1526 72.1271 70.7483 71.6877 71.1877C71.2483 71.6271 70.6526 71.8743 70.0312 71.875Z" fill="#47072C"/>
<path d="M68.4688 46.0938H65.3438C65.1365 46.0938 64.9378 46.1761 64.7913 46.3226C64.6448 46.4691 64.5625 46.6678 64.5625 46.875V50C64.5625 50.2072 64.6448 50.4059 64.7913 50.5524C64.9378 50.6989 65.1365 50.7812 65.3438 50.7812H68.4688C68.676 50.7812 68.8747 50.6989 69.0212 50.5524C69.1677 50.4059 69.25 50.2072 69.25 50V46.875C69.25 46.6678 69.1677 46.4691 69.0212 46.3226C68.8747 46.1761 68.676 46.0938 68.4688 46.0938ZM67.6875 49.2188H66.125V47.6562H67.6875V49.2188Z" fill="#47072C"/>
<path d="M52.8438 61.7188H49.7188C49.5115 61.7188 49.3128 61.8011 49.1663 61.9476C49.0198 62.0941 48.9375 62.2928 48.9375 62.5V65.625C48.9375 65.8322 49.0198 66.0309 49.1663 66.1774C49.3128 66.3239 49.5115 66.4062 49.7188 66.4062H52.8438C53.051 66.4062 53.2497 66.3239 53.3962 66.1774C53.5427 66.0309 53.625 65.8322 53.625 65.625V62.5C53.625 62.2928 53.5427 62.0941 53.3962 61.9476C53.2497 61.8011 53.051 61.7188 52.8438 61.7188ZM52.0625 64.8438H50.5V63.2812H52.0625V64.8438Z" fill="#47072C"/>
<path d="M45.0312 46.0938H41.9062C41.699 46.0938 41.5003 46.1761 41.3538 46.3226C41.2073 46.4691 41.125 46.6678 41.125 46.875V50C41.125 50.2072 41.2073 50.4059 41.3538 50.5524C41.5003 50.6989 41.699 50.7812 41.9062 50.7812H45.0312C45.2385 50.7812 45.4372 50.6989 45.5837 50.5524C45.7302 50.4059 45.8125 50.2072 45.8125 50V46.875C45.8125 46.6678 45.7302 46.4691 45.5837 46.3226C45.4372 46.1761 45.2385 46.0938 45.0312 46.0938ZM44.25 49.2188H42.6875V47.6562H44.25V49.2188Z" fill="#47072C"/>
<path d="M37.2188 53.9062H34.0938C33.8865 53.9062 33.6878 53.9886 33.5413 54.1351C33.3948 54.2816 33.3125 54.4803 33.3125 54.6875V57.8125C33.3125 58.0197 33.3948 58.2184 33.5413 58.3649C33.6878 58.5114 33.8865 58.5938 34.0938 58.5938H37.2188C37.426 58.5938 37.6247 58.5114 37.7712 58.3649C37.9177 58.2184 38 58.0197 38 57.8125V54.6875C38 54.4803 37.9177 54.2816 37.7712 54.1351C37.6247 53.9886 37.426 53.9062 37.2188 53.9062ZM36.4375 57.0312H34.875V55.4688H36.4375V57.0312Z" fill="#47072C"/>
<path d="M45.0312 53.9062H41.9062C41.699 53.9062 41.5003 53.9886 41.3538 54.1351C41.2073 54.2816 41.125 54.4803 41.125 54.6875V57.8125C41.125 58.0197 41.2073 58.2184 41.3538 58.3649C41.5003 58.5114 41.699 58.5938 41.9062 58.5938H45.0312C45.2385 58.5938 45.4372 58.5114 45.5837 58.3649C45.7302 58.2184 45.8125 58.0197 45.8125 57.8125V54.6875C45.8125 54.4803 45.7302 54.2816 45.5837 54.1351C45.4372 53.9886 45.2385 53.9062 45.0312 53.9062ZM44.25 57.0312H42.6875V55.4688H44.25V57.0312Z" fill="#47072C"/>
<path d="M37.2188 61.7188H34.0938C33.8865 61.7188 33.6878 61.8011 33.5413 61.9476C33.3948 62.0941 33.3125 62.2928 33.3125 62.5V65.625C33.3125 65.8322 33.3948 66.0309 33.5413 66.1774C33.6878 66.3239 33.8865 66.4062 34.0938 66.4062H37.2188C37.426 66.4062 37.6247 66.3239 37.7712 66.1774C37.9177 66.0309 38 65.8322 38 65.625V62.5C38 62.2928 37.9177 62.0941 37.7712 61.9476C37.6247 61.8011 37.426 61.7188 37.2188 61.7188ZM36.4375 64.8438H34.875V63.2812H36.4375V64.8438Z" fill="#47072C"/>
<path d="M45.0312 61.7188H41.9062C41.699 61.7188 41.5003 61.8011 41.3538 61.9476C41.2073 62.0941 41.125 62.2928 41.125 62.5V65.625C41.125 65.8322 41.2073 66.0309 41.3538 66.1774C41.5003 66.3239 41.699 66.4062 41.9062 66.4062H45.0312C45.2385 66.4062 45.4372 66.3239 45.5837 66.1774C45.7302 66.0309 45.8125 65.8322 45.8125 65.625V62.5C45.8125 62.2928 45.7302 62.0941 45.5837 61.9476C45.4372 61.8011 45.2385 61.7188 45.0312 61.7188ZM44.25 64.8438H42.6875V63.2812H44.25V64.8438Z" fill="#47072C"/>
<path d="M61.5551 49.3148L57.6488 48.718L55.8944 44.9806C55.8313 44.8462 55.7313 44.7326 55.6061 44.6531C55.4808 44.5735 55.3355 44.5312 55.1871 44.5312C55.0387 44.5312 54.8934 44.5735 54.7682 44.6531C54.6429 44.7326 54.5429 44.8462 54.4799 44.9806L52.7262 48.718L48.8199 49.3148C48.6779 49.3365 48.5445 49.3969 48.4345 49.4894C48.3246 49.5819 48.2422 49.703 48.1966 49.8393C48.151 49.9755 48.1439 50.1218 48.176 50.2618C48.2081 50.4019 48.2783 50.5304 48.3787 50.6332L51.2284 53.5538L50.5546 57.6872C50.5313 57.8317 50.549 57.9798 50.6058 58.1147C50.6626 58.2496 50.7562 58.3659 50.8758 58.4502C50.9954 58.5345 51.1363 58.5835 51.2825 58.5917C51.4286 58.5998 51.5741 58.5667 51.7024 58.4962L55.1871 56.57L58.6719 58.4962C58.8002 58.5671 58.9459 58.6005 59.0923 58.5925C59.2387 58.5846 59.3799 58.5356 59.4998 58.4511C59.6196 58.3667 59.7133 58.2502 59.7701 58.115C59.8269 57.9799 59.8445 57.8314 59.8209 57.6867L59.1471 53.5533L61.9968 50.6327C62.0972 50.5299 62.1674 50.4014 62.1995 50.2613C62.2316 50.1213 62.2245 49.975 62.1789 49.8388C62.1333 49.7025 62.051 49.5814 61.941 49.4889C61.831 49.3964 61.6977 49.336 61.5556 49.3144L61.5551 49.3148ZM57.7529 52.7442C57.6675 52.8318 57.6039 52.9381 57.5671 53.0547C57.5303 53.1713 57.5213 53.2949 57.541 53.4156L58.0195 56.3503L55.5649 54.9929C55.4492 54.9289 55.3191 54.8954 55.1869 54.8954C55.0547 54.8954 54.9247 54.9289 54.809 54.9929L52.3543 56.3503L52.8328 53.4156C52.8525 53.2949 52.8436 53.1713 52.8068 53.0547C52.77 52.9381 52.7063 52.8318 52.6209 52.7442L50.5582 50.6298L53.3739 50.2001C53.5007 50.1807 53.6208 50.1304 53.7236 50.0536C53.8263 49.9768 53.9086 49.8759 53.9631 49.7598L55.1871 47.1513L56.4112 49.7593C56.4657 49.8754 56.548 49.9763 56.6508 50.0531C56.7535 50.1299 56.8736 50.1802 57.0004 50.1996L59.8161 50.6293L57.7529 52.7442Z" fill="#E6582A"/>
<path d="M68.4688 53.9062H65.3438C65.1365 53.9062 64.9378 53.9886 64.7913 54.1351C64.6448 54.2816 64.5625 54.4803 64.5625 54.6875V57.8125C64.5625 58.0197 64.6448 58.2184 64.7913 58.3649C64.9378 58.5114 65.1365 58.5938 65.3438 58.5938H68.4688C68.676 58.5938 68.8747 58.5114 69.0212 58.3649C69.1677 58.2184 69.25 58.0197 69.25 57.8125V54.6875C69.25 54.4803 69.1677 54.2816 69.0212 54.1351C68.8747 53.9886 68.676 53.9062 68.4688 53.9062ZM67.6875 57.0312H66.125V55.4688H67.6875V57.0312Z" fill="#47072C"/>
<path d="M68.4688 61.7188H65.3438C65.1365 61.7188 64.9378 61.8011 64.7913 61.9476C64.6448 62.0941 64.5625 62.2928 64.5625 62.5V65.625C64.5625 65.8322 64.6448 66.0309 64.7913 66.1774C64.9378 66.3239 65.1365 66.4062 65.3438 66.4062H68.4688C68.676 66.4062 68.8747 66.3239 69.0212 66.1774C69.1677 66.0309 69.25 65.8322 69.25 65.625V62.5C69.25 62.2928 69.1677 62.0941 69.0212 61.9476C68.8747 61.8011 68.676 61.7188 68.4688 61.7188ZM67.6875 64.8438H66.125V63.2812H67.6875V64.8438Z" fill="#47072C"/>
<path d="M60.6562 61.7188H57.5312C57.324 61.7188 57.1253 61.8011 56.9788 61.9476C56.8323 62.0941 56.75 62.2928 56.75 62.5V65.625C56.75 65.8322 56.8323 66.0309 56.9788 66.1774C57.1253 66.3239 57.324 66.4062 57.5312 66.4062H60.6562C60.8635 66.4062 61.0622 66.3239 61.2087 66.1774C61.3552 66.0309 61.4375 65.8322 61.4375 65.625V62.5C61.4375 62.2928 61.3552 62.0941 61.2087 61.9476C61.0622 61.8011 60.8635 61.7188 60.6562 61.7188ZM59.875 64.8438H58.3125V63.2812H59.875V64.8438Z" fill="#47072C"/>
</svg>
