<svg width="33" height="33" viewBox="0 0 33 33" fill="none" xmlns="http://www.w3.org/2000/svg">
<path d="M27.5 11.3438V24.75C27.5 28.875 25.0388 30.25 22 30.25H11C7.96125 30.25 5.5 28.875 5.5 24.75V11.3438C5.5 6.875 7.96125 5.84375 11 5.84375C11 6.69625 11.3437 7.46624 11.9075 8.02999C12.4712 8.59374 13.2412 8.9375 14.0938 8.9375H18.9062C20.6113 8.9375 22 7.54875 22 5.84375C25.0388 5.84375 27.5 6.875 27.5 11.3438Z" stroke="#E6582A" stroke-width="1.5" stroke-linecap="round" stroke-linejoin="round"/>
<path d="M22 5.84375C22 7.54875 20.6113 8.9375 18.9062 8.9375H14.0938C13.2412 8.9375 12.4712 8.59374 11.9075 8.02999C11.3437 7.46624 11 6.69625 11 5.84375C11 4.13875 12.3887 2.75 14.0938 2.75H18.9062C19.7588 2.75 20.5288 3.09376 21.0925 3.65751C21.6563 4.22126 22 4.99125 22 5.84375Z" stroke="#E6582A" stroke-width="1.5" stroke-linecap="round" stroke-linejoin="round"/>
<path d="M11 17.875H16.5" stroke="#E6582A" stroke-width="1.5" stroke-linecap="round" stroke-linejoin="round"/>
<path d="M11 23.375H22" stroke="#E6582A" stroke-width="1.5" stroke-linecap="round" stroke-linejoin="round"/>
</svg>
