<svg width="32" height="32" viewBox="0 0 32 32" fill="none" xmlns="http://www.w3.org/2000/svg">
<path d="M16 6C15.7348 6 15.4804 5.89464 15.2929 5.70711C15.1054 5.51957 15 5.26522 15 5V4C15 3.73478 15.1054 3.48043 15.2929 3.29289C15.4804 3.10536 15.7348 3 16 3C16.2652 3 16.5196 3.10536 16.7071 3.29289C16.8946 3.48043 17 3.73478 17 4V5C17 5.26522 16.8946 5.51957 16.7071 5.70711C16.5196 5.89464 16.2652 6 16 6Z" fill="#E6582A"/>
<path d="M24.7268 14.7269C24.4615 14.7269 24.2072 14.6216 24.0197 14.4341C23.8321 14.2465 23.7268 13.9922 23.7268 13.7269C23.7268 9.66294 20.4268 6.19994 16.3708 6.00795C12.3098 5.82045 8.68927 8.94795 8.30677 12.9884C8.28362 13.2339 8.27211 13.4804 8.27227 13.7269C8.27227 13.9922 8.16691 14.2465 7.97937 14.4341C7.79184 14.6216 7.53748 14.7269 7.27227 14.7269C7.00705 14.7269 6.7527 14.6216 6.56516 14.4341C6.37762 14.2465 6.27227 13.9922 6.27227 13.7269C6.27227 13.4149 6.28677 13.1029 6.31577 12.7999C6.79727 7.71195 11.3558 3.76995 16.4653 4.01045C21.5723 4.25195 25.7268 8.61094 25.7268 13.7269C25.7268 13.9922 25.6214 14.2465 25.4339 14.4341C25.2463 14.6216 24.992 14.7269 24.7268 14.7269ZM26.6013 21.5474C26.3456 21.5475 26.0995 21.4497 25.9138 21.2739C25.2242 20.6187 24.6748 19.8303 24.2987 18.9565C23.9227 18.0827 23.728 17.1417 23.7263 16.1904C23.7263 15.9252 23.8316 15.6709 24.0192 15.4833C24.2067 15.2958 24.4611 15.1904 24.7263 15.1904C24.9915 15.1904 25.2458 15.2958 25.4334 15.4833C25.6209 15.6709 25.7263 15.9252 25.7263 16.1904C25.7274 16.8699 25.8665 17.5421 26.1351 18.1662C26.4037 18.7903 26.7961 19.3535 27.2888 19.8214C27.4338 19.9591 27.5342 20.1371 27.5771 20.3324C27.6199 20.5277 27.6033 20.7314 27.5293 20.9172C27.4553 21.1029 27.3273 21.2623 27.1619 21.3746C26.9965 21.487 26.8012 21.5472 26.6013 21.5474ZM5.39727 21.5474C5.19719 21.5474 5.00173 21.4874 4.83615 21.3751C4.67057 21.2627 4.54248 21.1034 4.46845 20.9175C4.39441 20.7316 4.37783 20.5278 4.42085 20.3324C4.46387 20.137 4.56451 19.959 4.70977 19.8214C5.20243 19.3535 5.59495 18.7904 5.86353 18.1662C6.13212 17.5421 6.27117 16.8699 6.27227 16.1904C6.27227 15.9252 6.37762 15.6709 6.56516 15.4833C6.7527 15.2958 7.00705 15.1904 7.27227 15.1904C7.53748 15.1904 7.79184 15.2958 7.97937 15.4833C8.16691 15.6709 8.27227 15.9252 8.27227 16.1904C8.27227 18.1059 7.47477 19.9589 6.08477 21.2739C5.89897 21.4496 5.65296 21.5475 5.39727 21.5474ZM15.9998 28.9994C13.2898 28.9994 10.9998 26.7094 10.9998 23.9994C10.9998 23.7342 11.1051 23.4799 11.2927 23.2923C11.4802 23.1048 11.7345 22.9994 11.9998 22.9994C12.265 22.9994 12.5193 23.1048 12.7069 23.2923C12.8944 23.4799 12.9998 23.7342 12.9998 23.9994C12.9998 25.6254 14.3738 26.9994 15.9998 26.9994C17.6258 26.9994 18.9998 25.6254 18.9998 23.9994C18.9998 23.7342 19.1051 23.4799 19.2927 23.2923C19.4802 23.1048 19.7345 22.9994 19.9998 22.9994C20.265 22.9994 20.5193 23.1048 20.7069 23.2923C20.8944 23.4799 20.9998 23.7342 20.9998 23.9994C20.9998 26.7094 18.7098 28.9994 15.9998 28.9994Z" fill="#E6582A"/>
<path d="M6.77207 24.9991C5.55357 24.9991 4.46957 24.2541 4.01007 23.1011C3.55007 21.9466 3.82457 20.6591 4.70957 19.8211C4.90218 19.6387 5.15937 19.5402 5.42454 19.5475C5.68972 19.5547 5.94117 19.6669 6.12357 19.8596C6.30597 20.0522 6.40439 20.3094 6.39717 20.5745C6.38995 20.8397 6.27768 21.0912 6.08507 21.2736C5.64707 21.6886 5.80807 22.2111 5.86807 22.3611C5.92757 22.5101 6.16907 22.9991 6.77207 22.9991C7.03729 22.9991 7.29164 23.1044 7.47918 23.292C7.66671 23.4795 7.77207 23.7338 7.77207 23.9991C7.77207 24.2643 7.66671 24.5186 7.47918 24.7062C7.29164 24.8937 7.03729 24.9991 6.77207 24.9991ZM25.2271 24.9991C24.9619 24.9991 24.7075 24.8937 24.52 24.7062C24.3324 24.5186 24.2271 24.2643 24.2271 23.9991C24.2271 23.7338 24.3324 23.4795 24.52 23.292C24.7075 23.1044 24.9619 22.9991 25.2271 22.9991C25.8306 22.9991 26.0726 22.5081 26.1326 22.3576C26.1921 22.2081 26.3526 21.6876 25.9146 21.2731C25.729 21.0891 25.6228 20.8398 25.6186 20.5785C25.6144 20.3172 25.7127 20.0647 25.8923 19.8749C26.0719 19.6851 26.3186 19.5731 26.5798 19.5628C26.8409 19.5526 27.0956 19.6449 27.2896 19.8201C28.1746 20.6581 28.4496 21.9446 27.9906 23.0971C27.5306 24.2526 26.4456 24.9991 25.2271 24.9991ZM7.27207 17.1896C7.00685 17.1896 6.7525 17.0842 6.56496 16.8967C6.37743 16.7091 6.27207 16.4548 6.27207 16.1896V13.7266C6.27207 13.4613 6.37743 13.207 6.56496 13.0195C6.7525 12.8319 7.00685 12.7266 7.27207 12.7266C7.53729 12.7266 7.79164 12.8319 7.97918 13.0195C8.16671 13.207 8.27207 13.4613 8.27207 13.7266V16.1896C8.27207 16.4548 8.16671 16.7091 7.97918 16.8967C7.79164 17.0842 7.53729 17.1896 7.27207 17.1896ZM24.7271 17.1896C24.4619 17.1896 24.2075 17.0842 24.02 16.8967C23.8324 16.7091 23.7271 16.4548 23.7271 16.1896V13.7266C23.7271 13.4613 23.8324 13.207 24.02 13.0195C24.2075 12.8319 24.4619 12.7266 24.7271 12.7266C24.9923 12.7266 25.2466 12.8319 25.4342 13.0195C25.6217 13.207 25.7271 13.4613 25.7271 13.7266V16.1896C25.7271 16.4548 25.6217 16.7091 25.4342 16.8967C25.2466 17.0842 24.9923 17.1896 24.7271 17.1896Z" fill="#E6582A"/>
<path d="M25.2275 25H6.77246C6.50724 25 6.25289 24.8946 6.06535 24.7071C5.87782 24.5196 5.77246 24.2652 5.77246 24C5.77246 23.7348 5.87782 23.4804 6.06535 23.2929C6.25289 23.1054 6.50724 23 6.77246 23H25.227C25.4922 22.9999 25.7466 23.1052 25.9341 23.2927C26.1217 23.4802 26.2271 23.7345 26.2272 23.9998C26.2273 24.265 26.122 24.5193 25.9345 24.7069C25.747 24.8945 25.4927 24.9999 25.2275 25Z" fill="#E6582A"/>
</svg>
