<svg width="101" height="100" viewBox="0 0 101 100" fill="none" xmlns="http://www.w3.org/2000/svg">
<rect x="0.5" width="100" height="100" rx="6" fill="#F9FAFB"/>
<path d="M72.7837 35.1269L65.1673 27.5703C65.0303 27.4428 64.8536 27.3662 64.6669 27.3535C64.4393 27.3383 44.4123 27.3437 44.1841 27.3437C43.9769 27.3437 43.7782 27.426 43.6317 27.5726C43.4852 27.7191 43.4029 27.9178 43.4029 28.125V49.7242H42.3959V34.1312C42.3959 33.924 42.3135 33.7253 42.167 33.5788C42.0205 33.4323 41.8218 33.35 41.6146 33.35H37.4657C37.2585 33.35 37.0598 33.4323 36.9133 33.5788C36.7668 33.7253 36.6845 33.924 36.6845 34.1312V49.7242H35.6773V37.8464C35.6774 37.714 35.6438 37.5838 35.5797 37.4679L33.3504 33.443C33.2768 33.3285 33.1757 33.2343 33.0562 33.1691C32.9368 33.1039 32.8029 33.0697 32.6668 33.0697C32.5307 33.0697 32.3968 33.1039 32.2773 33.1691C32.1579 33.2343 32.0568 33.3285 31.9832 33.443L29.7539 37.4679C29.6898 37.5838 29.6562 37.714 29.6563 37.8464V49.7242H28.7656C28.5584 49.7242 28.3597 49.8065 28.2132 49.953C28.0667 50.0995 27.9844 50.2982 27.9844 50.5054V68.338C27.9847 69.4819 28.4388 70.579 29.2469 71.3885C30.0551 72.198 31.1514 72.6539 32.2952 72.6562C43.5245 72.6562 43.027 72.7172 43.8082 72.5468C43.9218 72.6155 44.0514 72.6532 44.1841 72.6562H72.2336C72.3362 72.6563 72.4378 72.6361 72.5326 72.5969C72.6274 72.5576 72.7136 72.5001 72.7862 72.4275C72.8587 72.355 72.9163 72.2688 72.9555 72.174C72.9947 72.0792 73.0149 71.9776 73.0148 71.875V35.6815C73.0066 35.475 72.9246 35.2782 72.7837 35.1269ZM65.3982 30.0007L70.3366 34.9002H65.3982V30.0007ZM38.247 34.9125H40.8334V49.7242H38.247V34.9125ZM31.2185 38.0482L32.6666 35.434L34.1146 38.0482V49.7242H31.2185V38.0482ZM32.2952 71.0937C31.5656 71.0919 30.8665 70.8008 30.3513 70.2841C29.8361 69.7675 29.5469 69.0676 29.5471 68.338V51.2863H45.6315V68.338C45.6341 68.8899 45.4703 69.4297 45.1615 69.887C44.8527 70.3444 44.4132 70.6981 43.9004 70.9019C43.1191 71.204 43.3663 71.0937 32.2952 71.0937ZM46.2107 71.0937C47.5154 69.5143 47.1941 69.9639 47.1941 50.5054C47.1941 50.2982 47.1118 50.0995 46.9653 49.953C46.8188 49.8065 46.6201 49.7242 46.4129 49.7242H44.9654V28.9062H63.8357V35.6815C63.8357 35.8887 63.918 36.0875 64.0645 36.234C64.211 36.3805 64.4098 36.4628 64.617 36.4628H71.4521V71.0937H46.2107Z" fill="#47072C"/>
<path d="M48.1562 38.7212H56.7016V40.2837H48.1562V38.7212Z" fill="#47072C"/>
<path d="M48.1562 35.0586H61.7797V36.6211H48.1562V35.0586Z" fill="#47072C"/>
<path d="M48.1562 31.1221H61.7797V32.6846H48.1562V31.1221Z" fill="#47072C"/>
<path d="M48.1562 42.3828H56.7016V43.9453H48.1562V42.3828Z" fill="#47072C"/>
<path d="M48.1562 46.0454H56.7016V47.6079H48.1562V46.0454Z" fill="#47072C"/>
<path d="M48.1562 49.707H68.1109V51.2695H48.1562V49.707Z" fill="#47072C"/>
<path d="M48.1562 53.3696H68.1109V54.9321H48.1562V53.3696Z" fill="#47072C"/>
<path d="M48.1562 57.0312H68.1109V58.5938H48.1562V57.0312Z" fill="#47072C"/>
<path d="M48.1562 60.6938H68.1109V62.2563H48.1562V60.6938Z" fill="#47072C"/>
<path d="M48.1562 64.3555H68.1109V65.918H48.1562V64.3555Z" fill="#47072C"/>
<path d="M48.1562 68.0181H68.1109V69.5806H48.1562V68.0181Z" fill="#47072C"/>
<path d="M68.1104 38.7207H58.9463C58.7391 38.7207 58.5404 38.803 58.3939 38.9495C58.2473 39.096 58.165 39.2948 58.165 39.502V46.8262C58.165 47.0334 58.2473 47.2321 58.3939 47.3786C58.5404 47.5251 58.7391 47.6074 58.9463 47.6074H68.1104C68.3176 47.6074 68.5163 47.5251 68.6628 47.3786C68.8093 47.2321 68.8916 47.0334 68.8916 46.8262V39.502C68.8916 39.2948 68.8093 39.096 68.6628 38.9495C68.5163 38.803 68.3176 38.7207 68.1104 38.7207ZM67.3291 46.0449H59.7275V40.2832H67.3291V46.0449Z" fill="#E6582A"/>
</svg>
