<svg width="32" height="32" viewBox="0 0 32 32" fill="none" xmlns="http://www.w3.org/2000/svg">
<g clip-path="url(#clip0_2270_56816)">
<path d="M29.8722 16.4146C29.8087 16.2857 29.7757 16.1438 29.7757 16.0001C29.7757 15.8564 29.8087 15.7146 29.8722 15.5857L31.0657 13.1441C31.7302 11.7847 31.2037 10.1644 29.8671 9.45519L27.4665 8.18144C27.3393 8.11448 27.2292 8.01919 27.1448 7.90292C27.0603 7.78665 27.0036 7.65252 26.9792 7.51089L26.5097 4.83409C26.2483 3.34372 24.8697 2.34223 23.3718 2.55416L20.681 2.93479C20.5387 2.95535 20.3937 2.94294 20.257 2.89852C20.1203 2.8541 19.9956 2.77886 19.8927 2.6786L17.9395 0.789113C16.8519 -0.263006 15.1482 -0.263069 14.0607 0.789113L12.1075 2.67879C12.0045 2.77902 11.8798 2.85425 11.7431 2.89867C11.6065 2.94309 11.4614 2.95551 11.3191 2.93498L8.62835 2.55435C7.12992 2.34229 5.75181 3.34391 5.49037 4.83428L5.02087 7.51095C4.99647 7.65258 4.93985 7.78672 4.85538 7.90299C4.77091 8.01927 4.66084 8.11458 4.53369 8.18157L2.13308 9.45531C0.796461 10.1644 0.269964 11.7849 0.93446 13.1443L2.12789 15.5858C2.19142 15.7147 2.22446 15.8565 2.22446 16.0002C2.22446 16.144 2.19142 16.2858 2.12789 16.4147L0.934397 18.8562C0.269901 20.2156 0.796398 21.8359 2.13302 22.5451L4.53363 23.8189C4.66079 23.8858 4.77087 23.9811 4.85535 24.0974C4.93984 24.2136 4.99647 24.3478 5.02087 24.4894L5.49037 27.1662C5.72837 28.5229 6.89174 29.4744 8.22879 29.4743C8.36048 29.4743 8.4941 29.4651 8.62841 29.4461L11.3192 29.0654C11.4615 29.0449 11.6065 29.0573 11.7432 29.1017C11.8799 29.1461 12.0045 29.2214 12.1075 29.3216L14.0607 31.2111C14.6046 31.7372 15.3022 32.0002 16.0001 32.0002C16.6977 32.0001 17.3958 31.7371 17.9394 31.2111L19.8927 29.3216C20.1034 29.1178 20.3907 29.0247 20.681 29.0654L23.3718 29.4461C24.8704 29.6581 26.2483 28.6565 26.5097 27.1661L26.9793 24.4895C27.0037 24.3478 27.0603 24.2137 27.1448 24.0974C27.2293 23.9811 27.3393 23.8858 27.4665 23.8189L29.8671 22.5451C31.2037 21.836 31.7302 20.2156 31.0657 18.8561L29.8722 16.4146ZM29.002 20.9147L26.6014 22.1884C25.8361 22.5946 25.3111 23.317 25.1614 24.1705L24.6919 26.8472C24.6505 27.0889 24.5164 27.3048 24.318 27.4489C24.1197 27.593 23.8729 27.6539 23.6303 27.6186L20.9395 27.238C20.0813 27.1164 19.2322 27.3926 18.6094 27.995L16.6562 29.8844C16.4806 30.0556 16.2452 30.1513 16 30.1513C15.7549 30.1513 15.5194 30.0556 15.3439 29.8844L13.3907 27.995C12.8643 27.4858 12.1762 27.2098 11.4578 27.2098C11.3262 27.2098 11.1935 27.2191 11.0606 27.2379L8.36985 27.6185C8.12725 27.6537 7.88048 27.5928 7.68216 27.4487C7.48383 27.3046 7.34963 27.0888 7.30817 26.8471L6.83861 24.1704C6.68886 23.3169 6.16399 22.5944 5.39856 22.1884L2.99795 20.9146C2.78091 20.8006 2.61703 20.6063 2.54126 20.3731C2.4655 20.1399 2.48384 19.8864 2.59239 19.6666L3.78588 17.225C4.16638 16.4465 4.16638 15.5537 3.78588 14.7752L2.59239 12.3336C2.48384 12.1138 2.4655 11.8602 2.54126 11.6271C2.61703 11.3939 2.78091 11.1996 2.99795 11.0856L5.39856 9.81181C6.16393 9.40563 6.68886 8.68325 6.83855 7.82976L7.30805 5.15302C7.34945 4.91138 7.48363 4.69547 7.68197 4.55137C7.88032 4.40726 8.12712 4.34636 8.36973 4.38165L11.0605 4.76228C11.9183 4.88371 12.7678 4.60765 13.3906 4.00522L15.3438 2.11573C15.5194 1.9446 15.7548 1.84883 16 1.84883C16.2451 1.84883 16.4806 1.9446 16.6561 2.11573L18.6093 4.00522C19.2321 4.60772 20.0814 4.88371 20.9393 4.76228L23.6301 4.38165C23.8727 4.34639 24.1195 4.40731 24.3179 4.55141C24.5162 4.69551 24.6504 4.91139 24.6918 5.15302L25.1613 7.82982C25.3111 8.68332 25.8359 9.40575 26.6014 9.81181L29.002 11.0856C29.219 11.1996 29.3829 11.3939 29.4587 11.6271C29.5344 11.8602 29.5161 12.1138 29.4075 12.3336L28.2141 14.7751C27.8336 15.5535 27.8336 16.4465 28.2141 17.225L29.4075 19.6664C29.5161 19.8863 29.5345 20.1399 29.4587 20.3731C29.383 20.6063 29.2191 20.8006 29.002 20.9147Z" fill="#E6582A"/>
<path d="M22.7425 9.2578C22.3822 8.89743 21.7978 8.89743 21.4374 9.2578L9.25693 21.4384C8.89655 21.7987 8.89655 22.383 9.25693 22.7434C9.34252 22.8292 9.44423 22.8973 9.5562 22.9437C9.66818 22.9901 9.78822 23.0139 9.90942 23.0137C10.1455 23.0137 10.3818 22.9237 10.5619 22.7434L22.7424 10.5629C23.1029 10.2025 23.1029 9.61824 22.7425 9.2578ZM12.3085 7.69531C10.4427 7.69531 8.9248 9.21324 8.9248 11.079C8.9248 12.9447 10.4427 14.4626 12.3085 14.4626C14.1742 14.4626 15.6921 12.9447 15.6921 11.079C15.6921 9.21324 14.1742 7.69531 12.3085 7.69531ZM12.3085 12.617C11.4604 12.617 10.7705 11.927 10.7705 11.0789C10.7705 10.2309 11.4604 9.54093 12.3085 9.54093C13.1565 9.54093 13.8465 10.2309 13.8465 11.0789C13.8465 11.927 13.1565 12.617 12.3085 12.617ZM19.6909 17.5386C17.8252 17.5386 16.3073 19.0566 16.3073 20.9223C16.3073 22.788 17.8252 24.306 19.6909 24.306C21.5567 24.306 23.0746 22.788 23.0746 20.9223C23.0746 19.0566 21.5567 17.5386 19.6909 17.5386ZM19.6909 22.4603C18.8429 22.4603 18.1529 21.7704 18.1529 20.9223C18.1529 20.0742 18.8428 19.3843 19.6909 19.3843C20.539 19.3843 21.2289 20.0742 21.2289 20.9223C21.2289 21.7704 20.539 22.4603 19.6909 22.4603Z" fill="#E6582A"/>
</g>
<defs>
<clipPath id="clip0_2270_56816">
<rect width="32" height="32" fill="white"/>
</clipPath>
</defs>
</svg>
