<svg width="26" height="25" viewBox="0 0 26 25" fill="none" xmlns="http://www.w3.org/2000/svg">
<path d="M19.6677 12.9167H14.6677V8.75C14.6677 8.04159 14.1261 7.5 13.4177 7.5H13.0011C12.2926 7.5 11.7511 8.04159 11.7511 8.75V14.1667H10.9177C10.2093 14.1667 9.66772 14.7083 9.66772 15.4167V18.4583L12.1677 23.0416V25H19.6677V23.0001L20.9177 20.0834V14.1667C20.9177 13.4583 20.3761 12.9167 19.6677 12.9167ZM13.0011 24.1667V23.3333H18.8344V24.1667H13.0011ZM20.0844 19.9166L18.9593 22.5H12.8344L10.5011 18.2084V15.4167C10.5011 15.1666 10.6677 15 10.9177 15H11.7511V16.6667H12.5844V8.75C12.5844 8.49996 12.751 8.33333 13.0011 8.33333H13.4177C13.6678 8.33333 13.8344 8.49996 13.8344 8.75V15.8333H14.6677V13.75H15.9177V15.8333H16.7511V13.75H18.0011V15.8333H18.8344V13.75H19.6677C19.9178 13.75 20.0844 13.9166 20.0844 14.1667V19.9166Z" fill="#47072C"/>
<path d="M18.0002 20.2917L17.2502 21.4166L17.9167 21.9167L18.8335 20.5416V18.75H18.0002V20.2917Z" fill="#47072C"/>
<path d="M21.2091 0H4.79224L2.58398 5.74992V21.25H10.084V20.4167H3.41732V6.25H8.41732V5.41667H3.62565L4.70903 2.5H9.66732V1.66667H5.04228L5.37573 0.833333H20.6256L20.959 1.66667H16.334V2.5H21.2923L22.3757 5.41667H17.584V6.25H22.584V20.4167H21.7507V21.25H23.4173V5.74992L21.2091 0Z" fill="#47072C"/>
<path d="M11.6245 5.125L11.041 5.7085L12.1661 6.83337L14.5412 4.4585L13.9577 3.875L12.1661 5.66679L11.6245 5.125Z" fill="#E6582A"/>
<path d="M15.8344 7.91708C17.2095 6.37533 17.0429 4.00045 15.5011 2.62533C13.9179 1.25041 11.5428 1.37533 10.1679 2.91708C8.79276 4.45882 8.95939 6.8337 10.5011 8.20882L11.0427 7.58382C9.83443 6.50045 9.70951 4.66716 10.7929 3.45866C11.8761 2.25037 13.7096 2.12545 14.9178 3.20882C16.1261 4.29199 16.2511 6.12549 15.1679 7.33378L15.8344 7.91708Z" fill="#E6582A"/>
</svg>
