<svg width="32" height="32" viewBox="0 0 32 32" fill="none" xmlns="http://www.w3.org/2000/svg">
<g clip-path="url(#clip0_1954_25097)">
<rect width="32" height="32" rx="10" fill="#F4F6F8"/>
<g clip-path="url(#clip1_1954_25097)">
<path d="M28.5422 32H3.45777C1.54813 32 0 30.4519 0 28.5422V3.45777C0 1.54813 1.54813 0 3.45777 0H28.5422C30.4519 0 32 1.54813 32 3.45777V28.5422C32 30.4519 30.4519 32 28.5422 32Z" fill="#637381"/>
<path d="M8.50187 12.2051C8.78572 11.8501 8.97831 11.3734 8.92756 10.8862C8.51205 10.9069 8.00501 11.1603 7.71142 11.5157C7.44785 11.82 7.21456 12.3166 7.27537 12.7833C7.74176 12.8238 8.20778 12.5502 8.50187 12.2051Z" fill="white"/>
<path d="M8.92225 12.8745C8.24486 12.8342 7.66897 13.259 7.34547 13.259C7.02179 13.259 6.52643 12.8948 5.99068 12.9047C5.29331 12.9149 4.64632 13.3092 4.29242 13.9363C3.56458 15.1908 4.10033 17.0516 4.80813 18.0733C5.15185 18.5788 5.56612 19.1354 6.11192 19.1154C6.62762 19.0951 6.82976 18.7814 7.45665 18.7814C8.08305 18.7814 8.26515 19.1153 8.81107 19.1052C9.37722 19.0951 9.73112 18.5995 10.0748 18.0935C10.4691 17.5173 10.6306 16.9609 10.6407 16.9304C10.6306 16.9203 9.54908 16.5054 9.53903 15.2614C9.52879 14.2197 10.3881 13.7242 10.4286 13.6935C9.94331 12.9758 9.18507 12.8949 8.92225 12.8745Z" fill="white"/>
<path d="M14.8194 11.4648C16.2917 11.4648 17.3169 12.4797 17.3169 13.9572C17.3169 15.4401 16.2706 16.4602 14.7824 16.4602H13.1524V19.0525H11.9746V11.4648H14.8194ZM13.1524 15.4716H14.5038C15.5292 15.4716 16.1128 14.9196 16.1128 13.9625C16.1128 13.0055 15.5292 12.4587 14.5091 12.4587H13.1524V15.4716Z" fill="white"/>
<path d="M17.625 17.4803C17.625 16.5127 18.3664 15.9185 19.681 15.8449L21.1953 15.7556V15.3297C21.1953 14.7145 20.7799 14.3464 20.0859 14.3464C19.4285 14.3464 19.0184 14.6619 18.9185 15.1562H17.8459C17.909 14.157 18.7607 13.4209 20.1279 13.4209C21.4687 13.4209 22.3257 14.1308 22.3257 15.2402V19.0524H21.2373V18.1427H21.2111C20.8904 18.758 20.191 19.1471 19.4654 19.1471C18.3822 19.1471 17.625 18.474 17.625 17.4803ZM21.1953 16.9808V16.5444L19.8334 16.6285C19.1551 16.6758 18.7713 16.9756 18.7713 17.4487C18.7713 17.9324 19.1709 18.2479 19.7809 18.2479C20.5748 18.248 21.1953 17.7011 21.1953 16.9808Z" fill="white"/>
<path d="M23.3535 21.0872V20.167C23.4375 20.188 23.6267 20.188 23.7214 20.188C24.2472 20.188 24.5312 19.9672 24.7047 19.3993C24.7047 19.3887 24.8047 19.0627 24.8047 19.0575L22.8066 13.5205H24.0369L25.4358 18.0216H25.4567L26.8555 13.5205H28.0544L25.9825 19.3413C25.5094 20.6823 24.9626 21.1134 23.8163 21.1134C23.7214 21.1135 23.4375 21.1029 23.3535 21.0872Z" fill="white"/>
</g>
</g>
<defs>
<clipPath id="clip0_1954_25097">
<rect width="32" height="32" rx="10" fill="white"/>
</clipPath>
<clipPath id="clip1_1954_25097">
<rect width="32" height="32" fill="white"/>
</clipPath>
</defs>
</svg>
