<svg width="101" height="100" viewBox="0 0 101 100" fill="none" xmlns="http://www.w3.org/2000/svg">
<rect x="0.5" width="100" height="100" rx="6" fill="#F9FAFB"/>
<g clip-path="url(#clip0_2403_50887)">
<path d="M34.582 39.8438H29.6992C29.4258 39.8438 29.2109 39.6289 29.2109 39.3555V36.4258C29.2109 36.1523 29.4258 35.9375 29.6992 35.9375H34.582C34.8555 35.9375 35.0703 36.1523 35.0703 36.4258V39.3555C35.0703 39.6289 34.8555 39.8438 34.582 39.8438ZM30.1875 38.8672H34.0938V36.9141H30.1875V38.8672Z" fill="#E6582A"/>
<path d="M36.2422 75C35.4023 75 34.6504 74.5898 34.1914 73.9551C33.7324 74.5898 32.9805 75 32.1406 75C31.3008 75 30.5488 74.5898 30.0898 73.9551C29.6309 74.5898 28.8789 75 28.0391 75C26.6426 75 25.5 73.8574 25.5 72.4609V58.2227C25.5 57.5293 25.8711 56.8945 26.4766 56.5527C26.7793 56.3867 26.9551 56.0742 26.9551 55.7324C26.9551 55.3906 26.7793 55.0781 26.4766 54.9121C25.8711 54.5605 25.5 53.916 25.5 53.2227V46.3867C25.5 43.4082 26.9648 40.625 29.4258 38.9453C29.5039 38.8965 29.6016 38.8672 29.6992 38.8672H34.582C34.6797 38.8672 34.7773 38.8965 34.8555 38.9551C37.3164 40.6348 38.7812 43.418 38.7812 46.3867V53.2227C38.7812 53.916 38.4102 54.5508 37.8047 54.8926C37.502 55.0586 37.3262 55.3711 37.3262 55.7129C37.3262 56.0547 37.502 56.3672 37.8047 56.5332C38.4102 56.875 38.7812 57.5195 38.7812 58.2031V72.4609C38.7812 73.8574 37.6387 75 36.2422 75ZM34.6797 72.4609C34.6797 73.3203 35.3828 74.0234 36.2422 74.0234C37.1016 74.0234 37.8047 73.3203 37.8047 72.4609V58.2227C37.8047 57.8809 37.6191 57.5684 37.3262 57.4023C36.7109 57.0605 36.3496 56.4355 36.3496 55.7324C36.3496 55.0293 36.7109 54.4043 37.3262 54.0625C37.6191 53.8965 37.8047 53.584 37.8047 53.2422V46.4062C37.8047 43.7988 36.5449 41.3672 34.4258 39.8633H29.8555C27.7363 41.3477 26.4766 43.7891 26.4766 46.3867V53.2227C26.4766 53.5645 26.6621 53.877 26.9551 54.043C27.5703 54.3848 27.9316 55.0098 27.9316 55.7129C27.9316 56.416 27.5703 57.041 26.9551 57.3828C26.6621 57.5488 26.4766 57.8613 26.4766 58.2031V72.4609C26.4766 73.3203 27.1797 74.0234 28.0391 74.0234C28.8984 74.0234 29.6016 73.3203 29.6016 72.4609C29.6016 72.1875 29.8164 71.9727 30.0898 71.9727C30.3633 71.9727 30.5781 72.1875 30.5781 72.4609C30.5781 73.3203 31.2812 74.0234 32.1406 74.0234C33 74.0234 33.7031 73.3203 33.7031 72.4609C33.7031 72.1875 33.918 71.9727 34.1914 71.9727C34.4648 71.9727 34.6797 72.1875 34.6797 72.4609Z" fill="#47072C"/>
<path d="M38.293 53.7109H25.9883C25.7148 53.7109 25.5 53.4961 25.5 53.2227V46.3867C25.5 46.1133 25.7148 45.8984 25.9883 45.8984H38.293C38.5664 45.8984 38.7812 46.1133 38.7812 46.3867V53.2227C38.7812 53.4961 38.5664 53.7109 38.293 53.7109ZM26.4766 52.7344H37.8047V46.875H26.4766V52.7344Z" fill="#E6582A"/>
<path d="M66.2227 44.043C65.1094 44.043 64.2695 42.5781 64.2695 40.625V28.418C64.2695 26.4648 65.1094 25 66.2227 25C67.3359 25 68.1758 26.4648 68.1758 28.418V40.625C68.1758 42.5781 67.3359 44.043 66.2227 44.043ZM66.2227 25.9766C65.8223 25.9766 65.2461 26.9238 65.2461 28.418V40.625C65.2461 42.1191 65.8223 43.0664 66.2227 43.0664C66.623 43.0664 67.1992 42.1191 67.1992 40.625V28.418C67.1992 26.9238 66.623 25.9766 66.2227 25.9766Z" fill="#47072C"/>
<path d="M70.1288 75H51.5742C51.3886 75 51.2128 74.8926 51.1347 74.7168L47.2285 66.3184C47.1601 66.1719 47.1699 65.9863 47.2578 65.8496C47.3456 65.7129 47.5019 65.625 47.6679 65.625H74.0351C74.2011 65.625 74.3574 65.7129 74.4453 65.8496C74.5331 65.9863 74.5429 66.1621 74.4745 66.3184L70.5683 74.7168C70.4902 74.8926 70.3144 75 70.1288 75ZM51.8867 74.0234H69.8163L73.2636 66.6016H48.4296L51.8867 74.0234Z" fill="#47072C"/>
<path d="M74.0352 66.6016H47.668C46.8574 66.6016 46.2031 65.9473 46.2031 65.1367C46.2031 64.3262 46.8574 63.6719 47.668 63.6719H74.0352C74.8457 63.6719 75.5 64.3262 75.5 65.1367C75.5 65.9473 74.8457 66.6016 74.0352 66.6016ZM47.668 64.6484C47.3945 64.6484 47.1797 64.8633 47.1797 65.1367C47.1797 65.4102 47.3945 65.625 47.668 65.625H74.0352C74.3086 65.625 74.5234 65.4102 74.5234 65.1367C74.5234 64.8633 74.3086 64.6484 74.0352 64.6484H47.668Z" fill="#47072C"/>
<path d="M74.0352 64.6484H47.668C46.8574 64.6484 46.2031 63.9941 46.2031 63.1836C46.2031 62.373 46.8574 61.7188 47.668 61.7188H74.0352C74.8457 61.7188 75.5 62.373 75.5 63.1836C75.5 63.9941 74.8457 64.6484 74.0352 64.6484ZM47.668 62.6953C47.3945 62.6953 47.1797 62.9102 47.1797 63.1836C47.1797 63.457 47.3945 63.6719 47.668 63.6719H74.0352C74.3086 63.6719 74.5234 63.457 74.5234 63.1836C74.5234 62.9102 74.3086 62.6953 74.0352 62.6953H47.668Z" fill="#47072C"/>
<path d="M74.0352 62.6953H47.668C47.502 62.6953 47.3457 62.6074 47.2578 62.4707C47.1699 62.334 47.1602 62.1582 47.2285 62.002L51.1348 53.6035C51.2129 53.4277 51.3887 53.3203 51.5742 53.3203H62.8047V54.2969H51.8867L48.4395 61.7188H73.2734L69.8262 54.2969H64.7578C64.4844 54.2969 64.2695 54.082 64.2695 53.8086V28.418C64.2695 27.4414 64.4844 26.5918 64.8262 25.9766H60.168C59.7676 25.9766 59.1914 26.9238 59.1914 28.418V38.3789C59.1914 39.8828 57.9609 41.1133 56.457 41.1133H53.5273C52.0234 41.1133 50.793 39.8828 50.793 38.3789V37.5C50.793 36.5332 50.002 35.7422 49.0352 35.7422H47.8633C46.8965 35.7422 46.1055 36.5332 46.1055 37.5V38.3789C46.1055 39.8828 44.875 41.1133 43.3711 41.1133H40.4414C38.9375 41.1133 37.707 39.8828 37.707 38.3789V28.418C37.707 27.4414 37.9219 26.5918 38.2637 25.9766H33.6055C33.2051 25.9766 32.6289 26.9238 32.6289 28.4082V34.4727H31.6523V28.4082C31.6523 26.4648 32.4922 25 33.6055 25H39.6602C39.9336 25 40.1484 25.2148 40.1484 25.4883C40.1484 25.7617 39.9336 25.9766 39.6602 25.9766C39.2598 25.9766 38.6836 26.9238 38.6836 28.418V38.3789C38.6836 39.3457 39.4746 40.1367 40.4414 40.1367H43.3711C44.3379 40.1367 45.1289 39.3457 45.1289 38.3789V37.5C45.1289 35.9961 46.3594 34.7656 47.8633 34.7656H49.0352C50.5391 34.7656 51.7695 35.9961 51.7695 37.5V38.3789C51.7695 39.3457 52.5605 40.1367 53.5273 40.1367H56.457C57.4238 40.1367 58.2148 39.3457 58.2148 38.3789V28.418C58.2148 26.4648 59.0547 25 60.168 25H66.2227C66.4961 25 66.7109 25.2148 66.7109 25.4883C66.7109 25.7617 66.4961 25.9766 66.2227 25.9766C65.8223 25.9766 65.2461 26.9238 65.2461 28.418V53.3203H70.1289C70.3145 53.3203 70.4902 53.4277 70.5684 53.6035L74.4746 62.002C74.543 62.1484 74.5332 62.334 74.4453 62.4707C74.3574 62.6074 74.2012 62.6953 74.0352 62.6953Z" fill="#47072C"/>
<path d="M32.1406 74.0234H64.7578V75H32.1406V74.0234Z" fill="#47072C"/>
<path d="M68.1758 53.8086H67.1992V28.4082C67.1992 26.9238 66.623 25.9766 66.2227 25.9766H60.168C59.7676 25.9766 59.1914 26.9238 59.1914 28.418V38.3789C59.1914 39.8828 57.9609 41.1133 56.457 41.1133C54.9531 41.1133 53.7227 39.8828 53.7227 38.3789V37.5C53.7227 36.5332 52.9316 35.7422 51.9648 35.7422H47.8633C46.8965 35.7422 46.1055 36.5332 46.1055 37.5V38.3789C46.1055 39.8828 44.875 41.1133 43.3711 41.1133C41.8672 41.1133 40.6367 39.8828 40.6367 38.3789V28.418C40.6367 26.9238 40.0605 25.9766 39.6602 25.9766V25C40.7734 25 41.6133 26.4648 41.6133 28.418V38.3789C41.6133 39.3457 42.4043 40.1367 43.3711 40.1367C44.3379 40.1367 45.1289 39.3457 45.1289 38.3789V37.5C45.1289 35.9961 46.3594 34.7656 47.8633 34.7656H51.9648C53.4688 34.7656 54.6992 35.9961 54.6992 37.5V38.3789C54.6992 39.3457 55.4902 40.1367 56.457 40.1367C57.4238 40.1367 58.2148 39.3457 58.2148 38.3789V28.418C58.2148 26.4648 59.0547 25 60.168 25H66.2227C67.3359 25 68.1758 26.4648 68.1758 28.4082V53.8086Z" fill="#47072C"/>
</g>
<defs>
<clipPath id="clip0_2403_50887">
<rect width="50" height="50" fill="white" transform="translate(25.5 25)"/>
</clipPath>
</defs>
</svg>
