<svg width="101" height="100" viewBox="0 0 101 100" fill="none" xmlns="http://www.w3.org/2000/svg">
<rect x="0.5" width="100" height="100" rx="6" fill="#F9FAFB"/>
<g clip-path="url(#clip0_2403_50915)">
<path d="M54.6667 43.9375L73.0208 47.5833C74.5 47.8958 75.5 49.1458 75.5 50.625V71.875C75.5 73.6042 74.1042 75 72.375 75H53.625C54.2083 75 54.6667 74.5417 54.6667 73.9583V72.9167H72.375C72.9375 72.9167 73.4167 72.4583 73.4167 71.875V50.625C73.4167 50.1458 73.0833 49.7083 72.6042 49.6042L54.6667 46.0625V43.9375Z" fill="#47072C"/>
<path d="M66.1253 54.1665C66.7087 54.1665 67.167 54.6248 67.167 55.2082C67.167 55.7915 66.7087 56.2498 66.1253 56.2498H61.9587C61.3753 56.2498 60.917 55.7915 60.917 55.2082C60.917 54.6248 61.3753 54.1665 61.9587 54.1665H66.1253Z" fill="#47072C"/>
<path d="M66.1253 60.4165C66.7087 60.4165 67.167 60.8748 67.167 61.4582C67.167 62.0415 66.7087 62.4998 66.1253 62.4998H61.9587C61.3753 62.4998 60.917 62.0415 60.917 61.4582C60.917 60.8748 61.3753 60.4165 61.9587 60.4165H66.1253Z" fill="#E6582A"/>
<path d="M66.1253 66.6665C66.7087 66.6665 67.167 67.1248 67.167 67.7082C67.167 68.2915 66.7087 68.7498 66.1253 68.7498H61.9587C61.3753 68.7498 60.917 68.2915 60.917 67.7082C60.917 67.1248 61.3753 66.6665 61.9587 66.6665H66.1253Z" fill="#47072C"/>
<path d="M54.6663 73.958C54.6663 74.5414 54.208 74.9997 53.6247 74.9997C53.0413 74.9997 52.583 74.5414 52.583 73.958V72.9164V44.7914C52.583 44.4789 52.7288 44.1872 52.958 43.9789C53.208 43.7914 53.5205 43.708 53.833 43.7705L54.6663 43.9372V46.0622V72.9164V73.958Z" fill="#47072C"/>
<path d="M52.5837 72.9165V73.9582C52.5837 74.5415 53.042 74.9998 53.6253 74.9998H45.292C45.8753 74.9998 46.3337 74.5415 46.3337 73.9582V72.9165H52.5837Z" fill="#47072C"/>
<path d="M47.3753 35.4165C47.9587 35.4165 48.417 35.8748 48.417 36.4582C48.417 37.0415 47.9587 37.4998 47.3753 37.4998H43.2087C42.6253 37.4998 42.167 37.0415 42.167 36.4582C42.167 35.8748 42.6253 35.4165 43.2087 35.4165H47.3753Z" fill="#47072C"/>
<path d="M48.417 42.7082C48.417 43.2915 47.9587 43.7498 47.3753 43.7498H43.2087C42.6253 43.7498 42.167 43.2915 42.167 42.7082C42.167 42.1248 42.6253 41.6665 43.2087 41.6665H47.3753C47.9587 41.6665 48.417 42.1248 48.417 42.7082Z" fill="#E6582A"/>
<path d="M47.3753 47.9165C47.9587 47.9165 48.417 48.3748 48.417 48.9582C48.417 49.5415 47.9587 49.9998 47.3753 49.9998H43.2087C42.6253 49.9998 42.167 49.5415 42.167 48.9582C42.167 48.3748 42.6253 47.9165 43.2087 47.9165H47.3753Z" fill="#47072C"/>
<path d="M47.3753 54.1665C47.9587 54.1665 48.417 54.6248 48.417 55.2082C48.417 55.7915 47.9587 56.2498 47.3753 56.2498H43.2087C42.6253 56.2498 42.167 55.7915 42.167 55.2082C42.167 54.6248 42.6253 54.1665 43.2087 54.1665H47.3753Z" fill="#47072C"/>
<path d="M38 55.2082C38 55.7915 37.5417 56.2498 36.9583 56.2498H32.7917C32.2083 56.2498 31.75 55.7915 31.75 55.2082C31.75 54.6248 32.2083 54.1665 32.7917 54.1665H36.9583C37.5417 54.1665 38 54.6248 38 55.2082Z" fill="#47072C"/>
<path d="M36.9583 35.4165C37.5417 35.4165 38 35.8748 38 36.4582C38 37.0415 37.5417 37.4998 36.9583 37.4998H32.7917C32.2083 37.4998 31.75 37.0415 31.75 36.4582C31.75 35.8748 32.2083 35.4165 32.7917 35.4165H36.9583Z" fill="#E6582A"/>
<path d="M36.9583 41.6665C37.5417 41.6665 38 42.1248 38 42.7082C38 43.2915 37.5417 43.7498 36.9583 43.7498H32.7917C32.2083 43.7498 31.75 43.2915 31.75 42.7082C31.75 42.1248 32.2083 41.6665 32.7917 41.6665H36.9583Z" fill="#47072C"/>
<path d="M36.9583 47.9165C37.5417 47.9165 38 48.3748 38 48.9582C38 49.5415 37.5417 49.9998 36.9583 49.9998H32.7917C32.2083 49.9998 31.75 49.5415 31.75 48.9582C31.75 48.3748 32.2083 47.9165 32.7917 47.9165H36.9583Z" fill="#47072C"/>
<path d="M44.2497 63.5415C44.2497 62.9582 43.7705 62.4998 43.208 62.4998H36.958C36.3747 62.4998 35.9163 62.9582 35.9163 63.5415V72.9165H33.833V63.5415C33.833 61.8123 35.2288 60.4165 36.958 60.4165H43.208C44.9372 60.4165 46.333 61.8123 46.333 63.5415V72.9165H44.2497V63.5415Z" fill="#47072C"/>
<path d="M35.9163 72.9165H44.2497H46.333V73.9582C46.333 74.5415 45.8747 74.9998 45.2913 74.9998H34.8747C34.2913 74.9998 33.833 74.5415 33.833 73.9582V72.9165H35.9163Z" fill="#47072C"/>
<path d="M29.1458 25.4165L52.0417 28.8957C53.5625 29.1457 54.6667 30.4374 54.6667 31.979V43.9374L53.8333 43.7707C53.5208 43.7082 53.2083 43.7915 52.9583 43.979C52.7292 44.1874 52.5833 44.479 52.5833 44.7915V31.979C52.5833 31.4582 52.2083 31.0207 51.7083 30.9374L28.8125 27.479C28.75 27.4582 28.6875 27.4582 28.625 27.4582C28.375 27.4582 28.1458 27.5415 27.9583 27.7082C27.7083 27.9165 27.5833 28.1874 27.5833 28.4999V71.8749C27.5833 72.4582 28.0625 72.9165 28.625 72.9165H33.8333V73.9582C33.8333 74.5415 34.2917 74.9999 34.875 74.9999H28.625C26.8958 74.9999 25.5 73.604 25.5 71.8749V28.4999C25.5 27.5832 25.8958 26.7082 26.6042 26.1249C27.3125 25.5207 28.2292 25.2707 29.1458 25.4165Z" fill="#47072C"/>
</g>
<defs>
<clipPath id="clip0_2403_50915">
<rect width="50" height="50" fill="white" transform="translate(25.5 25)"/>
</clipPath>
</defs>
</svg>
