<svg width="101" height="100" viewBox="0 0 101 100" fill="none" xmlns="http://www.w3.org/2000/svg">
<rect x="0.5" width="100" height="100" rx="6" fill="#F9FAFB"/>
<path d="M73.1562 53.9062C73.3634 53.9062 73.5622 53.8239 73.7087 53.6774C73.8552 53.5309 73.9375 53.3322 73.9375 53.125V46.875C73.9375 46.6678 73.8552 46.4691 73.7087 46.3226C73.5622 46.1761 73.3634 46.0938 73.1562 46.0938H68.8336C68.3587 43.8532 67.4749 41.7194 66.2266 39.7992L69.2797 36.7391C69.4259 36.5926 69.508 36.3941 69.508 36.1871C69.508 35.9801 69.4259 35.7816 69.2797 35.6352L64.8656 31.2211C64.7192 31.0749 64.5206 30.9927 64.3137 30.9927C64.1067 30.9927 63.9082 31.0749 63.7617 31.2211L60.7008 34.2734C58.7806 33.0251 56.6468 32.1413 54.4062 31.6664V27.3438C54.4062 27.1365 54.3239 26.9378 54.1774 26.7913C54.0309 26.6448 53.8322 26.5625 53.625 26.5625H47.375C47.1678 26.5625 46.9691 26.6448 46.8226 26.7913C46.6761 26.9378 46.5938 27.1365 46.5938 27.3438V31.6664C44.3532 32.1413 42.2194 33.0251 40.2992 34.2734L37.2391 31.2203C37.0926 31.0741 36.8941 30.992 36.6871 30.992C36.4801 30.992 36.2816 31.0741 36.1352 31.2203L31.7211 35.6344C31.5749 35.7808 31.4927 35.9794 31.4927 36.1863C31.4927 36.3933 31.5749 36.5918 31.7211 36.7383L34.7742 39.7984C33.5255 41.7188 32.6414 43.8529 32.1664 46.0938H27.8438C27.6365 46.0938 27.4378 46.1761 27.2913 46.3226C27.1448 46.4691 27.0625 46.6678 27.0625 46.875V53.125C27.0625 53.3322 27.1448 53.5309 27.2913 53.6774C27.4378 53.8239 27.6365 53.9062 27.8438 53.9062H32.1664C32.6413 56.1468 33.5251 58.2806 34.7734 60.2008L31.7203 63.2609C31.5741 63.4074 31.492 63.6059 31.492 63.8129C31.492 64.0199 31.5741 64.2184 31.7203 64.3648L36.1344 68.7789C36.2808 68.9251 36.4794 69.0073 36.6863 69.0073C36.8933 69.0073 37.0918 68.9251 37.2383 68.7789L40.2984 65.7258C42.2188 66.9745 44.3529 67.8586 46.5938 68.3336V72.6562C46.5938 72.8634 46.6761 73.0622 46.8226 73.2087C46.9691 73.3552 47.1678 73.4375 47.375 73.4375H53.625C53.8322 73.4375 54.0309 73.3552 54.1774 73.2087C54.3239 73.0622 54.4062 72.8634 54.4062 72.6562V68.3336C56.6461 67.8568 58.7791 66.9718 60.6984 65.7227L67.0727 72.0969C67.8063 72.8241 68.7982 73.2312 69.8312 73.2289C70.8643 73.2267 71.8543 72.8153 72.5848 72.0848C73.3153 71.3543 73.7267 70.3643 73.7289 69.3312C73.7312 68.2982 73.3241 67.3063 72.5969 66.5727L66.2227 60.1984C67.4718 58.2791 68.3568 56.1461 68.8336 53.9062H73.1562ZM71.4922 70.9922C71.2745 71.2099 71.0162 71.3825 70.7318 71.5004C70.4474 71.6182 70.1426 71.6788 69.8348 71.6788C69.5269 71.6788 69.2221 71.6182 68.9378 71.5004C68.6534 71.3825 68.395 71.2099 68.1773 70.9922L53.218 56.0336C52.8546 55.6707 52.4231 55.3834 51.9481 55.1882C51.4732 54.9929 50.9643 54.8937 50.4508 54.8961C50.2879 54.896 50.1251 54.9057 49.9633 54.925C48.9497 55.0467 47.9217 54.9181 46.9694 54.5504C46.017 54.1827 45.1694 53.5871 44.5006 52.8158C43.8318 52.0445 43.3624 51.121 43.1333 50.1261C42.9043 49.1313 42.9226 48.0955 43.1867 47.1094L46.6328 50.5563C46.7793 50.7028 46.978 50.7851 47.1852 50.7852H50.5C50.7072 50.7852 50.9059 50.7028 51.0524 50.5563C51.1989 50.4098 51.2812 50.2111 51.2812 50.0039V46.6852C51.2812 46.478 51.1989 46.2793 51.0523 46.1328L47.6094 42.6867C48.5953 42.4232 49.6307 42.4053 50.6251 42.6347C51.6196 42.864 52.5426 43.3336 53.3135 44.0023C54.0844 44.671 54.6797 45.5184 55.0473 46.4704C55.4148 47.4224 55.5434 48.45 55.4219 49.4633C55.3465 50.0544 55.4072 50.6549 55.5993 51.219C55.7915 51.7831 56.1099 52.2958 56.5305 52.718L71.4922 67.6773C71.7099 67.895 71.8825 68.1534 72.0004 68.4378C72.1182 68.7221 72.1788 69.0269 72.1788 69.3348C72.1788 69.6426 72.1182 69.9474 72.0004 70.2318C71.8825 70.5162 71.7099 70.7745 71.4922 70.9922ZM57.6383 51.6172C57.3855 51.3618 57.1946 51.0519 57.08 50.7114C56.9655 50.3708 56.9304 50.0086 56.9773 49.6523C57.1448 48.2637 56.936 46.8555 56.373 45.5752C55.8099 44.2948 54.9132 43.1892 53.7766 42.374C52.64 41.5587 51.3053 41.0639 49.912 40.941C48.5187 40.8182 47.1179 41.072 45.8563 41.6758C45.7437 41.7298 45.6457 41.8101 45.5705 41.9098C45.4953 42.0095 45.4451 42.1258 45.4242 42.2489C45.4032 42.3721 45.4121 42.4984 45.45 42.6174C45.4879 42.7364 45.5538 42.8445 45.6422 42.9328L49.7188 47.0086V49.2188H47.5086L43.4328 45.1422C43.3445 45.0538 43.2364 44.9879 43.1174 44.95C42.9984 44.9121 42.8721 44.9032 42.7489 44.9242C42.6258 44.9451 42.5095 44.9953 42.4098 45.0705C42.3101 45.1457 42.2298 45.2437 42.1758 45.3563C41.5722 46.6176 41.3184 48.0179 41.4411 49.4108C41.5637 50.8037 42.0583 52.1381 42.873 53.2745C43.6878 54.4109 44.7928 55.3076 46.0726 55.8709C47.3525 56.4342 48.7601 56.6434 50.1484 56.4766C50.5047 56.4297 50.867 56.465 51.2076 56.5797C51.5481 56.6944 51.8579 56.8855 52.1133 57.1383L56.132 61.1562C53.4771 62.4974 50.4312 62.8486 47.5407 62.1468C44.6503 61.4449 42.1046 59.7359 40.3604 57.3266C38.6163 54.9172 37.7878 51.9651 38.0237 49C38.2597 46.035 39.5445 43.251 41.6478 41.1478C43.751 39.0445 46.535 37.7597 49.5 37.5237C52.4651 37.2878 55.4172 38.1163 57.8266 39.8604C60.2359 41.6046 61.9449 44.1503 62.6468 47.0407C63.3486 49.9312 62.9974 52.9771 61.6562 55.632L57.6383 51.6172ZM67.418 52.9969C67.0412 55.1531 66.2524 57.2166 65.0945 59.0742L62.8102 56.7898C64.4491 53.8198 64.9607 50.3579 64.2507 47.0408C63.5407 43.7238 61.657 40.7745 58.9459 38.7356C56.2348 36.6967 52.8787 35.7051 49.4949 35.9434C46.111 36.1816 42.927 37.6336 40.5283 40.0322C38.1297 42.4309 36.6777 45.6149 36.4395 48.9988C36.2012 52.3826 37.1928 55.7387 39.2317 58.4498C41.2706 61.1609 44.2199 63.0446 47.5369 63.7546C50.854 64.4646 54.3159 63.953 57.2859 62.3141L59.5703 64.5984C57.7127 65.7563 55.6492 66.5451 53.493 66.9219C53.3121 66.9529 53.1478 67.0466 53.0291 67.1866C52.9104 67.3266 52.8448 67.5039 52.8438 67.6875V71.875H48.1562V67.6875C48.1561 67.5033 48.0909 67.325 47.9721 67.1842C47.8533 67.0434 47.6886 66.9491 47.507 66.918C45.0425 66.4866 42.7035 65.5172 40.6562 64.0789C40.5058 63.9732 40.3229 63.9239 40.1397 63.9398C39.9565 63.9556 39.7847 64.0356 39.6547 64.1656L36.6922 67.1227L33.3813 63.8117L36.3383 60.8492C36.4683 60.7192 36.5483 60.5474 36.5641 60.3642C36.58 60.181 36.5307 59.9981 36.425 59.8477C34.9862 57.7993 34.0168 55.4588 33.5859 52.993C33.5547 52.8107 33.4598 52.6455 33.3182 52.5266C33.1766 52.4077 32.9974 52.3429 32.8125 52.3438H28.625V47.6562H32.8125C32.9967 47.6561 33.175 47.5909 33.3158 47.4721C33.4566 47.3533 33.5509 47.1886 33.582 47.007C34.0134 44.5425 34.9828 42.2035 36.4211 40.1562C36.5268 40.0058 36.5761 39.8229 36.5602 39.6397C36.5444 39.4565 36.4644 39.2847 36.3344 39.1547L33.3773 36.1922L36.6883 32.8813L39.6508 35.8383C39.7808 35.9683 39.9526 36.0483 40.1358 36.0641C40.319 36.08 40.5019 36.0307 40.6523 35.925C42.7007 34.4862 45.0412 33.5168 47.507 33.0859C47.6893 33.0547 47.8545 32.9598 47.9734 32.8182C48.0923 32.6766 48.1571 32.4974 48.1562 32.3125V28.125H52.8438V32.3125C52.8439 32.4967 52.9091 32.675 53.0279 32.8158C53.1467 32.9566 53.3114 33.0509 53.493 33.082C55.9588 33.5129 58.2993 34.4823 60.3477 35.9211C60.4981 36.0268 60.681 36.0761 60.8642 36.0602C61.0474 36.0444 61.2192 35.9644 61.3492 35.8344L64.3117 32.8773L67.6227 36.1883L64.6656 39.1508C64.5356 39.2808 64.4556 39.4526 64.4398 39.6358C64.4239 39.819 64.4732 40.0019 64.5789 40.1523C66.0177 42.2007 66.9871 44.5412 67.418 47.007C67.4491 47.1886 67.5434 47.3533 67.6842 47.4721C67.825 47.5909 68.0033 47.6561 68.1875 47.6562H72.375V52.3438H68.1875C68.0033 52.3439 67.825 52.4091 67.6842 52.5279C67.5434 52.6467 67.4491 52.8114 67.418 52.993V52.9969Z" fill="#47072C"/>
<path d="M55.4721 53.8674C55.4 53.7928 55.3138 53.7333 55.2185 53.6923C55.1232 53.6514 55.0207 53.6298 54.9169 53.6289C54.8132 53.628 54.7103 53.6478 54.6143 53.6871C54.5183 53.7264 54.4311 53.7844 54.3577 53.8577C54.2844 53.9311 54.2264 54.0183 54.1871 54.1143C54.1478 54.2103 54.128 54.3132 54.1289 54.4169C54.1298 54.5207 54.1514 54.6232 54.1923 54.7185C54.2333 54.8138 54.2928 54.9 54.3674 54.9721L54.9198 55.5244C55.0671 55.6668 55.2644 55.7455 55.4693 55.7437C55.6741 55.7419 55.8701 55.6598 56.0149 55.5149C56.1598 55.3701 56.2419 55.1741 56.2437 54.9693C56.2455 54.7644 56.1668 54.5671 56.0244 54.4198L55.4721 53.8674Z" fill="#47072C"/>
<path d="M66.5207 67.1249C66.6681 67.2673 66.8654 67.346 67.0703 67.3442C67.2751 67.3424 67.4711 67.2603 67.6159 67.1154C67.7608 66.9706 67.8429 66.7746 67.8447 66.5698C67.8465 66.3649 67.7677 66.1676 67.6254 66.0203L58.2348 56.6289C58.0882 56.4823 57.8894 56.3999 57.6821 56.3999C57.4748 56.3999 57.2759 56.4823 57.1293 56.6289C56.9827 56.7754 56.9004 56.9743 56.9004 57.1816C56.9004 57.3889 56.9827 57.5877 57.1293 57.7343L66.5207 67.1249Z" fill="#E6582A"/>
<path d="M69.2831 69.8877C69.4304 70.0301 69.6277 70.1088 69.8326 70.107C70.0374 70.1052 70.2334 70.0231 70.3782 69.8782C70.5231 69.7334 70.6052 69.5374 70.607 69.3326C70.6088 69.1277 70.5301 68.9304 70.3877 68.7831L69.8354 68.2299C69.6888 68.0833 69.49 68.001 69.2827 68.001C69.0753 68.001 68.8765 68.0833 68.7299 68.2299C68.5833 68.3765 68.501 68.5753 68.501 68.7827C68.501 68.99 68.5833 69.1888 68.7299 69.3354L69.2831 69.8877Z" fill="#47072C"/>
</svg>
