<svg width="32" height="32" viewBox="0 0 32 32" fill="none" xmlns="http://www.w3.org/2000/svg">
<g clip-path="url(#clip0_2270_56767)">
<path d="M29.8619 24.9238L25.9539 19.3425C27.3897 17.3377 28.2359 14.8833 28.2359 12.2347C28.2359 5.48847 22.7471 0 16.0005 0C13.243 0 10.6402 0.895305 8.47334 2.58915C8.37538 2.66573 8.31185 2.77808 8.29672 2.90149C8.2816 3.02491 8.31612 3.14928 8.3927 3.24724C8.46927 3.3452 8.58163 3.40873 8.70504 3.42385C8.82846 3.43897 8.95283 3.40445 9.05079 3.32787C11.0511 1.76417 13.4543 0.937623 16.0005 0.937623C22.2301 0.937623 27.2982 6.00547 27.2982 12.2347C27.2982 18.4642 22.2301 23.5324 16.0005 23.5324C9.77094 23.5324 4.70278 18.4642 4.70278 12.2347C4.70278 9.4833 5.70366 6.83227 7.52109 4.76987C7.60274 4.67652 7.64407 4.55461 7.63603 4.43084C7.62799 4.30708 7.57123 4.19154 7.47818 4.10953C7.38514 4.02752 7.26339 3.98573 7.13959 3.9933C7.01579 4.00087 6.90004 4.05719 6.81768 4.14992C3.11263 8.35447 2.69002 14.6548 6.04721 19.3425L2.13919 24.9237C1.48436 25.8588 2.1587 27.1531 3.3161 27.1366L7.19436 27.0672C7.39538 27.0647 7.57934 27.1904 7.6456 27.3835L8.90689 31.0505C9.27982 32.1374 10.7301 32.3414 11.389 31.4005L15.1276 26.0603C15.1989 25.9585 15.2268 25.8325 15.2052 25.71C15.1836 25.5876 15.1142 25.4788 15.0124 25.4074C14.962 25.3721 14.9051 25.3471 14.845 25.3337C14.7849 25.3204 14.7227 25.319 14.6621 25.3297C14.6014 25.3404 14.5435 25.3629 14.4916 25.396C14.4397 25.4291 14.3948 25.4721 14.3595 25.5226L10.6209 30.8627C10.401 31.1766 9.91852 31.1099 9.79363 30.746L8.53234 27.0789C8.43789 26.8017 8.25893 26.561 8.02062 26.3907C7.78231 26.2204 7.49663 26.1291 7.20373 26.1295C7.18373 26.1295 7.38969 26.126 3.29928 26.1992C2.9243 26.2095 2.68383 25.7806 2.90723 25.4616L6.65003 20.1163C8.84751 22.7193 12.1091 24.3955 15.7575 24.467L20.6122 31.4005C21.2722 32.3431 22.7222 32.1351 23.0942 31.0509L24.3557 27.3833C24.4219 27.1904 24.6026 27.0611 24.8072 27.0672L28.6852 27.1366C29.8451 27.1518 30.5157 25.8574 29.8619 24.9238ZM28.7018 26.1991L24.824 26.1297C24.1912 26.121 23.662 26.5155 23.4688 27.0786L22.2073 30.7463C22.0827 31.1093 21.6002 31.177 21.3801 30.8627L16.8817 24.4381C20.2712 24.1957 23.2826 22.5666 25.3511 20.1163L29.0938 25.4616C29.3125 25.7738 29.0885 26.205 28.7018 26.1991Z" fill="#E6582A"/>
<path d="M16 21.6465C21.1894 21.6465 25.4112 17.4247 25.4112 12.2353C25.4112 7.04596 21.1893 2.82422 16 2.82422C10.8107 2.82422 6.58887 7.04602 6.58887 12.2354C6.58887 17.4248 10.8107 21.6465 16 21.6465ZM16 3.76184C20.6723 3.76184 24.4736 7.56309 24.4736 12.2354C24.4736 16.9077 20.6723 20.7089 16 20.7089C11.3277 20.7089 7.52649 16.9077 7.52649 12.2354C7.52649 7.56309 11.3277 3.76184 16 3.76184Z" fill="#E6582A"/>
<path d="M10.0581 11.9733L12.1173 13.4698C12.1975 13.5279 12.2573 13.6099 12.2879 13.7041C12.3185 13.7983 12.3184 13.8998 12.2876 13.9939L11.5012 16.4148C11.0798 17.7116 12.5636 18.7872 13.6654 17.9872L15.7243 16.4908C15.8044 16.4324 15.9009 16.4009 16 16.4009C16.0991 16.4009 16.1957 16.4323 16.2758 16.4907L18.335 17.9872C19.4364 18.7872 20.9204 17.7116 20.499 16.4148L19.7126 13.9938C19.6818 13.8996 19.6817 13.7982 19.7123 13.704C19.743 13.6098 19.8028 13.5278 19.8831 13.4698L21.942 11.9734C23.0458 11.1719 22.4768 9.42943 21.1152 9.42943H20.5557C20.2968 9.42943 20.0869 9.63927 20.0869 9.89824C20.0869 10.1572 20.2968 10.3671 20.5557 10.3671H21.1152C21.4316 10.3671 21.5368 10.615 21.5615 10.691C21.5862 10.7669 21.6467 11.0291 21.3909 11.2149L19.332 12.7112C19.0912 12.8854 18.9119 13.1315 18.82 13.4141C18.7282 13.6967 18.7285 14.0012 18.8209 14.2836L19.6073 16.7046C19.705 17.0052 19.5018 17.1818 19.4371 17.2287C19.3724 17.2757 19.1417 17.4144 18.8861 17.2287L16.8269 15.7322C16.5867 15.5571 16.2972 15.4628 16 15.4628C15.7029 15.4629 15.4133 15.5572 15.1732 15.7323L13.1143 17.2286C12.8584 17.4144 12.6277 17.2756 12.563 17.2287C12.4985 17.1818 12.2953 17.0052 12.393 16.7046L13.1792 14.2837C13.2717 14.0013 13.272 13.6968 13.1802 13.4142C13.0884 13.1315 12.9091 12.8854 12.6684 12.7112L10.6092 11.2147C10.3535 11.029 10.4141 10.7669 10.4388 10.691C10.4634 10.615 10.5686 10.367 10.8851 10.367H13.4304C13.7275 10.3674 14.0171 10.2735 14.2574 10.0988C14.4977 9.92406 14.6764 9.67756 14.7676 9.3948L15.554 6.97449C15.6517 6.67388 15.9202 6.65051 16.0001 6.65051C16.0801 6.65051 16.3486 6.67388 16.4462 6.97449L17.2326 9.39505C17.3865 9.8678 17.7831 10.2273 18.2675 10.3336C18.389 10.3602 18.5161 10.3375 18.6208 10.2705C18.7255 10.2034 18.7993 10.0975 18.8259 9.97603C18.8525 9.85457 18.8298 9.72751 18.7627 9.6228C18.6957 9.51809 18.5898 9.4443 18.4683 9.41768C18.3888 9.39992 18.3152 9.36175 18.2549 9.30694C18.1946 9.25213 18.1496 9.18256 18.1243 9.10508L17.338 6.68476C16.9174 5.38997 15.0836 5.3879 14.6622 6.68476L13.8759 9.10495C13.8455 9.19922 13.7861 9.28142 13.706 9.33971C13.6259 9.398 13.5294 9.42937 13.4304 9.42931H10.8851C9.52108 9.42943 8.95638 11.1733 10.0581 11.9733Z" fill="#E6582A"/>
</g>
<defs>
<clipPath id="clip0_2270_56767">
<rect width="32" height="32" fill="white"/>
</clipPath>
</defs>
</svg>
