<svg width="101" height="100" viewBox="0 0 101 100" fill="none" xmlns="http://www.w3.org/2000/svg">
<rect x="0.5" width="100" height="100" rx="6" fill="#F9FAFB"/>
<g clip-path="url(#clip0_2403_50946)">
<path d="M71.0462 33.6339C64.1668 31.7489 57.247 28.8139 51.0348 25.1461C50.7048 24.9513 50.2954 24.9513 49.9655 25.1461C43.5741 28.9193 37.0282 31.6955 29.9535 33.6339C29.4965 33.759 29.1797 34.1744 29.1797 34.6483V45.395C29.1797 56.4617 34.285 63.7871 38.568 67.9834C43.179 72.5015 48.5501 75 50.5002 75C52.4501 75 57.8211 72.5015 62.4321 67.9834C66.715 63.7872 71.82 56.4618 71.82 45.395V34.6482C71.82 34.1744 71.5032 33.759 71.0462 33.6339ZM69.7165 45.3949C69.7165 55.7311 64.9547 62.5666 60.9598 66.4808C56.4255 70.9237 51.5776 72.8963 50.5002 72.8963C49.4227 72.8963 44.5745 70.9237 40.0401 66.4808C36.0453 62.5665 31.2833 55.7311 31.2833 45.3949V35.4467C38.0487 33.5258 44.3493 30.845 50.5003 27.2705C56.4978 30.7502 63.1127 33.5643 69.7165 35.4463V45.3949Z" fill="#47072C"/>
<path d="M41.1778 35.3292C40.9649 34.7887 40.3543 34.5231 39.8137 34.7361C37.9348 35.4764 36.0062 36.1579 34.0817 36.7616C33.6432 36.8993 33.3447 37.3055 33.3447 37.7651V41.8267C33.3447 42.4076 33.8157 42.8785 34.3965 42.8785C34.9772 42.8785 35.4482 42.4076 35.4482 41.8267V38.5338C37.1747 37.9752 38.8993 37.3573 40.5848 36.6931C41.1253 36.4804 41.3908 35.8697 41.1778 35.3292Z" fill="#47072C"/>
<path d="M43.1753 35.5285C43.3164 35.5285 43.4596 35.5001 43.597 35.4401L43.6164 35.4317C44.1485 35.1985 44.3881 34.5791 44.1549 34.0472C43.9215 33.5151 43.2986 33.2743 42.7671 33.5073L42.7501 33.5147C42.2176 33.7472 41.9772 34.3661 42.2097 34.8983C42.3823 35.2935 42.7695 35.5285 43.1753 35.5285Z" fill="#47072C"/>
<path d="M63.0314 58.9145C62.5453 58.5969 61.8936 58.7335 61.5755 59.2197C60.7088 60.5463 59.692 61.8166 58.553 62.995C57.6162 63.9639 56.6012 64.8671 55.5361 65.6791C55.0742 66.0312 54.9854 66.6912 55.3374 67.1532C55.5446 67.4246 55.8577 67.5674 56.1745 67.5674C56.397 67.5674 56.6211 67.4971 56.8115 67.3518C57.9605 66.4758 59.0552 65.5018 60.0652 64.4571C61.2967 63.1833 62.3973 61.8083 63.3365 60.3703C63.6544 59.884 63.5176 59.2322 63.0314 58.9145Z" fill="#47072C"/>
<path d="M53.0932 67.3283L53.0329 67.3639C52.5302 67.655 52.3584 68.2983 52.6495 68.801C52.8445 69.1379 53.1975 69.326 53.5607 69.326C53.7394 69.326 53.9208 69.2804 54.0866 69.1842L54.1562 69.1433C54.6575 68.8497 54.8258 68.2055 54.5323 67.7042C54.2385 67.2031 53.5942 67.0351 53.0932 67.3283Z" fill="#47072C"/>
<path d="M43.3308 47.8535C42.685 47.2076 41.8261 46.8521 40.9127 46.8521C39.9992 46.8521 39.1402 47.2077 38.4941 47.8535C37.1608 49.1871 37.1608 51.357 38.4941 52.6905L44.7046 58.9008C45.3505 59.5465 46.2094 59.9021 47.123 59.9021C48.0366 59.9021 48.8955 59.5465 49.5415 58.9006L62.5064 45.9356C63.8396 44.6017 63.8396 42.4321 62.5062 41.099C61.8603 40.4531 61.0014 40.0977 60.0877 40.0977C59.1742 40.0977 58.3153 40.4532 57.6693 41.099L47.1229 51.6454L43.3308 47.8535ZM59.1568 42.5865C59.4053 42.338 59.7361 42.2012 60.0878 42.2012C60.4398 42.2012 60.7702 42.338 61.019 42.5865C61.5322 43.0997 61.5322 43.9351 61.0188 44.4484L48.0541 57.4132C47.8055 57.6618 47.4748 57.7986 47.123 57.7986C46.7712 57.7986 46.4405 57.6618 46.1919 57.4132L39.9815 51.2031C39.4681 50.6897 39.4681 49.8544 39.9813 49.3412C40.2299 49.0927 40.5607 48.9556 40.9126 48.9556C41.2644 48.9556 41.595 49.0925 41.8435 49.341L46.3792 53.8767C46.5765 54.0739 46.8439 54.1847 47.1229 54.1847C47.4019 54.1847 47.6693 54.074 47.8665 53.8767L59.1568 42.5865Z" fill="#E6582A"/>
</g>
<defs>
<clipPath id="clip0_2403_50946">
<rect width="50" height="50" fill="white" transform="translate(25.5 25)"/>
</clipPath>
</defs>
</svg>
