<svg width="26" height="30" viewBox="0 0 26 30" fill="none" xmlns="http://www.w3.org/2000/svg">
<path d="M22.1016 16.2544L24.7776 20.0771C24.9022 20.2545 24.9658 20.4677 24.9585 20.6844C24.9513 20.9011 24.8738 21.1096 24.7376 21.2784C22.5829 23.9504 19.8869 25.8464 16.6349 26.9504C16.4301 27.0198 16.2082 27.0209 16.0027 26.9536C15.7972 26.8863 15.619 26.7542 15.4949 26.5771L12.8176 22.7544C12.6972 22.5825 12.6339 22.377 12.6368 22.1671C12.6397 21.9573 12.7085 21.7536 12.8336 21.585C14.9202 18.7744 17.6456 16.8757 20.9949 15.8704C21.1963 15.8099 21.4117 15.8144 21.6103 15.8834C21.809 15.9523 21.9809 16.0821 22.1016 16.2544ZM20.8882 18.0077C18.533 18.8226 16.4522 20.2791 14.8802 22.2131L16.6922 24.8011C19.0052 23.9053 21.0664 22.4618 22.6989 20.5944L20.8882 18.0077Z" fill="#E6582A"/>
<path d="M20.0173 16.7642C19.9369 16.657 19.8788 16.5347 19.8465 16.4045C19.8143 16.2744 19.8086 16.1391 19.8297 16.0067C19.8508 15.8742 19.8983 15.7474 19.9694 15.6338C20.0405 15.5201 20.1337 15.4219 20.2436 15.345C20.3534 15.268 20.4776 15.214 20.6087 15.186C20.7398 15.1581 20.8752 15.1568 21.0069 15.1822C21.1385 15.2077 21.2637 15.2593 21.375 15.3341C21.4863 15.4089 21.5814 15.5053 21.6547 15.6176L25.224 20.7149C25.2993 20.8225 25.3527 20.9439 25.381 21.0721C25.4094 21.2003 25.4123 21.3329 25.3894 21.4622C25.3666 21.5915 25.3185 21.7151 25.2479 21.8258C25.1773 21.9365 25.0856 22.0323 24.978 22.1076C24.8704 22.1829 24.749 22.2362 24.6208 22.2646C24.4926 22.293 24.36 22.2958 24.2307 22.273C24.1014 22.2502 23.9778 22.2021 23.8671 22.1315C23.7564 22.0609 23.6606 21.9692 23.5853 21.8616L20.0173 16.7642ZM12.372 22.1176C12.2915 22.0103 12.2335 21.888 12.2012 21.7578C12.169 21.6277 12.1632 21.4924 12.1843 21.36C12.2054 21.2276 12.253 21.1008 12.3241 20.9871C12.3952 20.8734 12.4884 20.7752 12.5982 20.6983C12.7081 20.6214 12.8322 20.5673 12.9634 20.5394C13.0945 20.5114 13.2299 20.5101 13.3616 20.5356C13.4932 20.561 13.6184 20.6126 13.7297 20.6874C13.841 20.7622 13.9361 20.8586 14.0093 20.9709L17.5787 26.0682C17.7307 26.2855 17.7902 26.5543 17.7441 26.8155C17.698 27.0767 17.55 27.3088 17.3327 27.4609C17.1154 27.613 16.8466 27.6725 16.5854 27.6263C16.3242 27.5802 16.0921 27.4322 15.94 27.2149L12.372 22.1176ZM19.992 24.8656C19.8399 24.6483 19.7804 24.3795 19.8266 24.1183C19.8727 23.8571 20.0207 23.625 20.238 23.4729C20.4553 23.3208 20.7241 23.2613 20.9853 23.3075C21.2465 23.3536 21.4786 23.5016 21.6307 23.7189L24.46 27.7602C24.5405 27.8675 24.5986 27.9898 24.6308 28.12C24.663 28.2501 24.6688 28.3854 24.6477 28.5178C24.6266 28.6502 24.579 28.777 24.5079 28.8907C24.4368 29.0044 24.3436 29.1026 24.2338 29.1795C24.124 29.2564 23.9998 29.3105 23.8686 29.3384C23.7375 29.3664 23.6021 29.3677 23.4705 29.3423C23.3388 29.3168 23.2136 29.2652 23.1023 29.1904C22.9911 29.1156 22.8959 29.0192 22.8227 28.9069L19.992 24.8656Z" fill="#E6582A"/>
<path d="M24.2147 13.666C24.2147 13.9312 24.1094 14.1856 23.9218 14.3731C23.7343 14.5607 23.4799 14.666 23.2147 14.666C22.9495 14.666 22.6952 14.5607 22.5076 14.3731C22.3201 14.1856 22.2147 13.9312 22.2147 13.666V9.43668C22.2145 8.99509 22.0389 8.57165 21.7267 8.25935L16.6214 3.15402C16.3091 2.8418 15.8857 2.66629 15.4441 2.66602H4.26139C3.8198 2.66742 3.39669 2.84347 3.08444 3.15572C2.77218 3.46798 2.59613 3.89109 2.59473 4.33268V25.666C2.59543 26.1078 2.77125 26.5313 3.08366 26.8437C3.39607 27.1562 3.81958 27.332 4.26139 27.3327H12.4054C12.6706 27.3327 12.925 27.438 13.1125 27.6256C13.3 27.8131 13.4054 28.0675 13.4054 28.3327C13.4054 28.5979 13.3 28.8523 13.1125 29.0398C12.925 29.2273 12.6706 29.3327 12.4054 29.3327H4.26139C3.28915 29.332 2.35693 28.9454 1.66945 28.258C0.981968 27.5705 0.595433 26.6383 0.594727 25.666V4.33268C0.595433 3.36044 0.981968 2.42822 1.66945 1.74074C2.35693 1.05326 3.28915 0.666722 4.26139 0.666016H15.4441C16.4161 0.666016 17.3481 1.05268 18.0361 1.73935L23.1414 6.84468C23.8281 7.53268 24.2147 8.46468 24.2147 9.43668V13.666Z" fill="#E6582A"/>
<path d="M15.5484 2.33203C15.5484 2.06681 15.6537 1.81246 15.8413 1.62492C16.0288 1.43739 16.2832 1.33203 16.5484 1.33203C16.8136 1.33203 17.068 1.43739 17.2555 1.62492C17.443 1.81246 17.5484 2.06681 17.5484 2.33203V6.9987C17.5484 7.1827 17.6977 7.33203 17.8817 7.33203H22.5484C22.8136 7.33203 23.068 7.43739 23.2555 7.62492C23.443 7.81246 23.5484 8.06681 23.5484 8.33203C23.5484 8.59725 23.443 8.8516 23.2555 9.03914C23.068 9.22667 22.8136 9.33203 22.5484 9.33203H17.8817C17.5753 9.33203 17.2719 9.27168 16.9888 9.15442C16.7057 9.03716 16.4485 8.86528 16.2318 8.64861C16.0151 8.43194 15.8433 8.17472 15.726 7.89163C15.6087 7.60853 15.5484 7.30512 15.5484 6.9987V2.33203ZM6.26172 9.33203C5.9965 9.33203 5.74215 9.22667 5.55461 9.03914C5.36708 8.8516 5.26172 8.59725 5.26172 8.33203C5.26172 8.06681 5.36708 7.81246 5.55461 7.62492C5.74215 7.43739 5.9965 7.33203 6.26172 7.33203H10.2617C10.5269 7.33203 10.7813 7.43739 10.9688 7.62492C11.1564 7.81246 11.2617 8.06681 11.2617 8.33203C11.2617 8.59725 11.1564 8.8516 10.9688 9.03914C10.7813 9.22667 10.5269 9.33203 10.2617 9.33203H6.26172ZM6.26172 17.332C5.9965 17.332 5.74215 17.2267 5.55461 17.0391C5.36708 16.8516 5.26172 16.5972 5.26172 16.332C5.26172 16.0668 5.36708 15.8125 5.55461 15.6249C5.74215 15.4374 5.9965 15.332 6.26172 15.332H10.2617C10.5269 15.332 10.7813 15.4374 10.9688 15.6249C11.1564 15.8125 11.2617 16.0668 11.2617 16.332C11.2617 16.5972 11.1564 16.8516 10.9688 17.0391C10.7813 17.2267 10.5269 17.332 10.2617 17.332H6.26172ZM6.26172 13.332C5.9965 13.332 5.74215 13.2267 5.55461 13.0391C5.36708 12.8516 5.26172 12.5972 5.26172 12.332C5.26172 12.0668 5.36708 11.8125 5.55461 11.6249C5.74215 11.4374 5.9965 11.332 6.26172 11.332H14.2617C14.5269 11.332 14.7813 11.4374 14.9688 11.6249C15.1564 11.8125 15.2617 12.0668 15.2617 12.332C15.2617 12.5972 15.1564 12.8516 14.9688 13.0391C14.7813 13.2267 14.5269 13.332 14.2617 13.332H6.26172Z" fill="#E6582A"/>
</svg>
