<svg width="101" height="100" viewBox="0 0 101 100" fill="none" xmlns="http://www.w3.org/2000/svg">
<rect x="0.5" width="100" height="100" rx="6" fill="#F9FAFB"/>
<g clip-path="url(#clip0_2403_50969)">
<path d="M39.0413 64.5833H34.8747C34.2997 64.5833 33.833 64.1167 33.833 63.5417C33.833 62.9667 34.2997 62.5 34.8747 62.5H39.0413C39.6163 62.5 40.083 62.9667 40.083 63.5417C40.083 64.1167 39.6163 64.5833 39.0413 64.5833Z" fill="#47072C"/>
<path d="M72.896 64.5835H70.2918C69.7168 64.5835 69.2502 64.1168 69.2502 63.5418C69.2502 62.9668 69.7168 62.5002 70.2918 62.5002H72.0314L73.4356 55.0168C73.4168 51.1877 70.146 47.9168 66.1252 47.9168H59.2856L55.971 62.5002H61.9585C62.5335 62.5002 63.0002 62.9668 63.0002 63.5418C63.0002 64.1168 62.5335 64.5835 61.9585 64.5835H54.6668C54.3502 64.5835 54.0502 64.4397 53.8522 64.1918C53.6543 63.946 53.5793 63.621 53.6502 63.3127L57.4377 46.646C57.546 46.1689 57.9668 45.8335 58.4543 45.8335H66.1252C71.2939 45.8335 75.5002 50.0397 75.5002 55.2085L73.9189 63.7335C73.8272 64.2272 73.3981 64.5835 72.896 64.5835Z" fill="#47072C"/>
<path d="M66.1253 68.7502C63.2545 68.7502 60.917 66.4147 60.917 63.5418C60.917 60.6689 63.2545 58.3335 66.1253 58.3335C68.9962 58.3335 71.3337 60.6689 71.3337 63.5418C71.3337 66.4147 68.9962 68.7502 66.1253 68.7502ZM66.1253 60.4168C64.4024 60.4168 63.0003 61.8189 63.0003 63.5418C63.0003 65.2647 64.4024 66.6668 66.1253 66.6668C67.8482 66.6668 69.2503 65.2647 69.2503 63.5418C69.2503 61.8189 67.8482 60.4168 66.1253 60.4168Z" fill="#47072C"/>
<path d="M43.2083 68.7502C40.3375 68.7502 38 66.4147 38 63.5418C38 60.6689 40.3375 58.3335 43.2083 58.3335C46.0792 58.3335 48.4167 60.6689 48.4167 63.5418C48.4167 66.4147 46.0792 68.7502 43.2083 68.7502ZM43.2083 60.4168C41.4854 60.4168 40.0833 61.8189 40.0833 63.5418C40.0833 65.2647 41.4854 66.6668 43.2083 66.6668C44.9313 66.6668 46.3333 65.2647 46.3333 63.5418C46.3333 61.8189 44.9313 60.4168 43.2083 60.4168Z" fill="#47072C"/>
<path d="M39.042 45.8333H30.7087C30.1337 45.8333 29.667 45.3667 29.667 44.7917C29.667 44.2167 30.1337 43.75 30.7087 43.75H39.042C39.617 43.75 40.0837 44.2167 40.0837 44.7917C40.0837 45.3667 39.617 45.8333 39.042 45.8333Z" fill="#E6582A"/>
<path d="M39.0413 52.0833H28.6247C28.0497 52.0833 27.583 51.6167 27.583 51.0417C27.583 50.4667 28.0497 50 28.6247 50H39.0413C39.6163 50 40.083 50.4667 40.083 51.0417C40.083 51.6167 39.6163 52.0833 39.0413 52.0833Z" fill="#E6582A"/>
<path d="M39.0417 58.3333H26.5417C25.9667 58.3333 25.5 57.8667 25.5 57.2917C25.5 56.7167 25.9667 56.25 26.5417 56.25H39.0417C39.6167 56.25 40.0833 56.7167 40.0833 57.2917C40.0833 57.8667 39.6167 58.3333 39.0417 58.3333Z" fill="#E6582A"/>
<path d="M54.6663 64.5835H47.3747C46.7997 64.5835 46.333 64.1168 46.333 63.5418C46.333 62.9668 46.7997 62.5002 47.3747 62.5002H53.8351L58.5684 41.6668H34.8747C34.2997 41.6668 33.833 41.2002 33.833 40.6252C33.833 40.0502 34.2997 39.5835 34.8747 39.5835H59.8747C60.1913 39.5835 60.4913 39.7272 60.6893 39.9752C60.8872 40.221 60.9622 40.546 60.8913 40.8543L55.683 63.771C55.5747 64.2481 55.1518 64.5835 54.6663 64.5835Z" fill="#47072C"/>
</g>
<defs>
<clipPath id="clip0_2403_50969">
<rect width="50" height="50" fill="white" transform="translate(25.5 25)"/>
</clipPath>
</defs>
</svg>
