<svg width="101" height="100" viewBox="0 0 101 100" fill="none" xmlns="http://www.w3.org/2000/svg">
<rect x="0.5" width="100" height="100" rx="6" fill="#F9FAFB"/>
<g clip-path="url(#clip0_2403_51069)">
<path d="M67.5396 28.4208C65.8254 27.5642 64.1071 26.805 62.4338 26.1667C61.3232 25.7244 60.1893 25.3433 59.0371 25.025C59.0017 25.021 58.9661 25.019 58.9304 25.0192C58.8986 25.0111 58.8663 25.0047 58.8338 25C58.8138 25 58.7971 25.01 58.7771 25.0117C58.7566 25.0104 58.736 25.0104 58.7154 25.0117C58.6579 25.0167 52.9171 25.8333 50.5004 25.8333C48.0838 25.8333 42.3429 25.0167 42.2854 25.0083C42.2649 25.0071 42.2443 25.0071 42.2238 25.0083C42.2038 25.01 42.1871 25 42.1671 25C42.1346 25.0047 42.1023 25.0111 42.0704 25.0192C42.0348 25.019 41.9992 25.021 41.9638 25.025C40.8124 25.3433 39.6793 25.7244 38.5696 26.1667C36.8938 26.8083 35.1754 27.5675 33.4613 28.4242C28.3738 30.965 27.2863 32.8733 25.7038 42.035C25.5141 43.1311 26.0714 44.2207 27.0713 44.7083C30.0064 45.8719 33.1213 46.5173 36.2771 46.6158C36.1663 52.6442 35.8396 62.9975 34.8713 70.9033C34.718 72.1944 35.5799 73.3874 36.8538 73.6475C41.3491 74.5323 45.9188 74.9852 50.5004 75C55.0818 74.9852 59.6512 74.5323 64.1463 73.6475C65.4205 73.3878 66.2828 72.1947 66.1296 70.9033C65.1613 63 64.8338 52.6442 64.7238 46.6158C67.8778 46.5173 70.9908 45.8728 73.9246 44.7108C74.9278 44.2241 75.4873 43.1319 75.2963 42.0333C73.7146 32.8733 72.6271 30.965 67.5396 28.4208ZM43.1404 32.9625C44.9863 35.7308 50.1446 36.6183 50.3629 36.655C50.4539 36.6706 50.5469 36.6706 50.6379 36.655C50.8563 36.6183 56.0146 35.7308 57.8604 32.9625C58.9101 31.1188 59.5097 29.0533 59.6104 26.9342C60.0363 27.07 60.5854 27.2542 61.2513 27.5008C61.1348 29.7646 60.4464 31.9619 59.2504 33.8875C57.4521 36.58 51.6254 38.1992 50.5004 38.4908C48.4288 37.9708 43.3513 36.2783 41.7563 33.8892C40.5562 31.9639 39.8643 29.7656 39.7454 27.5C40.4121 27.25 40.9604 27.0692 41.3863 26.9333C41.4881 29.0531 42.0892 31.1189 43.1404 32.9625ZM57.9521 26.7958C57.8702 28.6339 57.3642 30.4282 56.4738 32.0383C55.3146 33.7767 51.8904 34.73 50.5004 34.9875C49.1063 34.7325 45.6896 33.7825 44.5271 32.0383C43.6367 30.4282 43.1307 28.6339 43.0488 26.7958C45.5193 27.1552 48.0063 27.3902 50.5004 27.5C52.9946 27.3899 55.4816 27.1546 57.9521 26.795V26.7958ZM63.8196 72.0142C59.4321 72.8777 54.9721 73.3194 50.5004 73.3333C46.0285 73.3191 41.5682 72.8771 37.1804 72.0133C36.7569 71.9315 36.4701 71.5344 36.5254 71.1067C36.5596 70.83 36.5913 70.5475 36.6238 70.2658C41.1929 71.1818 45.8404 71.651 50.5004 71.6667C55.1605 71.651 59.8079 71.1818 64.3771 70.2658C64.4096 70.5475 64.4413 70.83 64.4754 71.1067C64.5308 71.5347 64.2435 71.9319 63.8196 72.0133V72.0142ZM73.2054 43.2083C70.4878 44.2651 67.6106 44.8534 64.6963 44.9483C64.6671 42.9483 64.6671 41.7125 64.6671 41.6667C64.6671 41.2064 64.294 40.8333 63.8338 40.8333C63.3735 40.8333 63.0004 41.2064 63.0004 41.6667C63.0004 41.7192 63.0004 43.315 63.0429 45.8333V45.8392V45.8442C63.1263 51.1775 63.3946 60.6683 64.1963 68.5983C59.6882 69.5148 55.1007 69.9843 50.5004 70C45.9 69.9852 41.3122 69.5165 36.8038 68.6008C37.6054 60.6708 37.8704 51.1842 37.9571 45.8508V45.8458V45.8333C38.0004 43.315 38.0004 41.7192 38.0004 41.6667C38.0004 41.2064 37.6273 40.8333 37.1671 40.8333C36.7069 40.8333 36.3338 41.2064 36.3338 41.6667C36.3338 41.7125 36.3338 42.9483 36.3046 44.9483C33.3887 44.8536 30.51 44.2644 27.7913 43.2058C27.4616 43.0415 27.2801 42.6791 27.3463 42.3167C28.9071 33.2808 29.8888 32.0708 34.2063 29.9167C35.5213 29.2592 36.8313 28.6817 38.1271 28.1525C38.3239 30.5229 39.0919 32.8103 40.3654 34.8192C42.7121 38.3358 49.9996 40.095 50.3088 40.1675C50.4347 40.1986 50.5662 40.1986 50.6921 40.1675C51.0013 40.095 58.2888 38.3342 60.6371 34.8175C61.909 32.8098 62.6764 30.5243 62.8738 28.1558C64.1688 28.6842 65.4796 29.2625 66.7904 29.92C71.1079 32.0783 72.0896 33.2883 73.6496 42.3225C73.7123 42.6833 73.532 43.0427 73.2054 43.2083Z" fill="#47072C"/>
<path d="M59.6667 40.8335H54.6667C53.7462 40.8335 53 41.5797 53 42.5002V44.1668C53 45.0873 53.7462 45.8335 54.6667 45.8335H59.6667C60.5871 45.8335 61.3333 45.0873 61.3333 44.1668V42.5002C61.3333 41.5797 60.5871 40.8335 59.6667 40.8335ZM59.6667 44.1668H54.6667V42.5002H59.6667V44.1668Z" fill="#E6582A"/>
</g>
<defs>
<clipPath id="clip0_2403_51069">
<rect width="50" height="50" fill="white" transform="translate(25.5 25)"/>
</clipPath>
</defs>
</svg>
