<svg width="101" height="100" viewBox="0 0 101 100" fill="none" xmlns="http://www.w3.org/2000/svg">
<rect x="0.5" width="100" height="100" rx="6" fill="#F9FAFB"/>
<path d="M29.6109 74.3933H35.4194C36.4754 74.3933 37.3753 73.5427 37.3753 72.4327C37.3753 71.3543 36.4979 70.4771 35.4194 70.4771H34.7078V68.3445C34.9909 68.4092 35.0024 68.3669 37.4413 68.3794C37.7431 68.3794 38.0177 68.2724 38.239 68.0999C38.4604 68.2724 38.7351 68.3794 39.0368 68.3794H41.481C41.7826 68.3794 42.0572 68.2724 42.2785 68.1C42.4998 68.2724 42.7743 68.3794 43.0761 68.3794H45.5202C46.2403 68.3794 46.8259 67.7936 46.8259 67.0734V66.5491H58.213V67.0734C58.213 67.7936 58.7986 68.3794 59.5187 68.3794H61.9628C62.2646 68.3794 62.5392 68.2724 62.7605 68.0999C62.9818 68.2724 63.2565 68.3794 63.5583 68.3794H66.0024C66.1021 68.3794 66.1983 68.3659 66.2918 68.3445V70.4771H65.5802C64.502 70.4771 63.6243 71.3533 63.6243 72.4327C63.6243 73.5139 64.5018 74.3933 65.5802 74.3933H71.3887C72.4446 74.3933 73.3445 73.5427 73.3445 72.4327C73.3445 71.3543 72.4671 70.4771 71.3887 70.4771H70.6771V27.8018C70.6771 26.5916 69.6944 25.6069 68.482 25.6069C67.2746 25.6069 66.292 26.5916 66.292 27.8018V28.7323H65.2885V27.7062C65.2885 27.4256 65.0611 27.198 64.7803 27.198C64.4994 27.198 64.2721 27.4256 64.2721 27.7062V28.7323H61.2492V27.7062C61.2492 27.4256 61.0219 27.198 60.741 27.198C60.4602 27.198 60.2328 27.4256 60.2328 27.7062V28.7323H44.8065V27.7062C44.8065 27.4256 44.5792 27.198 44.2983 27.198C44.0175 27.198 43.7901 27.4256 43.7901 27.7062V28.7323H40.7668V27.7062C40.7668 27.4256 40.5395 27.198 40.2586 27.198C39.9777 27.198 39.7504 27.4256 39.7504 27.7062V28.7323H36.7275V27.7062C36.7275 27.4256 36.5002 27.198 36.2193 27.198C35.9385 27.198 35.7111 27.4256 35.7111 27.7062V28.7323H34.7078V27.8018C34.7078 26.5916 33.7252 25.6069 32.5128 25.6069C31.3054 25.6069 30.3228 26.5916 30.3228 27.8018V70.4771H29.6111C28.5329 70.4771 27.6553 71.3533 27.6553 72.4327C27.6552 73.5139 28.5325 74.3933 29.6109 74.3933ZM37.4413 67.363H34.9971C34.8348 67.363 34.7077 67.2356 34.7077 67.0734V34.1355C34.7077 33.5425 34.9067 32.9557 35.269 32.4822L35.7112 31.9022V33.1661C35.7112 33.4468 35.9386 33.6743 36.2194 33.6743C36.5003 33.6743 36.7276 33.4468 36.7276 33.1661V31.9027L37.1698 32.4829C37.5316 32.9551 37.7306 33.542 37.7306 34.1355V67.0733C37.7306 67.2356 37.6035 67.363 37.4413 67.363ZM41.481 67.363H39.0368C38.8745 67.363 38.747 67.2356 38.747 67.0734V34.1355C38.747 33.5423 38.9465 32.9554 39.3093 32.4819L39.7505 31.9026V33.166C39.7505 33.4467 39.9778 33.6742 40.2587 33.6742C40.5396 33.6742 40.7669 33.4467 40.7669 33.166V31.9021L41.2096 32.4828C41.5714 32.9556 41.7704 33.5424 41.7704 34.1354V67.0733C41.7703 67.2356 41.6433 67.363 41.481 67.363ZM45.8096 67.0733C45.8096 67.2356 45.6825 67.3629 45.5202 67.3629H43.0761C42.9138 67.3629 42.7867 67.2355 42.7867 67.0733V34.1355C42.7867 33.5425 42.9857 32.9557 43.348 32.4822L43.7902 31.9022V33.1661C43.7902 33.4468 44.0176 33.6743 44.2984 33.6743C44.5793 33.6743 44.8066 33.4468 44.8066 33.1661V31.9027L45.2488 32.4829C45.6106 32.9557 45.8097 33.5425 45.8097 34.1355V66.0409V67.0733H45.8096ZM46.826 65.5327V34.9499H58.2131V65.5327H46.826ZM61.963 67.363H59.5189C59.3565 67.363 59.2295 67.2356 59.2295 67.0734C59.2295 58.8545 59.2295 41.8314 59.2295 34.1355C59.2295 33.5425 59.4285 32.9557 59.7908 32.4822L60.233 31.9022V33.1661C60.233 33.4468 60.4604 33.6743 60.7412 33.6743C61.0221 33.6743 61.2494 33.4468 61.2494 33.1661V31.9027L61.6916 32.4829C62.0534 32.9557 62.2524 33.5425 62.2524 34.1355V67.0733C62.2523 67.2356 62.1253 67.363 61.963 67.363ZM66.0027 67.363H63.5585C63.3962 67.363 63.2687 67.2356 63.2687 67.0734V34.1355C63.2687 33.5423 63.4682 32.9554 63.831 32.4819L64.2722 31.9026V33.166C64.2722 33.4467 64.4995 33.6742 64.7804 33.6742C65.0612 33.6742 65.2886 33.4467 65.2886 33.166V31.9021L65.7313 32.4828C66.0931 32.9556 66.2921 33.5424 66.2921 34.1354V67.0733C66.292 67.2356 66.1649 67.363 66.0027 67.363ZM72.3283 72.4327C72.3283 72.9642 71.902 73.3769 71.3889 73.3769H65.5804C65.0622 73.3769 64.6409 72.9533 64.6409 72.4327C64.6409 71.9186 65.0572 71.4936 65.5804 71.4936C65.6956 71.4936 71.7843 71.4936 71.3889 71.4936C71.9069 71.4935 72.3283 71.9148 72.3283 72.4327ZM68.4871 26.6233C69.1343 26.6233 69.6608 27.1519 69.6608 27.8018V70.4771H67.3085C67.3085 66.8507 67.3085 39.9237 67.3085 34.1355C67.3085 31.9436 67.3085 29.7351 67.3085 27.8018C67.3084 27.1519 67.835 26.6233 68.4871 26.6233ZM66.292 29.7486V31.5423L65.8186 30.9213C65.677 30.7397 65.493 30.6076 65.2886 30.5216V29.7486H66.292ZM64.2722 29.7486V30.5221C64.0673 30.6086 63.8822 30.7418 63.7382 30.9261L63.023 31.865C62.9243 31.9939 62.8415 32.1331 62.7607 32.2733C62.6803 32.1335 62.5978 31.9945 62.4994 31.866L61.7793 30.9211C61.6376 30.7396 61.4536 30.6076 61.2493 30.5217V29.7486H64.2722ZM60.2329 29.7486V30.522C60.0279 30.6085 59.843 30.7417 59.6994 30.9258L58.9833 31.865C58.5278 32.4602 58.2712 33.1885 58.2299 33.9335H46.8092C46.7678 33.1885 46.5113 32.4603 46.0567 31.866L45.3366 30.9211C45.1949 30.7396 45.0109 30.6076 44.8066 30.5217V29.7486H60.2329ZM43.7902 29.7486V30.522C43.5853 30.6085 43.4003 30.7417 43.2567 30.9258L42.5406 31.865C42.442 31.9939 42.3593 32.1331 42.2786 32.2732C42.198 32.1334 42.1155 31.9944 42.0171 31.8658L41.297 30.9214C41.1554 30.7398 40.9714 30.6077 40.767 30.5217V29.7487H43.7902V29.7486ZM39.7505 29.7486V30.5221C39.5456 30.6086 39.3605 30.7418 39.2165 30.9261L38.5014 31.865C38.4027 31.9938 38.3199 32.1331 38.2392 32.2732C38.1587 32.1334 38.0762 31.9945 37.9777 31.866L37.2576 30.9211C37.1159 30.7396 36.9319 30.6076 36.7276 30.5217V29.7486H39.7505ZM35.7112 29.7486V30.522C35.5063 30.6085 35.3213 30.7417 35.1777 30.9258L34.7077 31.5422V29.7486H35.7112ZM31.3391 27.8018C31.3391 27.1519 31.8656 26.6233 32.5178 26.6233C33.1649 26.6233 33.6915 27.1519 33.6915 27.8018V34.1355V70.4771H31.3391V27.8018ZM29.6109 71.4935C29.7262 71.4935 35.8148 71.4935 35.4194 71.4935C35.9376 71.4935 36.3589 71.9148 36.3589 72.4326C36.3589 72.9641 35.9325 73.3768 35.4194 73.3768H29.6109C29.0928 73.3768 28.6715 72.9532 28.6715 72.4326C28.6715 71.9186 29.0879 71.4935 29.6109 71.4935Z" fill="#47072C"/>
<path d="M55.2505 47.3144L49.0698 53.4951C48.8713 53.6936 48.8713 54.0152 49.0698 54.2137C49.169 54.313 49.2991 54.3627 49.4291 54.3627C49.5591 54.3627 49.6891 54.3131 49.7884 54.2137L55.969 48.0331C56.1676 47.8345 56.1676 47.513 55.969 47.3144C55.7706 47.1159 55.449 47.1159 55.2505 47.3144Z" fill="#E6582A"/>
<path d="M49.8139 50.793C49.9439 50.793 50.074 50.7434 50.1732 50.6441L52.941 47.8763C53.1395 47.6778 53.1395 47.3562 52.941 47.1577C52.7425 46.9592 52.4209 46.9592 52.2223 47.1577L49.4546 49.9255C49.256 50.124 49.256 50.4456 49.4546 50.6441C49.5539 50.7434 49.6839 50.793 49.8139 50.793Z" fill="#E6582A"/>
</svg>
