<svg width="32" height="32" viewBox="0 0 32 32" fill="none" xmlns="http://www.w3.org/2000/svg">
<g clip-path="url(#clip0_2270_56778)">
<path d="M31.805 16.4521C31.7065 16.3124 31.5759 16.1983 31.4241 16.1197C31.2723 16.041 31.1038 15.9999 30.9328 16H27.7334V11.7333C27.7327 11.1445 27.2556 10.6673 26.6667 10.6666H25.6V6.4C25.5993 5.81119 25.1221 5.334 24.5333 5.33331H22.9333V3.73331C22.9326 3.1445 22.4555 2.66731 21.8666 2.66663H20.2666V1.06662C20.266 0.477813 19.7888 0.0006875 19.2 0H6.4C5.81119 0.0006875 5.334 0.477812 5.33331 1.06669V10.6667H0.533312C0.501019 10.67 0.469121 10.6764 0.438063 10.6859C0.408718 10.6877 0.379587 10.6921 0.351 10.6989C0.346813 10.7005 0.344187 10.704 0.340062 10.7056C0.302465 10.7227 0.267049 10.7443 0.234563 10.7699C0.209948 10.7838 0.186478 10.7996 0.164375 10.8173C0.141447 10.8429 0.121138 10.8708 0.10375 10.9006C0.0825 10.9264 0.06375 10.9543 0.04775 10.9836C0.038375 11.0114 0.03125 11.0399 0.0265 11.0688C0.0140233 11.107 0.00603233 11.1466 0.0026875 11.1868C0.0025625 11.1914 0 11.1952 0 11.1999V31.4666C0 31.4735 0.0036875 31.4792 0.0039375 31.4862C0.00531935 31.5488 0.0178048 31.6106 0.0408125 31.6689C0.0435625 31.6756 0.048 31.6812 0.051 31.6878C0.06375 31.7179 0.0793125 31.7467 0.097375 31.7739C0.111562 31.7919 0.126937 31.8089 0.143375 31.8249C0.151562 31.8339 0.158562 31.843 0.167312 31.8514C0.210078 31.8921 0.259367 31.9253 0.313125 31.9496C0.32425 31.9547 0.335563 31.9581 0.347125 31.9624C0.406377 31.9861 0.469444 31.9989 0.53325 32H25.9805C26.2005 31.9996 26.415 31.9314 26.5948 31.8047C26.7746 31.6779 26.9109 31.4988 26.9852 31.2917L31.9375 17.4256C31.9951 17.2646 32.0131 17.0921 31.99 16.9227C31.9669 16.7533 31.9035 16.5919 31.805 16.4521ZM25.6 11.7333H26.6667V16H25.6V11.7333ZM24.5333 6.4V16H21.1437C22.7293 14.7233 23.3371 12.5852 22.6602 10.6653C21.9834 8.74544 20.1691 7.46131 18.1334 7.46131C16.0977 7.46131 14.2833 8.74544 13.6065 10.6653C12.9296 12.5852 13.5374 14.7233 15.1231 16H11.7334V6.4H24.5333ZM18.1333 13.8667C18.5581 13.8589 18.9711 14.0063 19.295 14.2812C19.4285 14.3856 19.5371 14.5183 19.6129 14.6699C19.6887 14.8214 19.7299 14.9879 19.7333 15.1573V15.6346C19.2342 15.8751 18.6873 16 18.1333 16C17.5793 16 17.0324 15.8751 16.5333 15.6346V15.1573C16.6284 14.3644 17.3382 13.7917 18.1333 13.8667ZM17.0667 11.7333C17.0667 11.1442 17.5442 10.6666 18.1334 10.6666C18.7225 10.6666 19.2001 11.1442 19.2001 11.7333C19.2001 12.3224 18.7225 12.8 18.1334 12.8C17.5445 12.7993 17.0673 12.3222 17.0667 11.7333ZM19.6518 13.2282C20.4768 12.3926 20.4714 11.0474 19.6398 10.2183C18.8082 9.38925 17.4629 9.38806 16.6299 10.2157C15.7968 11.0433 15.7891 12.3885 16.6126 13.2256C16.3118 13.4033 16.055 13.6467 15.8615 13.9377C15.668 14.2287 15.5429 14.5596 15.4954 14.9058C14.4265 13.8385 14.1061 12.2323 14.6836 10.8365C15.2612 9.44075 16.6229 8.53056 18.1334 8.53069C19.6439 8.53081 21.0056 9.44106 21.5831 10.8369C22.1605 12.2327 21.8399 13.8389 20.7709 14.9061C20.7019 14.3456 20.4222 13.8322 19.9886 13.4703C19.883 13.3807 19.7704 13.2998 19.6518 13.2282ZM21.8667 3.73331V5.33331H11.7333C11.1445 5.334 10.6673 5.81119 10.6666 6.4V16H9.06662V3.73331H21.8667ZM6.4 1.06669H19.2V2.66669H9.06669C8.47787 2.66738 8.00069 3.1445 8 3.73338V16H6.4V1.06669ZM5.33331 11.7333V16.0815L3.01638 16.4678L1.29481 11.7334L5.33331 11.7333ZM1.06669 14.2276L2.01381 16.8323C2.09895 17.0665 2.26339 17.2635 2.47859 17.389C2.6938 17.5146 2.94618 17.5609 3.19194 17.5198L5.05919 17.2086L1.06669 28.3877V14.2276ZM25.9805 30.9333H1.29012L6.24244 17.0666H30.9327L25.9805 30.9333Z" fill="#E6582A"/>
<path d="M11.7329 22.3239V23.4663C11.7339 24.3496 12.4497 25.0654 13.3329 25.0663H20.7996C21.6829 25.0654 22.3987 24.3496 22.3996 23.4663V22.3239C23.4395 22.0572 24.1181 21.058 23.9826 19.9931C23.8471 18.9281 22.9398 18.1307 21.8663 18.133C20.7927 18.1307 19.8855 18.9281 19.75 19.9931C19.6145 21.058 20.2931 22.0572 21.333 22.3239V23.4663C21.3328 23.6077 21.2766 23.7433 21.1766 23.8433C21.0766 23.9432 20.9411 23.9995 20.7997 23.9996H13.3329C13.1915 23.9995 13.0559 23.9433 12.9559 23.8433C12.8559 23.7433 12.7997 23.6077 12.7996 23.4663V22.3239C13.8398 22.0553 14.518 21.0552 14.3826 19.9895C14.2472 18.9238 13.3405 18.125 12.2663 18.125C11.192 18.125 10.2854 18.9238 10.15 19.9895C10.0146 21.0552 10.6928 22.0552 11.7329 22.3239ZM20.836 19.9847C20.8814 19.8153 20.9678 19.6597 21.0878 19.5316C21.2077 19.4036 21.3573 19.3071 21.5234 19.2507C21.6895 19.1943 21.867 19.1797 22.0401 19.2083C22.2132 19.2369 22.3765 19.3077 22.5157 19.4145C22.6549 19.5213 22.7656 19.6607 22.838 19.8205C22.9104 19.9803 22.9422 20.1555 22.9307 20.3305C22.9193 20.5056 22.8648 20.6751 22.7721 20.8241C22.6795 20.973 22.5515 21.0969 22.3996 21.1846V20.7996C22.3996 20.6582 22.3434 20.5225 22.2434 20.4225C22.1434 20.3225 22.0077 20.2663 21.8663 20.2663C21.7248 20.2663 21.5892 20.3225 21.4892 20.4225C21.3892 20.5225 21.333 20.6582 21.333 20.7996V21.1846C21.1296 21.0672 20.9707 20.886 20.8808 20.669C20.791 20.4521 20.7752 20.2116 20.836 19.9847ZM12.0774 19.211C12.3245 19.1665 12.5795 19.2106 12.7973 19.3356C13.015 19.4606 13.1818 19.6584 13.268 19.8942C13.3543 20.1301 13.3547 20.3888 13.269 20.6248C13.1833 20.8608 13.017 21.059 12.7995 21.1846V20.7996C12.7995 20.6582 12.7434 20.5225 12.6433 20.4225C12.5433 20.3225 12.4077 20.2663 12.2662 20.2663C12.1248 20.2663 11.9891 20.3225 11.8891 20.4225C11.7891 20.5225 11.7329 20.6582 11.7329 20.7996V21.1846C11.5713 21.0917 11.437 20.9579 11.3434 20.7968C11.2498 20.6356 11.2002 20.4526 11.1996 20.2662C11.1983 20.0152 11.2857 19.7717 11.4462 19.5787C11.6068 19.3857 11.8303 19.2555 12.0774 19.211Z" fill="#E6582A"/>
</g>
<defs>
<clipPath id="clip0_2270_56778">
<rect width="32" height="32" fill="white"/>
</clipPath>
</defs>
</svg>
