<svg width="26" height="25" viewBox="0 0 26 25" fill="none" xmlns="http://www.w3.org/2000/svg">
<g clip-path="url(#clip0_2351_60087)">
<path d="M13.6189 11.8815C13.428 11.6906 13.1189 11.6906 12.928 11.8815C12.7375 12.0719 12.7375 12.381 12.928 12.5719C13.1189 12.7623 13.428 12.7623 13.6189 12.5719C13.8093 12.381 13.8093 12.0719 13.6189 11.8815Z" fill="#E6582A"/>
<path d="M19.8325 5.66673C18.8784 4.71268 17.3339 4.71263 16.3797 5.66673C15.4281 6.61834 15.4281 8.16716 16.3799 9.11955C17.3318 10.0709 18.8806 10.0713 19.8325 9.11946C20.7865 8.16545 20.7867 6.62088 19.8325 5.66673ZM19.142 8.42888C18.571 8.99988 17.6416 8.99988 17.0704 8.42898C16.4994 7.85759 16.4993 6.9282 17.0703 6.35725C17.6427 5.78484 18.5695 5.78475 19.142 6.35725C19.7144 6.92962 19.7145 7.85642 19.142 8.42888Z" fill="#E6582A"/>
<path d="M25.356 0.143022C25.2601 0.0471727 25.1293 -0.00478036 24.9932 0.000346582C24.8828 0.00430165 22.2542 0.109966 19.1294 1.21441C16.6255 2.09849 14.5385 3.36426 12.9262 4.97656C12.5649 5.33784 12.2134 5.72094 11.877 6.11894C10.2829 5.18056 9.00541 5.4748 8.19785 5.90698C6.33843 6.90209 5.1875 9.60404 5.1875 11.5367C5.18765 11.7341 5.30664 11.9122 5.48906 11.9877C5.54946 12.0128 5.61294 12.0249 5.67583 12.0249C5.80293 12.0249 5.92778 11.9753 6.02119 11.8819C7.0018 10.9013 8.21132 10.9626 8.60644 11.0146L8.77743 11.1856C8.44091 11.9864 8.16982 12.7826 7.97099 13.5571C7.89921 13.8374 7.92343 14.134 8.03012 14.4053C7.56001 14.6219 7.10644 14.94 6.71152 15.3349C5.45464 16.5919 5.19941 19.655 5.18916 19.7848C5.17793 19.9273 5.22959 20.0675 5.33061 20.1685C5.42256 20.2604 5.54692 20.3115 5.67583 20.3115C5.68862 20.3115 5.70146 20.3111 5.71431 20.31C5.84409 20.2998 8.90737 20.0446 10.1642 18.7877C10.559 18.3929 10.8771 17.9394 11.0937 17.4694C11.3809 17.5823 11.6765 17.5963 11.9424 17.5281C12.7165 17.3294 13.5127 17.0584 14.3136 16.7218L14.4846 16.8928C14.5365 17.288 14.5978 18.4975 13.6172 19.478C13.4776 19.6176 13.4358 19.8277 13.5114 20.0101C13.5869 20.1925 13.765 20.3115 13.9625 20.3115C15.8951 20.3115 18.597 19.1606 19.5921 17.3011C20.0243 16.4937 20.3185 15.2162 19.3801 13.6221C19.7779 13.2858 20.1611 12.9343 20.5225 12.5728C22.1348 10.9605 23.4005 8.87348 24.2846 6.36977C25.3891 3.24487 25.4947 0.616166 25.4987 0.505814C25.5036 0.370317 25.4519 0.23892 25.356 0.143022ZM6.2792 10.4864C6.58252 9.01849 7.46352 7.40771 8.65883 6.76796C9.45761 6.34052 10.3307 6.38241 11.259 6.89057C10.4682 7.9307 9.78061 9.05131 9.20751 10.2347C9.20024 10.2302 9.11235 10.1197 8.94906 10.0828C8.88193 10.0677 7.58999 9.78978 6.2792 10.4864ZM9.47372 18.0971C8.80234 18.7685 7.22739 19.1226 6.23193 19.2672C6.37656 18.2717 6.73071 16.6968 7.40205 16.0255C7.77802 15.6495 8.21396 15.3644 8.65214 15.2039L10.2953 16.847C10.1348 17.2852 9.84975 17.7212 9.47372 18.0971ZM11.6998 16.5822C11.5585 16.6183 11.3948 16.5652 11.2731 16.4437C10.6414 15.812 10.3943 15.5649 10.3168 15.4874C10.1746 15.3452 9.82592 14.9966 9.05575 14.2263C8.93398 14.1043 8.88085 13.9407 8.91694 13.7996C9.07333 13.1906 9.27787 12.5657 9.5266 11.9347L13.5644 15.9726C12.9334 16.2214 12.3086 16.4259 11.6998 16.5822ZM18.7312 16.8404C18.0915 18.0356 16.4807 18.9167 15.0129 19.2199C15.4809 18.3392 15.5841 17.2181 15.4131 16.5383C15.3734 16.3803 15.2703 16.301 15.2646 16.2916C16.4478 15.7185 17.5684 15.031 18.6086 14.2401C19.1168 15.1685 19.1586 16.0417 18.7312 16.8404ZM19.8321 11.8823C19.3921 12.3222 18.9183 12.7473 18.4239 13.1456C17.2353 14.1026 15.9271 14.9133 14.5314 15.5586L9.94062 10.9679C10.5859 9.57206 11.3966 8.26386 12.3535 7.07543C12.7521 6.58066 13.1771 6.10683 13.6169 5.66708C15.0635 4.2205 16.9303 3.06924 19.1673 2.24053L23.2587 6.33193C22.43 8.56879 21.2788 10.4357 19.8321 11.8823ZM23.61 5.30209L20.1971 1.88921C22.0565 1.31167 23.6741 1.09541 24.4816 1.01768C24.4038 1.82525 24.1875 3.44287 23.61 5.30209Z" fill="#E6582A"/>
<path d="M12.2359 20.1683C12.0451 19.9777 11.7359 19.9778 11.5453 20.1684L10.1644 21.5498C9.9738 21.7405 9.97385 22.0497 10.1645 22.2403C10.3553 22.4309 10.6645 22.4309 10.8551 22.2402L12.236 20.8589C12.4266 20.6682 12.4265 20.359 12.2359 20.1683Z" fill="#E6582A"/>
<path d="M5.33214 13.2622C5.14151 13.0715 4.83238 13.0715 4.64161 13.2621L3.26027 14.643C3.06954 14.8336 3.06949 15.1428 3.26012 15.3335C3.4507 15.5241 3.75983 15.5243 3.95065 15.3336L5.33199 13.9527C5.52271 13.7621 5.52276 13.4529 5.33214 13.2622Z" fill="#E6582A"/>
<path d="M8.78181 20.8598C8.59123 20.6691 8.28201 20.6691 8.09128 20.8598L4.78367 24.1669C4.59295 24.3576 4.59295 24.6667 4.78362 24.8574C4.9742 25.0481 5.28343 25.0482 5.47415 24.8575L8.78176 21.5503C8.97248 21.3597 8.97248 21.0505 8.78181 20.8598Z" fill="#E6582A"/>
<path d="M4.87556 20.8598C4.68494 20.6691 4.37571 20.6691 4.18503 20.8598L0.877423 24.1669C0.686701 24.3576 0.686701 24.6667 0.877374 24.8574C1.06795 25.0481 1.37718 25.0482 1.5679 24.8575L4.87551 21.5503C5.06623 21.3597 5.06623 21.0505 4.87556 20.8598Z" fill="#E6582A"/>
<path d="M4.64065 16.7152C4.45002 16.5246 4.1408 16.5246 3.95012 16.7153L0.642999 20.0229C0.452326 20.2136 0.452326 20.5227 0.643048 20.7135C0.833721 20.9041 1.1429 20.9041 1.33357 20.7134L4.6407 17.4058C4.83137 17.2151 4.83137 16.906 4.64065 16.7152Z" fill="#E6582A"/>
<path d="M15.692 9.81097C15.5013 9.6203 15.1922 9.6203 15.0014 9.81097L14.311 10.5014C14.1203 10.6921 14.1203 11.0013 14.311 11.192C14.5017 11.3827 14.8108 11.3827 15.0015 11.192L15.692 10.5015C15.8827 10.3109 15.8827 10.0017 15.692 9.81097Z" fill="#E6582A"/>
</g>
<defs>
<clipPath id="clip0_2351_60087">
<rect width="25" height="25" fill="white" transform="translate(0.5)"/>
</clipPath>
</defs>
</svg>
