<svg width="101" height="100" viewBox="0 0 101 100" fill="none" xmlns="http://www.w3.org/2000/svg">
<rect x="0.5" width="100" height="100" rx="6" fill="#F9FAFB"/>
<path d="M42.8029 42.3029L36.2426 48.8633L29.6822 42.3029C28.0033 40.624 26.9648 38.3045 26.9648 35.7425C26.9648 30.6187 31.1187 26.4648 36.2426 26.4648C41.3666 26.4648 45.5203 30.6187 45.5203 35.7425C45.5203 38.3045 44.4818 40.624 42.8029 42.3029Z" stroke="#47072C" stroke-miterlimit="10"/>
<path d="M32.8242 35.743C32.8242 33.8552 34.3546 32.3248 36.2424 32.3248C38.1302 32.3248 39.6605 33.8552 39.6605 35.743C39.6605 37.6308 38.1302 39.1611 36.2424 39.1611C34.3546 39.1611 32.8242 37.6308 32.8242 35.743Z" stroke="#E6582A" stroke-miterlimit="10"/>
<path d="M63.198 68.4453C61.9992 67.2464 61.3389 65.6521 61.3389 63.9564C61.3389 60.4561 64.1866 57.6084 67.6869 57.6084C71.1872 57.6084 74.035 60.4561 74.035 63.9564C74.035 65.6521 73.3746 67.2463 72.1757 68.4453L67.6869 72.9341L63.198 68.4453Z" stroke="#47072C" stroke-miterlimit="10"/>
<path d="M43.9575 48.8633H49.6413C52.0562 48.8633 54.014 50.821 54.014 53.2359C54.014 55.651 52.0562 57.6087 49.6413 57.6087H44.2054C39.8074 57.6087 36.2422 61.1739 36.2422 65.5719V65.572C36.2422 69.9699 39.8074 73.5352 44.2054 73.5352H60.5583" stroke="#47072C" stroke-miterlimit="10"/>
</svg>
