<svg width="101" height="100" viewBox="0 0 101 100" fill="none" xmlns="http://www.w3.org/2000/svg">
<rect x="0.5" width="100" height="100" rx="6" fill="#F9FAFB"/>
<g clip-path="url(#clip0_2403_50996)">
<path d="M35.0363 67.616C35.0203 67.6017 35.0039 67.5881 34.9868 67.5751C34.4771 67.152 33.9674 66.6983 33.4984 66.2294C33.2005 65.9346 32.7208 65.9346 32.4229 66.2294C32.1247 66.5279 32.1247 67.0114 32.4229 67.31C32.9326 67.8197 33.4423 68.2938 34.0132 68.7525C34.3271 69.0351 34.8106 69.0096 35.0931 68.6957C35.3755 68.3818 35.3501 67.8985 35.0363 67.616Z" fill="#47072C"/>
<path d="M27.0343 44.9478C26.6357 44.8085 26.1996 45.0189 26.0603 45.4175C26.0396 45.4766 26.0263 45.5382 26.0207 45.6005C25.8677 46.2988 25.7505 47.0073 25.6638 47.7159C25.6093 48.1303 25.8976 48.5117 26.3112 48.5722H26.4081C26.7951 48.5725 27.1212 48.2836 27.1676 47.8994C27.2491 47.2367 27.3613 46.569 27.504 45.9216C27.6433 45.523 27.4329 45.0869 27.0343 44.9478Z" fill="#E6582A"/>
<path d="M31.2351 63.5634C30.8427 63.0231 30.4705 62.4624 30.129 61.8915C29.9132 61.5285 29.4439 61.4093 29.081 61.6251C29.0804 61.6255 29.0796 61.6259 29.079 61.6264C28.716 61.8423 28.5968 62.3115 28.8126 62.6744C28.813 62.6751 28.8134 62.6758 28.8139 62.6765C29.1809 63.2881 29.5785 63.8896 30.0016 64.4656C30.2624 64.7977 30.7431 64.8553 31.0752 64.5945C31.3911 64.3462 31.4611 63.8957 31.2351 63.5634Z" fill="#47072C"/>
<path d="M28.5688 58.7415C28.3241 58.1247 28.0998 57.4875 27.9112 56.8452C27.7936 56.4397 27.3693 56.2063 26.9639 56.3239C26.9567 56.326 26.9497 56.3281 26.9427 56.3304C26.5414 56.453 26.3139 56.8762 26.433 57.2785C26.6369 57.9616 26.8713 58.6446 27.1364 59.3174C27.2954 59.713 27.745 59.9047 28.1406 59.7456C28.5361 59.5866 28.7278 59.137 28.5688 58.7415Z" fill="#47072C"/>
<path d="M29.0251 39.7055C28.6479 39.5154 28.188 39.6672 27.998 40.0444C27.6768 40.6816 27.3812 41.3391 27.1212 42.0069C26.9679 42.3981 27.1592 42.8398 27.5494 42.9958C27.942 43.1512 28.3864 42.9591 28.5419 42.5665C28.5424 42.5652 28.5429 42.5638 28.5434 42.5625C28.7881 41.9406 29.0531 41.3239 29.3641 40.7326C29.5541 40.3554 29.4023 39.8956 29.0251 39.7055Z" fill="#47072C"/>
<path d="M27.1931 53.4218C27.193 53.4212 27.193 53.4204 27.1928 53.4198C27.1113 52.7572 27.0552 52.0843 27.0297 51.4217C27.0143 50.9993 26.6594 50.6697 26.2371 50.6851C25.8148 50.7005 25.4851 51.0554 25.5005 51.4777C25.5005 52.1914 25.5821 52.9101 25.6738 53.6186C25.7261 53.9892 26.0389 54.2674 26.4129 54.2762H26.5302C26.9492 54.2233 27.246 53.8407 27.1931 53.4218Z" fill="#47072C"/>
<path d="M47.4781 27.915C47.4373 27.4927 47.0619 27.1835 46.6396 27.2243C45.931 27.2957 45.2174 27.3976 44.514 27.5353C44.0917 27.5746 43.7814 27.9489 43.8208 28.3712C43.8601 28.7935 44.2344 29.1038 44.6567 29.0645L44.6516 29.0441H44.7994C45.457 28.9166 46.1247 28.8198 46.7874 28.7535C47.2097 28.7127 47.5189 28.3373 47.4781 27.915Z" fill="#E6582A"/>
<path d="M32.346 35.0794C32.0279 34.7979 31.5418 34.8276 31.2603 35.1456C30.7913 35.6809 30.3428 36.2467 29.9248 36.8278C29.677 37.1697 29.7534 37.6478 30.0954 37.8955C30.2253 37.9896 30.3812 38.0404 30.5415 38.0409V38.0511C30.7876 38.052 31.019 37.9344 31.1634 37.7351C31.5559 37.1948 31.9739 36.6646 32.4123 36.1651C32.6938 35.847 32.6641 35.361 32.346 35.0794Z" fill="#47072C"/>
<path d="M52.516 27.3521C51.8126 27.2451 51.0939 27.1686 50.3802 27.1279C49.9579 27.1025 49.5951 27.4243 49.5698 27.8466C49.5444 28.2689 49.8662 28.6317 50.2885 28.6571C50.9613 28.708 51.6291 28.7794 52.2866 28.8813H52.4039C52.8262 28.9123 53.1936 28.5951 53.2245 28.1728C53.2555 27.7506 52.9383 27.3831 52.516 27.3521Z" fill="#47072C"/>
<path d="M36.6889 31.4364C36.4497 31.1115 35.9993 31.0283 35.6599 31.2463C35.0737 31.649 34.4977 32.0874 33.9472 32.5411C33.6219 32.8114 33.5775 33.2939 33.8478 33.6192C34.118 33.9444 34.6006 33.9888 34.9258 33.7186C35.4356 33.2904 35.9759 32.8826 36.5264 32.5054C36.8665 32.2551 36.9392 31.7765 36.6889 31.4364Z" fill="#E6582A"/>
<path d="M39.2526 30.8179C39.25 30.8179 39.2476 30.8174 39.2451 30.8174C39.2424 30.8174 39.2399 30.8179 39.2373 30.8179H39.2526Z" fill="#47072C"/>
<path d="M41.9491 29.0272C41.8373 28.62 41.4166 28.3805 41.0093 28.4923C40.9735 28.5022 40.9384 28.5147 40.9044 28.5296C40.2367 28.7742 39.5689 29.0393 38.9266 29.3604C38.5437 29.5386 38.3778 29.9934 38.5559 30.3762C38.6808 30.6447 38.9497 30.8162 39.2454 30.8178C39.3557 30.8156 39.4644 30.79 39.5638 30.7418C40.1653 30.4564 40.7872 30.1964 41.4141 29.967C41.8215 29.8551 42.061 29.4343 41.9491 29.0272Z" fill="#47072C"/>
<path d="M51.1936 73.2558C51.1668 72.8335 50.8028 72.5129 50.3805 72.5396C49.7128 72.5906 49.0399 72.6059 48.3722 72.5855C47.9499 72.5743 47.5984 72.9074 47.5872 73.3297C47.576 73.752 47.9091 74.1035 48.3314 74.1147H48.9788C49.4885 74.1147 49.9982 74.1147 50.4774 74.0688C50.8997 74.0422 51.2203 73.6781 51.1936 73.2558Z" fill="#47072C"/>
<path d="M71.2062 55.5428C70.7966 55.4387 70.3801 55.6863 70.276 56.0959C70.1128 56.7432 69.914 57.3855 69.6898 58.0125C69.5568 58.4062 69.7628 58.8342 70.1536 58.9759C70.5511 59.1185 70.9889 58.9118 71.1315 58.5143C71.1318 58.5135 71.1321 58.5128 71.1323 58.512C71.3719 57.8392 71.5809 57.151 71.7593 56.4731C71.8635 56.0635 71.6158 55.6471 71.2062 55.5428Z" fill="#47072C"/>
<path d="M72.1823 46.7878C72.0651 46.0844 71.9172 45.3758 71.7388 44.6877C71.6168 44.2835 71.19 44.0547 70.7858 44.177C70.4026 44.2927 70.1736 44.6844 70.2606 45.0751C70.4288 45.7174 70.5665 46.38 70.6786 47.0376C70.7445 47.3978 71.0566 47.6607 71.4228 47.6645H71.5502C71.9668 47.5969 72.2497 47.2045 72.1823 46.7878Z" fill="#47072C"/>
<path d="M75.4318 38.012C75.3958 37.9339 75.3466 37.8626 75.2864 37.8015L73.9356 36.3946C73.7421 36.2014 73.4578 36.1308 73.1965 36.2111L70.7599 36.9502L67.9054 33.9224L74.3128 30.3543C74.6862 30.1824 74.8494 29.7403 74.6774 29.367C74.6414 29.2889 74.5922 29.2177 74.532 29.1565L72.7326 27.3572C72.5365 27.1687 72.2531 27.1022 71.9935 27.1838L63.8734 29.6408L61.1413 26.7404C60.445 25.9353 59.3114 25.6662 58.3275 26.0726H58.2817C57.5399 26.378 56.9507 26.9671 56.6454 27.7089C56.5684 27.9026 56.5138 28.1043 56.4823 28.3104L56.1714 28.2033C55.7688 28.0738 55.3374 28.2952 55.208 28.6978C55.0785 29.1003 55.2998 29.5317 55.7024 29.6611C56.0949 29.7886 56.4874 29.9313 56.8799 30.0791C56.998 30.2639 57.1365 30.4349 57.2928 30.5889L60.1728 33.321L59.347 36.0481C51.2705 30.287 40.053 32.1639 34.2918 40.2404C28.5307 48.3169 30.4077 59.5343 38.4841 65.2955C46.5606 71.0566 57.7782 69.1796 63.5393 61.1032C68.1335 54.6625 67.9732 45.9745 63.1445 39.7079L64.4494 37.3529L67.4772 40.2074L66.7483 42.6184C66.6605 42.8834 66.7296 43.1752 66.9267 43.3728C66.9267 43.3728 68.4203 44.8511 68.4559 44.902C68.8091 45.1067 69.2613 44.9864 69.4661 44.6333C69.4693 44.6278 69.4725 44.6222 69.4754 44.6166L71.4685 40.9618L75.0672 38.9993C75.4406 38.8273 75.6038 38.3852 75.4318 38.012ZM37.3724 39.0196C40.4455 35.9479 44.6137 34.2242 48.9586 34.2281C49.2985 34.2281 49.6382 34.2383 49.9781 34.2587C52.8683 36.9246 52.017 39.356 50.08 41.5479C48.937 42.7601 47.7107 43.8911 46.41 44.9325C44.5291 46.5331 42.7756 48.0266 42.1129 49.5201C41.3279 51.294 41.9039 52.8996 45.0745 54.3014C46.6597 55.0048 47.5212 55.5502 47.8576 55.9631C47.8626 55.9691 47.8674 55.9733 47.8724 55.977C47.8619 55.9802 47.8514 55.9836 47.8372 55.9886C47.0696 56.281 46.2525 56.4211 45.4313 56.4015C41.5879 56.5646 38.8506 54.1077 36.725 52.2064C35.1958 50.8454 33.9266 49.7138 32.6064 49.7036C32.8246 45.6768 34.5218 41.8722 37.3724 39.0196ZM65.4026 50.6313H65.4077C65.4054 57.7357 60.8384 64.0342 54.0866 66.2445C53.8969 65.0498 54.1179 63.826 54.7135 62.7732C55.5212 61.476 56.5575 60.3363 57.7719 59.4089C62.4768 55.484 62.7418 53.2921 62.9457 51.6049C63.0732 50.5396 63.17 49.7444 65.2752 48.5873C65.3597 49.2654 65.4023 49.948 65.4026 50.6313ZM64.4545 45.116C64.6824 45.7578 64.8696 46.4133 65.0152 47.0785C61.809 48.7096 61.6663 49.8718 61.4726 51.4571C61.2993 52.8843 61.075 54.75 56.8238 58.2977C55.4622 59.3395 54.3045 60.6234 53.4086 62.085C52.6276 63.4656 52.3569 65.0769 52.644 66.6369C43.8015 68.6583 34.9947 63.1287 32.9734 54.2864C32.7422 53.2751 32.6074 52.2441 32.5707 51.2073C33.3812 51.2073 34.4312 52.1707 35.7209 53.3176C38.0554 55.4024 41.0425 58.0632 45.4924 57.9052C46.541 57.9233 47.582 57.7255 48.5508 57.3241C48.9593 57.1435 49.2684 56.7935 49.397 56.3658C49.5056 55.8888 49.3678 55.3892 49.03 55.0354C48.5508 54.4492 47.5008 53.756 45.6963 52.9506C43.5402 51.9974 43.0712 51.0697 43.4943 50.1216C44.004 48.9288 45.6454 47.5729 47.3887 46.0437C48.7471 44.9459 50.0263 43.7536 51.2168 42.4756C53.3474 40.0493 54.4434 37.4037 52.277 34.5085C54.6846 35.0006 56.9499 36.0305 58.9035 37.521L57.7311 41.3899C57.6446 41.6549 57.7134 41.9461 57.9096 42.1443C57.9096 42.1443 59.8109 44.0303 59.872 44.066C60.2251 44.2706 60.6774 44.1503 60.8822 43.7972C60.8854 43.7917 60.8884 43.7861 60.8915 43.7805L62.3748 41.0993C63.2504 42.3357 63.9503 43.6875 64.4545 45.116ZM71.2901 39.4223L70.6325 39.7485C70.4853 39.8215 70.3668 39.9417 70.2961 40.09L69.9698 40.7527L68.7006 43.0465L68.3285 42.6387L69.0676 40.1971C69.1538 39.911 69.0592 39.6013 68.828 39.4121L64.8062 35.6248C64.5151 35.3387 64.0471 35.3429 63.761 35.6341C63.7542 35.6411 63.7475 35.6481 63.7409 35.6554C63.6899 35.7114 60.0708 42.2309 60.0708 42.2309L59.2807 41.4408L61.7478 33.3106C61.8363 33.023 61.7415 32.7105 61.5083 32.5205L58.3071 29.508C57.9529 29.2079 57.8351 28.712 58.0166 28.2846C58.1792 27.9143 58.4761 27.6193 58.8475 27.4588H58.8729C59.2951 27.2959 59.7742 27.4187 60.0657 27.7647L63.1241 30.9964C63.3162 31.2026 63.6088 31.2817 63.8785 31.2003L72.0343 28.7383L72.8244 29.5284L66.3507 33.0863C65.9924 33.2818 65.8604 33.7309 66.056 34.0891C66.059 34.0947 66.0621 34.1002 66.0653 34.1058C66.0959 34.1618 69.9953 38.3111 69.9953 38.3111C70.1885 38.5155 70.481 38.5926 70.7497 38.5099L73.2016 37.7708L73.5839 38.1531L71.2901 39.4223Z" fill="#47072C"/>
<path d="M69.3201 60.9164C69.3091 60.9099 69.2977 60.9036 69.2862 60.8977C68.9209 60.7067 68.4699 60.8397 68.2668 61.1984C67.9456 61.7846 67.5939 62.3606 67.2167 62.9112C66.9732 63.2574 67.0565 63.7355 67.4028 63.979C67.749 64.2226 68.2271 64.1392 68.4707 63.793C68.8683 63.2017 69.2455 62.5849 69.5921 61.963C69.806 61.5988 69.6842 61.1303 69.3201 60.9164Z" fill="#47072C"/>
<path d="M71.7389 49.7545C71.3167 49.7487 70.9697 50.0863 70.9638 50.5085C70.9637 50.5188 70.9637 50.5291 70.9641 50.5395V50.6261C70.9641 51.2939 70.9335 51.9667 70.8723 52.6345C70.8341 53.055 71.1439 53.427 71.5644 53.4652C71.5648 53.4652 71.5652 53.4653 71.5656 53.4653H71.6369C72.0403 53.4691 72.3771 53.159 72.4066 52.7568C72.4729 52.0483 72.5035 51.3295 72.5035 50.6159V50.514C72.5007 50.0937 72.1592 49.7545 71.7389 49.7545Z" fill="#47072C"/>
<path d="M44.8909 72.2035C44.2283 72.0913 43.5707 71.9486 42.9336 71.7549C42.5352 71.6149 42.0988 71.8242 41.9586 72.2226C41.8184 72.621 42.0279 73.0574 42.4263 73.1976C42.4554 73.2079 42.4854 73.2163 42.5156 73.2231C43.1986 73.4168 43.9021 73.585 44.6055 73.7328H44.7482C45.1705 73.7722 45.5448 73.4619 45.5842 73.0396C45.6236 72.6173 45.3133 72.243 44.8909 72.2035Z" fill="#47072C"/>
<path d="M56.7213 71.9712C56.583 71.5958 56.1787 71.3904 55.794 71.5002V71.5206C55.1619 71.7296 54.5094 71.908 53.8621 72.0304C53.4497 72.1232 53.1906 72.5329 53.2835 72.9453C53.3764 73.3577 53.7861 73.6168 54.1985 73.5239C54.8917 73.3659 55.5901 73.1722 56.268 72.953C56.6643 72.8069 56.8672 72.3674 56.7213 71.9712Z" fill="#47072C"/>
<path d="M39.6458 70.5366C39.0392 70.2359 38.4428 69.9097 37.8668 69.5834C37.5022 69.3695 37.0332 69.4916 36.8193 69.8561C36.6053 70.2207 36.7274 70.6897 37.092 70.9036C37.7088 71.2656 38.3459 71.602 38.9933 71.9231C39.3761 72.1033 39.8326 71.9389 40.0128 71.5561C40.1929 71.1733 40.0287 70.7168 39.6458 70.5366Z" fill="#47072C"/>
<path d="M66.0716 65.6179C65.7653 65.3382 65.2916 65.3538 65.0044 65.6532H65.0095C64.5507 66.163 64.0665 66.6115 63.572 67.055C63.2567 67.3365 63.2293 67.8204 63.5108 68.1356C63.7923 68.4509 64.2762 68.4783 64.5915 68.1968C65.1012 67.7227 65.6415 67.2181 66.1207 66.6982C66.4055 66.3862 66.3834 65.9026 66.0716 65.6179Z" fill="#47072C"/>
<path d="M61.8538 69.4319C61.6372 69.0695 61.1677 68.9514 60.8052 69.168C60.7929 69.1753 60.781 69.1829 60.7692 69.1909V69.1705C60.2085 69.5274 59.6223 69.8638 59.0311 70.19C58.6553 70.3828 58.5069 70.8439 58.6997 71.2197C58.8925 71.5955 59.3536 71.7438 59.7294 71.551C60.3615 71.2248 60.9884 70.8629 61.5899 70.4806C61.9523 70.2638 62.0706 69.7943 61.8538 69.4319Z" fill="#47072C"/>
</g>
<defs>
<clipPath id="clip0_2403_50996">
<rect width="50" height="50" fill="white" transform="translate(25.5 25)"/>
</clipPath>
</defs>
</svg>
