<svg width="24" height="24" viewBox="0 0 24 24" fill="none" xmlns="http://www.w3.org/2000/svg">
<g clip-path="url(#clip0_2424_25672)">
<path d="M22.875 13.875C22.9745 13.875 23.0698 13.8355 23.1402 13.7652C23.2105 13.6948 23.25 13.5995 23.25 13.5V10.5C23.25 10.4005 23.2105 10.3052 23.1402 10.2348C23.0698 10.1645 22.9745 10.125 22.875 10.125H20.8001C20.5722 9.04954 20.148 8.02531 19.5487 7.10363L21.0142 5.63475C21.0844 5.56444 21.1239 5.46916 21.1239 5.36981C21.1239 5.27047 21.0844 5.17518 21.0142 5.10488L18.8955 2.98612C18.8252 2.91594 18.7299 2.87652 18.6306 2.87652C18.5312 2.87652 18.4359 2.91594 18.3656 2.98612L16.8964 4.45125C15.9747 3.85202 14.9505 3.42781 13.875 3.19987V1.125C13.875 1.02554 13.8355 0.930161 13.7652 0.859835C13.6948 0.789509 13.5995 0.75 13.5 0.75H10.5C10.4005 0.75 10.3052 0.789509 10.2348 0.859835C10.1645 0.930161 10.125 1.02554 10.125 1.125V3.19987C9.04954 3.42781 8.02531 3.85202 7.10363 4.45125L5.63475 2.98575C5.56444 2.91556 5.46916 2.87614 5.36981 2.87614C5.27047 2.87614 5.17518 2.91556 5.10488 2.98575L2.98612 5.1045C2.91594 5.17481 2.87652 5.27009 2.87652 5.36944C2.87652 5.46878 2.91594 5.56407 2.98612 5.63437L4.45163 7.10325C3.85223 8.02502 3.42788 9.04939 3.19987 10.125H1.125C1.02554 10.125 0.930161 10.1645 0.859835 10.2348C0.789509 10.3052 0.75 10.4005 0.75 10.5V13.5C0.75 13.5995 0.789509 13.6948 0.859835 13.7652C0.930161 13.8355 1.02554 13.875 1.125 13.875H3.19987C3.42781 14.9505 3.85202 15.9747 4.45125 16.8964L2.98575 18.3652C2.91556 18.4356 2.87614 18.5308 2.87614 18.6302C2.87614 18.7295 2.91556 18.8248 2.98575 18.8951L5.1045 21.0139C5.17481 21.0841 5.27009 21.1235 5.36944 21.1235C5.46878 21.1235 5.56407 21.0841 5.63437 21.0139L7.10325 19.5484C8.02502 20.1478 9.04939 20.5721 10.125 20.8001V22.875C10.125 22.9745 10.1645 23.0698 10.2348 23.1402C10.3052 23.2105 10.4005 23.25 10.5 23.25H13.5C13.5995 23.25 13.6948 23.2105 13.7652 23.1402C13.8355 23.0698 13.875 22.9745 13.875 22.875V20.8001C14.9501 20.5713 15.974 20.1465 16.8953 19.5469L19.9549 22.6065C20.307 22.9556 20.7831 23.151 21.279 23.1499C21.7748 23.1488 22.2501 22.9513 22.6007 22.6007C22.9513 22.2501 23.1488 21.7748 23.1499 21.279C23.151 20.7831 22.9556 20.307 22.6065 19.9549L19.5469 16.8953C20.1465 15.974 20.5713 14.9501 20.8001 13.875H22.875ZM22.0763 22.0763C21.9718 22.1807 21.8478 22.2636 21.7113 22.3202C21.5747 22.3767 21.4284 22.4058 21.2807 22.4058C21.1329 22.4058 20.9866 22.3767 20.8501 22.3202C20.7136 22.2636 20.5896 22.1807 20.4851 22.0763L13.3046 14.8961C13.1302 14.7219 12.9231 14.584 12.6951 14.4903C12.4671 14.3966 12.2229 14.349 11.9764 14.3501C11.8982 14.3501 11.82 14.3547 11.7424 14.364C11.2559 14.4224 10.7624 14.3607 10.3053 14.1842C9.84818 14.0077 9.4413 13.7218 9.12029 13.3516C8.79928 12.9814 8.57393 12.5381 8.46399 12.0605C8.35404 11.583 8.36284 11.0858 8.48962 10.6125L10.1437 12.267C10.2141 12.3373 10.3094 12.3769 10.4089 12.3769H12C12.0995 12.3769 12.1948 12.3374 12.2652 12.267C12.3355 12.1967 12.375 12.1013 12.375 12.0019V10.4089C12.375 10.3094 12.3355 10.2141 12.2651 10.1437L10.6125 8.48962C11.0857 8.36314 11.5828 8.35456 12.0601 8.46465C12.5374 8.57473 12.9804 8.80012 13.3505 9.12109C13.7205 9.44206 14.0063 9.84883 14.1827 10.3058C14.3591 10.7628 14.4208 11.256 14.3625 11.7424C14.3263 12.0261 14.3555 12.3144 14.4477 12.5851C14.5399 12.8559 14.6928 13.102 14.8946 13.3046L22.0763 20.4851C22.1807 20.5896 22.2636 20.7136 22.3202 20.8501C22.3767 20.9866 22.4058 21.1329 22.4058 21.2807C22.4058 21.4284 22.3767 21.5747 22.3202 21.7113C22.2636 21.8478 22.1807 21.9718 22.0763 22.0763ZM15.4264 12.7762C15.3051 12.6537 15.2134 12.5049 15.1584 12.3415C15.1034 12.178 15.0866 12.0041 15.1091 11.8331C15.1895 11.1666 15.0893 10.4907 14.819 9.87608C14.5488 9.26149 14.1183 8.73081 13.5728 8.3395C13.0272 7.9482 12.3865 7.71065 11.7177 7.6517C11.049 7.59274 10.3766 7.71455 9.771 8.00437C9.71696 8.03032 9.66992 8.06884 9.63383 8.1167C9.59775 8.16457 9.57366 8.2204 9.5636 8.27949C9.55353 8.33859 9.55778 8.39924 9.57599 8.45635C9.5942 8.51347 9.62584 8.56538 9.66825 8.60775L11.625 10.5641V11.625H10.5641L8.60775 9.66825C8.56538 9.62584 8.51347 9.5942 8.45635 9.57599C8.39924 9.55778 8.33859 9.55353 8.27949 9.5636C8.2204 9.57366 8.16457 9.59775 8.1167 9.63383C8.06884 9.66992 8.03032 9.71696 8.00437 9.771C7.71464 10.3764 7.59284 11.0486 7.65171 11.7172C7.71058 12.3858 7.94797 13.0263 8.33905 13.5718C8.73012 14.1172 9.26054 14.5477 9.87487 14.818C10.4892 15.0884 11.1649 15.1888 11.8312 15.1088C12.0023 15.0863 12.1762 15.1032 12.3396 15.1583C12.5031 15.2133 12.6518 15.305 12.7744 15.4264L14.7034 17.355C13.429 17.9988 11.967 18.1673 10.5796 17.8304C9.19215 17.4936 7.97021 16.6733 7.13301 15.5167C6.29581 14.3602 5.89815 12.9432 6.0114 11.52C6.12465 10.0968 6.74138 8.7605 7.75094 7.75094C8.7605 6.74138 10.0968 6.12465 11.52 6.0114C12.9432 5.89815 14.3602 6.29581 15.5167 7.13301C16.6733 7.97021 17.4936 9.19215 17.8304 10.5796C18.1673 11.967 17.9988 13.429 17.355 14.7034L15.4264 12.7762ZM20.1206 13.4385C19.9398 14.4735 19.5611 15.464 19.0054 16.3556L17.9089 15.2591C18.6956 13.8335 18.9411 12.1718 18.6003 10.5796C18.2595 8.9874 17.3553 7.57178 16.054 6.59309C14.7527 5.6144 13.1418 5.13847 11.5175 5.25282C9.8933 5.36716 8.36495 6.06411 7.21359 7.21547C6.06223 8.36682 5.36529 9.89517 5.25094 11.5194C5.13659 13.1437 5.61253 14.7546 6.59122 16.0559C7.5699 17.3572 8.98553 18.2614 10.5777 18.6022C12.1699 18.943 13.8316 18.6975 15.2572 17.9108L16.3538 19.0072C15.4621 19.563 14.4716 19.9417 13.4366 20.1225C13.3498 20.1374 13.271 20.1824 13.214 20.2496C13.157 20.3168 13.1255 20.4019 13.125 20.49V22.5H10.875V20.49C10.8749 20.4016 10.8436 20.316 10.7866 20.2484C10.7296 20.1808 10.6505 20.1356 10.5634 20.1206C9.38042 19.9136 8.25766 19.4483 7.275 18.7579C7.20278 18.7071 7.11498 18.6835 7.02704 18.6911C6.9391 18.6987 6.85667 18.7371 6.79425 18.7995L5.37225 20.2189L3.783 18.6296L5.20237 17.2076C5.26478 17.1452 5.30317 17.0628 5.31079 16.9748C5.3184 16.8869 5.29475 16.7991 5.244 16.7269C4.55336 15.7437 4.08806 14.6202 3.88125 13.4366C3.86625 13.3492 3.82072 13.2698 3.75274 13.2128C3.68476 13.1557 3.59875 13.1246 3.51 13.125H1.5V10.875H3.51C3.59843 10.8749 3.68399 10.8436 3.75158 10.7866C3.81917 10.7296 3.86443 10.6505 3.87937 10.5634C4.08645 9.38042 4.55174 8.25766 5.24213 7.275C5.29287 7.20278 5.31652 7.11498 5.30891 7.02704C5.3013 6.9391 5.26291 6.85667 5.2005 6.79425L3.78113 5.37225L5.37038 3.783L6.79238 5.20237C6.8548 5.26478 6.93723 5.30317 7.02517 5.31079C7.1131 5.3184 7.20091 5.29475 7.27313 5.244C8.25634 4.55336 9.37977 4.08806 10.5634 3.88125C10.6508 3.86625 10.7302 3.82072 10.7872 3.75274C10.8443 3.68476 10.8754 3.59875 10.875 3.51V1.5H13.125V3.51C13.1251 3.59843 13.1564 3.68399 13.2134 3.75158C13.2704 3.81917 13.3495 3.86443 13.4366 3.87937C14.6202 4.08618 15.7437 4.55148 16.7269 5.24213C16.7991 5.29287 16.8869 5.31652 16.9748 5.30891C17.0628 5.3013 17.1452 5.26291 17.2076 5.2005L18.6296 3.78113L20.2189 5.37038L18.7995 6.79238C18.7371 6.8548 18.6987 6.93723 18.6911 7.02517C18.6835 7.1131 18.7071 7.20091 18.7579 7.27313C19.4485 8.25634 19.9138 9.37977 20.1206 10.5634C20.1356 10.6505 20.1808 10.7296 20.2484 10.7866C20.316 10.8436 20.4016 10.8749 20.49 10.875H22.5V13.125H20.49C20.4016 13.1251 20.316 13.1564 20.2484 13.2134C20.1808 13.2704 20.1356 13.3495 20.1206 13.4366V13.4385Z" fill="#47072C"/>
<path d="M14.3869 13.8567C14.3523 13.8209 14.3109 13.7923 14.2652 13.7726C14.2194 13.753 14.1702 13.7426 14.1204 13.7422C14.0707 13.7418 14.0213 13.7513 13.9752 13.7701C13.9291 13.789 13.8872 13.8168 13.852 13.852C13.8168 13.8872 13.789 13.9291 13.7701 13.9752C13.7513 14.0213 13.7418 14.0707 13.7422 14.1204C13.7426 14.1702 13.753 14.2194 13.7726 14.2652C13.7923 14.3109 13.8209 14.3523 13.8567 14.3869L14.1218 14.652C14.1925 14.7204 14.2872 14.7582 14.3856 14.7573C14.4839 14.7564 14.5779 14.717 14.6475 14.6475C14.717 14.5779 14.7564 14.4839 14.7573 14.3856C14.7582 14.2872 14.7204 14.1925 14.652 14.1218L14.3869 13.8567Z" fill="#47072C"/>
<path d="M19.69 20.2203C19.7608 20.2886 19.8555 20.3264 19.9538 20.3255C20.0521 20.3247 20.1462 20.2852 20.2157 20.2157C20.2852 20.1462 20.3247 20.0521 20.3255 19.9538C20.3264 19.8555 20.2886 19.7608 20.2203 19.69L15.7128 15.1822C15.6424 15.1118 15.547 15.0723 15.4475 15.0723C15.348 15.0723 15.2525 15.1118 15.1822 15.1822C15.1118 15.2525 15.0723 15.348 15.0723 15.4475C15.0723 15.547 15.1118 15.6424 15.1822 15.7128L19.69 20.2203Z" fill="#E6582A"/>
<path d="M21.016 21.5463C21.0867 21.6146 21.1815 21.6524 21.2798 21.6515C21.3781 21.6507 21.4722 21.6112 21.5417 21.5417C21.6112 21.4722 21.6507 21.3781 21.6515 21.2798C21.6524 21.1815 21.6146 21.0867 21.5463 21.016L21.2811 20.7505C21.2108 20.6802 21.1153 20.6406 21.0158 20.6406C20.9163 20.6406 20.8209 20.6802 20.7505 20.7505C20.6802 20.8209 20.6406 20.9163 20.6406 21.0158C20.6406 21.1153 20.6802 21.2108 20.7505 21.2811L21.016 21.5463Z" fill="#47072C"/>
</g>
<defs>
<clipPath id="clip0_2424_25672">
<rect width="24" height="24" fill="white"/>
</clipPath>
</defs>
</svg>
